<svg id="Layer_1" data-name="Layer 1" xmlns="http://www.w3.org/2000/svg" xmlns:xlink="http://www.w3.org/1999/xlink" width="92.6371" height="105.1817" viewBox="0 0 92.6371 105.1817"><defs><style>.cls-1{fill:url(#linear-gradient);}.cls-2,.cls-3{fill:#bd1622;}.cls-2{fill-rule:evenodd;}</style><linearGradient id="linear-gradient" x1="2.9885" y1="52.8659" x2="86.8074" y2="52.8659" gradientUnits="userSpaceOnUse"><stop offset="0" stop-color="#e2d6d6"/><stop offset="1" stop-color="#f1f1f1"/></linearGradient></defs><polygon class="cls-1" points="2.988 28.669 2.988 77.062 44.898 101.259 86.807 77.062 86.807 28.669 44.898 4.473 2.988 28.669"/><path class="cls-2" d="M49.1982,68.2783a.8319.8319,0,0,1-.9277-.6834l1.1719-.667a.1522.1522,0,0,0,.0607-.2212l-.3389-.5862a.1393.1393,0,0,0-.21-.0663l-1.6634.9578-.07.0459a.2091.2091,0,0,0-.0583.18l-.0012.4195A1.8867,1.8867,0,0,0,49.1982,69.22c.9161,0,2.0364-.4621,2.0364-1.6275V65.6618a1.85,1.85,0,0,0-2.0364-1.6913c-.9695,0-2.0364.5561-2.0364,1.5428,0,.1405.0073.1452.1532.1452l.8115-.0031c.0475,0,.0693-.09.08-.1273l.0269-.0871a.938.938,0,0,1,.9647-.528.8849.8849,0,0,1,.9367.9213V67.412a.8432.8432,0,0,1-.9367.8663"/><path class="cls-2" d="M39.8262,64.0652c-.1063,0-.15.0206-.15.16v1.8526H37.7649V64.2253c0-.1415-.0377-.16-.1519-.16h-.7777c-.119,0-.1609.0222-.1609.16v4.7179c0,.1379.0431.1607.1609.1607h.7777c.1142,0,.1519-.0184.1519-.1607v-1.852h1.9112v1.852c0,.14.0438.1607.15.1607h.7794c.1094,0,.16-.0242.16-.1607V64.2253c0-.1357-.0492-.16-.16-.16Zm-4.7635,0c-.1179,0-.16.0222-.16.16v2.9941l-1.8067-2.9172-.0693-.1066a.2391.2391,0,0,0-.2236-.13h-.7411c-.1252,0-.1506.0474-.1506.16v4.7179c0,.14.0443.1607.1506.1607h.7776c.1118,0,.1616-.0242.1616-.1607V65.9494l1.8054,2.9173.0706.1069a.2382.2382,0,0,0,.2236.13h.712c.1366,0,.1616-.05.1616-.1607V64.2253c0-.1357-.0487-.16-.1616-.16Zm-6.6978,3.2013a1.625,1.625,0,0,0,1.1391-1.5343,1.6522,1.6522,0,0,0-.4375-1.1833,1.87,1.87,0,0,0-1.5138-.4837h-1.989c-.124,0-.1507.0474-.1507.16v4.7179c0,.14.045.1607.1507.1607h.7788c.1063,0,.1506-.0206.1506-.1607V65.0215h1.1252a.7494.7494,0,0,1,.8056.7488.784.784,0,0,1-.825.71H27.44c-.1277,0-.1507.0418-.1507.1506v.637c0,.218.0133.2876.07.3587l.8553,1.2672a.3457.3457,0,0,0,.3317.21h.9283c.0668,0,.1094-.062.0608-.1381Zm-9.2937-3.2013c-.2047,0-.212.1-.2922.2348l-1.1524,2.0522-1.1428-2.0531c-.0923-.1661-.1287-.2339-.3013-.2339h-.7788c-.1251,0-.1506.0474-.1506.16v4.7179c0,.14.0437.1607.1506.1607h.7788c.1106,0,.16-.0242.16-.1607V66.2851l.1385-.037.7843,1.3708c.042.0537.0869.1272.1634.1272h.3944a.1731.1731,0,0,0,.1317-.081l.9647-1.6562v2.9343c0,.14.045.1607.1513.1607H19.83c.1069,0,.1512-.0206.1512-.1607V64.2253c0-.1127-.0261-.16-.1512-.16Zm11.9723,0h-.7406c-.16,0-.1756.0426-.1816.0656l-.0159.0909v4.7215l.006.0732.0341.0575.1.03h.7984l.0728-.0066.0528-.0307.0256-.062V64.1461c-.025-.0553-.056-.0809-.1512-.0809m-5.95,4.9215L23.3548,64.26c-.0681-.1428-.1239-.1948-.2588-.1948h-.7594c-.1288,0-.192.0541-.25.1966L20.333,68.98c-.0339.0835-.0195.1242.0717.1242H21.23c.1325,0,.1739-.0228.23-.1844l.2333-.6767H23.73l.2424.6762c.0578.1634.0893.1849.23.1849h.825c.0876,0,.1052-.0382.0657-.1172M22.7205,65.25l.695,2.0354H22.0268Zm51.4342-.22c.1288,0,.1507-.0413.1507-.1507v-.6546c0-.1127-.0261-.16-.1507-.16h-3.16c-.1263,0-.1518.0474-.1518.16v4.7179c0,.1137.0266.1607.1518.1607h3.2915c.1245,0,.1513-.047.1513-.1607v-.6455c0-.1089-.0225-.1506-.1513-.1506H71.9421V66.96h1.94c.1288,0,.1507-.0419.1507-.1506v-.6175c0-.1091-.0219-.1507-.1507-.1507h-1.94v-1.01h2.2126ZM45.8763,68.9867,44.1383,64.26c-.0687-.1428-.1234-.1948-.2594-.1948h-.76c-.1287,0-.1907.0541-.249.1966L41.1159,68.98c-.0328.0835-.0183.1242.0717.1242h.8256c.133,0,.1731-.0228.23-.1844l.232-.6767h2.0377l.243.6762c.0571.1634.0886.1849.23.1849h.8256c.0881,0,.1046-.0382.0644-.1172M43.5046,65.25l.6938,2.0354H42.81Zm22.8909-1.185c-.136,0-.16.049-.16.16v4.7179c0,.111.0243.1607.16.1607h1.7636a1.8569,1.8569,0,0,0,2.0456-1.6958V65.77a1.8631,1.8631,0,0,0-2.0456-1.7051Zm1.7636,4.0916h-.8328V65.0127h.8328a.854.854,0,0,1,.9557.86v1.4237a.8489.8489,0,0,1-.9557.86m-3.5762-4.0916c-.1119,0-.1618.0244-.1618.16v2.9941l-1.8054-2.9169-.07-.1069a.2379.2379,0,0,0-.2236-.13h-.7411c-.124,0-.1508.0474-.1508.16v4.7179c0,.14.0451.1607.1508.1607h.7873c.1069,0,.1518-.0206.1518-.1607V65.9494l1.8067,2.9173.0694.1069a.24.24,0,0,0,.2235.13h.7223c.1253,0,.1513-.047.1513-.1607V64.2253c0-.1395-.0438-.16-.1513-.16Zm-3.4994,4.9215L59.3454,64.26c-.0686-.1428-.1233-.1948-.2587-.1948h-.76c-.1287,0-.1908.0541-.249.1966L56.323,68.98c-.0327.0835-.0194.1242.0712.1242H57.22c.1318,0,.1731-.0228.23-.1844l.2321-.6767h2.0381l.2425.6762c.0571.1634.0892.1849.23.1849h.8262c.0875,0,.1045-.0382.0644-.1172M58.7106,65.25l.6956,2.0354H58.0168Zm-3.8413,2.0163a1.6258,1.6258,0,0,0,1.1391-1.5343,1.6547,1.6547,0,0,0-.4375-1.1833,1.8674,1.8674,0,0,0-1.5139-.4837H52.0681c-.124,0-.1507.0474-.1507.16v4.7179c0,.14.0449.1607.1507.1607h.7787c.107,0,.1521-.0206.1521-.1607V65.0215h1.1237a.75.75,0,0,1,.8056.7488.7832.7832,0,0,1-.825.71h-.1591c-.1276,0-.1507.0418-.1507.1506v.637c0,.218.0133.2876.07.3587L54.72,68.894a.3447.3447,0,0,0,.3312.21h.9283c.0667,0,.1081-.062.0606-.1381Z"/><path class="cls-3" d="M74.021,51.3779l-9.38-26.511s-1.7016-3.6269-5.1192-3.9758-5.8169,2.8594-5.8169,2.8594l-8.86,14.663-8.86-14.663s-2.3994-3.2082-5.817-2.8594-5.1192,3.9758-5.1192,3.9758l-9.38,26.511s-2.0712,6.7724,3.0273,9.36,9.4645-2.002,9.4645-2.002l5.2517-6.0612,6.368,4.8751a10.073,10.073,0,0,0,2.0109,1.0029,7.0039,7.0039,0,0,0,3.0306.615c.0075,0,.0152,0,.0228,0s.0153,0,.0228,0a7.0039,7.0039,0,0,0,3.0306-.615A10.073,10.073,0,0,0,49.9094,57.55l6.368-4.8751,5.2517,6.0612s4.3659,4.59,9.4646,2.002,3.0273-9.36,3.0273-9.36m-4.8327,6.6638c-4.4159,2.241-8.1973-1.7339-8.1973-1.7339l-4.5486-5.25L50.927,55.28s-4.5066,3.129-8.3787.042-.93-8.4693-.93-8.4693L54.2143,26.0066s2.0781-2.7786,5.0381-2.4764,4.4338,3.4434,4.4338,3.4434L71.81,49.9351s1.7939,5.8657-2.622,8.1066"/><path class="cls-3" d="M58.74,73.0179a.0229.0229,0,0,0-.0226-.02h-.7954V72.62a.0227.0227,0,1,0-.0454,0v.3776H57.1a.0227.0227,0,0,0-.0225.02L56.2731,79.12a.0229.0229,0,0,0,.02.0256l.0029,0a.023.023,0,0,0,.0227-.02l.8016-6.0826h.7563v.3981a.0228.0228,0,0,0,.0227.0228h.6022l.0037.5154H57.5038a.0228.0228,0,0,0-.0228.0228v.5951a.0228.0228,0,0,0,.0228.0228H57.89v.5142h-.7462a.0227.0227,0,0,0-.0228.0228v.5892a.0228.0228,0,0,0,.0228.0228h1.2317v.5169H57.53a.0229.0229,0,0,0-.0228.0228v.573a.0229.0229,0,0,0,.0228.0228h1.3312v.5068h-1.91a.0227.0227,0,0,0-.0228.0228v1.6876a.0227.0227,0,0,0,.0228.0228h.488a.0227.0227,0,0,0,.0227-.0218c.0317-.694.4648-1.1235.7612-1.1257.3014-.0022.7493.4253.7951,1.1271a.0226.0226,0,0,0,.0227.0214h.472a.0229.0229,0,0,0,.0226-.0257ZM59.0621,79.1c-.0514-.66-.48-1.1486-.8362-1.1486h-.0031c-.3517.0029-.7668.4926-.8053,1.1476h-.4436V77.4573h1.91a.0227.0227,0,0,0,.0228-.0227v-.5524a.0228.0228,0,0,0-.0228-.0228H57.5531V76.332h.8457a.0228.0228,0,0,0,.0228-.0228v-.5625a.0228.0228,0,0,0-.0228-.0229H57.167V75.18h.7462a.0228.0228,0,0,0,.0228-.0228v-.56a.0229.0229,0,0,0-.0228-.0229h-.3866v-.5494h1.0012a.0224.0224,0,0,0,.0161-.0067.0233.0233,0,0,0,.0067-.0163l-.004-.561a.0228.0228,0,0,0-.0228-.0226h-.6021v-.3753h.7753l.79,6.0569Z"/><path class="cls-3" d="M28.0041,72.6006a.0229.0229,0,0,0-.0187-.0049l-2.4462.46v-.4371a.0228.0228,0,0,0-.0228-.0228H23.6788a.0228.0228,0,0,0-.0227.0228v1.2066l-.63.0022a.0228.0228,0,1,0,0,.0456h.6245l-.6027,5.2009h-.4343a.0228.0228,0,1,0,0,.0456h.4544a.0228.0228,0,0,0,.0227-.02l.6056-5.2262h.5461v5.2236a.0229.0229,0,0,0,.0228.0229h1.847a.0229.0229,0,0,0,.0226-.0255l-.61-5.2662v-.39l2.4614.4272a.0224.0224,0,0,0,.0185-.005.0228.0228,0,0,0,.0081-.0174V72.6182a.023.023,0,0,0-.0082-.0176m-.0373,1.2146-2.4614-.4272a.0211.0211,0,0,0-.0186.005.0228.0228,0,0,0-.0081.0174l0,.42.6077,5.2434H24.288V78.472l.6033-.0144a.0228.0228,0,0,0,.0223-.0228v-.566a.0228.0228,0,0,0-.0228-.0228H24.288v-.58h.6176a.0228.0228,0,0,0,.0229-.0228v-.5793a.0227.0227,0,0,0-.0229-.0227H24.288v-.5825l.6325.0008h0a.0228.0228,0,0,0,.0161-.0067.0231.0231,0,0,0,.0066-.0161v-.5809a.0228.0228,0,0,0-.0227-.0228H24.288V73.85a.0228.0228,0,0,0-.0228-.0227h-.5636V72.641h1.792v.4417a.0228.0228,0,0,0,.027.0225l2.4462-.46ZM24.288,78.4264v-.5348h.58v.5209Zm0-1.74h.5949V77.22H24.288Zm0-.6736v-.5345h.61v.5353Z"/><path class="cls-3" d="M16.9268,79.1192c-.1813,0-.2994-.1932-.4243-.3975-.1214-.1984-.2468-.4035-.4311-.42-.2268-.0212-.4891.25-.7753.8053a.0228.0228,0,1,1-.04-.0208c.3-.5814.5673-.8523.82-.83.2071.0189.3387.2339.4658.4419.119.1947.2311.3782.3893.3756.1656-.003.284-.2129.3986-.4158.1169-.2073.2379-.4218.4177-.4218h.0019c.1811.0015.3.2182.4152.4277.11.2.2241.4077.3826.41.1556.0048.2709-.1934.3833-.3827.121-.204.2463-.415.4339-.415h0c.1865,0,.31.2094.43.4117.1125.19.2287.386.3867.386h0c.1553,0,.2621-.1846.375-.38.1192-.2058.2425-.4185.4405-.4379.2413-.0227.5041.2477.8.83a.0227.0227,0,1,1-.04.0207c-.2828-.5558-.5368-.827-.7553-.8053-.1748.0171-.2921.2195-.4055.4153-.12.2067-.2329.4019-.4144.4025H20.181c-.1839,0-.3069-.2078-.4258-.4085-.1134-.1914-.23-.3892-.3911-.3893h0c-.1616,0-.28.2-.3947.3927-.1183.1991-.2406.4051-.42.4051h-.0032c-.1851-.0026-.3055-.2218-.422-.4336-.1088-.1981-.2213-.4028-.3757-.4041H17.747c-.1532,0-.2624.1936-.378.3986-.1208.2141-.2458.4355-.4375.4391h-.0047"/><path class="cls-3" d="M17.8129,77.8857c-.1641,0-.2836-.1932-.41-.3973-.1346-.2178-.2738-.4429-.4739-.461-.2392-.0214-.5133.2629-.8153.8454a.0229.0229,0,0,1-.0406-.0211c.3158-.6089.5973-.8929.86-.87.2228.02.3682.2551.5087.4823.1232.1991.24.3866.3848.3752.14-.0115.2289-.2044.3149-.3908.0934-.2024.19-.4118.3631-.4268s.2956.1672.4263.36c.126.1857.2563.3778.4277.3778h.005c.1612-.0035.2674-.1736.38-.3536.1169-.1873.2378-.3811.4357-.4041.2551-.029.5367.2348.86.8091a.0227.0227,0,1,1-.04.0223c-.309-.5487-.5838-.814-.8151-.7862-.1761.0206-.2912.2048-.4024.383-.1138.1824-.2316.371-.4174.375-.1963.0044-.3374-.2-.4714-.3977-.1231-.1815-.2392-.3529-.3847-.34s-.2375.21-.3256.4006c-.0915.1983-.1861.4034-.3525.417l-.0175.0008"/><path class="cls-3" d="M20.2017,76.6305a.0229.0229,0,0,1-.02-.0117c-.3071-.5481-.5817-.8134-.8151-.7862-.1823.02-.303.2134-.42.4-.1216.1944-.2367.3781-.4189.3781h-.0015c-.18-.001-.2926-.18-.4115-.37-.1135-.1809-.2308-.3679-.4087-.3882-.2252-.0259-.486.2189-.7753.7266a.0228.0228,0,0,1-.04-.0226c.2992-.5252.5754-.7773.82-.7493.2.0228.3229.2193.4421.4092.1121.1788.218.3477.3731.3485h.0012c.1572,0,.2656-.1732.38-.3566.1225-.1956.2491-.398.4533-.421.2578-.0291.5386.2357.86.8092a.023.023,0,0,1-.0088.0311l-.0111.0029"/><path class="cls-3" d="M20.0766,74.1943H19.38a.8714.8714,0,0,0-.2455-.585l.492-.4918a.0228.0228,0,1,0-.0323-.0323l-.4924.4924a.8706.8706,0,0,0-.5759-.235l.0026-.0064V72.618a.0228.0228,0,0,0-.0456,0v.7182l.0026.0064a.8709.8709,0,0,0-.5817.24l-.4932-.4932a.0228.0228,0,0,0-.0322.0323l.4932.4931a.871.871,0,0,0-.24.58l-.0019-.0007h-.7181a.0228.0228,0,1,0,0,.0455h.7181l.0019-.0008a.8714.8714,0,0,0,.2429.5829l-.01.004-.5079.5079a.0228.0228,0,0,0,.0161.0389.0225.0225,0,0,0,.0161-.0067l.5079-.5079.0041-.01a.8711.8711,0,0,0,.5846.243l-.0026.0063v.7182a.0228.0228,0,0,0,.0456,0v-.7182l-.0026-.0063a.8714.8714,0,0,0,.5817-.24l.5.5a.0228.0228,0,1,0,.0323-.0322l-.5-.5a.8705.8705,0,0,0,.24-.5791h.6967a.0228.0228,0,1,0,0-.0455m-1.571.8527a.83.83,0,1,1,.58-1.4221l0,0,.0006,0a.8293.8293,0,0,1-.5812,1.4215"/><path class="cls-3" d="M62.853,74.5111a.0228.0228,0,0,0-.0228-.0228h-.7424a.0228.0228,0,1,0,0,.0456H62.83a.0228.0228,0,0,0,.0228-.0228"/><path class="cls-3" d="M64.12,74.5111a.0228.0228,0,0,0-.0229-.0228h-.7423a.0228.0228,0,1,0,0,.0456h.7423a.0228.0228,0,0,0,.0229-.0228"/><path class="cls-3" d="M62.1738,74.5522a.0228.0228,0,0,0,0,.0456h.57a.0228.0228,0,0,0,0-.0456Z"/><path class="cls-3" d="M63.4405,74.5522a.0228.0228,0,0,0,0,.0456h.57a.0228.0228,0,0,0,0-.0456Z"/><path class="cls-3" d="M67.6225,78.3289a1.0663,1.0663,0,0,0-.3791-.5421.8445.8445,0,0,0-1.0713-.0776L64.1992,76.471c.03-.0288.06-.0577.0881-.09.8664-.9752.6306-3.0585.6281-3.0795a.0229.0229,0,0,0-.0226-.02H61.334a.0229.0229,0,0,0,0,.0457h3.5383c.022.2166.1885,2.1148-.6191,3.0237-.03.0337-.0615.0647-.0936.0949l-1.034-.649a.0228.0228,0,0,0-.0243.0387l1.0237.6424a1.4738,1.4738,0,0,1-1.0116.3625c-.7618,0-1.6895-.4114-1.7825-2.3713a5.8063,5.8063,0,0,1,.0257-.9.0228.0228,0,0,0-.02-.0255.0225.0225,0,0,0-.0255.02,5.8722,5.8722,0,0,0-.0258.9085c.0427.9018.3371,2.4146,1.8279,2.4146a1.5158,1.5158,0,0,0,1.0523-.3824l1.975,1.2395-.0179.02a.5958.5958,0,0,0-.0836.539,1.1267,1.1267,0,0,0,.9973.7779l.0211,0a.59.59,0,0,0,.4814-.2127.5961.5961,0,0,0,.0835-.539m-.12.511a.55.55,0,0,1-.4654.1948,1.0814,1.0814,0,0,1-.9545-.7445.5131.5131,0,0,1,.5213-.6938,1.0787,1.0787,0,0,1,.9743.7447.552.552,0,0,1-.0757.4988"/><path class="cls-3" d="M61.408,72.9146h3.4108a.0228.0228,0,1,0,0-.0456H63.131a.0215.0215,0,0,0,.0051-.0125v-.2023a.0228.0228,0,1,0-.0455,0v.2023a.0216.0216,0,0,0,.0052.0125H61.408a.0228.0228,0,1,0,0,.0456"/><path class="cls-3" d="M44.8105,79.0954a.0231.0231,0,0,1-.0178-.0084l-3.2122-3.9536a.0225.0225,0,0,1-.0052-.0144V73.446a.0232.0232,0,0,1,.007-.0165l.79-.7614a.0228.0228,0,0,1,.0158-.0064h.8208a.0226.0226,0,0,1,.0161.0067l1.5773,1.58,1.58-1.58a.023.023,0,0,1,.0162-.0067h.793a.0229.0229,0,0,1,.0162.0067l.8017.8018a.0224.0224,0,0,1,.0067.0161v1.5823a.0222.0222,0,0,1-.0049.0141l-3.1832,4.0041a.023.023,0,0,1-.0177.0086Zm-3.19-3.9845L44.81,79.0363l3.16-3.9757V73.4958l-.7884-.7885h-.7742l-1.5893,1.5894a.0235.0235,0,0,1-.0162.0067.0232.0232,0,0,1-.0161-.0067L43.2,72.7073h-.8022l-.7768.7483Z"/><path class="cls-3" d="M74.2631,79.0578h-.18V78.429a.0228.0228,0,0,0-.0228-.0229h-.6819v-.4355a.0228.0228,0,0,0-.0228-.0228h-.3042v-.3462a.0228.0228,0,0,0-.0228-.0229h-.27V74.635h.27a.0228.0228,0,0,0,.0228-.0228v-.4138h.3042a.0228.0228,0,0,0,.0228-.0228v-.7427H74.06a.0227.0227,0,0,0,.0056-.0448l-3.0466-.7788H71.008l-3.0467.7788a.0228.0228,0,0,0,.0057.0448h.6749v.7427a.0228.0228,0,0,0,.0228.0228h.29v.4138a.0228.0228,0,0,0,.0228.0228h.27v2.9437h-.27a.0228.0228,0,0,0-.0228.0229v.3462h-.29a.0228.0228,0,0,0-.0228.0228v.4355H67.967a.0228.0228,0,0,0-.0227.0229v.6288h-.1551a.0228.0228,0,1,0,0,.0455h.1778a.0228.0228,0,0,0,.0228-.0227v-.6289h6.0476v.6289a.0229.0229,0,0,0,.0229.0227h.2028a.0228.0228,0,1,0,0-.0455m-1.2572-4.4684h-.27a.0228.0228,0,0,0-.0228.0228v2.9894a.0228.0228,0,0,0,.0228.0227h.27v.3235H72.21v-.3235h.27a.0228.0228,0,0,0,.0228-.0227V74.6122a.0228.0228,0,0,0-.0228-.0228h-.27v-.391h.796Zm-1.5521,3.3584v-.3462a.0229.0229,0,0,0-.0229-.0229h-.27V74.635h.27a.0229.0229,0,0,0,.0229-.0228v-.4138h.7106v.4138a.0228.0228,0,0,0,.0227.0228h.27v2.9437h-.27a.0228.0228,0,0,0-.0227.0229v.3462Zm-.8416,0v-.3235h.27a.0228.0228,0,0,0,.0228-.0227V74.6122a.0228.0228,0,0,0-.0228-.0228h-.27v-.391h.7959v.391h-.27a.0228.0228,0,0,0-.0228.0228v2.9894a.0228.0228,0,0,0,.0228.0227h.27v.3235Zm-.77,0v-.3462a.0228.0228,0,0,0-.0229-.0229h-.27V74.635h.27a.0228.0228,0,0,0,.0229-.0228v-.4138h.7247v.4138a.0228.0228,0,0,0,.0228.0228h.27v2.9437h-.27a.0228.0228,0,0,0-.0228.0229v.3462Zm1.1717-5.2929,2.8655.7324H68.1483Zm-2.3261.778h4.6453v.72h-.3019l-.0023-.001-.0022.001h-.837l-.0023-.001-.0022.001h-.7518l-.0022-.001-.0022.001h-.8371l-.0022-.001-.0022.001h-.7659l-.0023-.001-.0022.001H68.98l-.0022-.001-.0022.001h-.2878ZM69,77.6243h.27a.0228.0228,0,0,0,.0228-.0227V74.6122a.0228.0228,0,0,0-.0228-.0228H69v-.391h.7958v.391h-.27a.0228.0228,0,0,0-.0228.0228v2.9894a.0228.0228,0,0,0,.0228.0227h.27v.3235H69Zm-.3129.3691h4.6454v.4128H68.6875Z"/><path class="cls-3" d="M51.2166,74.3508a.5218.5218,0,1,1,.3971.0414.5268.5268,0,0,1-.1492.0219.5193.5193,0,0,1-.2479-.0633m.113-.9152a.4726.4726,0,1,0,.1363-.02.4728.4728,0,0,0-.1363.02"/><path class="cls-3" d="M51.5718,75.1856a.023.023,0,0,1-.0109-.0136l-.0756-.2541a1.0007,1.0007,0,0,1-.2518-.0262l-.1227.2264a.0228.0228,0,0,1-.0309.0092l-.4394-.2383a.0225.0225,0,0,1-.0092-.0309l.1227-.2263a1.0253,1.0253,0,0,1-.16-.1967l-.254.0754a.0227.0227,0,0,1-.0284-.0153L50.17,74.016a.0227.0227,0,0,1,.0153-.0283l.2541-.0755a1.0256,1.0256,0,0,1,.0262-.2519l-.2264-.1227a.0226.0226,0,0,1-.0092-.0308l.2382-.4395a.0229.0229,0,0,1,.0136-.011.0237.0237,0,0,1,.0173.0018l.2264.1227a1.0248,1.0248,0,0,1,.1967-.1594l-.0754-.254a.0228.0228,0,0,1,.0153-.0284l.4792-.1424a.0231.0231,0,0,1,.0284.0154l.0754.2541a1.012,1.012,0,0,1,.2518.0262l.1267-.2336a.0227.0227,0,0,1,.0308-.0091l.4395.2382a.0228.0228,0,0,1,.0092.0309l-.1266.2336a1.0175,1.0175,0,0,1,.1593.1967l.2541-.0755a.0231.0231,0,0,1,.0284.0153l.1424.4792a.0234.0234,0,0,1-.0019.0174.0222.0222,0,0,1-.0136.0109l-.2541.0756a1.0191,1.0191,0,0,1-.0261.2517l.2336.1267a.0228.0228,0,0,1,.0091.031l-.2382.4394a.0225.0225,0,0,1-.0134.011.0223.0223,0,0,1-.0175-.0019l-.2336-.1266a1.0272,1.0272,0,0,1-.1966.1594l.0754.2541a.0228.0228,0,0,1-.0153.0283l-.4792.1423-.0065.001-.0109-.0027m.3878-.4267a.0228.0228,0,0,1,.01-.0261.9794.9794,0,0,0,.214-.1735.0228.0228,0,0,1,.0275-.0045l.229.1242.2165-.4-.229-.1241a.0228.0228,0,0,1-.0112-.0256.9755.9755,0,0,0,.0285-.274.0229.0229,0,0,1,.0163-.0227l.2489-.0739-.1292-.4355-.249.0739a.0225.0225,0,0,1-.026-.01.9794.9794,0,0,0-.1735-.214.0227.0227,0,0,1-.0046-.0275l.1242-.229L51.8527,72.7l-.1242.2291a.023.023,0,0,1-.0256.0113.9629.9629,0,0,0-.2739-.0286.0217.0217,0,0,1-.0227-.0163l-.074-.249-.4355.1293.0741.249a.0229.0229,0,0,1-.01.026.9742.9742,0,0,0-.214.1735.0228.0228,0,0,1-.0276.0046l-.2218-.12-.2164.3994.2217.12a.0227.0227,0,0,1,.0113.0256.9709.9709,0,0,0-.0286.2739.0227.0227,0,0,1-.0163.0227l-.249.074.1293.4355.249-.074a.0227.0227,0,0,1,.0261.01.9771.9771,0,0,0,.1735.214.0228.0228,0,0,1,.0045.0276l-.12.2217.3994.2165.12-.2217a.0228.0228,0,0,1,.0256-.0113.9624.9624,0,0,0,.274.0286.0239.0239,0,0,1,.0227.0163l.0739.249.4355-.1293Z"/><path class="cls-3" d="M53.3314,76.5527a.5029.5029,0,0,1,.0012-1.0058h.0015a.5029.5029,0,0,1-.0013,1.0058Zm-.3212-.8271a.4573.4573,0,0,0,.3213.7815h.0013a.4573.4573,0,0,0,.0012-.9146h-.0014a.4544.4544,0,0,0-.3224.1331"/><path class="cls-3" d="M53.57,77.28l-.481-.0013a.0232.0232,0,0,1-.0161-.0067.0229.0229,0,0,1-.0067-.0162l.0008-.2543a.98.98,0,0,1-.2239-.0934l-.1752.1743a.0228.0228,0,0,1-.0323,0l-.3391-.341a.0228.0228,0,0,1,0-.0322l.1752-.1743a.9845.9845,0,0,1-.0921-.2242l-.2543-.0008a.0228.0228,0,0,1-.0228-.0228l.0012-.481a.0229.0229,0,0,1,.0229-.0228l.2544.0007a.9806.9806,0,0,1,.0933-.2238L52.3,75.3849a.0225.0225,0,0,1,0-.0322l.3409-.3392a.0232.0232,0,0,1,.0161-.0067.0235.0235,0,0,1,.0162.0067l.1742.1753a.9807.9807,0,0,1,.2243-.0921l.0008-.2544a.0227.0227,0,0,1,.0227-.0228h0l.4809.0014a.0229.0229,0,0,1,.0228.0228l-.0007.2544a.9814.9814,0,0,1,.2238.0933l.1809-.18a.0228.0228,0,0,1,.0322,0l.3392.341a.0227.0227,0,0,1,0,.0322l-.1809.18a.9766.9766,0,0,1,.0922.2242l.2544.0008a.0227.0227,0,0,1,.0227.0228l-.0013.481a.0226.0226,0,0,1-.0067.016.023.023,0,0,1-.0161.0067h0l-.2544-.0007a.9811.9811,0,0,1-.0932.2238l.18.1809a.0228.0228,0,0,1,0,.0322l-.3411.3392a.0225.0225,0,0,1-.0321,0l-.18-.1809a.9766.9766,0,0,1-.2243.0922l-.0007.2543a.0229.0229,0,0,1-.0228.0228m.2678-.4138.1762.1771.3087-.307-.1761-.1771a.0227.0227,0,0,1-.0035-.0278.9361.9361,0,0,0,.102-.2444.0227.0227,0,0,1,.0221-.017l.249.0007.0013-.4354-.2492-.0007a.0229.0229,0,0,1-.022-.0172.9323.9323,0,0,0-.1006-.2449.023.023,0,0,1,.0036-.0278l.1771-.1761-.307-.3087-.1771.1761a.023.023,0,0,1-.0278.0034.9358.9358,0,0,0-.2444-.1019.0228.0228,0,0,1-.017-.0221l.0007-.2491-.4354-.0012-.0008.2491a.0228.0228,0,0,1-.0172.0221.9257.9257,0,0,0-.2448.1006.023.023,0,0,1-.0278-.0036l-.17-.1715-.3087.307.17.1715a.0227.0227,0,0,1,.0034.0277.9377.9377,0,0,0-.1018.2445.0231.0231,0,0,1-.0221.0169h0l-.2491-.0006-.0012.4354.2491.0007a.0226.0226,0,0,1,.022.0172.9379.9379,0,0,0,.1006.2449.0226.0226,0,0,1-.0036.0277l-.1713.1705.3069.3087.1715-.17a.0228.0228,0,0,1,.0277-.0035.9345.9345,0,0,0,.2445.1019.0229.0229,0,0,1,.017.0222l-.0007.249.4354.0013.0007-.2491a.0229.0229,0,0,1,.0172-.0221.9411.9411,0,0,0,.2449-.1005l.0115-.0032a.0228.0228,0,0,1,.0162.0067"/><path class="cls-3" d="M50.06,77.9238h0a.7991.7991,0,1,1,.07.003c-.0233,0-.0469-.001-.07-.003M49.6433,76.55a.7541.7541,0,1,0,.55-.1741q-.0333-.0029-.0664-.0029a.7484.7484,0,0,0-.484.177"/><path class="cls-3" d="M50.3459,79.129l-.7755-.0671a.0229.0229,0,0,1-.0155-.008.0223.0223,0,0,1-.0052-.0166l.0364-.4209a1.58,1.58,0,0,1-.3641-.189l-.3145.2642a.0226.0226,0,0,1-.0321-.0028l-.5008-.5958a.0226.0226,0,0,1,.0028-.032l.3143-.2644a1.5829,1.5829,0,0,1-.1236-.3912l-.4208-.0364a.023.023,0,0,1-.0208-.0247l.0672-.7754a.0226.0226,0,0,1,.0246-.0208l.421.0364a1.5721,1.5721,0,0,1,.189-.3641l-.2726-.3242a.023.023,0,0,1,.0029-.0322l.5957-.5008a.0229.0229,0,0,1,.0321.0028l.2725.3242a1.5808,1.5808,0,0,1,.3913-.1237l.0364-.4208a.0233.0233,0,0,1,.008-.0154.0239.0239,0,0,1,.0166-.0054l.7756.0672a.0226.0226,0,0,1,.0155.0081.0232.0232,0,0,1,.0052.0166l-.0365.4208a1.5792,1.5792,0,0,1,.3643.189l.3242-.2725a.0231.0231,0,0,1,.0165-.0052.0227.0227,0,0,1,.0155.008l.5009.5959a.0228.0228,0,0,1-.0028.032l-.3241.2726a1.59,1.59,0,0,1,.1236.3912l.4208.0364a.0227.0227,0,0,1,.0207.0247l-.0671.7755a.023.023,0,0,1-.0081.0155.0243.0243,0,0,1-.0166.0052l-.4209-.0364a1.5643,1.5643,0,0,1-.189.3641l.2643.3144a.0228.0228,0,0,1,.0053.0166.0222.0222,0,0,1-.0081.0155l-.5958.5009a.0228.0228,0,0,1-.0166.0053.0234.0234,0,0,1-.0155-.0081l-.2644-.3143a1.5751,1.5751,0,0,1-.3911.1236l-.0364.4208a.0227.0227,0,0,1-.0227.0208l-.002,0m.4758-.6079.261.31.561-.4716-.261-.31a.0228.0228,0,0,1-.0011-.0279,1.5261,1.5261,0,0,0,.1993-.3839.0227.0227,0,0,1,.0235-.0151l.4156.036.0633-.73-.4157-.036a.0228.0228,0,0,1-.02-.019,1.53,1.53,0,0,0-.13-.4123.0229.0229,0,0,1,.0059-.0274l.32-.2691-.4714-.561-.32.2692a.0227.0227,0,0,1-.028.001,1.5317,1.5317,0,0,0-.3838-.1992.023.023,0,0,1-.0152-.0235l.0361-.4156-.73-.0633-.036.4157a.0225.0225,0,0,1-.0189.0205,1.5318,1.5318,0,0,0-.4124.13.0228.0228,0,0,1-.0273-.0059l-.2692-.32-.5609.4715.2692.32a.0227.0227,0,0,1,.0011.0278,1.5312,1.5312,0,0,0-.1993.3839.0222.0222,0,0,1-.0235.0152l-.4157-.0361-.0632.73.4156.0361a.0227.0227,0,0,1,.0206.0189,1.53,1.53,0,0,0,.13.4124.0226.0226,0,0,1-.0059.0273l-.31.261.4715.5609.31-.2609a.023.023,0,0,1,.028-.0012,1.5287,1.5287,0,0,0,.3837.1994.0228.0228,0,0,1,.0153.0234l-.0361.4157.73.0632.0361-.4157a.0226.0226,0,0,1,.0189-.02,1.5352,1.5352,0,0,0,.4124-.13l.01-.0023a.0224.0224,0,0,1,.0174.0082"/><path class="cls-3" d="M28.4359,77.9979h.329l-.2641.2641a.0228.0228,0,1,0,.0322.0322l.2963-.2963h.3783l-.264.2641a.0228.0228,0,0,0,0,.0322.0227.0227,0,0,0,.0322,0l.2963-.2963h.42l-.2641.2641a.0228.0228,0,0,0,0,.0322.0227.0227,0,0,0,.0322,0l.2963-.2963h.4306l-.264.2641a.0228.0228,0,0,0,0,.0322.0223.0223,0,0,0,.0161.0067.0229.0229,0,0,0,.0162-.0067l.2962-.2963h.3675l-.264.2641a.0228.0228,0,0,0,0,.0322.0227.0227,0,0,0,.0322,0l.2963-.2963h.3744a.0228.0228,0,1,0,0-.0455H30.729l.28-.28h.3746a.0228.0228,0,1,0,0-.0456h-.329l.1421-.1422c.07.0043.1388.0068.2075.0068.0912,0,.1816-.0038.27-.0113a3.351,3.351,0,0,0,1.4872-.5022l.0111-.0047.0013-.003a3.87,3.87,0,0,0,1.74-2.7.0228.0228,0,0,0-.0449-.0077,2.848,2.848,0,0,1-2.7192,2.13c-.115.0079-.2358.0146-.3694.02-.1772.0075-.3469.0114-.5049.0109-.16,0-.3188-.0041-.4715-.0116a4.8034,4.8034,0,0,1-1.7787-.3663c-.3555-.1718-.5512-.3874-.5512-.6071a.0228.0228,0,0,0-.0225-.0228h0a.0228.0228,0,0,0-.0229.0223l-.0076.4091a.0234.0234,0,0,0,.004.0133,3.8944,3.8944,0,0,0,.595.68l0,.0009.0014.0006a3.7976,3.7976,0,0,0,.6981.5007l-.285.285H29.06a.0228.0228,0,1,0,0,.0455h.3289l-.2532.2532h-.3745a.0228.0228,0,0,0,0,.0456h.329l-.28.28h-.3744a.0228.0228,0,1,0,0,.0455m.8818-.0455.28-.28h.42l-.28.28Zm.7408-.7409c.097.0414.1983.0786.3065.1133l-.0034.0035h-.42Zm.4391.1623a.0224.0224,0,0,0,.0142-.0059c.0826.0228.1649.0428.2463.0588l-.2.2h-.4307l.2532-.2532Zm-.1817,0-.2531.2532h-.42l.2531-.2532Zm-.514.5786.28-.28h.4307l-.28.28Zm.8626,0h-.3676l.28-.28h.3675Zm-.0423-.3254.1895-.1894c.1114.02.22.0336.3253.0422l-.1472.1472Zm1.048-.1921a3.2565,3.2565,0,0,1-.4814.0041,3.3053,3.3053,0,0,1-.3809-.0481h0a3.3918,3.3918,0,0,1-.3941-.0977,3.4729,3.4729,0,0,1-.3517-.1293v0c-.0946-.041-.1911-.0885-.2947-.1451a3.7478,3.7478,0,0,1-.6956-.4929.1672.1672,0,0,1,.1987-.029h0a3.9188,3.9188,0,0,0,2.142.484,7.7492,7.7492,0,0,0,1.282-.1125l.0022-.0014.004-.0006a.3906.3906,0,0,1,.4162.0861,3.3041,3.3041,0,0,1-1.4468.4825m3.1241-2.799a3.809,3.809,0,0,1-1.6371,2.2912.4421.4421,0,0,0-.4607-.1081.7312.7312,0,0,1-.1748-.4237,2.8633,2.8633,0,0,0,2.2726-1.7594m-2.6416,1.8027c.1124-.0079.22-.02.3237-.0357a.7766.7766,0,0,0,.1689.427,4.8874,4.8874,0,0,1-3.328-.3569.4477.4477,0,0,0,.0958-.23,5.8616,5.8616,0,0,0,1.3885.2148c.1534.0076.3127.0116.4736.0118h.0134c.1547,0,.3206-.0036.4935-.0109.1341-.0057.2552-.0122.3706-.02m-3.6862-.5975.004-.2159a1.4,1.4,0,0,0,.898.6042.4024.4024,0,0,1-.09.22.2171.2171,0,0,0-.2414.0453,3.8564,3.8564,0,0,1-.5708-.654m1.2942,1.2255c.0882.0478.1715.0887.2531.1251l-.1365.1366H29.499Zm-.3073.3072h.3783l-.2532.2532H29.2Zm-.2988.2988h.3784l-.28.28h-.3784Z"/><path class="cls-3" d="M34.1157,78.2835c-.1969.0193-.3193.2308-.4378.4352-.1123.1937-.2183.3767-.3725.3772h0c-.1569,0-.2724-.195-.3841-.3836-.1191-.201-.2422-.4089-.4278-.409h0c-.1865,0-.311.21-.4313.4123-.111.187-.2258.38-.3781.38h-.0026c-.1574-.0022-.2705-.2081-.38-.4073-.1144-.2082-.2327-.4235-.4128-.4249h-.0017c-.1789,0-.2991.213-.4153.4191-.1138.2016-.2314.41-.396.4131h-.0036c-.1549,0-.2658-.1812-.3831-.3731-.1264-.2067-.257-.42-.4629-.4393-.2492-.0224-.5172.2469-.815.8247a.0229.0229,0,0,0,.01.0307.0226.0226,0,0,0,.0307-.01c.2844-.5517.5438-.821.77-.8.1831.0167.3077.2206.4282.4176.1241.2031.2415.395.4217.395h.0046c.1906-.0035.3148-.2235.4348-.4363.115-.2036.2235-.396.3757-.396h.0014c.1532.0013.2651.2047.3732.4014.1156.21.2353.4283.4193.4309h.0034c.178,0,.2995-.2046.4171-.4026.1138-.1918.2316-.39.3921-.39h0c.16,0,.276.1967.3885.3868.1183.2.24.4059.4233.4059h.0007c.18,0,.2928-.1946.4118-.4.1127-.1945.2292-.3956.4028-.4126.2153-.0225.4695.248.75.8a.0228.0228,0,1,0,.0406-.0206c-.2942-.5787-.5549-.8481-.7953-.8249"/><path class="cls-3" d="M34.0627,77.4667c-.2019.0228-.3271.2228-.4482.4162-.1134.1811-.2205.3523-.3756.3523h-.0012c-.1533-.0008-.2578-.1677-.3686-.3442-.1177-.1879-.2395-.3821-.437-.4045-.2429-.0284-.5151.2216-.8108.74a.0228.0228,0,0,0,.04.0225c.2859-.5016.5436-.7431.766-.7177.1757.02.2916.2047.4035.3834.1176.1875.2287.3646.4069.3656h.0015c.18,0,.294-.1815.4143-.3738.1154-.1842.2345-.3746.4146-.395.2314-.0274.5017.2354.8053.7768a.0227.0227,0,0,0,.02.0117l.0111-.0029a.0228.0228,0,0,0,.0088-.031c-.3178-.5668-.5962-.8275-.85-.8"/><path class="cls-3" d="M31.2676,73.5042a.0224.0224,0,0,0,.0159.0065.023.023,0,0,0,.0161-.0066l.8447-.8447a.0228.0228,0,0,0-.0322-.0322l-.8287.8286-.8666-.8539a.0228.0228,0,0,0-.032.0325Z"/><path class="cls-3" d="M31.7768,73.345a.0228.0228,0,0,0,0,.0322l.8827.87a.0222.0222,0,0,0,.0159.0066.0227.0227,0,0,0,.0162-.0067l.8446-.8446a.0228.0228,0,0,0-.0321-.0323l-.8288.8287-.8666-.8539a.0227.0227,0,0,0-.0322,0"/><path class="cls-3" d="M40.3343,74.2106H37.9285v-.3744H39.933a.0228.0228,0,0,0,0-.0456H37.9285v-.3745h1.6859a.0228.0228,0,0,0,0-.0456H37.9285v-.3438h1.3777a.0228.0228,0,1,0,0-.0456H37.9285v-.34h.5221a.0228.0228,0,1,0,0-.0456h-.9317a.0228.0228,0,0,0,0,.0456h.364v.34h-.704a.0228.0228,0,1,0,0,.0456h.704v.3438H36.8193a.0228.0228,0,1,0,0,.0456h1.0636v.3745h-1.331a.0228.0228,0,0,0,0,.0456h1.331v.3744H35.985a.0228.0228,0,0,0,0,.0456h1.8979v.37H35.985a.0228.0228,0,1,0,0,.0455h1.8979v.3653H36.29a.0228.0228,0,1,0,0,.0456h1.5933v.34H36.8193a.0228.0228,0,1,0,0,.0456h1.0636v3.6706a.0227.0227,0,0,0,.0227.0227h.3136a.0227.0227,0,0,0,.0227-.0227V76.2266a.0228.0228,0,1,0-.0455,0v2.8893h-.2679V75.4681h.83a.0228.0228,0,0,0,0-.0456h-.83v-.34h1.1187a.0228.0228,0,0,0,0-.0456H37.9285v-.3653h1.9978a.0228.0228,0,0,0,0-.0455H37.9285v-.37h2.4058a.0228.0228,0,0,0,0-.0456"/></svg>