<svg id="Layer_1" data-name="Layer 1" xmlns="http://www.w3.org/2000/svg" width="92.6371" height="105.1817" viewBox="0 0 92.6371 105.1817"><defs><style>.cls-1{fill:#eb665b;}.cls-2,.cls-4{fill:none;}.cls-2,.cls-4,.cls-5{stroke:#f1f1f1;stroke-miterlimit:10;}.cls-2{stroke-width:1.2214px;}.cls-3,.cls-5{fill:#f1f1f1;}.cls-4,.cls-5{stroke-width:0.0611px;}</style></defs><polygon class="cls-1" points="3.995 27.645 3.995 76.038 45.905 100.234 87.814 76.038 87.814 27.645 45.905 3.449 3.995 27.645"/><path class="cls-2" d="M23.7169,63.6858a33.953,33.953,0,0,1-2.5359-10.25M51.8649,80.8173c-.8815.477-2.231,1.3831-3.1776,1.847-.4266.21-.8624.418-1.304.6257l-.8407.3948-.8409-.3948A37.331,37.331,0,0,1,41.35,80.7181M21.7583,41.598c.09-.5568.3423-2.0367.4225-2.4677.0537-.2877.1037-.545.1483-.7694l.0177-.0879.4249-2.2335,1.3656-.2588c1.5864-.2725,3.2579-.6206,5.211-1.0864,3.25-1.0674,17.1937-4.2667,17.1937-4.2667s5.4539,1.1687,17.1939,4.2667c1.9538.4658,3.6251.8141,5.2107,1.0864l1.24.213.5514,2.28s.1116.5689.1652.8549l.0831.4537c.0565.3176.116.6633.1763,1.0344s.1213.7677.1812,1.1868c.1343.9381,2.0045,12.879-1.8739,21.8826"/><path class="cls-3" d="M58.934,24.9544l-1.148-1.1252.3286,1.5843-.1728,1.4238-2.8267-.361.196-1.4089.7225-1.4516-1.42.7927-1.3949.2455-.5324-2.7529,1.3979-.2637,1.6106.2154L54.49,20.7688l-.6638-1.2563,2.451-1.3574.6742,1.2615.3052,1.5945.6678-1.4678.9521-1.0521,2.0841,1.9318-.9845,1.0463-1.43.7347,1.5944.19,1.3.61-1.2119,2.5573Z"/><path class="cls-4" d="M58.934,24.9544l-1.148-1.1252.3286,1.5843-.1728,1.4238-2.8267-.361.196-1.4089.7225-1.4516-1.42.7927-1.3949.2455-.5324-2.7529,1.3979-.2637,1.6106.2154L54.49,20.7688l-.6638-1.2563,2.451-1.3574.6742,1.2615.3052,1.5945.6678-1.4678.9521-1.0521,2.0841,1.9318-.9845,1.0463-1.43.7347,1.5944.19,1.3.61-1.2119,2.5573Z"/><path class="cls-3" d="M48.2093,24.9544l-1.1479-1.1252.3285,1.5843-.1728,1.4238-2.8267-.361.1961-1.4089.7224-1.4516-1.42.7927-1.395.2455-.5323-2.7529,1.3978-.2637,1.6106.2154-1.2047-1.084-.6638-1.2563,2.451-1.3574.6741,1.2615.3052,1.5945L47.2,19.5433l.9521-1.0521L50.236,20.423l-.9845,1.0463-1.43.7347,1.5945.19,1.3.61-1.212,2.5573Z"/><path class="cls-4" d="M48.2093,24.9544l-1.1479-1.1252.3285,1.5843-.1728,1.4238-2.8267-.361.1961-1.4089.7224-1.4516-1.42.7927-1.395.2455-.5323-2.7529,1.3978-.2637,1.6106.2154-1.2047-1.084-.6638-1.2563,2.451-1.3574.6741,1.2615.3052,1.5945L47.2,19.5433l.9521-1.0521L50.236,20.423l-.9845,1.0463-1.43.7347,1.5945.19,1.3.61-1.212,2.5573Z"/><path class="cls-3" d="M37.7137,24.9544l-1.1479-1.1252.3286,1.5843-.1729,1.4238-2.8267-.361.1961-1.4089.7224-1.4516-1.42.7927-1.395.2455-.5323-2.7529,1.3979-.2637,1.6105.2154L33.27,20.7688l-.6638-1.2563,2.451-1.3574.6741,1.2615.3053,1.5945.6678-1.4678.9521-1.0521,2.0841,1.9318-.9846,1.0463-1.43.7347,1.5944.19,1.3.61-1.212,2.5573Z"/><path class="cls-4" d="M37.7137,24.9544l-1.1479-1.1252.3286,1.5843-.1729,1.4238-2.8267-.361.1961-1.4089.7224-1.4516-1.42.7927-1.395.2455-.5323-2.7529,1.3979-.2637,1.6105.2154L33.27,20.7688l-.6638-1.2563,2.451-1.3574.6741,1.2615.3053,1.5945.6678-1.4678.9521-1.0521,2.0841,1.9318-.9846,1.0463-1.43.7347,1.5944.19,1.3.61-1.212,2.5573Z"/><path class="cls-5" d="M78.7481,78.4642H57.1688V81.61H35.96V78.4642H14.1573V63.2489H32.7937V58.6526H59.2119v4.5963H78.7481Zm-61.1174-2.06h9.3879V73.07h-5.486V64.7321H17.6307Zm15.657.25a6.18,6.18,0,0,0,6.3865-6.0863V70.535a6.1241,6.1241,0,0,0-6.3531-6.053,6.18,6.18,0,0,0-6.3865,6.0863v.0334A6.1241,6.1241,0,0,0,33.2877,76.6546Zm.0334-3.4517A2.4972,2.4972,0,0,1,30.87,70.5683V70.535a2.4617,2.4617,0,0,1,2.4178-2.6013,2.4972,2.4972,0,0,1,2.4512,2.6346v.0334A2.4617,2.4617,0,0,1,33.3211,73.2029Zm7.42,3.2016h6.47c2.9515,0,4.4856-1.3674,4.4856-3.235v-.0333c0-1.6008-.9672-2.4012-2.4679-2.8347a2.7272,2.7272,0,0,0,2.0843-2.668V67.6a2.4936,2.4936,0,0,0-.7169-1.8176,4.4146,4.4146,0,0,0-3.3184-1.05H40.7413Zm3.8018-7.0868V67.6836h1.6842c.8338,0,1.2506.2834,1.2506.8v.0333c0,.5169-.4.8-1.234.8Zm0,4.1353V71.7188h1.9677c.85,0,1.2673.35,1.2673.85v.0333c0,.5-.4335.85-1.2839.85Zm14.09,3.2016A6.18,6.18,0,0,0,65.02,70.5683V70.535a6.3772,6.3772,0,0,0-12.7395.0333v.0334A6.1241,6.1241,0,0,0,58.6332,76.6546Zm.0334-3.4517a2.4972,2.4972,0,0,1-2.4512-2.6346V70.535a2.4618,2.4618,0,0,1,2.4178-2.6013,2.4971,2.4971,0,0,1,2.4512,2.6346v.0334A2.4617,2.4617,0,0,1,58.6666,73.2029Zm12.354,3.4184c3.1348,0,5.1525-1.5008,5.1525-3.9519V72.636c0-2.3512-2.001-3.2183-4.9858-3.7685-1.234-.2335-1.5507-.4336-1.5507-.75v-.0333c0-.2835.2667-.4836.85-.4836a6.1214,6.1214,0,0,1,3.5017,1.15L75.89,66.1161A8.0788,8.0788,0,0,0,70.62,64.5154c-3.2183,0-4.9525,1.7175-4.9525,3.9352v.0334c0,2.4678,2.3011,3.2182,4.9191,3.7518,1.2506.25,1.6174.4336,1.6174.767v.0334c0,.3168-.3.5-1.0005.5a6.69,6.69,0,0,1-4.0853-1.3673l-2.0843,2.4845A9.0174,9.0174,0,0,0,71.0206,76.6213ZM38.5658,80.2975a.7338.7338,0,0,0,.5926-.2659V80.26h.4976V78.36h-.4976v.2317a.742.742,0,0,0-.5926-.27.9973.9973,0,0,0,0,1.9751Zm.1292-.4709a.5188.5188,0,0,1,0-1.0332.5212.5212,0,0,1,0,1.0332Zm2.0241.4709c.3533,0,.8281-.1557.8281-.6229,0-.3874-.3533-.528-.6761-.604-.1749-.0379-.3344-.0721-.3344-.1785,0-.08.11-.1329.228-.1329a1.1922,1.1922,0,0,1,.5279.1329l.1709-.38a1.2953,1.2953,0,0,0-.7064-.19.6652.6652,0,0,0-.7369.5925c0,.3647.3076.49.6838.5888.1633.0455.3266.0722.3266.1861s-.1938.1595-.3115.1595a.919.919,0,0,1-.5925-.2013l-.1823.3912A1.1539,1.1539,0,0,0,40.7191,80.2975Zm1.8457,0a.8744.8744,0,0,0,.4824-.1443l-.1443-.376a.4661.4661,0,0,1-.2431.08c-.0912,0-.1709-.0532-.1709-.2165v-.87h.5242v-.41h-.5242v-.4786l-.5089.1139V78.36h-.2774v.41H41.98v.8774C41.98,80.0772,42.185,80.2975,42.5648,80.2975Zm1.7054,0a1.2786,1.2786,0,0,0,.7064-.2089l-.19-.3646a.9418.9418,0,0,1-.5127.1481.5025.5025,0,0,1-.5281-.3874h1.3789a1.6847,1.6847,0,0,0,.0114-.1823.95.95,0,0,0-.9231-.98.9883.9883,0,1,0,.0571,1.9751Zm-.5319-1.1509a.4763.4763,0,0,1,.46-.3988.4588.4588,0,0,1,.46.3988ZM45.47,80.26h.5089V79.53a.5717.5717,0,0,1,.6571-.6533v-.5546a.66.66,0,0,0-.6647.4026V78.36H45.47Zm1.6937-2.1308a.302.302,0,1,0-.3-.3A.304.304,0,0,0,47.1639,78.1287ZM46.9133,80.26h.5089V78.36h-.5089Zm1.5724.038c.3532,0,.828-.1557.828-.6229,0-.3874-.3532-.528-.6761-.604-.1748-.0379-.3343-.0721-.3343-.1785,0-.08.11-.1329.2279-.1329a1.1923,1.1923,0,0,1,.528.1329l.1709-.38a1.2959,1.2959,0,0,0-.7065-.19.6652.6652,0,0,0-.7369.5925c0,.3647.3077.49.6838.5888.1633.0455.3267.0722.3267.1861s-.1939.1595-.3115.1595a.92.92,0,0,1-.5926-.2013l-.1823.3912A1.1542,1.1542,0,0,0,48.4857,80.2975Zm2.0887,0a1.0971,1.0971,0,0,0,.71-.2469l-.27-.38a.6111.6111,0,0,1-.4139.1558.5167.5167,0,0,1-.0153-1.0332.5221.5221,0,0,1,.3609.1291l.3077-.357a1.0485,1.0485,0,0,0-.68-.2431.9879.9879,0,1,0,0,1.9751Zm1.8686,0a.9879.9879,0,1,0-1.0142-.9876A.995.995,0,0,0,52.443,80.2975Zm0-.4709a.517.517,0,1,1,.4975-.5167A.4924.4924,0,0,1,52.443,79.8266Zm2.0129.4709c.3532,0,.828-.1557.828-.6229,0-.3874-.3532-.528-.6761-.604-.1748-.0379-.3343-.0721-.3343-.1785,0-.08.11-.1329.2279-.1329a1.1923,1.1923,0,0,1,.528.1329l.1709-.38a1.2959,1.2959,0,0,0-.7065-.19.6652.6652,0,0,0-.7369.5925c0,.3647.3077.49.6838.5888.1633.0455.3267.0722.3267.1861s-.1939.1595-.3115.1595a.92.92,0,0,1-.5926-.2013l-.1823.3912A1.1542,1.1542,0,0,0,54.4559,80.2975ZM35.8649,63.0139h2.4119v-.8568h-1.41v-2.142H35.8649Zm3.83,0h2.5789v-.8225H40.68v-.3256h1.4651v-.724H40.68v-.3042h1.5721v-.8225H39.6948Zm4.0567,0H44.754V60.0151H43.7515Zm2.5532,0H47.307v-.8568h.2142l.5655.8568h1.1438l-.6983-1.02a.97.97,0,0,0,.5913-.9168v-.0086a.9417.9417,0,0,0-.2742-.7111,1.46,1.46,0,0,0-1.08-.3427H46.3047Zm1.0023-1.5722v-.5869h.437c.2314,0,.3813.0942.3813.287V61.15c0,.1843-.1456.2914-.3855.2914Zm3.2686,1.5722h1.0025V60.0151H50.5756Zm2.3348,0h1.0709l.1543-.4027h1.05l.1585.4027h1.088l-1.2637-3.02h-.9939ZM54.3883,61.9l.2742-.7283.2741.7283Z"/><path class="cls-5" d="M53.8545,54.8491a22.1758,22.1758,0,0,0,2.7857.006l.9007-.0724-.5438-.722A34.28,34.28,0,0,0,50.82,47.7876a4.8842,4.8842,0,0,0,1.5986-.416l.7023-.3779-.6488-.4638A41.2247,41.2247,0,0,0,42.93,41.3824l-.2656-.4846C42.0855,39.862,41.52,38.82,40.96,37.7764c-.6351-1-1.2662-2.0011-1.8828-3.0126-.3248-.4945-.6734-.9745-.9994-1.47-.3241-.4949-.6683-.9813-1.0257-1.4623l-.4245-.5714-.2828.6527c-.527,1.218-1.0649,2.4354-1.5782,3.6637l-.6655,1.8556-.0408.1165c-.6858-1.1314-1.9184-3.1094-3.1422-4.7976L30.3,31.8985l-.2647,1.0191a46.9652,46.9652,0,0,0-1.0833,5.5484l-.5689.0028c-.2734.0067-.5579-.0077-.8229.0174l-.79.08-.3953.0407-.198.02-.0985.01-.0774.0094-.0511.0112-.816.1808c-.1356.0336-.2727.0551-.407.0987l-.4.1434a4.83,4.83,0,0,0-.7886.3266,4.7561,4.7561,0,0,0-.7522.4415l-.3576.2631-.3264.3186a3.3208,3.3208,0,0,0-.366.4593l-4.007-.2855-2.1739-.1287c-.7266-.0391-1.4512-.0727-2.1934-.0832l-.28-.002c-.1135.0015-.24.0087-.3587.0175a2.4428,2.4428,0,0,0-.3038.038.934.934,0,0,0-.4862.33,2.6971,2.6971,0,0,0-.5325,1.2312,4.5485,4.5485,0,0,0-.0723,1.2168,5.92,5.92,0,0,0,.1982,1.17,8.2334,8.2334,0,0,0,.386,1.0986,9.5954,9.5954,0,0,0,.5339,1.0162,11.2217,11.2217,0,0,0,.6267.9473c.13.1782.268.3483.4072.5176-.1211.1344-.2365.2688-.36.4034-.1138.1222-.2054.2593-.31.3877l-.3023.3925c-.0976.1334-.21.2569-.2935.3986l-.267.4157-.5342.832-.4938.7691.9443-.003,1.4213-.005c.4748-.009.9462.0125,1.4183.03l1.4423.051-.793.6527-1.236,1.0174,1.6332-.1377a7.6443,7.6443,0,0,1,.769-.0193c.2655.0058.5335.0157.8.04a14.8221,14.8221,0,0,1,1.6006.2144c.2667.0415.5295.1069.7932.1657.2647.0542.5262.1262.7865.2.2615.0714.5222.1413.7779.2328.2565.0882.5167.1661.7708.2616l.758.2966c.2553.0924.4969.22.7456.3272.2455.1168.4994.216.7371.3486l.7226.3785c.2464.12.47.2669.7038.4021l.6946.4143,1.2062.8172a38.1866,38.1866,0,0,1,4.8209,6.7769l1.0528-.1228a34.8732,34.8732,0,0,0-4.2026-6.2315,7.9968,7.9968,0,0,0,1.2367-.02c.2151-.0107.4233-.049.6341-.0744.2126-.0236.4173-.0727.6253-.11.2094-.0351.4117-.0928.6173-.1406.2057-.0457.4058-.11.608-.1693.4023-.12.801-.2558,1.1892-.4153.1954-.0777.39-.155.5795-.2453.1914-.0888.3842-.17.57-.2708.1859-.0989.3766-.1865.5574-.2953.1818-.1073.3664-.2081.545-.3217.3584-.2247.7032-.47,1.0408-.7293l.6331-.4851-.7156-.35c-.281-.1381-.53-.2134-.7927-.3147a4.0951,4.0951,0,0,0-.4-.1206l-.4041-.1106-.0032-.0009a24.6685,24.6685,0,0,0,5.55-3.2415l.6662-.5318-.7913-.3171a11.5047,11.5047,0,0,0-1.5725-.4564,21.7851,21.7851,0,0,0,4.0463-1.88l.7965-.4943-.8554-.3813a10.3487,10.3487,0,0,0-4.2592-.5122c1.0951.3194,2.1935.7352,2.9359,1.0343a26.1822,26.1822,0,0,1-4.7814,1.8651c-.0881-.0108-.1762-.0219-.2652-.0316a11.0417,11.0417,0,0,0-3.5938.8417,25.2529,25.2529,0,0,1,3.8316.1871,18.973,18.973,0,0,1,2.4627.4738,25.773,25.773,0,0,1-6.033,3.103c-.0454-.0033-.0976-.0066-.1235-.0066a3.7147,3.7147,0,0,0-2.76.9792l1.5637-.06.7393.0486.3694.0239.1843.0112c.0065-.0042.1128.0176.164.0255l.7714.1309.3859.0661c.1219.028.2343.0642.3526.0958l.35.0969c.0645.02.13.0353.1946.0534-.0721.0477-.1446.095-.218.1411-.164.1044-.3365.1973-.5036.2968s-.3456.1816-.5177.274-.3532.1681-.53.2506-.3584.1562-.541.2284c-.3614.1491-.7335.2741-1.1079.3865-.1876.0547-.3733.1146-.5643.1568s-.3779.0978-.5691.1294-.3814.08-.5729.0991c-.1918.0231-.3836.06-.5744.0677a6.89,6.89,0,0,1-1.137.0143,4.0741,4.0741,0,0,1-.55-.0664,3.2535,3.2535,0,0,1-.4667-.1129c-.2244-.1576-.4107-.2776-.6215-.4228l-.6909-.4665-.7364-.4418c-.2467-.1439-.4894-.3015-.7425-.4261l-.7545-.3946c-.2477-.1379-.5126-.2439-.77-.3642-.26-.1139-.5126-.246-.78-.3437l-.7937-.3113c-.2658-.1009-.5394-.1831-.8087-.2753-.2681-.095-.5431-.17-.8179-.246-.2746-.0774-.5492-.1537-.829-.2118-.2783-.0618-.5555-.13-.8381-.1754a15.9575,15.9575,0,0,0-1.7026-.2287c-.0963-.0089-.1929-.0156-.29-.0215a3.5192,3.5192,0,0,1,.2809-.2192l.47-.34,1.2075-.8743-1.4541-.0528-2.8864-.1044c-.481-.0178-.9624-.04-1.4416-.0311l-.4942.0013.0081-.0125.2514-.3917a4.4137,4.4137,0,0,1,.2753-.3726l.2828-.3672c.0972-.1195.1835-.25.2881-.3608.1361-.1482.2726-.3085.4084-.4554l.7294.2375c.3511.1272.7115.2222,1.0688.3261.7171.2,1.4243.43,2.1364.6431l.2665.0811.0668.02.0819.02.1344.0313.5368.1278,1.0739.2575,1.07.2759c.3721.0806.7463.1582,1.1206.2477l.0029.0005,1.02.0887-.4907-.8267-.0117-.02-.0259-.0462c-.0567-.0759-.1147-.1493-.1736-.2211a11.6924,11.6924,0,0,0-4.9949-3.4756,12.1941,12.1941,0,0,1,1.938,1.3661l-.0638-.0187-.3052-.0525a5.5462,5.5462,0,0,0-.6078-.0836l-.6037-.0514-.5975-.0174c-.4-.0251-.792-.0011-1.1889-.0133-.6945.0024-1.3857.0185-2.0778.0132-.173-.2142-.35-.4254-.5092-.6482a9.92,9.92,0,0,1-.5669-.8647,8.72,8.72,0,0,1-.4718-.9072,7.165,7.165,0,0,1-.328-.9486c-.0082-.03-.0157-.06-.0233-.09a1.4829,1.4829,0,0,1,.91-.254,2.6693,2.6693,0,0,0,.9778-.2392,1.0951,1.0951,0,0,0-1.1868-.8837c-.2691.0238-.5753.3288-.8263.6488-.0046-.05-.0088-.1-.0119-.1505a3.4764,3.4764,0,0,1,.0586-.9421,1.7629,1.7629,0,0,1,.3014-.75l.0015-.0024a.59.59,0,0,1,.1709-.0117l.4466.0016c.7059.0068,1.4281.0376,2.1466.0742l2.162.1222,3.0511.2091a1.9494,1.9494,0,0,1,1.5289.98,4.5971,4.5971,0,0,0,.9091,2.2926,10.8062,10.8062,0,0,0,2.3935,2.46,6.4266,6.4266,0,0,1-2.0726-3.7009,2.3735,2.3735,0,0,0,1.1573.7068c1.1457.3192,1.8081-.1536,2.9008-.9458a3.5094,3.5094,0,0,1,2.4176-.7865c.4145.05-.23,1.0025-.23,1.0025A3.0984,3.0984,0,0,0,30.9234,42.65a5.0994,5.0994,0,0,0-2.53-.31c-1.7774.0311-3.1713.3093-4.1741.356s-1.2763-.1567-1.5039-.4236-.2519-.56.0572-1.0405c.0287-.0339.058-.0668.0879-.0963l.24-.2383.2834-.2065a3.7449,3.7449,0,0,1,.6149-.3617,3.9468,3.9468,0,0,1,.676-.2807l.3473-.1273c.1172-.039.2435-.0578.3649-.0879l.735-.1667.0374-.0087.03-.0032.0986-.01.1975-.0215.395-.0416.79-.0825c.2628-.0247.5095-.0082.7652-.0151l.7609-.0052.1908-.0013.183.0115.3968.0235.793.0483c.5341.0235,1.0306.1077,1.5485.1577.2554.0243.5137.0734.77.1094.1.0146.1988.03.2975.046.8344.1575,3.386,1.3454,3.2794,1.5231a14.2462,14.2462,0,0,1-2.55.45s6.2709,1.83,6.36,1.2255-3.2029-7.571-3.5748-7.6677c-.3158-.0822-1.2844,1.5273-1.8992,2.4958l.0488-.1407.6346-1.8656c.4-.9834.784-1.974,1.17-2.9657q.306.4005.6009.815l.5107.7126c.1672.2393.3424.4739.5023.7183.6309.9848,1.2464,1.98,1.8593,2.9765.5456,1.0334,1.0867,2.07,1.6143,3.1117,0,0,.2794.5847.3907.769a5.3783,5.3783,0,0,0,1.9169,2.0481l-.6635-1.38a42.5357,42.5357,0,0,1,7.4676,4.0481,8.9642,8.9642,0,0,1-1.2457.1256v0a22.2959,22.2959,0,0,1-3.859-.344l-1.1926-.2237.6936.995c2.0792,2.3341,3.8132,2.37,3.8132,2.37a15.9934,15.9934,0,0,1-2.1769-1.9542,17.5727,17.5727,0,0,0,2.185.1557,32.0921,32.0921,0,0,1,6.3489,6.0268,25.2453,25.2453,0,0,1-2.9993-.15,20.6049,20.6049,0,0,1-4.8553-1.1046l-1.5513-.5725.98,1.3326c.0187.0253,1.5815,2.1547,2.6818,3.821a28.9523,28.9523,0,0,1-9.3607-2.7187,11.4875,11.4875,0,0,0,5.1919,2.9649,18.7682,18.7682,0,0,0,5.1118.8262l.9185.0263-.48-.7828c-.6276-1.0223-1.6407-2.47-2.3721-3.4931a22.8088,22.8088,0,0,0,3.458.6678A46.3592,46.3592,0,0,1,58,62.38l1.0865-.2574A43.9348,43.9348,0,0,0,53.8545,54.8491ZM20.6208,48.8315l-.0046-.0025.0039.002Zm1.5821,1.7368,0,0,.0155.0286Zm-5.6867-2.3139c.3828-.018.7717-.048,1.1515-.039l.5718.0105.5626.0484a4.6171,4.6171,0,0,1,.5486.0891l.2709.0519.24.078.24.0735c.0838.0345.173.0865.259.1287l.236.1233.0006,0,.0063.0055.0135.0109.0266.0214.0531.0429.1059.0864.4233.3406a4.6233,4.6233,0,0,1,.359.3746l-.9987-.1918-1.0787-.2309-.54-.1157-.1346-.0291-.0525-.0115-.0645-.0213-.26-.0847c-.6921-.2286-1.389-.44-2.0761-.6813Q16.3,48.3071,16.22,48.28Zm-3.7576-6.8127ZM23.9957,43.397s1.6143-.1886,2.0256-.2328a3.2573,3.2573,0,0,1,1.0859.0394c-.082.0452-1.4472,1.1866-2.2912.9384S23.9957,43.397,23.9957,43.397Zm8.4383-4.6758c-.5366-.0543-1.0878-.1436-1.6123-.1683l-.7934-.0507-.08-.005a41.0776,41.0776,0,0,1,.7919-4.2756c1.3159,1.9089,2.5285,3.9323,2.8966,4.5537l-.0213.0663-.0169.0526q-.1825-.03-.3636-.0571C32.9682,38.7987,32.7055,38.7481,32.434,38.7212Z"/></svg>