<svg id="Layer_1" data-name="Layer 1" xmlns="http://www.w3.org/2000/svg" xmlns:xlink="http://www.w3.org/1999/xlink" width="92.6371" height="105.1817" viewBox="0 0 92.6371 105.1817"><defs><style>.cls-1{fill:#f5f5f5;}.cls-2{fill:none;}.cls-3{fill:url(#linear-gradient);}.cls-4,.cls-7{fill:#fff;}.cls-4,.cls-6{fill-rule:evenodd;}.cls-5,.cls-6{fill:#e2161b;}.cls-8{clip-path:url(#clip-path);}.cls-9{clip-path:url(#clip-path-2);}.cls-10{fill:#c01f21;}.cls-11{fill:#008d36;}</style><linearGradient id="linear-gradient" x1="4.0858" y1="52.9341" x2="87.9047" y2="52.9341" gradientUnits="userSpaceOnUse"><stop offset="0" stop-color="#8f5bae"/><stop offset="0.0326" stop-color="#8d58ac"/><stop offset="0.456" stop-color="#72309a"/><stop offset="0.7932" stop-color="#62188f"/><stop offset="1" stop-color="#5c0f8b"/></linearGradient><clipPath id="clip-path"><polygon class="cls-1" points="-188.731 29.238 -188.731 77.631 -146.822 101.828 -104.912 77.631 -104.912 29.238 -146.822 5.042 -188.731 29.238"/></clipPath><clipPath id="clip-path-2"><rect class="cls-2" x="-153.0353" y="-2.1947" width="14.5181" height="101.7785" transform="translate(-194.4708 -97.0816) rotate(-90)"/></clipPath></defs><polygon class="cls-3" points="4.086 28.738 4.086 77.131 45.995 101.327 87.905 77.131 87.905 28.738 45.995 4.541 4.086 28.738"/><path class="cls-4" d="M51.0434,36.312A13.8273,13.8273,0,1,1,64.8847,50.1445,13.8256,13.8256,0,0,1,51.0434,36.312Z"/><path class="cls-5" d="M51.783,36.3749h0a13.0561,13.0561,0,0,1,13.0637-13.063h0a13.0626,13.0626,0,0,1,13.0594,13.063h0A13.0677,13.0677,0,0,1,64.8467,49.441h0A13.0556,13.0556,0,0,1,51.783,36.3749Zm.4351,0h0a12.6275,12.6275,0,0,0,12.6286,12.63h0a12.6372,12.6372,0,0,0,12.6276-12.63h0A12.6441,12.6441,0,0,0,64.8467,23.7454h0A12.6343,12.6343,0,0,0,52.2181,36.3749Z"/><path class="cls-5" d="M55.5282,36.312h0a9.3406,9.3406,0,0,1,9.3489-9.352h.0076A9.3432,9.3432,0,0,1,74.23,36.3063v.0057h0a9.35,9.35,0,0,1-9.3456,9.35h-.0076a9.3442,9.3442,0,0,1-9.3489-9.35Zm.4341,0h0a8.905,8.905,0,0,0,8.9148,8.9162h.0076a8.9155,8.9155,0,0,0,8.9086-8.9162h0v-.0057a8.9241,8.9241,0,0,0-8.9086-8.9122h-.0076a8.9038,8.9038,0,0,0-8.9148,8.9179Z"/><path class="cls-6" d="M64.8847,27.9786a8.3229,8.3229,0,0,0-3.482,15.8938v-.68s.0678-1.0927.1367-1.5263c0,0-.0689-.3329.3644-.4l.188-.1532s.0214-.1012-.2745-.156h-.4631s-.1558-.0128-.2389-.2648l-1.6767-3.834s.3344-3.825.37-4.162l1.4962-1.5249a4.5246,4.5246,0,0,1,1.7436.03,7.7364,7.7364,0,0,0,1.3556,0s.9129-.1031.46.7251a2.5194,2.5194,0,0,1-2.2191,1.0789s-.8911-.258-.62.1923a1.4986,1.4986,0,0,1-.1211.8821,7.5867,7.5867,0,0,1,.5072.9509s.1207.28.5719-.0668a1.87,1.87,0,0,1,1.3779.6878A3.2841,3.2841,0,0,1,64.6,39.6677l.2465-.15a1.0441,1.0441,0,0,0,.26-.5912l-.0071.0224L65.11,38.91a.0232.0232,0,0,1-.0038.0168.5879.5879,0,0,1,.5434-.22S65.0481,37.5,65.43,36.825a1.994,1.994,0,0,0,1.5318.1771s.5025-.0719.684.0946a2.4545,2.4545,0,0,0,2.1488.0862s.6763-.4384.6084.3821c0,0-.9409,1.6144-1.2933,1.6144l-.0841.3088a3.7806,3.7806,0,0,1-.4826,1.0515s-.71.8424-1.3.8424a4.079,4.079,0,0,1,.3876,1.2036l.1572,1.5168a8.3236,8.3236,0,0,0-2.9035-16.1239Zm.0954,2.7059c-1.5284.77-2.0856-.3562-2.0856-.3562l-.3477.3712c-.8539.3044-.5894-.3363-.5894-.3363a1.9978,1.9978,0,0,1,1.091-1.0245,5.0434,5.0434,0,0,1,1.3556-.2515c.1525,0,.9243.0342,1.01.5844A1.2292,1.2292,0,0,1,64.98,30.6845Zm.0152,3.9584c-1.0934-.1187-.7077-.8874-.5913-1.1216.1254-.2185.6607-1.1727.6607-1.1727.0788-.3038.3885-1.5971.3885-1.5971a.7668.7668,0,0,1,.92-.7412.5678.5678,0,0,1,.6042.3728,6.7464,6.7464,0,0,1,.2855,1.2127,1.8627,1.8627,0,0,1,0,.6,5.6058,5.6058,0,0,1-.6227,1.5116A1.8892,1.8892,0,0,1,64.9953,34.6429Zm1.58.7928c-.806-.2524-.1705-.941-.0836-.9735.0988-.0223,1.206-2.1136,1.206-2.1136a.9156.9156,0,0,1,.3059-.4771c1.7916-.5289,1.6633,1.096,1.6633,1.096A15.2207,15.2207,0,0,1,68.3382,34.98,1.4357,1.4357,0,0,1,66.5751,35.4357Zm3.5476.336a1.3416,1.3416,0,0,1-1.4492.4695c-.79-.1491-.2883-.8749-.2883-.8749A18.3355,18.3355,0,0,0,69.7864,33.67c.664-.4717,1.0326.3714,1.0326.3714A1.9463,1.9463,0,0,1,70.1227,35.7717Z"/><path class="cls-6" d="M56.2473,42.7054l-.181-.2684a.7386.7386,0,0,0-.47-.337.61.61,0,0,0-.494.1159.6405.6405,0,0,0-.266.408.7385.7385,0,0,0,.1686.5021l.61.8172,1.59-1.1692-.35-.4839Zm-.6688.5056-.12-.1361a.4382.4382,0,0,1-.086-.2341.33.33,0,0,1,.1022-.1525.2829.2829,0,0,1,.1686-.034.4574.4574,0,0,1,.2009.1682l.085.1235Z"/><path class="cls-6" d="M55.6916,40.31l-.3506.0263-.2474-.6533.2645-.1952-.219-.6132-1.5954,1.4178.256.6127,2.1089-.0128Zm-1.5371.1106.5814-.47.172.42Z"/><path class="cls-6" d="M54.9079,37.32l-.8056.0641V37.32a.749.749,0,0,1,.0295-.1544.4625.4625,0,0,1,.15-.1171l.5737-.3712-.0323-.6854-.5538.3268a1.0691,1.0691,0,0,0-.1145.0934.684.684,0,0,0-.1078.1184.65.65,0,0,0-.0679.1468.5019.5019,0,0,0-.0812-.1975.7317.7317,0,0,0-.2185-.1905.8238.8238,0,0,0-.28-.0485.6753.6753,0,0,0-.3234.1169.37.37,0,0,0-.1487.25,1.1208,1.1208,0,0,0-.0152.4408l.0656,1.0215,1.9768-.1332Zm-1.5793.1156-.0176-.27c0-.1171,0-.2033.0366-.2358a.1491.1491,0,0,1,.1424-.0715.1926.1926,0,0,1,.1259.0347.2482.2482,0,0,1,.0632.0862c.0166.086.0333.1356.0333.1648l.018.2543Z"/><polygon class="cls-6" points="53.544 34.3 55.005 34.612 55.139 34.006 53.679 33.708 53.813 33.083 53.329 32.984 52.937 34.815 53.425 34.912 53.544 34.3"/><polygon class="cls-6" points="55.899 31.927 54.102 31.088 53.829 31.639 55.644 32.479 55.899 31.927"/><path class="cls-6" d="M56.97,30.1984a1.5,1.5,0,0,0,.1753-.3137.7859.7859,0,0,0,.046-.3251.8583.8583,0,0,0-.12-.338,1.76,1.76,0,0,0-.3549-.3553,1.3367,1.3367,0,0,0-.3343-.1966.8053.8053,0,0,0-.3534-.0518.7238.7238,0,0,0-.3173.0819,1.4062,1.4062,0,0,0-.3382.3045l-.5367.7194,1.5788,1.2069Zm-1.3062-.8077a.4339.4339,0,0,1,.2841-.2033.7041.7041,0,0,1,.4213.1848.846.846,0,0,1,.2355.236.25.25,0,0,1,.049.2047.7246.7246,0,0,1-.1411.234l-.0779.114-.8735-.6486Z"/><path class="cls-6" d="M58.7143,26.3148a1,1,0,0,0-.7714.2246.9247.9247,0,0,0-.2531,1.4252,1.2431,1.2431,0,0,0,.4364.4006.8044.8044,0,0,0,.4845.0677,1.2768,1.2768,0,0,0,.5239-.2344.9726.9726,0,0,0,.3738-.4173.784.784,0,0,0,.0822-.4723,1.149,1.149,0,0,0-.2384-.542A.9687.9687,0,0,0,58.7143,26.3148Zm.1439,1.5351a.473.473,0,0,1-.3254.0634.6934.6934,0,0,1-.3372-.2964.8148.8148,0,0,1-.17-.4265.3714.3714,0,0,1,.17-.2689.3814.3814,0,0,1,.3372-.0676.5974.5974,0,0,1,.3254.2685.7729.7729,0,0,1,.181.4389A.4568.4568,0,0,1,58.8582,27.85Z"/><path class="cls-6" d="M64.308,25.23a3.3117,3.3117,0,0,0-.588-.1421c-.1187,0-.1852-.01-.2147-.0453a.0879.0879,0,0,1-.0536-.0836.1257.1257,0,0,1,.0536-.1014.1977.1977,0,0,1,.1463-.062.2755.2755,0,0,1,.2043.048.2458.2458,0,0,1,.1149.1831l.5729-.091a.6633.6633,0,0,0-.2679-.4324.92.92,0,0,0-.59-.0829,1.1764,1.1764,0,0,0-.4863.1171.6031.6031,0,0,0-.2556.2358.5158.5158,0,0,0-.0494.3044.3935.3935,0,0,0,.2024.3473,1.0809,1.0809,0,0,0,.5889.2039.6489.6489,0,0,1,.32.0853.1581.1581,0,0,1,.086.1313A.326.326,0,0,1,64.0439,26a.3777.3777,0,0,1-.2066.0677.3149.3149,0,0,1-.2825-.0845.5858.5858,0,0,1-.0874-.22l-.5867.0819a.7228.7228,0,0,0,.2722.4862.9231.9231,0,0,0,.703.1187.8928.8928,0,0,0,.4655-.1187.5931.5931,0,0,0,.2878-.2639.68.68,0,0,0,.0679-.3536.7314.7314,0,0,0-.0993-.2892A.655.655,0,0,0,64.308,25.23Z"/><path class="cls-6" d="M67.098,24.5923a1.009,1.009,0,0,0-.786.113,1.04,1.04,0,0,0-.4265.6866A1.3009,1.3009,0,0,0,65.92,26a.6636.6636,0,0,0,.29.3855,1.09,1.09,0,0,0,.5139.2192,1.0772,1.0772,0,0,0,.57-.019.7168.7168,0,0,0,.3895-.2707,1.1158,1.1158,0,0,0,.2351-.5348,1.0983,1.0983,0,0,0-.1173-.7888A1.1285,1.1285,0,0,0,67.098,24.5923Zm.0157,1.4938a.3527.3527,0,0,1-.3178.0636.3622.3622,0,0,1-.2726-.1807.6047.6047,0,0,1-.0318-.4574.7964.7964,0,0,1,.2043-.4073.4144.4144,0,0,1,.3182-.062.3349.3349,0,0,1,.266.1874.623.623,0,0,1,.0318.4148A.6525.6525,0,0,1,67.1137,26.0861Z"/><path class="cls-6" d="M71.0071,26.7669a.9861.9861,0,0,0-.0466-.5526,1.1271,1.1271,0,0,0-.4574-.3992.9837.9837,0,0,0-.7851-.12,1.0043,1.0043,0,0,0-.579.5384,1.305,1.305,0,0,0-.1634.61.9285.9285,0,0,0,.1634.4652,1.3627,1.3627,0,0,0,.4223.3153.9039.9039,0,0,0,.4227.1411.68.68,0,0,0,.37-.0518,1.31,1.31,0,0,0,.3206-.2693l-.389-.3871a.4918.4918,0,0,1-.2474.1848.3334.3334,0,0,1-.2883-.0351.3251.3251,0,0,1-.1881-.2335.7052.7052,0,0,1,.1192-.4531.865.865,0,0,1,.2541-.3059.3841.3841,0,0,1,.3738,0,.4093.4093,0,0,1,.1164.1171.2653.2653,0,0,1,.0622.1536.6125.6125,0,0,1-.0157.153Z"/><polygon class="cls-6" points="72.487 27.19 71.157 28.67 71.626 29.076 72.957 27.617 72.487 27.19"/><path class="cls-6" d="M72.6681,30.2119l.321-.1137.4185.5671-.2185.2653.3885.5236,1.1576-1.7826-.3838-.53-2.05.5674Zm1.4472-.5027-.4379.5927-.27-.3586Z"/><polygon class="cls-6" points="74.47 33.811 74.936 33.636 74.616 32.734 76.03 32.246 75.839 31.674 73.962 32.314 74.47 33.811"/><polygon class="cls-6" points="74.735 35.349 76.699 35.081 76.617 34.462 74.649 34.749 74.735 35.349"/><path class="cls-6" d="M76.7172,36.9627a.8488.8488,0,0,0-.1976-.285.4172.4172,0,0,0-.2745-.1019.4969.4969,0,0,0-.4061.1347,1.427,1.427,0,0,0-.28.5543.77.77,0,0,1-.1519.3.1761.1761,0,0,1-.1283.051.19.19,0,0,1-.1425-.0819.3462.3462,0,0,1-.0536-.203.3925.3925,0,0,1,.1581-.2655.3326.3326,0,0,1,.219-.0518l.0157-.5887a.8415.8415,0,0,0-.5187.183,1.0134,1.0134,0,0,0-.2531.6776,1.5006,1.5006,0,0,0,.0318.4883.8512.8512,0,0,0,.2213.3144.6385.6385,0,0,0,.3515.1316.5343.5343,0,0,0,.3021-.0516.7006.7006,0,0,0,.2289-.2312,2.2515,2.2515,0,0,0,.2247-.5527c.0322-.12.0641-.1857.0978-.2016a.0631.0631,0,0,1,.0836-.0385.1056.1056,0,0,1,.1026.0544.1946.1946,0,0,1,.0333.1646.2794.2794,0,0,1-.0827.2016c-.0318.051-.1.0677-.2024.09l-.0146.5647a.5463.5463,0,0,0,.47-.1969.9945.9945,0,0,0,.199-.5593A1.6067,1.6067,0,0,0,76.7172,36.9627Z"/><polygon class="cls-6" points="75.621 40.169 74.23 39.629 73.999 40.204 75.407 40.744 75.174 41.333 75.621 41.497 76.298 39.75 75.839 39.578 75.621 40.169"/><path class="cls-6" d="M73.1369,41.8322l.2056.2678-.4089.5726-.3088-.1126-.3928.5149,2.05.5705.3838-.5361-1.1547-1.7758Zm.9257,1.2259-.7091-.2356.255-.3484Z"/><path class="cls-6" d="M64.0568,43.9824s-.0129.3686-.0541.8459a2.2186,2.2186,0,0,0,.2375.0166c-.0115-.2819-.0158-.6046-.0158-.9494C64.2244,43.8955,64.1907,43.3449,64.0568,43.9824Z"/><path class="cls-6" d="M65.6983,42.6344s-.0732,1.3677-.2023,2.2105c.1344-.0085.2731-.0268.4027-.0437-.0019-.4165-.0147-1.261-.03-2.2412C65.8683,42.56,65.8341,42.0209,65.6983,42.6344Z"/><path class="cls-7" d="M27.3928,67.6571c.1325.3982.1325.5305-.0228.6849a9.4266,9.4266,0,0,1-4.4192,1.0843c-4.3978,0-7.8-2.6959-7.8-8.2232,0-5.5218,3.3808-8.2184,7.8-8.2184A9.4167,9.4167,0,0,1,27.37,54.069c.1553.133.1553.2439.0228.5745l-.3553.93c-.11.1535-.3524.1081-.5752.0428a14.2,14.2,0,0,0-3.5115-.5313c-2.6741,0-4.8817,1.6363-4.8817,6.1184,0,4.4862,2.2318,6.1227,4.8817,6.1227a14.1386,14.1386,0,0,0,3.5115-.5318c.2014-.0636.465-.1114.5752.044Z"/><path class="cls-7" d="M22.9508,69.8847c-5.0931,0-8.26-3.327-8.26-8.6816,0-5.352,3.1667-8.677,8.26-8.677a9.7976,9.7976,0,0,1,4.6876,1.17.8724.8724,0,0,1,.18,1.119l-.4085,1.0255a.7279.7279,0,0,1-.6151.2954,1.7033,1.7033,0,0,1-.4607-.0786,13.6374,13.6374,0,0,0-3.3828-.5134c-2.894,0-4.4225,1.9583-4.4225,5.6588,0,3.6512,1.5713,5.6634,4.4225,5.6634a13.7154,13.7154,0,0,0,3.38-.5121.9754.9754,0,0,1,1.0782.2166l.4023.9025a1.0416,1.0416,0,0,1-.1182,1.1929A9.6267,9.6267,0,0,1,22.9508,69.8847Zm0-16.44c-4.5949,0-7.3412,2.9-7.3412,7.7587,0,4.8614,2.7463,7.762,7.3412,7.762a9.3821,9.3821,0,0,0,4.0691-.9423,1.647,1.647,0,0,0-.0655-.2216l-.2584-.5951a.7.7,0,0,0-.0893.0261,14.8892,14.8892,0,0,1-3.6559.5531c-1.6059,0-5.342-.6405-5.342-6.5822,0-5.9374,3.7361-6.5779,5.342-6.5779a14.8248,14.8248,0,0,1,3.6084.54c.0542.0156.0969.027.1287.0344l.2741-.72a.8542.8542,0,0,0,.0385-.1057A9.4443,9.4443,0,0,0,22.9508,53.4444Z"/><path class="cls-7" d="M37.3064,69.16c-.31,0-.3742-.1333-.4431-.442l-.2194-.9084h-.0447a3.3715,3.3715,0,0,1-3.1814,1.6163,3.8188,3.8188,0,0,1-4.1546-4.0021c0-2.85,2.0989-3.6,4.6168-3.6h2.2746c-.1092-.9307-.5733-2.5843-2.4067-2.5843a9.0323,9.0323,0,0,0-2.4959.55c-.42.1322-.5087.0463-.5748-.0438l-.4645-.7075a.4119.4119,0,0,1,.0238-.5737,6.2249,6.2249,0,0,1,3.8211-1.0837c3.8226,0,4.7944,2.7423,4.7944,5.9v5.4368c0,.3087-.132.442-.4427.442ZM36.2,63.6808H33.88c-1.1694,0-1.9422.6168-1.9422,1.6783a2.0844,2.0844,0,0,0,2.0975,2.208c1.3494,0,2.1649-.9944,2.1649-3.2448Z"/><path class="cls-7" d="M33.4178,69.8847a4.2537,4.2537,0,0,1-4.6134-4.46c0-2.6931,1.7085-4.0594,5.0756-4.0594h1.73A1.8707,1.8707,0,0,0,33.7479,59.7a8.9437,8.9437,0,0,0-2.3592.5275c-.7167.23-1.0083-.1076-1.08-.2088L29.828,59.29a.8674.8674,0,0,1,.0631-1.13,6.5715,6.5715,0,0,1,4.1665-1.2383c3.4868,0,5.2532,2.1393,5.2532,6.36v5.4368a.8281.8281,0,0,1-.9015.9008H37.3064a.8531.8531,0,0,1-.8924-.8037v-.0023A4.1643,4.1643,0,0,1,33.4178,69.8847Zm.4622-7.6013c-2.8736,0-4.1565.9695-4.1565,3.1408a3.371,3.371,0,0,0,3.6943,3.5409,2.9758,2.9758,0,0,0,2.7772-1.3733l.1287-.2406h.636l.1283.3522.2237.9077c.0076.0353.0142.065.0171.0847l1.0591.005.0039-5.4192c0-3.7133-1.377-5.4411-4.3342-5.4411a5.8947,5.8947,0,0,0-3.4815.9334l.4118.612c.0323-.0076.0721-.0183.1268-.0342a9.4355,9.4355,0,0,1,2.6332-.5705c1.5955,0,2.6395,1.0894,2.8642,2.989l.06.5132Zm.1553,5.7425a2.5479,2.5479,0,0,1-2.5582-2.6668A2.1389,2.1389,0,0,1,33.88,63.22h2.7814v1.102C36.6614,67.5445,35.0142,68.0259,34.0353,68.0259ZM33.88,64.1392c-.4446,0-1.4838.1182-1.4838,1.22a1.6642,1.6642,0,0,0,1.6391,1.7472c.4232,0,1.7061,0,1.7061-2.784v-.1831Z"/><path class="cls-7" d="M43.1776,64.1427a3.1154,3.1154,0,0,1-2.3426-3.2c0-2.0364,1.4364-3.5616,4.13-3.5616A6.1514,6.1514,0,0,1,48.81,58.4649c.0893.09.2223.2441,0,.5737l-.464.7075c-.0884.2007-.3752.1114-.5733.0438a7.3558,7.3558,0,0,0-2.563-.55c-1.3028,0-1.8548.5733-1.8548,1.4356a1.0479,1.0479,0,0,0,.8607,1.08l2.5829.7534a3.0164,3.0164,0,0,1,2.52,3.3336c0,2.3874-2.163,3.5831-4.5958,3.5831-1.8543,0-3.5562-.5106-3.9765-1.0843a.4353.4353,0,0,1-.0228-.5752l.465-.7073c.11-.1531.3743-.1106.5738-.0422a8.5822,8.5822,0,0,0,2.8284.55c1.8339,0,2.2077-.7731,2.2077-1.48,0-.6851-.4407-.9718-1.7218-1.37Z"/><path class="cls-7" d="M44.7232,69.8847c-1.7,0-3.7376-.4377-4.3474-1.2725a.8934.8934,0,0,1-.0328-1.1017l.4621-.7017a.958.958,0,0,1,1.1072-.2257,8.1593,8.1593,0,0,0,2.6788.5232c1.7494,0,1.7494-.7136,1.7494-1.0188,0-.3082-.067-.5177-1.4-.9329l-1.8956-.572a3.5591,3.5591,0,0,1-2.6693-3.64c0-2.4435,1.8034-4.0211,4.5891-4.0211a6.5455,6.5455,0,0,1,4.17,1.2183.849.849,0,0,1,.0575,1.1542l-.4631.7037a.6373.6373,0,0,1-.6018.3312,1.6076,1.6076,0,0,1-.5044-.1049A7.0125,7.0125,0,0,0,45.21,59.7c-1.3964,0-1.3964.7075-1.3964.9761,0,.3463.153.5312.5267.6381l2.5887.7545a3.4544,3.4544,0,0,1,2.8493,3.7747C49.7783,68.636,47.24,69.8847,44.7232,69.8847Zm-3.2223-2.4635-.3913.5976c.2764.4182,1.7142.9463,3.6136.9463,1.908,0,4.1375-.8181,4.1375-3.1219A2.5763,2.5763,0,0,0,46.6729,62.95l-2.5862-.7528a1.4988,1.4988,0,0,1-1.1917-1.5216c0-.57.2261-1.8947,2.315-1.8947a7.8005,7.8005,0,0,1,2.7183.5754.7061.7061,0,0,0,.1078.034l.3905-.603a5.436,5.436,0,0,0-3.4617-.9471c-2.2637,0-3.67,1.1877-3.67,3.1023a2.6722,2.6722,0,0,0,2.0172,2.76l1.8975.5744c1.1623.36,2.0491.7234,2.0491,1.81,0,.7227-.3439,1.9384-2.668,1.9384a9.1,9.1,0,0,1-2.9733-.5721A.6391.6391,0,0,0,41.5009,67.4212Z"/><path class="cls-7" d="M55.336,69.4176c-1.9906,0-3.05-1.1257-3.05-3.4479V59.6742h-1.148c-.3107,0-.4413-.133-.4413-.4413v-.8618c0-.3118.1306-.4446.4413-.4446h1.148v-1.7c0-.31.1548-.3306.4422-.4419l1.7683-.66c.2869-.1117.44.1329.44.4405v2.3613h1.3926c.3087,0,.4422.1328.4422.4446v.8618c0,.3083-.1335.4413-.4422.4413H54.9366v6.3639c0,1.0794.5528,1.5249,1.0606,1.5249h.1548c.3073,0,.4417.1323.4417.4413v.9727c0,.3083-.1344.4406-.4417.4406Z"/><path class="cls-7" d="M56.152,69.8771h-.816c-2.2637,0-3.5081-1.3891-3.5081-3.9074V60.134h-.69a.8287.8287,0,0,1-.902-.9011v-.8618a.8293.8293,0,0,1,.902-.9034h.69V56.2263a.8284.8284,0,0,1,.6535-.8407l1.8553-.692a.81.81,0,0,1,1.0587.8716v1.9025h.9338a.8283.8283,0,0,1,.901.9034v.8618a.8277.8277,0,0,1-.901.9011h-.9338v5.9041c0,.7353.303,1.0661.6018,1.0661h.1548a.8263.8263,0,0,1,.9005.9v.9727A.8266.8266,0,0,1,56.152,69.8771ZM51.1539,59.2092l1.5916.0064V65.97c0,2.0393.8222,2.989,2.59,2.989h.7956l.0033-.9328-.1377-.0031c-.7324,0-1.519-.6217-1.519-1.9847V59.2156h1.8286l.0058-.8246-1.8344-.004V55.6146l-1.5888.6c-.0655.0246-.1111.0394-.1439.0519v2.12H51.16Z"/><path class="cls-7" d="M59.1985,69.4176c-.3082,0-.4427-.1323-.4427-.4406V58.3711c0-.3118.1345-.4446.4427-.4446h1.1029c.3116,0,.3116.1584.4422.4446l.2208.8412h.0442a3.068,3.068,0,0,1,3.0061-1.461c.3092,0,.3961.0206.3961.3336V59.74c0,.5733-.4854.3337-.9048.3337a1.9023,1.9023,0,0,0-2.1008,2.1405V68.977c0,.3083-.13.4406-.4408.4406Z"/><path class="cls-7" d="M60.9644,69.8771H59.1985a.8288.8288,0,0,1-.9025-.9V58.3711a.83.83,0,0,1,.9025-.9034h1.1029a.795.795,0,0,1,.8084.5916l.0736.2032a3.558,3.558,0,0,1,2.7349-.9687c.341.0015.9524-.0016.9524.7911V59.74c0,.6237-.4394.91-1.1243.8139a2.27,2.27,0,0,0-.24-.0216c-1.119,0-1.64.5346-1.64,1.6819V68.977A.828.828,0,0,1,60.9644,69.8771Zm-1.75-.9241,1.7288.0057.0034-6.7446a2.35,2.35,0,0,1,2.5591-2.6012,2.5838,2.5838,0,0,1,.3586.0313c.0281.0031.0575.0081.0841.011l.0029-1.443a2.5841,2.5841,0,0,0-2.5559,1.2511l-.1377.2088h-.6018l-.1349-.3435-.26-.9193a.0529.0529,0,0,1-.0081-.0214l-1.034-.0009Z"/><path class="cls-7" d="M65.6192,63.4068c0-3.2911,1.1048-6.0546,5.3468-6.0546s5.3463,2.7635,5.3463,6.033c0,3.29-1.1039,6.0112-5.3463,6.0112S65.6192,66.7012,65.6192,63.4068Zm8.0423-.0216c0-2.1859-.4845-4.0407-2.6955-4.0407-2.2082,0-2.6955,1.8548-2.6955,4.0407,0,2.2109.4873,4.0232,2.6955,4.0232C73.177,67.4084,73.6615,65.5961,73.6615,63.3852Z"/><path class="cls-7" d="M70.966,69.8559c-3.8525,0-5.8066-2.1694-5.8066-6.4491,0-4.3228,1.9541-6.5138,5.8066-6.5138s5.8056,2.1839,5.8056,6.4922C76.7716,67.6792,74.82,69.8559,70.966,69.8559Zm0-12.0441c-3.3339,0-4.8866,1.7781-4.8866,5.595,0,3.824,1.5067,5.53,4.8866,5.53,3.3338,0,4.8879-1.7636,4.8879-5.5519C75.8539,59.583,74.3,57.8118,70.966,57.8118Zm0,10.0564c-3.1538,0-3.1538-3.374-3.1538-4.483,0-1.112,0-4.5,3.1538-4.5s3.1548,3.3882,3.1548,4.5C74.1208,65.31,73.794,67.8682,70.966,67.8682Zm0-8.0639c-1.5689,0-2.2362,1.0716-2.2362,3.5809,0,2.5315.6483,3.5637,2.2362,3.5637s2.2357-1.0322,2.2357-3.5637C73.2017,60.8759,72.5339,59.8043,70.966,59.8043Z"/><path class="cls-7" d="M34.6661,54.9957a.3124.3124,0,0,1-.304-.172L33.064,52.7593H32.27v2.0314c0,.1437-.0617.205-.2051.205h-.8778c-.143,0-.2033-.0613-.2033-.205V47.8535c0-.1437.06-.204.2033-.204h1.9383A2.5543,2.5543,0,0,1,34.3,52.5051l1.5712,2.3279c.0793.1123.0793.1627-.0813.1627ZM32.922,51.852c1,0,1.54-.5386,1.54-1.64,0-1.1057-.5395-1.6441-1.54-1.6548H32.27V51.852Z"/><path class="cls-7" d="M35.79,55.0871H34.6661A.4105.4105,0,0,1,34.28,54.87l-1.2687-2.02h-.653v1.9407a.2637.2637,0,0,1-.294.2964h-.8778a.2648.2648,0,0,1-.2959-.2964V47.8535a.2642.2642,0,0,1,.2959-.2957h1.9383A2.625,2.625,0,0,1,35.84,50.2115,2.593,2.593,0,0,1,34.4329,52.54l1.5147,2.2419c.0332.0446.0964.1346.0541.2184C35.9637,55.076,35.872,55.0871,35.79,55.0871Zm-3.6145-2.4188h.9409L34.44,54.7748a.226.226,0,0,0,.2266.1283h1.14l-.01-.0157-1.6339-2.42.0978-.0439a2.42,2.42,0,0,0,1.3965-2.2115A2.4467,2.4467,0,0,0,33.1252,47.74H31.1869c-.0917,0-.1116.02-.1116.1131v6.9372c0,.0933.02.1124.1116.1124h.8778c.0907,0,.1106-.0191.1106-.1124Zm.7467-.7262h-.7467V48.4653h.7467a1.5225,1.5225,0,0,1,1.6334,1.7462C34.5554,51.3433,33.9906,51.9421,32.922,51.9421Zm-.5633-.1819h.5633c.9613,0,1.4505-.5218,1.4505-1.5487,0-1.0405-.4773-1.552-1.452-1.5632h-.5618Z"/><path class="cls-7" d="M40.1943,54.9957c-.1411,0-.1738-.0613-.2028-.205l-.1041-.4163h-.0189a1.557,1.557,0,0,1-1.4691.7422,1.7621,1.7621,0,0,1-1.9189-1.8437c0-1.3175.97-1.6655,2.1341-1.6655h1.0511a1.1739,1.1739,0,0,0-1.1124-1.1952,4.2687,4.2687,0,0,0-1.1542.255c-.1938.0656-.2347.0207-.2646-.0183l-.2147-.3267a.1914.1914,0,0,1,.0105-.2651,2.8579,2.8579,0,0,1,1.7635-.4989c1.766,0,2.2182,1.2629,2.2182,2.7239v2.5086c0,.1437-.0637.205-.2057.205Zm-.5092-2.5307h-1.07c-.543,0-.9.2871-.9.7764a.9635.9635,0,0,0,.9717,1.0181c.6194,0,.9989-.4558.9989-1.5Z"/><path class="cls-7" d="M38.3994,55.2089a1.85,1.85,0,0,1-2.01-1.936c0-1.1836.7291-1.7562,2.2253-1.7562h.9432a1.0383,1.0383,0,0,0-1.0045-1.0128,4.0483,4.0483,0,0,0-1.0882.2381l-.0385.0129c-.2408.0812-.3386-.0112-.3676-.05l-.2185-.3323a.2828.2828,0,0,1,.0209-.3769,2.905,2.905,0,0,1,1.8324-.5288c1.5527,0,2.307.9207,2.307,2.8153v2.5086a.2642.2642,0,0,1-.2945.2964h-.512c-.2171,0-.2622-.1313-.2926-.2764l-.0575-.2287A1.71,1.71,0,0,1,38.3994,55.2089Zm.2152-3.509c-1.3932,0-2.0425.5-2.0425,1.573a1.669,1.669,0,0,0,1.8273,1.7537,1.4629,1.4629,0,0,0,1.3888-.6957l.0242-.0486H39.94l.0375.07.1026.416c.03.1345.0418.1345.1145.1345h.512c.0912,0,.1107-.0191.1107-.1124V52.2821c0-1.7711-.6935-2.6323-2.1232-2.6323a2.7994,2.7994,0,0,0-1.6961.4686c-.0408.0468-.05.0788-.0009.1544l.2137.3268c.0147.0175.0147.0308.16-.02l.0408-.0123a4.107,4.107,0,0,1,1.1419-.2463c.947,0,1.1551.892,1.2017,1.2763l.0128.1029Zm.0716,2.6512a1.06,1.06,0,0,1-1.0629-1.11.8743.8743,0,0,1,.9913-.8676h1.1613v.3855C39.7759,54.0756,39.1826,54.3511,38.6862,54.3511Zm-.0716-1.7942c-.5069,0-.808.2565-.808.6845a.8748.8748,0,0,0,.88.9264c.6023,0,.9077-.4747.9077-1.4085v-.2024Z"/><path class="cls-7" d="M45.56,54.9957c-.142,0-.1739-.0613-.2038-.205l-.1025-.4163h-.0205a1.5544,1.5544,0,0,1-1.3574.7422,1.9227,1.9227,0,0,1-2.05-1.9987V49.8911c0-.1394.0608-.2037.1938-.2037h.8365c.1329,0,.1928.0643.1928.2037V52.77c0,.7856.2256,1.4891.9309,1.4891.7234,0,1.0683-.5377,1.0683-1.59V49.8911c0-.1394.0645-.2037.2052-.2037h.8178c.1421,0,.2024.0643.2024.2037v4.9c0,.1437-.06.205-.2024.205Z"/><path class="cls-7" d="M43.8754,55.2089a2.0046,2.0046,0,0,1-2.1427-2.091V49.8911a.2618.2618,0,0,1,.2869-.2947h.8365a.2614.2614,0,0,1,.2849.2947V52.77c0,.6365.1463,1.3974.8388,1.3974.6588,0,.979-.49.979-1.4978V49.8911a.265.265,0,0,1,.2945-.2947h.8178a.2648.2648,0,0,1,.2945.2947v4.9a.2644.2644,0,0,1-.2945.2964H45.56c-.217,0-.2613-.1313-.2931-.2764l-.0565-.227A1.72,1.72,0,0,1,43.8754,55.2089ZM42.02,49.779c-.076,0-.1045.0181-.1045.1121v3.2268a1.8333,1.8333,0,0,0,1.96,1.9087,1.47,1.47,0,0,0,1.2781-.694l.0242-.05h.1273l.0376.07.1.416c.0308.1345.0437.1345.1168.1345h.5115c.0893,0,.1112-.0191.1112-.1124v-4.9c0-.089-.0219-.1121-.1112-.1121h-.8178c-.09,0-.1107.0231-.1107.1121V52.67c0,1.1154-.3914,1.6811-1.1628,1.6811-.6592,0-1.0221-.5609-1.0221-1.5807V49.8911c0-.094-.0261-.1121-.1016-.1121Z"/><path class="cls-7" d="M48.7006,54.9957c-.9172,0-1.4088-.52-1.4088-1.59V47.65c0-.1444.0613-.2047.2038-.2047h.816c.1454,0,.2052.06.2052.2047v5.6833c0,.5721.1534.8046.2854.8046h.0718c.1434,0,.2038.0608.2038.2042v.4491c0,.1437-.06.205-.2038.205Z"/><path class="cls-7" d="M48.874,55.0871h-.1734c-.9823,0-1.499-.5814-1.499-1.6816V47.65a.2637.2637,0,0,1,.294-.2964h.816a.2642.2642,0,0,1,.2964.2964v5.6833c0,.5443.142.7122.1942.7122h.0718a.2644.2644,0,0,1,.2945.2966v.4491A.2642.2642,0,0,1,48.874,55.0871Zm-1.3784-7.5507c-.0907,0-.11.02-.11.1131v5.756c0,1.0076.4289,1.4976,1.3147,1.4976h.1734c.0912,0,.1116-.0191.1116-.1124v-.4491c0-.0935-.02-.1125-.1116-.1125h-.0718c-.1833,0-.378-.2359-.378-.8963V47.65c0-.0931-.02-.1131-.1126-.1131Z"/><path class="cls-7" d="M15.5583,73.675a.2081.2081,0,0,1,.2062-.2H16.98a1.2751,1.2751,0,0,1,.8051.247,1.0944,1.0944,0,0,1,.41.9027,1.1483,1.1483,0,0,1-.4394.9291,1.3724,1.3724,0,0,1-.8283.2215h-.96v1.0466c.0157.2558-.4208.2558-.41,0Zm.41,1.74h.8939a1.0823,1.0823,0,0,0,.6-.1386.766.766,0,0,0,.3187-.6517.7029.7029,0,0,0-.2978-.631.899.899,0,0,0-.5647-.1594h-.95Z"/><path class="cls-7" d="M22.0555,73.675a.2012.2012,0,0,1,.2047-.2H23.488a1.5206,1.5206,0,0,1,.8512.2.9677.9677,0,0,1,.4165.8668.99.99,0,0,1-.4108.8374,1.204,1.204,0,0,1-.5039.2047l.8573,1.0936a.23.23,0,0,1,.0574.138.2108.2108,0,0,1-.2123.2055.2046.2046,0,0,1-.1743-.0972L23.37,75.6053h-.903v1.2166a.2058.2058,0,0,1-.4113,0Zm.4113,1.5855h.9647a1.2454,1.2454,0,0,0,.6008-.1188.7491.7491,0,0,0,.0095-1.1943,1.1969,1.1969,0,0,0-.6018-.1233h-.9732Z"/><path class="cls-7" d="M28.6766,73.675a.2005.2005,0,0,1,.2043-.2h2.1606a.1749.1749,0,0,1,.1753.18.18.18,0,0,1-.1753.1848h-1.955v1.1955h1.6886c.23-.0062.23.3794,0,.3643H29.0865v1.2052h1.955a.18.18,0,0,1,.1753.1855.1776.1776,0,0,1-.1753.1786H28.8809a.2.2,0,0,1-.2043-.2Z"/><path class="cls-7" d="M35.086,76.3387a3.5873,3.5873,0,0,1,.3752.19,1.3494,1.3494,0,0,0,.6156.1378c.5329,0,.8008-.26.8008-.6457,0-.2313-.1482-.4064-.4432-.5342a4.7677,4.7677,0,0,0-.4664-.1546,3.3276,3.3276,0,0,1-.5481-.2056.8179.8179,0,0,1-.5187-.7683c0-.58.4412-.9291,1.2368-.9291a2.0158,2.0158,0,0,1,.8.1487c.1591.0608.2355.1444.2355.2418a.1842.1842,0,0,1-.1942.1892,2.2676,2.2676,0,0,1-.3491-.1337,1.5372,1.5372,0,0,0-.514-.0916c-.5177,0-.7841.1945-.7841.5633,0,.242.1748.3961.502.5194a3.4246,3.4246,0,0,0,.3282.1019,3.0633,3.0633,0,0,1,.7039.2574.8356.8356,0,0,1,.4527.7586.9141.9141,0,0,1-.3448.76,1.3722,1.3722,0,0,1-.8977.2772,2.2774,2.2774,0,0,1-.9965-.2461c-.1269-.0774-.1943-.1537-.1943-.2356A.1906.1906,0,0,1,35.086,76.3387Z"/><path class="cls-7" d="M41.188,73.6287c-.011-.257.4255-.257.41,0v3.1932c.0157.2558-.4208.2558-.41,0Z"/><path class="cls-7" d="M45.6536,73.675a.2007.2007,0,0,1,.2038-.2h1.0934a1.8647,1.8647,0,0,1,1.4572.5481,1.7243,1.7243,0,0,1,.4057,1.2022,1.6028,1.6028,0,0,1-.6512,1.39,2.1416,2.1416,0,0,1-1.2882.3536H45.8574a.2.2,0,0,1-.2038-.2Zm.41,2.9462h.7708a1.7388,1.7388,0,0,0,1.02-.2773,1.29,1.29,0,0,0,.5382-1.1186,1.3934,1.3934,0,0,0-.3282-.9656,1.5047,1.5047,0,0,0-1.179-.4356h-.8216Z"/><path class="cls-7" d="M52.7251,73.675a.2017.2017,0,0,1,.2056-.2H55.09a.1743.1743,0,0,1,.1753.18.18.18,0,0,1-.1753.1848H53.1359v1.1955h1.6872c.2312-.0062.2312.3794,0,.3643H53.1359v1.2052H55.09a.1792.1792,0,0,1,.1753.1855.177.177,0,0,1-.1753.1786H52.9307a.2013.2013,0,0,1-.2056-.2Z"/><path class="cls-7" d="M59.1,73.65a.2274.2274,0,0,1,.2308-.2207.2479.2479,0,0,1,.2038.1121l2.1972,2.7613V73.6187a.1977.1977,0,0,1,.2009-.19.1943.1943,0,0,1,.1943.19V76.8a.2236.2236,0,0,1-.2361.2207.2744.2744,0,0,1-.2052-.1124l-2.192-2.761v2.6886a.1927.1927,0,0,1-.2.1848.1875.1875,0,0,1-.1937-.1848Z"/><path class="cls-7" d="M65.9769,73.475h2.54a.1782.1782,0,0,1,.1757.18.1808.1808,0,0,1-.1757.1848H67.4493v2.9818c.0147.2558-.4208.2558-.41,0V73.84h-1.062a.1826.1826,0,0,1,0-.3651Z"/><path class="cls-7" d="M72.361,73.675a.2023.2023,0,0,1,.2056-.2h2.1593a.1748.1748,0,0,1,.1752.18.18.18,0,0,1-.1752.1848h-1.955v1.1955H74.46c.2308-.0062.2308.3794,0,.3643h-1.689v1.2052h1.955a.18.18,0,0,1,.1752.1855.1776.1776,0,0,1-.1752.1786H72.5666a.2019.2019,0,0,1-.2056-.2Z"/><polygon class="cls-1" points="-188.731 29.238 -188.731 77.631 -146.822 101.828 -104.912 77.631 -104.912 29.238 -146.822 5.042 -188.731 29.238"/><g class="cls-8"><g class="cls-9"><rect class="cls-10" x="-294.4812" y="44.0702" width="452.9418" height="2.8226"/><rect class="cls-11" x="-294.4812" y="46.8928" width="452.9418" height="2.8224"/><rect class="cls-7" x="-294.4812" y="49.7154" width="452.9418" height="1.3146"/><rect class="cls-7" x="-294.4812" y="42.7259" width="452.9418" height="1.3147"/></g></g></svg>