<svg xmlns="http://www.w3.org/2000/svg" xmlns:xlink="http://www.w3.org/1999/xlink" width="92.6371" height="105.1817" viewBox="0 0 92.6371 105.1817"><defs><style>.cls-1,.cls-6{fill:#fff;}.cls-2{fill:none;}.cls-10,.cls-11,.cls-2,.cls-9{stroke:#fff;stroke-miterlimit:10;stroke-width:0.985px;}.cls-3{isolation:isolate;}.cls-4{fill:#a4a3a3;}.cls-5{clip-path:url(#clip-path);}.cls-6,.cls-7,.cls-9{mix-blend-mode:multiply;}.cls-8{clip-path:url(#clip-path-2);}.cls-9{fill:url(#radial-gradient);}.cls-10{fill:#f1f1f1;}.cls-11{fill:#0971b7;}</style><clipPath id="clip-path"><path class="cls-1" d="M65.4055,42.0345c.215-5.1453-12.1027-7.6514-12.6361-8.2368-.2662-.2928.6166-7.86-6.0646-7.8556-6.68-.0043-5.7984,7.5628-6.0635,7.8556-.5346.5854-12.8523,3.0915-12.636,8.2368s6.7531,2.5041,8.146,4.0188c1.22,1.3241-5.7142,9.8116-6.4916,15.2008-.2539,1.7544.2407,2.096,1.9483,2.096,3.095,0,6.0526-.0023,8.7726-.0023,1.23,0,1.6679-.7074,2.301-1.681,1.404-2.1537,3.1007-5.62,4.0232-5.62s2.6192,3.4663,4.0231,5.62c.6355.9736,1.0713,1.6787,2.3022,1.6787,2.7212,0,5.6765.0046,8.7726.0046,1.7064,0,2.2-.3416,1.9472-2.096-.7763-5.3892-7.71-13.8767-6.4916-15.2008C58.6532,44.5386,65.19,47.18,65.4055,42.0345Z"/></clipPath><clipPath id="clip-path-2"><path class="cls-2" d="M65.4055,42.0345c.215-5.1453-12.1027-7.6514-12.6361-8.2368-.2662-.2928.6166-7.86-6.0646-7.8556-6.68-.0043-5.7984,7.5628-6.0635,7.8556-.5346.5854-12.8523,3.0915-12.636,8.2368s6.7531,2.5041,8.146,4.0188c1.22,1.3241-5.7142,9.8116-6.4916,15.2008-.2539,1.7544.2407,2.096,1.9483,2.096,3.095,0,6.0526-.0023,8.7726-.0023,1.23,0,1.6679-.7074,2.301-1.681,1.404-2.1537,3.1007-5.62,4.0232-5.62s2.6192,3.4663,4.0231,5.62c.6355.9736,1.0713,1.6787,2.3022,1.6787,2.7212,0,5.6765.0046,8.7726.0046,1.7064,0,2.2-.3416,1.9472-2.096-.7763-5.3892-7.71-13.8767-6.4916-15.2008C58.6532,44.5386,65.19,47.18,65.4055,42.0345Z"/></clipPath><radialGradient id="radial-gradient" cx="334.5138" cy="116.4748" r="71.573" gradientTransform="matrix(0.9877, -0.2565, 0.2329, 0.8967, -294.2529, 49.0825)" gradientUnits="userSpaceOnUse"><stop offset="0.2182" stop-color="#2761aa"/><stop offset="0.3087" stop-color="#367cbd"/><stop offset="0.4788" stop-color="#56b7e8"/><stop offset="0.4953" stop-color="#60bbe9"/><stop offset="0.5851" stop-color="#90d0f0"/><stop offset="0.6744" stop-color="#b8e1f5"/><stop offset="0.7617" stop-color="#d7eefa"/><stop offset="0.8463" stop-color="#edf7fd"/><stop offset="0.9271" stop-color="#fafdfe"/><stop offset="1" stop-color="#fff"/></radialGradient></defs><g class="cls-3"><g id="Layer_1" data-name="Layer 1"><polygon class="cls-4" points="5.034 27.645 5.034 76.038 46.944 100.234 88.853 76.038 88.853 27.645 46.944 3.449 5.034 27.645"/><path class="cls-1" d="M65.4055,42.0345c.215-5.1453-12.1027-7.6514-12.6361-8.2368-.2662-.2928.6166-7.86-6.0646-7.8556-6.68-.0043-5.7984,7.5628-6.0635,7.8556-.5346.5854-12.8523,3.0915-12.636,8.2368s6.7531,2.5041,8.146,4.0188c1.22,1.3241-5.7142,9.8116-6.4916,15.2008-.2539,1.7544.2407,2.096,1.9483,2.096,3.095,0,6.0526-.0023,8.7726-.0023,1.23,0,1.6679-.7074,2.301-1.681,1.404-2.1537,3.1007-5.62,4.0232-5.62s2.6192,3.4663,4.0231,5.62c.6355.9736,1.0713,1.6787,2.3022,1.6787,2.7212,0,5.6765.0046,8.7726.0046,1.7064,0,2.2-.3416,1.9472-2.096-.7763-5.3892-7.71-13.8767-6.4916-15.2008C58.6532,44.5386,65.19,47.18,65.4055,42.0345Z"/><g class="cls-5"><path class="cls-6" d="M35.119,72.3994l.01-.0026c-.1952-1.171,5.7-1.0748,5.2135-2.256-2.7591-6.7027-1.421-18.8435,7.09-24.4443,8.54-5.609,17.9829-6.2707,24.8836-3.4526.1671.0684.3258.1475.49.22l-.4991-1.9219a57.1421,57.1421,0,0,0-51.7022-3.0232l9.0039,34.67a16.9867,16.9867,0,0,1,2.74-.1558A14.0036,14.0036,0,0,1,35.119,72.3994Z"/><g class="cls-7"><path class="cls-1" d="M18.8776,30.8686,25.2948,55.578c5.7032,1.7791,7.5442,2.625,11.1829,7.1992,1.5784,1.9842,3.09,4.8187,2.5406,7.478l38.69-8.9163L66.9194,19.7973c-.8282-.2689-1.656-.52-2.4834-.76Z"/></g><g class="cls-7"><path class="cls-1" d="M55.677,21.3117,18.8776,30.8686l9.8492,37.9243a21.25,21.25,0,0,1,15.0977,1.3457l33.8835-8.8-8.66-33.3453A74.4172,74.4172,0,0,0,55.677,21.3117Z"/></g></g><path class="cls-1" d="M18.4807,67.6379h2.7229a2.674,2.674,0,0,1,.8368.111,1.3786,1.3786,0,0,1,.5453.3267,1.043,1.043,0,0,1,.2153.3194,1.0668,1.0668,0,0,1,.0834.4377v.0136a1.0254,1.0254,0,0,1-.2362.705,1.4694,1.4694,0,0,1-.6321.4063,1.7865,1.7865,0,0,1,.7552.41,1.0251,1.0251,0,0,1,.28.7712v.014a1.2272,1.2272,0,0,1-.1185.5381,1.1737,1.1737,0,0,1-.3546.4271,1.7486,1.7486,0,0,1-.5879.2813,2.9386,2.9386,0,0,1-.81.1008H18.4807Zm2.2922,1.91q.5139,0,.514-.3334v-.014q0-.333-.521-.3335h-.7014v.6809Zm.1043,1.7224a.6816.6816,0,0,0,.3993-.0971.302.302,0,0,0,.1354-.2572v-.0135a.3043.3043,0,0,0-.132-.2572.6655.6655,0,0,0-.396-.097h-.8194v.722Z"/><path class="cls-1" d="M25.9334,72.6041a2.7723,2.7723,0,0,1-1.0453-.1945,2.6343,2.6343,0,0,1-.84-.5347,2.4548,2.4548,0,0,1-.7605-1.7923v-.014a2.4141,2.4141,0,0,1,.2048-.99,2.5282,2.5282,0,0,1,.5627-.8055,2.6427,2.6427,0,0,1,.8438-.5419,2.892,2.892,0,0,1,2.0941-.0034,2.643,2.643,0,0,1,.8407.5347,2.4579,2.4579,0,0,1,.7605,1.7923v.0135a2.4134,2.4134,0,0,1-.2051.99,2.5236,2.5236,0,0,1-.5626.8059,2.646,2.646,0,0,1-.8438.5419A2.758,2.758,0,0,1,25.9334,72.6041Zm.014-1.4377a.9427.9427,0,0,0,.4167-.0906.9918.9918,0,0,0,.3194-.2394,1.0425,1.0425,0,0,0,.2015-.3441,1.2087,1.2087,0,0,0,.0695-.41v-.014a1.19,1.19,0,0,0-.0729-.4131,1.1371,1.1371,0,0,0-.205-.3508.9854.9854,0,0,0-.32-.2432.9715.9715,0,0,0-.4237-.09.9548.9548,0,0,0-.4167.09,1.0064,1.0064,0,0,0-.32.24,1.0476,1.0476,0,0,0-.2015.3436,1.21,1.21,0,0,0-.0694.41v.0135a1.1863,1.1863,0,0,0,.073.4136,1.131,1.131,0,0,0,.2049.3508.9722.9722,0,0,0,.32.2428A.959.959,0,0,0,25.9474,71.1664Z"/><path class="cls-1" d="M30.7331,67.6031h1.6113L34.3934,72.5H32.6291l-.2572-.6529H30.67l-.25.6529H28.684Zm1.2363,3.0909-.4449-1.1808L31.08,70.694Z"/><path class="cls-1" d="M34.5947,67.6379H36.97a3.268,3.268,0,0,1,1.0732.1491,1.7934,1.7934,0,0,1,.6771.4063,1.4839,1.4839,0,0,1,.3335.5,1.7513,1.7513,0,0,1,.111.653V69.36a1.5382,1.5382,0,0,1-.2568.9029,1.7808,1.7808,0,0,1-.7016.5835L39.3384,72.5H37.4839l-.9169-1.3893H36.22V72.5H34.5947Zm2.3265,2.313a.7506.7506,0,0,0,.4584-.125.4094.4094,0,0,0,.167-.3475v-.014a.3967.3967,0,0,0-.167-.3508.7858.7858,0,0,0-.4512-.1144H36.22v.9517Z"/><path class="cls-1" d="M39.5608,67.6379h1.8614a4.2625,4.2625,0,0,1,1.2677.17,2.4976,2.4976,0,0,1,.9063.4826,1.9788,1.9788,0,0,1,.5419.7538,2.572,2.572,0,0,1,.1805.9825v.014a2.6054,2.6054,0,0,1-.1843.9932,2.0486,2.0486,0,0,1-.5555.7779,2.6058,2.6058,0,0,1-.9237.5071,4.1525,4.1525,0,0,1-1.2884.18H39.5608Zm1.8961,3.4451a1.4889,1.4889,0,0,0,.8923-.24.8841.8841,0,0,0,.33-.7674v-.0139a.8846.8846,0,0,0-.33-.7674,1.4889,1.4889,0,0,0-.8923-.24h-.2707V71.083Z"/><path class="cls-1" d="M47.3815,72.6041a3.0969,3.0969,0,0,1-1.066-.1805,2.6355,2.6355,0,0,1-.8686-.514,2.3984,2.3984,0,0,1-.5835-.7991,2.4551,2.4551,0,0,1-.2118-1.0279v-.014a2.51,2.51,0,0,1,.2017-1.0071,2.4034,2.4034,0,0,1,.5626-.8054,2.6126,2.6126,0,0,1,.8508-.5314,2.9047,2.9047,0,0,1,1.0661-.1911,3.1333,3.1333,0,0,1,1.1355.1945,2.9751,2.9751,0,0,1,.9.5419l-.91,1.0974a2.04,2.04,0,0,0-.5072-.3127,1.4508,1.4508,0,0,0-.5694-.111,1.09,1.09,0,0,0-.4377.0869,1.047,1.047,0,0,0-.3474.2394,1.0708,1.0708,0,0,0-.2254.3614,1.2671,1.2671,0,0,0-.08.4584v.0136a1.2475,1.2475,0,0,0,.0868.4724,1.0884,1.0884,0,0,0,.24.3682,1.0544,1.0544,0,0,0,.3643.236,1.2734,1.2734,0,0,0,.4691.0835,1.5834,1.5834,0,0,0,.3334-.028.7893.7893,0,0,0,.222-.083v-.4864H47.173V69.6314h2.3545v2.2452a3.2287,3.2287,0,0,1-.9376.5266A3.4539,3.4539,0,0,1,47.3815,72.6041Z"/><path class="cls-1" d="M51.6952,67.6031h1.6113L55.3555,72.5H53.5912l-.2571-.6529H51.6325l-.25.6529H49.6462Zm1.2363,3.0909-.4448-1.1808-.4445,1.1808Z"/><path class="cls-1" d="M55.5568,67.6379h1.6948l1.0419,1.7088,1.0414-1.7088H61.03V72.5H59.4116V70.09L58.29,71.8189h-.0275L57.14,70.09V72.5H55.5568Z"/><path class="cls-1" d="M61.5856,67.6379h4.1463v1.3334H63.183v.4931h2.3752v1.1741H63.183v.5279h2.5837V72.5H61.5856Z"/><path class="cls-1" d="M66.2044,67.6379H68.58a3.268,3.268,0,0,1,1.0732.1491,1.7934,1.7934,0,0,1,.6771.4063,1.4839,1.4839,0,0,1,.3335.5,1.7513,1.7513,0,0,1,.111.653V69.36a1.5382,1.5382,0,0,1-.2568.9029,1.7808,1.7808,0,0,1-.7016.5835L70.9481,72.5H69.0936l-.9169-1.3893H67.83V72.5H66.2044Zm2.3265,2.313a.7506.7506,0,0,0,.4584-.125.4094.4094,0,0,0,.167-.3475v-.014a.3967.3967,0,0,0-.167-.3508.7858.7858,0,0,0-.4512-.1144H67.83v.9517Z"/><path class="cls-1" d="M73.2611,72.59a4.5349,4.5349,0,0,1-1.3855-.2047,3.0605,3.0605,0,0,1-1.108-.6148l.8682-1.0351a2.5828,2.5828,0,0,0,.8334.4377,2.9887,2.9887,0,0,0,.8681.1318.6758.6758,0,0,0,.32-.0555.17.17,0,0,0,.0975-.1525v-.014c0-.07-.0475-.1276-.1424-.1737a2.4813,2.4813,0,0,0-.5313-.1458q-.41-.0832-.7813-.1945a2.7175,2.7175,0,0,1-.6529-.2847,1.388,1.388,0,0,1-.4483-.4343,1.1826,1.1826,0,0,1-.1665-.6495v-.0136a1.5394,1.5394,0,0,1,.1356-.6461,1.4792,1.4792,0,0,1,.3957-.5207,1.873,1.873,0,0,1,.6457-.3475,2.8685,2.8685,0,0,1,.886-.125,4.1574,4.1574,0,0,1,1.24.1665,2.9719,2.9719,0,0,1,.955.5l-.7919,1.0974a2.4332,2.4332,0,0,0-.733-.3648,2.552,2.552,0,0,0-.7258-.1144.5038.5038,0,0,0-.2673.0555.1677.1677,0,0,0-.0869.1458v.0139a.16.16,0,0,0,.028.09.268.268,0,0,0,.1008.08.9864.9864,0,0,0,.1979.0728q.1252.0349.32.07a7.1986,7.1986,0,0,1,.8474.2017,2.4946,2.4946,0,0,1,.6563.3021,1.3487,1.3487,0,0,1,.4237.4411,1.2243,1.2243,0,0,1,.1491.6249v.014a1.5191,1.5191,0,0,1-.1525.6877,1.4736,1.4736,0,0,1-.4309.5173,2.0282,2.0282,0,0,1-.6771.3267A3.2119,3.2119,0,0,1,73.2611,72.59Z"/><path class="cls-1" d="M29.3456,74.1556h1.8615a4.2586,4.2586,0,0,1,1.2675.17,2.5,2.5,0,0,1,.9065.4826,1.9727,1.9727,0,0,1,.5417.7537,2.5729,2.5729,0,0,1,.1807.9826v.014a2.6064,2.6064,0,0,1-.1841.9931,2.0519,2.0519,0,0,1-.5557.7779,2.6035,2.6035,0,0,1-.9237.5072,4.155,4.155,0,0,1-1.2884.18h-1.806Zm1.8962,3.4452a1.4889,1.4889,0,0,0,.8925-.24.8837.8837,0,0,0,.33-.7673V76.58a.8844.8844,0,0,0-.33-.7673,1.49,1.49,0,0,0-.8925-.24h-.2709v2.0283Z"/><path class="cls-1" d="M34.5477,74.1556h4.147V75.489H36.1453v.4932h2.3755v1.1741H36.1453v.5279h2.5841v1.3334H34.5477Z"/><path class="cls-1" d="M40.931,74.1556h1.6253v3.4727h2.285v1.3893h-3.91Z"/><path class="cls-1" d="M45.1955,74.1556h4.1464V75.489h-2.549v.4932h2.3752v1.1741H46.7929v.5279h2.5837v1.3334H45.1955Z"/><path class="cls-1" d="M49.8287,74.1556h1.6249v4.862H49.8287Z"/><path class="cls-1" d="M52.023,74.1556h2.3753a3.2659,3.2659,0,0,1,1.0732.1492,1.7921,1.7921,0,0,1,.6771.4063,1.4821,1.4821,0,0,1,.3334.5,1.7487,1.7487,0,0,1,.1111.6529v.0136a1.5384,1.5384,0,0,1-.2568.9029,1.78,1.78,0,0,1-.7017.5834l1.1322,1.6533H54.9122l-.9169-1.3893h-.347v1.3893H52.023Zm2.3266,2.313a.75.75,0,0,0,.4584-.125.4092.4092,0,0,0,.1669-.3474v-.014a.3967.3967,0,0,0-.1669-.3508.785.785,0,0,0-.4512-.1144h-.7085v.9516Z"/><path class="cls-1" d="M57.0032,74.1556h1.6249v4.862H57.0032Z"/><path class="cls-1" d="M60.8928,74.1209h1.6113l2.049,4.8967H62.7888l-.2572-.6529H60.83l-.25.6529H58.8437Zm1.2363,3.0909-.4449-1.1809L61.24,77.2118Z"/><g class="cls-8"><path class="cls-9" d="M35.119,72.3994l.01-.0026c-.1952-1.171,5.7-1.0748,5.2135-2.256-2.7591-6.7027-1.421-18.8435,7.09-24.4443,8.54-5.609,17.9829-6.2707,24.8836-3.4526.1671.0684.3258.1475.49.22l-.4991-1.9219a57.1421,57.1421,0,0,0-51.7022-3.0232l9.0039,34.67a16.9867,16.9867,0,0,1,2.74-.1558A14.0036,14.0036,0,0,1,35.119,72.3994Z"/><g class="cls-7"><path class="cls-10" d="M18.8776,30.8686,25.2948,55.578c5.7032,1.7791,7.5442,2.625,11.1829,7.1992,1.5784,1.9842,3.09,4.8187,2.5406,7.478l38.69-8.9163L66.9194,19.7973c-.8282-.2689-1.656-.52-2.4834-.76Z"/></g><g class="cls-7"><path class="cls-11" d="M55.677,21.3117,18.8776,30.8686l9.8492,37.9243a21.25,21.25,0,0,1,15.0977,1.3457l33.8835-8.8-8.66-33.3453A74.4172,74.4172,0,0,0,55.677,21.3117Z"/></g></g><path class="cls-2" d="M65.4055,42.0345c.215-5.1453-12.1027-7.6514-12.6361-8.2368-.2662-.2928.6166-7.86-6.0646-7.8556-6.68-.0043-5.7984,7.5628-6.0635,7.8556-.5346.5854-12.8523,3.0915-12.636,8.2368s6.7531,2.5041,8.146,4.0188c1.22,1.3241-5.7142,9.8116-6.4916,15.2008-.2539,1.7544.2407,2.096,1.9483,2.096,3.095,0,6.0526-.0023,8.7726-.0023,1.23,0,1.6679-.7074,2.301-1.681,1.404-2.1537,3.1007-5.62,4.0232-5.62s2.6192,3.4663,4.0231,5.62c.6355.9736,1.0713,1.6787,2.3022,1.6787,2.7212,0,5.6765.0046,8.7726.0046,1.7064,0,2.2-.3416,1.9472-2.096-.7763-5.3892-7.71-13.8767-6.4916-15.2008C58.6532,44.5386,65.19,47.18,65.4055,42.0345Z"/><path class="cls-1" d="M38.9323,19.9224l-.9958-.9759.2851,1.3741-.15,1.235L35.62,21.2425l.17-1.222.6267-1.2591-1.2316.6876-1.21.2129-.4617-2.3877,1.2124-.2287,1.397.1867-1.045-.94-.5757-1.09L36.628,14.025l.5847,1.0942.2647,1.383.5793-1.2731.8258-.9125L40.69,15.9921l-.8539.9075-1.2406.6373,1.383.1649,1.1277.5291L40.0551,20.449Z"/><path class="cls-1" d="M48.561,19.9224l-.9957-.9759.285,1.3741-.15,1.235-2.4518-.3131.17-1.222.6266-1.2591-1.2315.6876-1.21.2129-.4618-2.3877,1.2125-.2287,1.3969.1867-1.0449-.94-.5758-1.09,2.1259-1.1773.5847,1.0942.2648,1.383.5792-1.2731.8258-.9125,1.8077,1.6755-.854.9075-1.24.6373,1.3829.1649,1.1278.5291L49.6839,20.449Z"/><path class="cls-1" d="M57.8909,19.9224l-.9957-.9759.285,1.3741-.15,1.235-2.4518-.3131.17-1.222.6267-1.2591-1.2315.6876-1.21.2129-.4617-2.3877,1.2124-.2287,1.397.1867-1.045-.94-.5757-1.09,2.1259-1.1773.5847,1.0942.2648,1.383.5792-1.2731.8258-.9125,1.8077,1.6755-.854.9075-1.2405.6373,1.3829.1649,1.1277.5291L59.0137,20.449Z"/><path class="cls-1" d="M31.8259,82.53h.6426l.8172,1.9528h-.7036l-.1025-.26H31.801l-.1.26h-.6925Zm.4931,1.2326-.1773-.4708-.1773.4708Z"/><path class="cls-1" d="M34.6429,84.5185a1.8078,1.8078,0,0,1-.5526-.0817,1.2186,1.2186,0,0,1-.4418-.2451l.3462-.4128a1.0293,1.0293,0,0,0,.3324.1746,1.1974,1.1974,0,0,0,.3463.0526.2708.2708,0,0,0,.1274-.0222.0676.0676,0,0,0,.0387-.0609v-.0055c0-.0278-.0189-.0508-.0567-.0694a1.0023,1.0023,0,0,0-.212-.058q-.1634-.0333-.3115-.0777a1.0775,1.0775,0,0,1-.26-.1135.5536.5536,0,0,1-.1787-.1731.4717.4717,0,0,1-.0665-.259v-.0055a.6186.6186,0,0,1,.054-.2577.5963.5963,0,0,1,.1579-.2077.7449.7449,0,0,1,.2576-.1384,1.1431,1.1431,0,0,1,.3532-.05,1.6525,1.6525,0,0,1,.4944.0665,1.1831,1.1831,0,0,1,.3809.1994l-.3158.4376a.9734.9734,0,0,0-.2922-.1454,1.0167,1.0167,0,0,0-.2894-.0457.2016.2016,0,0,0-.1067.0222.0665.0665,0,0,0-.0346.0581v.0056a.063.063,0,0,0,.011.0359.1064.1064,0,0,0,.04.032.41.41,0,0,0,.0789.0289c.0333.0093.0757.0186.1275.0279a2.8384,2.8384,0,0,1,.3379.08.9969.9969,0,0,1,.2618.1206.5375.5375,0,0,1,.1689.1758.4887.4887,0,0,1,.06.2493v.0056a.6046.6046,0,0,1-.061.2741.5848.5848,0,0,1-.1717.2064.8039.8039,0,0,1-.27.13A1.277,1.277,0,0,1,34.6429,84.5185Z"/><path class="cls-1" d="M36.5873,83.092h-.5706v-.5484h1.7894v.5484h-.5706v1.3905h-.6482Z"/><path class="cls-1" d="M38.3961,82.5436H40.05v.5319H39.0332v.1966H39.98V83.74h-.9472v.21h1.03v.5319H38.3961Z"/><path class="cls-1" d="M40.6812,82.5436h.9473a1.2982,1.2982,0,0,1,.428.0595.7136.7136,0,0,1,.27.1621.5923.5923,0,0,1,.133.1993.701.701,0,0,1,.0443.26v.0056a.6134.6134,0,0,1-.1025.36.71.71,0,0,1-.28.2326l.4515.6593h-.74l-.3656-.5539h-.1385v.5539h-.6482Zm.9279.9223a.3.3,0,0,0,.1829-.05.1636.1636,0,0,0,.0664-.1386v-.0055a.1581.1581,0,0,0-.0664-.14.3133.3133,0,0,0-.18-.0457h-.2825v.3794Z"/><path class="cls-1" d="M43.11,82.5436h.6482v1.9389H43.11Z"/><path class="cls-1" d="M45.2626,84.5185a1.8082,1.8082,0,0,1-.5526-.0817,1.2182,1.2182,0,0,1-.4417-.2451l.3462-.4128a1.0273,1.0273,0,0,0,.3324.1746,1.1967,1.1967,0,0,0,.3462.0526.2705.2705,0,0,0,.1274-.0222.0675.0675,0,0,0,.0388-.0609v-.0055c0-.0278-.0189-.0508-.0568-.0694a.999.999,0,0,0-.2119-.058q-.1634-.0333-.3116-.0777a1.0792,1.0792,0,0,1-.26-.1135.5533.5533,0,0,1-.1786-.1731.4709.4709,0,0,1-.0665-.259v-.0055a.617.617,0,0,1,.054-.2577.5939.5939,0,0,1,.1579-.2077.7431.7431,0,0,1,.2576-.1384,1.1427,1.1427,0,0,1,.3532-.05,1.6535,1.6535,0,0,1,.4944.0665,1.1831,1.1831,0,0,1,.3809.1994l-.3158.4376a.9745.9745,0,0,0-.2922-.1454,1.0168,1.0168,0,0,0-.29-.0457.2018.2018,0,0,0-.1067.0222.0665.0665,0,0,0-.0346.0581v.0056a.0631.0631,0,0,0,.0111.0359.1064.1064,0,0,0,.04.032.41.41,0,0,0,.0789.0289q.05.014.1274.0279a2.84,2.84,0,0,1,.338.08.9962.9962,0,0,1,.2617.1206.5369.5369,0,0,1,.169.1758.4886.4886,0,0,1,.0595.2493v.0056a.6045.6045,0,0,1-.0609.2741.5848.5848,0,0,1-.1717.2064.8039.8039,0,0,1-.27.13A1.2772,1.2772,0,0,1,45.2626,84.5185Z"/><path class="cls-1" d="M47.6724,84.5241a1.0282,1.0282,0,0,1-.3836-.0721.9753.9753,0,0,1-.54-.5234,1.0065,1.0065,0,0,1-.0818-.41v-.0056a1.0154,1.0154,0,0,1,.079-.4016.9732.9732,0,0,1,.2188-.3214,1.0069,1.0069,0,0,1,.3283-.2118,1.0656,1.0656,0,0,1,.4044-.0763,1.1,1.1,0,0,1,.295.0374.9612.9612,0,0,1,.2437.104.871.871,0,0,1,.1939.1592,1.0657,1.0657,0,0,1,.1454.2035l-.5345.313a.5273.5273,0,0,0-.1372-.17.3715.3715,0,0,0-.3642-.032.3436.3436,0,0,0-.1136.0914.4369.4369,0,0,0-.0734.1358.5036.5036,0,0,0-.0263.1634v.0056a.5427.5427,0,0,0,.0263.1731.4025.4025,0,0,0,.0748.1357.3434.3434,0,0,0,.115.0886.3342.3342,0,0,0,.1468.0318.3391.3391,0,0,0,.2215-.0678.6132.6132,0,0,0,.1441-.1758l.5346.3018a1.2442,1.2442,0,0,1-.144.2037.8758.8758,0,0,1-.1953.1661.994.994,0,0,1-.2549.1122A1.1536,1.1536,0,0,1,47.6724,84.5241Z"/><path class="cls-1" d="M50.1681,84.5241a1.1071,1.1071,0,0,1-.4169-.0775,1.05,1.05,0,0,1-.3351-.2133.9781.9781,0,0,1-.3033-.7146v-.0056a.9622.9622,0,0,1,.0817-.3948,1.0064,1.0064,0,0,1,.2243-.3213,1.054,1.054,0,0,1,.3366-.216,1.1525,1.1525,0,0,1,.8351-.0014,1.0526,1.0526,0,0,1,.3352.2132.9781.9781,0,0,1,.3033.7147v.0056a.9637.9637,0,0,1-.0817.3947,1.0083,1.0083,0,0,1-.2244.3213,1.0546,1.0546,0,0,1-.3365.216A1.0993,1.0993,0,0,1,50.1681,84.5241Zm.0055-.5735a.38.38,0,0,0,.1663-.0359.3976.3976,0,0,0,.1273-.0956.4168.4168,0,0,0,.08-.1371.4829.4829,0,0,0,.0277-.1633v-.0056a.4729.4729,0,0,0-.0291-.1649.4517.4517,0,0,0-.0817-.14.3814.3814,0,0,0-.2964-.1328.3785.3785,0,0,0-.1662.036.3978.3978,0,0,0-.1274.0954.4163.4163,0,0,0-.08.1372.4814.4814,0,0,0-.0277.1634v.0056a.4726.4726,0,0,0,.029.1648.452.452,0,0,0,.0818.14.38.38,0,0,0,.2963.1328Z"/><path class="cls-1" d="M52.6831,84.5185a1.8082,1.8082,0,0,1-.5526-.0817,1.2182,1.2182,0,0,1-.4417-.2451l.3462-.4128a1.0293,1.0293,0,0,0,.3324.1746,1.1967,1.1967,0,0,0,.3462.0526.271.271,0,0,0,.1275-.0222.0676.0676,0,0,0,.0387-.0609v-.0055c0-.0278-.0189-.0508-.0568-.0694a.999.999,0,0,0-.2119-.058q-.1634-.0333-.3116-.0777a1.081,1.081,0,0,1-.26-.1135.5543.5543,0,0,1-.1786-.1731.4717.4717,0,0,1-.0665-.259v-.0055a.617.617,0,0,1,.054-.2577.5951.5951,0,0,1,.1579-.2077.744.744,0,0,1,.2576-.1384,1.1427,1.1427,0,0,1,.3532-.05,1.653,1.653,0,0,1,.4944.0665,1.1831,1.1831,0,0,1,.3809.1994l-.3158.4376a.9734.9734,0,0,0-.2922-.1454,1.0168,1.0168,0,0,0-.29-.0457.2014.2014,0,0,0-.1066.0222.0665.0665,0,0,0-.0346.0581v.0056a.063.063,0,0,0,.011.0359.1064.1064,0,0,0,.04.032.41.41,0,0,0,.0789.0289q.05.014.1274.0279a2.84,2.84,0,0,1,.338.08.9984.9984,0,0,1,.2618.1206.5375.5375,0,0,1,.1689.1758.4887.4887,0,0,1,.06.2493v.0056a.6046.6046,0,0,1-.061.2741.5848.5848,0,0,1-.1717.2064.8039.8039,0,0,1-.27.13A1.2772,1.2772,0,0,1,52.6831,84.5185Z"/><path class="cls-1" d="M54.09,83.8454h.6426v.6371H54.09Z"/><path class="cls-1" d="M56.3671,84.5241a1.1066,1.1066,0,0,1-.4168-.0775,1.0489,1.0489,0,0,1-.3352-.2133.9781.9781,0,0,1-.3033-.7146v-.0056a.9622.9622,0,0,1,.0817-.3948,1.0064,1.0064,0,0,1,.2243-.3213,1.054,1.054,0,0,1,.3366-.216A1.1525,1.1525,0,0,1,56.79,82.58a1.0515,1.0515,0,0,1,.3352.2132.9781.9781,0,0,1,.3033.7147v.0056a.9637.9637,0,0,1-.0817.3947,1.0083,1.0083,0,0,1-.2244.3213,1.0546,1.0546,0,0,1-.3365.216A1.0993,1.0993,0,0,1,56.3671,84.5241Zm.0055-.5735a.38.38,0,0,0,.1663-.0359.3965.3965,0,0,0,.1273-.0956.4168.4168,0,0,0,.08-.1371.48.48,0,0,0,.0277-.1633v-.0056a.4729.4729,0,0,0-.0291-.1649.4517.4517,0,0,0-.0817-.14.3814.3814,0,0,0-.2964-.1328.3785.3785,0,0,0-.1662.036.3989.3989,0,0,0-.1274.0954.4163.4163,0,0,0-.08.1372.4814.4814,0,0,0-.0277.1634v.0056a.475.475,0,0,0,.029.1648.452.452,0,0,0,.0818.14.38.38,0,0,0,.2963.1328Z"/><path class="cls-1" d="M58.0484,82.5436h.9474a1.298,1.298,0,0,1,.4279.0595.7148.7148,0,0,1,.27.1621.592.592,0,0,1,.1329.1993.7009.7009,0,0,1,.0444.26v.0056a.6135.6135,0,0,1-.1026.36.71.71,0,0,1-.28.2326l.4515.6593h-.74l-.3656-.5539h-.1385v.5539h-.6482Zm.928.9223a.3.3,0,0,0,.1828-.05.1636.1636,0,0,0,.0664-.1386v-.0055a.1581.1581,0,0,0-.0664-.14.3131.3131,0,0,0-.18-.0457h-.2825v.3794Z"/><path class="cls-1" d="M61.5163,84.5241a1.2321,1.2321,0,0,1-.4251-.0721,1.0462,1.0462,0,0,1-.3463-.205.9512.9512,0,0,1-.2326-.3184.9773.9773,0,0,1-.0845-.41v-.0056a.9988.9988,0,0,1,.08-.4016.96.96,0,0,1,.2244-.3214,1.0365,1.0365,0,0,1,.3393-.2118,1.1573,1.1573,0,0,1,.4252-.0763,1.249,1.249,0,0,1,.4528.0776,1.1881,1.1881,0,0,1,.3587.2161l-.3628.4376a.8107.8107,0,0,0-.2022-.1247.5822.5822,0,0,0-.2272-.0443.4343.4343,0,0,0-.1745.0347.4177.4177,0,0,0-.1385.0956.4284.4284,0,0,0-.09.1439.5083.5083,0,0,0-.0318.1829v.0056a.4988.4988,0,0,0,.0346.1883.434.434,0,0,0,.0956.1468.4214.4214,0,0,0,.1454.0941.5054.5054,0,0,0,.1869.0333.6363.6363,0,0,0,.133-.0111.3153.3153,0,0,0,.0887-.0332v-.1939h-.3325v-.4128h.9391v.8954a1.2848,1.2848,0,0,1-.374.21A1.3779,1.3779,0,0,1,61.5163,84.5241Z"/></g></g></svg>