<?xml version="1.0" encoding="utf-8"?>
<!-- Generator: Adobe Illustrator 25.2.0, SVG Export Plug-In . SVG Version: 6.00 Build 0)  -->
<svg version="1.1" id="Layer_1" xmlns="http://www.w3.org/2000/svg" xmlns:xlink="http://www.w3.org/1999/xlink" x="0px" y="0px"
	 viewBox="0 0 92.64 105.18" style="enable-background:new 0 0 92.64 105.18;" xml:space="preserve">
<style type="text/css">
	.st0{fill:#A4A3A3;}
	.st1{clip-path:url(#SVGID_2_);}
	.st2{fill:#FFFFFF;}
	.st3{clip-path:url(#SVGID_4_);}
	.st4{fill:url(#XMLID_2_);stroke:#FFFFFF;stroke-width:0.985;stroke-miterlimit:10;}
	.st5{fill:#F1F1F1;stroke:#FFFFFF;stroke-width:0.985;stroke-miterlimit:10;}
	.st6{fill:#0971B7;stroke:#FFFFFF;stroke-width:0.985;stroke-miterlimit:10;}
	.st7{fill:#EB665B;}
	.st8{fill:none;stroke:#F1F1F1;stroke-width:1.2214;stroke-miterlimit:10;}
	.st9{fill:#F1F1F1;stroke:#F1F1F1;stroke-width:0.0611;stroke-miterlimit:10;}
	.st10{fill:#303031;}
	.st11{fill:#C2C1C6;}
	.st12{clip-path:url(#SVGID_14_);}
	.st13{fill:url(#XMLID_3_);}
	.st14{fill:#F7F7F9;}
	.st15{fill:#2776BA;}
	.st16{clip-path:url(#SVGID_18_);}
	.st17{fill:url(#XMLID_4_);}
	.st18{clip-path:url(#SVGID_22_);}
	.st19{fill:url(#XMLID_5_);}
	.st20{fill:#00AE9E;}
	.st21{fill:#3C3C3B;}
	.st22{fill:#333333;}
	.st23{fill:none;stroke:#FFFBED;stroke-width:0.4428;stroke-linecap:round;stroke-miterlimit:10;}
	.st24{fill:none;stroke:#333333;stroke-width:0.8855;stroke-linecap:round;stroke-miterlimit:10;}
	.st25{fill:#221E20;stroke:#CCCBCB;stroke-width:1.9538;stroke-miterlimit:10;}
	.st26{fill:#F0F0F1;}
	.st27{fill:#A5A7AA;}
	.st28{clip-path:url(#SVGID_24_);}
	.st29{fill:url(#XMLID_6_);}
	.st30{fill:#F1F1F1;}
	.st31{fill:#0971B7;}
	.st32{clip-path:url(#SVGID_26_);}
	.st33{fill:url(#XMLID_7_);}
	.st34{clip-path:url(#SVGID_28_);}
	.st35{fill:url(#XMLID_8_);}
	.st36{fill-rule:evenodd;clip-rule:evenodd;fill:#FFFFFF;}
	.st37{clip-path:url(#SVGID_30_);}
	.st38{clip-path:url(#SVGID_32_);}
	.st39{clip-path:url(#SVGID_34_);}
	.st40{fill:none;}
	.st41{fill:#FFF4BC;}
	.st42{clip-path:url(#SVGID_34_);fill:none;}
	.st43{opacity:0.48;clip-path:url(#SVGID_32_);fill:url(#SVGID_35_);}
	.st44{fill:url(#SVGID_36_);}
	.st45{fill:#FBCC75;}
	.st46{fill:url(#SVGID_37_);}
	.st47{opacity:0.38;}
	.st48{opacity:0.51;fill:#FFFFFF;stroke:#000000;stroke-width:0.0348;stroke-miterlimit:10;}
	.st49{fill:url(#SVGID_38_);}
	.st50{fill:#FBD03D;}
	.st51{opacity:0.19;fill:url(#SVGID_39_);}
	.st52{fill:#4CBBEB;}
	.st53{fill:#181713;}
	.st54{fill:#19476B;}
	.st55{fill:#0074B6;}
	.st56{fill:#39BBEC;}
	.st57{clip-path:url(#SVGID_41_);}
	.st58{clip-path:url(#SVGID_43_);}
	.st59{clip-path:url(#SVGID_45_);}
	.st60{clip-path:url(#SVGID_45_);fill:#A4A3A3;}
	.st61{opacity:0.48;clip-path:url(#SVGID_43_);fill:#A4A3A3;}
	.st62{fill:#F6F1F0;}
	.st63{fill:#393F44;}
	.st64{fill:#221E20;}
	.st65{fill:#1DBBEE;}
	.st66{fill:#E7DFDF;}
	.st67{fill:#FBFBFB;}
	.st68{fill:url(#SVGID_46_);}
	.st69{fill:#FFFFFF;stroke:#FFFFFF;stroke-width:0.5064;stroke-miterlimit:10;}
	.st70{clip-path:url(#SVGID_54_);}
	.st71{clip-path:url(#SVGID_56_);}
	.st72{clip-path:url(#SVGID_58_);}
	.st73{clip-path:url(#SVGID_60_);}
	.st74{clip-path:url(#SVGID_62_);}
	.st75{clip-path:url(#SVGID_64_);}
	.st76{clip-path:url(#SVGID_66_);}
	.st77{clip-path:url(#SVGID_68_);}
	.st78{fill:#1A1A1A;}
	.st79{clip-path:url(#SVGID_70_);}
	.st80{fill:url(#XMLID_9_);}
	.st81{clip-path:url(#SVGID_72_);}
	.st82{fill:url(#XMLID_10_);}
	.st83{clip-path:url(#SVGID_74_);}
	.st84{fill:url(#XMLID_11_);}
	.st85{fill:#CAE7FA;}
	.st86{fill:none;stroke:#364052;stroke-width:1.1979;stroke-miterlimit:10;}
	.st87{fill:#DBDEDD;}
	.st88{fill:#585858;}
	.st89{stroke:#DBDEDD;stroke-width:0.2995;stroke-miterlimit:10;}
	.st90{fill:#989898;}
	.st91{fill:#C0282E;}
	.st92{fill:#B3B3B2;}
	.st93{clip-path:url(#SVGID_78_);}
	.st94{fill:url(#XMLID_13_);}
	.st95{clip-path:url(#SVGID_82_);}
	.st96{fill:url(#XMLID_14_);}
	.st97{clip-path:url(#SVGID_86_);}
	.st98{fill:url(#XMLID_15_);}
	.st99{fill:url(#SVGID_87_);}
	.st100{fill:#0073BA;}
	.st101{fill:#0A0A0C;}
	.st102{clip-path:url(#SVGID_89_);}
	.st103{fill:#ECE1CE;}
	.st104{clip-path:url(#SVGID_99_);}
	.st105{fill:url(#XMLID_16_);}
	.st106{fill:url(#SVGID_100_);}
	.st107{fill:#1EB8EC;}
	.st108{fill:url(#SVGID_101_);}
	.st109{fill:#E2161B;}
	.st110{fill-rule:evenodd;clip-rule:evenodd;fill:#E2161B;}
	.st111{clip-path:url(#SVGID_103_);}
	.st112{clip-path:url(#SVGID_105_);}
	.st113{clip-path:url(#SVGID_107_);}
	.st114{fill:#EBEBEB;}
	.st115{clip-path:url(#SVGID_107_);fill:#EBEBEB;}
	.st116{opacity:0.48;clip-path:url(#SVGID_105_);fill:#EBEBEB;}
	.st117{fill:#43AC4C;}
	.st118{fill:#8CBF43;}
	.st119{fill:#EA5B2A;}
	.st120{fill:#1C75BB;}
	.st121{fill:#D81E5D;}
	.st122{fill:#28A8DF;}
	.st123{fill:#F29121;}
	.st124{fill:#59595B;}
	.st125{fill-rule:evenodd;clip-rule:evenodd;fill:#E52A2B;}
	.st126{fill:url(#SVGID_108_);}
	.st127{fill:#1D1D1B;}
	.st128{fill:#05BAEE;}
	.st129{clip-path:url(#SVGID_110_);}
	.st130{fill:#642577;}
	.st131{opacity:0.4;}
	.st132{opacity:0.3;fill:#13120D;}
	.st133{clip-path:url(#SVGID_112_);}
	.st134{fill-rule:evenodd;clip-rule:evenodd;fill:#F8F8F7;}
	.st135{fill-rule:evenodd;clip-rule:evenodd;fill:#EFEEED;}
	.st136{fill-rule:evenodd;clip-rule:evenodd;fill:#E9E6E3;}
	.st137{fill-rule:evenodd;clip-rule:evenodd;fill:#E0DCD7;}
	.st138{fill-rule:evenodd;clip-rule:evenodd;fill:#D7CBBD;}
	.st139{fill-rule:evenodd;clip-rule:evenodd;fill:#BEA98F;}
	.st140{fill:#23211C;}
	.st141{fill-rule:evenodd;clip-rule:evenodd;fill:#23211C;}
	.st142{fill-rule:evenodd;clip-rule:evenodd;fill:#AD8C53;}
	.st143{fill:#FAF3CE;}
	.st144{fill-rule:evenodd;clip-rule:evenodd;fill:#0086C8;}
	.st145{clip-path:url(#SVGID_114_);fill:url(#SVGID_115_);}
	.st146{clip-path:url(#SVGID_117_);fill:url(#SVGID_118_);}
	.st147{clip-path:url(#SVGID_120_);fill:url(#SVGID_121_);}
	.st148{clip-path:url(#SVGID_123_);fill:url(#SVGID_124_);}
	.st149{clip-path:url(#SVGID_126_);fill:url(#SVGID_127_);}
	.st150{clip-path:url(#SVGID_129_);fill:url(#SVGID_130_);}
	.st151{filter:url(#Adobe_OpacityMaskFilter);}
	.st152{clip-path:url(#SVGID_132_);fill:url(#SVGID_134_);}
	.st153{clip-path:url(#SVGID_132_);mask:url(#SVGID_133_);fill:url(#SVGID_135_);}
	.st154{clip-path:url(#SVGID_137_);fill:url(#SVGID_138_);}
	.st155{filter:url(#Adobe_OpacityMaskFilter_1_);}
	.st156{clip-path:url(#SVGID_140_);fill:url(#SVGID_142_);}
	.st157{clip-path:url(#SVGID_140_);mask:url(#SVGID_141_);fill:url(#SVGID_143_);}
	.st158{filter:url(#Adobe_OpacityMaskFilter_2_);}
	.st159{fill:url(#SVGID_145_);}
	.st160{mask:url(#SVGID_144_);fill-rule:evenodd;clip-rule:evenodd;fill:#E52F27;}
	.st161{filter:url(#Adobe_OpacityMaskFilter_3_);}
	.st162{fill:url(#SVGID_147_);}
	.st163{mask:url(#SVGID_146_);fill-rule:evenodd;clip-rule:evenodd;fill:#006839;}
	.st164{clip-path:url(#SVGID_149_);fill:url(#SVGID_150_);}
	.st165{filter:url(#Adobe_OpacityMaskFilter_4_);}
	.st166{fill:url(#SVGID_152_);}
	.st167{mask:url(#SVGID_151_);fill-rule:evenodd;clip-rule:evenodd;fill:#2DBADD;}
	.st168{filter:url(#Adobe_OpacityMaskFilter_5_);}
	.st169{fill:url(#SVGID_154_);}
	.st170{mask:url(#SVGID_153_);fill-rule:evenodd;clip-rule:evenodd;fill:#1B488A;}
	.st171{clip-path:url(#SVGID_156_);fill:url(#SVGID_157_);}
	.st172{filter:url(#Adobe_OpacityMaskFilter_6_);}
	.st173{fill:url(#SVGID_159_);}
	.st174{mask:url(#SVGID_158_);fill-rule:evenodd;clip-rule:evenodd;fill:#F092B3;}
	.st175{filter:url(#Adobe_OpacityMaskFilter_7_);}
	.st176{fill:url(#SVGID_161_);}
	.st177{mask:url(#SVGID_160_);fill-rule:evenodd;clip-rule:evenodd;fill:#453587;}
	.st178{clip-path:url(#SVGID_163_);fill:url(#SVGID_164_);}
	.st179{clip-path:url(#SVGID_166_);fill:url(#SVGID_167_);}
	.st180{filter:url(#Adobe_OpacityMaskFilter_8_);}
	.st181{fill:url(#SVGID_169_);}
	.st182{mask:url(#SVGID_168_);fill-rule:evenodd;clip-rule:evenodd;fill:#60C2DB;}
	.st183{filter:url(#Adobe_OpacityMaskFilter_9_);}
	.st184{fill:url(#SVGID_171_);}
	.st185{mask:url(#SVGID_170_);fill-rule:evenodd;clip-rule:evenodd;fill:#006639;}
	.st186{clip-path:url(#SVGID_173_);fill:url(#SVGID_174_);}
	.st187{clip-path:url(#SVGID_176_);fill:url(#SVGID_177_);}
	.st188{filter:url(#Adobe_OpacityMaskFilter_10_);}
	.st189{clip-path:url(#SVGID_179_);fill:url(#SVGID_181_);}
	.st190{clip-path:url(#SVGID_179_);mask:url(#SVGID_180_);fill:url(#SVGID_182_);}
	.st191{filter:url(#Adobe_OpacityMaskFilter_11_);}
	.st192{fill:url(#SVGID_184_);}
	.st193{mask:url(#SVGID_183_);fill-rule:evenodd;clip-rule:evenodd;fill:#E42030;}
	.st194{filter:url(#Adobe_OpacityMaskFilter_12_);}
	.st195{fill:url(#SVGID_186_);}
	.st196{mask:url(#SVGID_185_);fill-rule:evenodd;clip-rule:evenodd;fill:#6F100A;}
	.st197{clip-path:url(#SVGID_188_);fill:url(#SVGID_189_);}
	.st198{clip-path:url(#SVGID_191_);fill:url(#SVGID_192_);}
	.st199{clip-path:url(#SVGID_194_);fill:url(#SVGID_195_);}
	.st200{clip-path:url(#SVGID_197_);fill:url(#SVGID_198_);}
	.st201{clip-path:url(#SVGID_200_);fill:#BE181F;}
	.st202{clip-path:url(#SVGID_202_);fill:#E20613;}
	.st203{clip-path:url(#SVGID_204_);fill:url(#SVGID_205_);}
	.st204{clip-path:url(#SVGID_207_);fill:url(#SVGID_208_);}
	.st205{filter:url(#Adobe_OpacityMaskFilter_13_);}
	.st206{fill:url(#SVGID_210_);}
	.st207{mask:url(#SVGID_209_);fill-rule:evenodd;clip-rule:evenodd;fill:#60C2DB;}
	.st208{fill-rule:evenodd;clip-rule:evenodd;fill:#E0191D;}
	.st209{fill:url(#SVGID_211_);}
	.st210{fill-rule:evenodd;clip-rule:evenodd;fill:#BD1622;}
	.st211{fill:#BD1622;}
	.st212{fill:#ECECEC;}
	.st213{clip-path:url(#SVGID_213_);}
	.st214{fill-rule:evenodd;clip-rule:evenodd;fill:#AD6518;}
	.st215{fill-rule:evenodd;clip-rule:evenodd;fill:#F9D8AD;}
	.st216{fill-rule:evenodd;clip-rule:evenodd;fill:#512A19;}
	.st217{fill-rule:evenodd;clip-rule:evenodd;fill:#DF6E5D;}
	.st218{fill-rule:evenodd;clip-rule:evenodd;fill:#CAE7FA;}
	.st219{fill-rule:evenodd;clip-rule:evenodd;fill:#B63018;}
	.st220{fill-rule:evenodd;clip-rule:evenodd;fill:#19476B;}
	.st221{fill-rule:evenodd;clip-rule:evenodd;fill:#C9E7FA;}
	.st222{fill-rule:evenodd;clip-rule:evenodd;fill:#C8E6FA;}
	.st223{fill-rule:evenodd;clip-rule:evenodd;fill:#C7E5FA;}
	.st224{fill-rule:evenodd;clip-rule:evenodd;fill:#C5E5F9;}
	.st225{fill-rule:evenodd;clip-rule:evenodd;fill:#C5E3F9;}
	.st226{fill-rule:evenodd;clip-rule:evenodd;fill:#C4E3F8;}
	.st227{fill-rule:evenodd;clip-rule:evenodd;fill:#C3E2F8;}
	.st228{fill-rule:evenodd;clip-rule:evenodd;fill:#C2E1F8;}
	.st229{fill-rule:evenodd;clip-rule:evenodd;fill:#C1E0F7;}
	.st230{fill-rule:evenodd;clip-rule:evenodd;fill:#C0E0F6;}
	.st231{fill-rule:evenodd;clip-rule:evenodd;fill:#BFDFF5;}
	.st232{fill-rule:evenodd;clip-rule:evenodd;fill:#BEDEF4;}
	.st233{fill-rule:evenodd;clip-rule:evenodd;fill:#BDDDF4;}
	.st234{fill-rule:evenodd;clip-rule:evenodd;fill:#BCDAF2;}
	.st235{fill-rule:evenodd;clip-rule:evenodd;fill:#BBD9F1;}
	.st236{fill-rule:evenodd;clip-rule:evenodd;fill:#B9D8F0;}
	.st237{fill-rule:evenodd;clip-rule:evenodd;fill:#B8D7EF;}
	.st238{fill-rule:evenodd;clip-rule:evenodd;fill:#B7D6ED;}
	.st239{fill-rule:evenodd;clip-rule:evenodd;fill:#B6D5EC;}
	.st240{fill-rule:evenodd;clip-rule:evenodd;fill:#B5D4EC;}
	.st241{fill-rule:evenodd;clip-rule:evenodd;fill:#B5D3EB;}
	.st242{fill-rule:evenodd;clip-rule:evenodd;fill:#B4D2E9;}
	.st243{fill-rule:evenodd;clip-rule:evenodd;fill:#B3D1E8;}
	.st244{fill-rule:evenodd;clip-rule:evenodd;fill:#B2D0E7;}
	.st245{fill-rule:evenodd;clip-rule:evenodd;fill:#B1CFE7;}
	.st246{fill-rule:evenodd;clip-rule:evenodd;fill:#AFCEE5;}
	.st247{fill-rule:evenodd;clip-rule:evenodd;fill:#AECDE4;}
	.st248{fill-rule:evenodd;clip-rule:evenodd;fill:#ADCCE3;}
	.st249{fill-rule:evenodd;clip-rule:evenodd;fill:#ADCBE1;}
	.st250{fill-rule:evenodd;clip-rule:evenodd;fill:#ACCAE0;}
	.st251{fill-rule:evenodd;clip-rule:evenodd;fill:#ABC9DF;}
	.st252{fill-rule:evenodd;clip-rule:evenodd;fill:#AAC7DE;}
	.st253{fill-rule:evenodd;clip-rule:evenodd;fill:#A9C6DC;}
	.st254{fill-rule:evenodd;clip-rule:evenodd;fill:#A8C5DB;}
	.st255{fill-rule:evenodd;clip-rule:evenodd;fill:#A7C4DA;}
	.st256{fill-rule:evenodd;clip-rule:evenodd;fill:#A6C3D9;}
	.st257{fill-rule:evenodd;clip-rule:evenodd;fill:#A6C2D7;}
	.st258{fill-rule:evenodd;clip-rule:evenodd;fill:#A4C1D6;}
	.st259{fill-rule:evenodd;clip-rule:evenodd;fill:#A3C0D5;}
	.st260{fill-rule:evenodd;clip-rule:evenodd;fill:#A2BFD4;}
	.st261{fill-rule:evenodd;clip-rule:evenodd;fill:#A1BDD2;}
	.st262{fill-rule:evenodd;clip-rule:evenodd;fill:#A0BCD1;}
	.st263{fill-rule:evenodd;clip-rule:evenodd;fill:#9FBBD0;}
	.st264{fill-rule:evenodd;clip-rule:evenodd;fill:#9EBACF;}
	.st265{fill-rule:evenodd;clip-rule:evenodd;fill:#9DB8CC;}
	.st266{fill-rule:evenodd;clip-rule:evenodd;fill:#9CB7CB;}
	.st267{fill-rule:evenodd;clip-rule:evenodd;fill:#9BB6CA;}
	.st268{fill-rule:evenodd;clip-rule:evenodd;fill:#9AB5C9;}
	.st269{fill-rule:evenodd;clip-rule:evenodd;fill:#98B4C7;}
	.st270{fill-rule:evenodd;clip-rule:evenodd;fill:#96B1C5;}
	.st271{fill-rule:evenodd;clip-rule:evenodd;fill:#95B0C4;}
	.st272{fill-rule:evenodd;clip-rule:evenodd;fill:#94AFC3;}
	.st273{fill-rule:evenodd;clip-rule:evenodd;fill:#94AEC1;}
	.st274{fill-rule:evenodd;clip-rule:evenodd;fill:#93ADC0;}
	.st275{fill-rule:evenodd;clip-rule:evenodd;fill:#91ACBF;}
	.st276{fill-rule:evenodd;clip-rule:evenodd;fill:#90ABBD;}
	.st277{fill-rule:evenodd;clip-rule:evenodd;fill:#8FAABC;}
	.st278{fill-rule:evenodd;clip-rule:evenodd;fill:#8EA9BB;}
	.st279{fill-rule:evenodd;clip-rule:evenodd;fill:#8DA7BA;}
	.st280{fill-rule:evenodd;clip-rule:evenodd;fill:#8CA6B8;}
	.st281{fill-rule:evenodd;clip-rule:evenodd;fill:#8CA5B7;}
	.st282{fill-rule:evenodd;clip-rule:evenodd;fill:#8AA3B6;}
	.st283{fill-rule:evenodd;clip-rule:evenodd;fill:#89A2B4;}
	.st284{fill-rule:evenodd;clip-rule:evenodd;fill:#88A1B2;}
	.st285{fill-rule:evenodd;clip-rule:evenodd;fill:#87A0B1;}
	.st286{fill-rule:evenodd;clip-rule:evenodd;fill:#869FB0;}
	.st287{fill-rule:evenodd;clip-rule:evenodd;fill:#859EAF;}
	.st288{fill-rule:evenodd;clip-rule:evenodd;fill:#839CAD;}
	.st289{fill-rule:evenodd;clip-rule:evenodd;fill:#839BAC;}
	.st290{fill-rule:evenodd;clip-rule:evenodd;fill:#829AAB;}
	.st291{fill-rule:evenodd;clip-rule:evenodd;fill:#8199AA;}
	.st292{fill-rule:evenodd;clip-rule:evenodd;fill:#8098A8;}
	.st293{fill-rule:evenodd;clip-rule:evenodd;fill:#7F97A7;}
	.st294{fill-rule:evenodd;clip-rule:evenodd;fill:#7D96A6;}
	.st295{fill-rule:evenodd;clip-rule:evenodd;fill:#7C95A5;}
	.st296{fill-rule:evenodd;clip-rule:evenodd;fill:#7B94A3;}
	.st297{fill-rule:evenodd;clip-rule:evenodd;fill:#7B92A2;}
	.st298{fill-rule:evenodd;clip-rule:evenodd;fill:#7A91A1;}
	.st299{fill-rule:evenodd;clip-rule:evenodd;fill:#798FA0;}
	.st300{fill-rule:evenodd;clip-rule:evenodd;fill:#778E9E;}
	.st301{fill-rule:evenodd;clip-rule:evenodd;fill:#768D9D;}
	.st302{fill-rule:evenodd;clip-rule:evenodd;fill:#502A19;}
	.st303{fill-rule:evenodd;clip-rule:evenodd;fill:#4F2918;}
	.st304{fill-rule:evenodd;clip-rule:evenodd;fill:#4E2918;}
	.st305{fill-rule:evenodd;clip-rule:evenodd;fill:#4D2818;}
	.st306{fill-rule:evenodd;clip-rule:evenodd;fill:#4C2818;}
	.st307{fill-rule:evenodd;clip-rule:evenodd;fill:#4A2718;}
	.st308{fill-rule:evenodd;clip-rule:evenodd;fill:#492718;}
	.st309{fill-rule:evenodd;clip-rule:evenodd;fill:#482718;}
	.st310{fill-rule:evenodd;clip-rule:evenodd;fill:#472718;}
	.st311{fill-rule:evenodd;clip-rule:evenodd;fill:#462618;}
	.st312{fill-rule:evenodd;clip-rule:evenodd;fill:#452618;}
	.st313{fill-rule:evenodd;clip-rule:evenodd;fill:#442518;}
	.st314{fill-rule:evenodd;clip-rule:evenodd;fill:#432518;}
	.st315{fill-rule:evenodd;clip-rule:evenodd;fill:#432517;}
	.st316{fill-rule:evenodd;clip-rule:evenodd;fill:#422417;}
	.st317{fill-rule:evenodd;clip-rule:evenodd;fill:#412417;}
	.st318{fill-rule:evenodd;clip-rule:evenodd;fill:#402316;}
	.st319{fill-rule:evenodd;clip-rule:evenodd;fill:#3F2316;}
	.st320{fill-rule:evenodd;clip-rule:evenodd;fill:#3E2215;}
	.st321{fill-rule:evenodd;clip-rule:evenodd;fill:#3D2215;}
	.st322{fill-rule:evenodd;clip-rule:evenodd;fill:#3C2115;}
	.st323{fill-rule:evenodd;clip-rule:evenodd;fill:#3B2115;}
	.st324{fill-rule:evenodd;clip-rule:evenodd;fill:#3A2115;}
	.st325{fill-rule:evenodd;clip-rule:evenodd;fill:#392116;}
	.st326{fill-rule:evenodd;clip-rule:evenodd;fill:#382016;}
	.st327{fill-rule:evenodd;clip-rule:evenodd;fill:#382115;}
	.st328{fill-rule:evenodd;clip-rule:evenodd;fill:#372016;}
	.st329{fill-rule:evenodd;clip-rule:evenodd;fill:#362016;}
	.st330{fill-rule:evenodd;clip-rule:evenodd;fill:#352016;}
	.st331{fill-rule:evenodd;clip-rule:evenodd;fill:#341F16;}
	.st332{fill-rule:evenodd;clip-rule:evenodd;fill:#331F16;}
	.st333{fill-rule:evenodd;clip-rule:evenodd;fill:#321E16;}
	.st334{fill-rule:evenodd;clip-rule:evenodd;fill:#311E15;}
	.st335{fill-rule:evenodd;clip-rule:evenodd;fill:#301E15;}
	.st336{fill-rule:evenodd;clip-rule:evenodd;fill:#2F1D15;}
	.st337{fill-rule:evenodd;clip-rule:evenodd;fill:#2E1D14;}
	.st338{fill-rule:evenodd;clip-rule:evenodd;fill:#2E1C14;}
	.st339{fill-rule:evenodd;clip-rule:evenodd;fill:#2D1C14;}
	.st340{fill-rule:evenodd;clip-rule:evenodd;fill:#2C1B13;}
	.st341{fill-rule:evenodd;clip-rule:evenodd;fill:#2B1B13;}
	.st342{fill-rule:evenodd;clip-rule:evenodd;fill:#2A1B13;}
	.st343{fill-rule:evenodd;clip-rule:evenodd;fill:#F7D5AB;}
	.st344{fill-rule:evenodd;clip-rule:evenodd;fill:#F6D5AA;}
	.st345{fill-rule:evenodd;clip-rule:evenodd;fill:#F5D4A9;}
	.st346{fill-rule:evenodd;clip-rule:evenodd;fill:#F3D2A7;}
	.st347{fill-rule:evenodd;clip-rule:evenodd;fill:#F2D1A6;}
	.st348{fill-rule:evenodd;clip-rule:evenodd;fill:#F1D0A5;}
	.st349{fill-rule:evenodd;clip-rule:evenodd;fill:#EFCEA3;}
	.st350{fill-rule:evenodd;clip-rule:evenodd;fill:#EDCDA2;}
	.st351{fill-rule:evenodd;clip-rule:evenodd;fill:#ECCBA0;}
	.st352{fill-rule:evenodd;clip-rule:evenodd;fill:#EAC99F;}
	.st353{fill-rule:evenodd;clip-rule:evenodd;fill:#E9C89E;}
	.st354{fill-rule:evenodd;clip-rule:evenodd;fill:#E7C79C;}
	.st355{fill-rule:evenodd;clip-rule:evenodd;fill:#E7C69B;}
	.st356{fill-rule:evenodd;clip-rule:evenodd;fill:#E5C49A;}
	.st357{fill-rule:evenodd;clip-rule:evenodd;fill:#E4C399;}
	.st358{fill-rule:evenodd;clip-rule:evenodd;fill:#E2C297;}
	.st359{fill-rule:evenodd;clip-rule:evenodd;fill:#E1C096;}
	.st360{fill-rule:evenodd;clip-rule:evenodd;fill:#DFBF95;}
	.st361{fill-rule:evenodd;clip-rule:evenodd;fill:#DEBE94;}
	.st362{fill-rule:evenodd;clip-rule:evenodd;fill:#DDBC92;}
	.st363{fill-rule:evenodd;clip-rule:evenodd;fill:#DCBB91;}
	.st364{fill-rule:evenodd;clip-rule:evenodd;fill:#DABA8F;}
	.st365{fill-rule:evenodd;clip-rule:evenodd;fill:#D9B88F;}
	.st366{fill-rule:evenodd;clip-rule:evenodd;fill:#D7B78D;}
	.st367{fill-rule:evenodd;clip-rule:evenodd;fill:#D7B68C;}
	.st368{fill-rule:evenodd;clip-rule:evenodd;fill:#D5B58B;}
	.st369{fill-rule:evenodd;clip-rule:evenodd;fill:#D4B48A;}
	.st370{fill-rule:evenodd;clip-rule:evenodd;fill:#D2B388;}
	.st371{fill-rule:evenodd;clip-rule:evenodd;fill:#D2B187;}
	.st372{fill-rule:evenodd;clip-rule:evenodd;fill:#D0B085;}
	.st373{fill-rule:evenodd;clip-rule:evenodd;fill:#CFAF84;}
	.st374{fill-rule:evenodd;clip-rule:evenodd;fill:#CDAD83;}
	.st375{fill-rule:evenodd;clip-rule:evenodd;fill:#CCAC82;}
	.st376{fill-rule:evenodd;clip-rule:evenodd;fill:#CBAB81;}
	.st377{fill-rule:evenodd;clip-rule:evenodd;fill:#C9A97F;}
	.st378{fill-rule:evenodd;clip-rule:evenodd;fill:#C7A77C;}
	.st379{fill-rule:evenodd;clip-rule:evenodd;fill:#C6A67B;}
	.st380{fill-rule:evenodd;clip-rule:evenodd;fill:#C4A47A;}
	.st381{fill-rule:evenodd;clip-rule:evenodd;fill:#C4A379;}
	.st382{fill-rule:evenodd;clip-rule:evenodd;fill:#C2A277;}
	.st383{fill-rule:evenodd;clip-rule:evenodd;fill:#C1A176;}
	.st384{fill-rule:evenodd;clip-rule:evenodd;fill:#BF9F75;}
	.st385{fill-rule:evenodd;clip-rule:evenodd;fill:#BE9E74;}
	.st386{fill-rule:evenodd;clip-rule:evenodd;fill:#BC9D72;}
	.st387{fill-rule:evenodd;clip-rule:evenodd;fill:#BB9B71;}
	.st388{fill-rule:evenodd;clip-rule:evenodd;fill:#B99A70;}
	.st389{fill-rule:evenodd;clip-rule:evenodd;fill:#B8996F;}
	.st390{fill-rule:evenodd;clip-rule:evenodd;fill:#B6976E;}
	.st391{fill-rule:evenodd;clip-rule:evenodd;fill:#B5966C;}
	.st392{fill-rule:evenodd;clip-rule:evenodd;fill:#B3956B;}
	.st393{fill-rule:evenodd;clip-rule:evenodd;fill:#B2926A;}
	.st394{fill-rule:evenodd;clip-rule:evenodd;fill:#B09168;}
	.st395{fill-rule:evenodd;clip-rule:evenodd;fill:#AF9067;}
	.st396{fill-rule:evenodd;clip-rule:evenodd;fill:#AD8E66;}
	.st397{fill-rule:evenodd;clip-rule:evenodd;fill:#AC8D65;}
	.st398{fill-rule:evenodd;clip-rule:evenodd;fill:#AA8C64;}
	.st399{fill-rule:evenodd;clip-rule:evenodd;fill:#A98A63;}
	.st400{fill-rule:evenodd;clip-rule:evenodd;fill:#A78962;}
	.st401{fill-rule:evenodd;clip-rule:evenodd;fill:#A68861;}
	.st402{fill-rule:evenodd;clip-rule:evenodd;fill:#A4865E;}
	.st403{fill-rule:evenodd;clip-rule:evenodd;fill:#A3855D;}
	.st404{fill-rule:evenodd;clip-rule:evenodd;fill:#A1845C;}
	.st405{fill-rule:evenodd;clip-rule:evenodd;fill:#A0825B;}
	.st406{fill-rule:evenodd;clip-rule:evenodd;fill:#9E815A;}
	.st407{fill-rule:evenodd;clip-rule:evenodd;fill:#9D8059;}
	.st408{fill-rule:evenodd;clip-rule:evenodd;fill:#9B7D58;}
	.st409{fill-rule:evenodd;clip-rule:evenodd;fill:#9A7C57;}
	.st410{fill-rule:evenodd;clip-rule:evenodd;fill:#987B55;}
	.st411{fill-rule:evenodd;clip-rule:evenodd;fill:#977A54;}
	.st412{fill-rule:evenodd;clip-rule:evenodd;fill:#957853;}
	.st413{fill-rule:evenodd;clip-rule:evenodd;fill:#947752;}
	.st414{fill-rule:evenodd;clip-rule:evenodd;fill:#927651;}
	.st415{fill-rule:evenodd;clip-rule:evenodd;fill:#917450;}
	.st416{fill-rule:evenodd;clip-rule:evenodd;fill:#8F734F;}
	.st417{fill-rule:evenodd;clip-rule:evenodd;fill:#8E724E;}
	.st418{fill-rule:evenodd;clip-rule:evenodd;fill:#8C704C;}
	.st419{fill-rule:evenodd;clip-rule:evenodd;fill:#8B6F4B;}
	.st420{fill-rule:evenodd;clip-rule:evenodd;fill:#896E4A;}
	.st421{fill-rule:evenodd;clip-rule:evenodd;fill:#886C49;}
	.st422{fill-rule:evenodd;clip-rule:evenodd;fill:#866B48;}
	.st423{fill-rule:evenodd;clip-rule:evenodd;fill:#B53018;}
	.st424{fill-rule:evenodd;clip-rule:evenodd;fill:#B42F18;}
	.st425{fill-rule:evenodd;clip-rule:evenodd;fill:#B32F18;}
	.st426{fill-rule:evenodd;clip-rule:evenodd;fill:#B22F18;}
	.st427{fill-rule:evenodd;clip-rule:evenodd;fill:#B12E18;}
	.st428{fill-rule:evenodd;clip-rule:evenodd;fill:#B02E18;}
	.st429{fill-rule:evenodd;clip-rule:evenodd;fill:#AE2F18;}
	.st430{fill-rule:evenodd;clip-rule:evenodd;fill:#AD2E18;}
	.st431{fill-rule:evenodd;clip-rule:evenodd;fill:#AC2E18;}
	.st432{fill-rule:evenodd;clip-rule:evenodd;fill:#AB2D17;}
	.st433{fill-rule:evenodd;clip-rule:evenodd;fill:#AA2D17;}
	.st434{fill-rule:evenodd;clip-rule:evenodd;fill:#A92D17;}
	.st435{fill-rule:evenodd;clip-rule:evenodd;fill:#A82D17;}
	.st436{fill-rule:evenodd;clip-rule:evenodd;fill:#A72D17;}
	.st437{fill-rule:evenodd;clip-rule:evenodd;fill:#A62D17;}
	.st438{fill-rule:evenodd;clip-rule:evenodd;fill:#A52D17;}
	.st439{fill-rule:evenodd;clip-rule:evenodd;fill:#A42C17;}
	.st440{fill-rule:evenodd;clip-rule:evenodd;fill:#A32C17;}
	.st441{fill-rule:evenodd;clip-rule:evenodd;fill:#A12C17;}
	.st442{fill-rule:evenodd;clip-rule:evenodd;fill:#A02C16;}
	.st443{fill-rule:evenodd;clip-rule:evenodd;fill:#9F2C16;}
	.st444{fill-rule:evenodd;clip-rule:evenodd;fill:#9E2B16;}
	.st445{fill-rule:evenodd;clip-rule:evenodd;fill:#9D2B16;}
	.st446{fill-rule:evenodd;clip-rule:evenodd;fill:#9C2B16;}
	.st447{fill-rule:evenodd;clip-rule:evenodd;fill:#9B2B16;}
	.st448{fill-rule:evenodd;clip-rule:evenodd;fill:#9A2B16;}
	.st449{fill-rule:evenodd;clip-rule:evenodd;fill:#992B16;}
	.st450{fill-rule:evenodd;clip-rule:evenodd;fill:#992A16;}
	.st451{fill-rule:evenodd;clip-rule:evenodd;fill:#982A15;}
	.st452{fill-rule:evenodd;clip-rule:evenodd;fill:#972A15;}
	.st453{fill-rule:evenodd;clip-rule:evenodd;fill:#962A15;}
	.st454{fill-rule:evenodd;clip-rule:evenodd;fill:#942A15;}
	.st455{fill-rule:evenodd;clip-rule:evenodd;fill:#932A15;}
	.st456{fill-rule:evenodd;clip-rule:evenodd;fill:#922914;}
	.st457{fill-rule:evenodd;clip-rule:evenodd;fill:#912914;}
	.st458{fill-rule:evenodd;clip-rule:evenodd;fill:#902814;}
	.st459{fill-rule:evenodd;clip-rule:evenodd;fill:#8F2814;}
	.st460{fill-rule:evenodd;clip-rule:evenodd;fill:#8E2814;}
	.st461{fill-rule:evenodd;clip-rule:evenodd;fill:#8D2914;}
	.st462{fill-rule:evenodd;clip-rule:evenodd;fill:#8C2813;}
	.st463{fill-rule:evenodd;clip-rule:evenodd;fill:#8B2813;}
	.st464{fill-rule:evenodd;clip-rule:evenodd;fill:#8A2813;}
	.st465{fill-rule:evenodd;clip-rule:evenodd;fill:#892713;}
	.st466{fill-rule:evenodd;clip-rule:evenodd;fill:#882813;}
	.st467{fill-rule:evenodd;clip-rule:evenodd;fill:#862813;}
	.st468{fill-rule:evenodd;clip-rule:evenodd;fill:#852712;}
	.st469{fill-rule:evenodd;clip-rule:evenodd;fill:#842712;}
	.st470{fill-rule:evenodd;clip-rule:evenodd;fill:#832712;}
	.st471{fill-rule:evenodd;clip-rule:evenodd;fill:#822713;}
	.st472{fill-rule:evenodd;clip-rule:evenodd;fill:#812713;}
	.st473{fill-rule:evenodd;clip-rule:evenodd;fill:#812712;}
	.st474{fill-rule:evenodd;clip-rule:evenodd;fill:#802613;}
	.st475{fill-rule:evenodd;clip-rule:evenodd;fill:#7F2613;}
	.st476{fill-rule:evenodd;clip-rule:evenodd;fill:#7E2613;}
	.st477{fill-rule:evenodd;clip-rule:evenodd;fill:#7D2514;}
	.st478{fill-rule:evenodd;clip-rule:evenodd;fill:#7C2513;}
	.st479{fill-rule:evenodd;clip-rule:evenodd;fill:#7B2513;}
	.st480{fill-rule:evenodd;clip-rule:evenodd;fill:#792514;}
	.st481{fill-rule:evenodd;clip-rule:evenodd;fill:#782514;}
	.st482{fill-rule:evenodd;clip-rule:evenodd;fill:#772514;}
	.st483{fill-rule:evenodd;clip-rule:evenodd;fill:#762413;}
	.st484{fill-rule:evenodd;clip-rule:evenodd;fill:#752412;}
	.st485{fill-rule:evenodd;clip-rule:evenodd;fill:#742412;}
	.st486{fill-rule:evenodd;clip-rule:evenodd;fill:#732412;}
	.st487{fill-rule:evenodd;clip-rule:evenodd;fill:#722413;}
	.st488{fill-rule:evenodd;clip-rule:evenodd;fill:#712412;}
	.st489{fill-rule:evenodd;clip-rule:evenodd;fill:#702412;}
	.st490{fill-rule:evenodd;clip-rule:evenodd;fill:#6F2312;}
	.st491{fill-rule:evenodd;clip-rule:evenodd;fill:#6E2313;}
	.st492{fill-rule:evenodd;clip-rule:evenodd;fill:#6D2413;}
	.st493{fill-rule:evenodd;clip-rule:evenodd;fill:#6C2312;}
	.st494{fill-rule:evenodd;clip-rule:evenodd;fill:#6A2313;}
	.st495{fill-rule:evenodd;clip-rule:evenodd;fill:#692314;}
	.st496{fill-rule:evenodd;clip-rule:evenodd;fill:#682314;}
	.st497{fill-rule:evenodd;clip-rule:evenodd;fill:#672314;}
	.st498{fill-rule:evenodd;clip-rule:evenodd;fill:#662314;}
	.st499{fill-rule:evenodd;clip-rule:evenodd;fill:#652214;}
	.st500{fill-rule:evenodd;clip-rule:evenodd;fill:#642213;}
	.st501{fill-rule:evenodd;clip-rule:evenodd;fill:#AC6418;}
	.st502{fill-rule:evenodd;clip-rule:evenodd;fill:#AB6418;}
	.st503{fill-rule:evenodd;clip-rule:evenodd;fill:#AA6318;}
	.st504{fill-rule:evenodd;clip-rule:evenodd;fill:#A96319;}
	.st505{fill-rule:evenodd;clip-rule:evenodd;fill:#A96218;}
	.st506{fill-rule:evenodd;clip-rule:evenodd;fill:#A86219;}
	.st507{fill-rule:evenodd;clip-rule:evenodd;fill:#A76119;}
	.st508{fill-rule:evenodd;clip-rule:evenodd;fill:#A66019;}
	.st509{fill-rule:evenodd;clip-rule:evenodd;fill:#A56019;}
	.st510{fill-rule:evenodd;clip-rule:evenodd;fill:#A45F19;}
	.st511{fill-rule:evenodd;clip-rule:evenodd;fill:#A36019;}
	.st512{fill-rule:evenodd;clip-rule:evenodd;fill:#A35E19;}
	.st513{fill-rule:evenodd;clip-rule:evenodd;fill:#A25E19;}
	.st514{fill-rule:evenodd;clip-rule:evenodd;fill:#A15D19;}
	.st515{fill-rule:evenodd;clip-rule:evenodd;fill:#A05E19;}
	.st516{fill-rule:evenodd;clip-rule:evenodd;fill:#9F5D19;}
	.st517{fill-rule:evenodd;clip-rule:evenodd;fill:#9E5C19;}
	.st518{fill-rule:evenodd;clip-rule:evenodd;fill:#9D5C19;}
	.st519{fill-rule:evenodd;clip-rule:evenodd;fill:#9C5B19;}
	.st520{fill-rule:evenodd;clip-rule:evenodd;fill:#9B5A19;}
	.st521{fill-rule:evenodd;clip-rule:evenodd;fill:#9A5A19;}
	.st522{fill-rule:evenodd;clip-rule:evenodd;fill:#995918;}
	.st523{fill-rule:evenodd;clip-rule:evenodd;fill:#985918;}
	.st524{fill-rule:evenodd;clip-rule:evenodd;fill:#975818;}
	.st525{fill-rule:evenodd;clip-rule:evenodd;fill:#965818;}
	.st526{fill-rule:evenodd;clip-rule:evenodd;fill:#955718;}
	.st527{fill-rule:evenodd;clip-rule:evenodd;fill:#945618;}
	.st528{fill-rule:evenodd;clip-rule:evenodd;fill:#935618;}
	.st529{fill-rule:evenodd;clip-rule:evenodd;fill:#925518;}
	.st530{fill-rule:evenodd;clip-rule:evenodd;fill:#915418;}
	.st531{fill-rule:evenodd;clip-rule:evenodd;fill:#905318;}
	.st532{fill-rule:evenodd;clip-rule:evenodd;fill:#8F5318;}
	.st533{fill-rule:evenodd;clip-rule:evenodd;fill:#8F5218;}
	.st534{fill-rule:evenodd;clip-rule:evenodd;fill:#8E5218;}
	.st535{fill-rule:evenodd;clip-rule:evenodd;fill:#8D5117;}
	.st536{fill-rule:evenodd;clip-rule:evenodd;fill:#8C5218;}
	.st537{fill-rule:evenodd;clip-rule:evenodd;fill:#8B5117;}
	.st538{fill-rule:evenodd;clip-rule:evenodd;fill:#8A5117;}
	.st539{fill-rule:evenodd;clip-rule:evenodd;fill:#895017;}
	.st540{fill-rule:evenodd;clip-rule:evenodd;fill:#885017;}
	.st541{fill-rule:evenodd;clip-rule:evenodd;fill:#884F17;}
	.st542{fill-rule:evenodd;clip-rule:evenodd;fill:#874F17;}
	.st543{fill-rule:evenodd;clip-rule:evenodd;fill:#864E17;}
	.st544{fill-rule:evenodd;clip-rule:evenodd;fill:#854E17;}
	.st545{fill-rule:evenodd;clip-rule:evenodd;fill:#854D17;}
	.st546{fill-rule:evenodd;clip-rule:evenodd;fill:#844C17;}
	.st547{fill-rule:evenodd;clip-rule:evenodd;fill:#834D17;}
	.st548{fill-rule:evenodd;clip-rule:evenodd;fill:#824C16;}
	.st549{fill-rule:evenodd;clip-rule:evenodd;fill:#814B16;}
	.st550{fill-rule:evenodd;clip-rule:evenodd;fill:#804B16;}
	.st551{fill-rule:evenodd;clip-rule:evenodd;fill:#7F4A16;}
	.st552{fill-rule:evenodd;clip-rule:evenodd;fill:#7E4A16;}
	.st553{fill-rule:evenodd;clip-rule:evenodd;fill:#7D4916;}
	.st554{fill-rule:evenodd;clip-rule:evenodd;fill:#7C4916;}
	.st555{fill-rule:evenodd;clip-rule:evenodd;fill:#7B4816;}
	.st556{fill-rule:evenodd;clip-rule:evenodd;fill:#7A4815;}
	.st557{fill-rule:evenodd;clip-rule:evenodd;fill:#794815;}
	.st558{fill-rule:evenodd;clip-rule:evenodd;fill:#784715;}
	.st559{fill-rule:evenodd;clip-rule:evenodd;fill:#774615;}
	.st560{fill-rule:evenodd;clip-rule:evenodd;fill:#764615;}
	.st561{fill-rule:evenodd;clip-rule:evenodd;fill:#754515;}
	.st562{fill-rule:evenodd;clip-rule:evenodd;fill:#744515;}
	.st563{fill-rule:evenodd;clip-rule:evenodd;fill:#744414;}
	.st564{fill-rule:evenodd;clip-rule:evenodd;fill:#734414;}
	.st565{fill-rule:evenodd;clip-rule:evenodd;fill:#724314;}
	.st566{fill-rule:evenodd;clip-rule:evenodd;fill:#714314;}
	.st567{fill-rule:evenodd;clip-rule:evenodd;fill:#704214;}
	.st568{fill-rule:evenodd;clip-rule:evenodd;fill:#6F4214;}
	.st569{fill-rule:evenodd;clip-rule:evenodd;fill:#6E4113;}
	.st570{fill-rule:evenodd;clip-rule:evenodd;fill:#6D4213;}
	.st571{fill-rule:evenodd;clip-rule:evenodd;fill:#6D4013;}
	.st572{fill-rule:evenodd;clip-rule:evenodd;fill:#6C4113;}
	.st573{fill-rule:evenodd;clip-rule:evenodd;fill:#6B4013;}
	.st574{fill-rule:evenodd;clip-rule:evenodd;fill:#6A4013;}
	.st575{fill-rule:evenodd;clip-rule:evenodd;fill:#693F12;}
	.st576{fill-rule:evenodd;clip-rule:evenodd;fill:#DE6D5B;}
	.st577{fill-rule:evenodd;clip-rule:evenodd;fill:#DC6D5B;}
	.st578{fill-rule:evenodd;clip-rule:evenodd;fill:#DB6C5A;}
	.st579{fill-rule:evenodd;clip-rule:evenodd;fill:#DA6B5A;}
	.st580{fill-rule:evenodd;clip-rule:evenodd;fill:#D96A59;}
	.st581{fill-rule:evenodd;clip-rule:evenodd;fill:#D86A58;}
	.st582{fill-rule:evenodd;clip-rule:evenodd;fill:#D76958;}
	.st583{fill-rule:evenodd;clip-rule:evenodd;fill:#D66857;}
	.st584{fill-rule:evenodd;clip-rule:evenodd;fill:#D56856;}
	.st585{fill-rule:evenodd;clip-rule:evenodd;fill:#D36756;}
	.st586{fill-rule:evenodd;clip-rule:evenodd;fill:#D26555;}
	.st587{fill-rule:evenodd;clip-rule:evenodd;fill:#D16655;}
	.st588{fill-rule:evenodd;clip-rule:evenodd;fill:#D06554;}
	.st589{fill-rule:evenodd;clip-rule:evenodd;fill:#CF6353;}
	.st590{fill-rule:evenodd;clip-rule:evenodd;fill:#CE6353;}
	.st591{fill-rule:evenodd;clip-rule:evenodd;fill:#CC6352;}
	.st592{fill-rule:evenodd;clip-rule:evenodd;fill:#CB6252;}
	.st593{fill-rule:evenodd;clip-rule:evenodd;fill:#CA6151;}
	.st594{fill-rule:evenodd;clip-rule:evenodd;fill:#C96150;}
	.st595{fill-rule:evenodd;clip-rule:evenodd;fill:#C86050;}
	.st596{fill-rule:evenodd;clip-rule:evenodd;fill:#C65F4F;}
	.st597{fill-rule:evenodd;clip-rule:evenodd;fill:#C55F4E;}
	.st598{fill-rule:evenodd;clip-rule:evenodd;fill:#C45E4E;}
	.st599{fill-rule:evenodd;clip-rule:evenodd;fill:#C25D4D;}
	.st600{fill-rule:evenodd;clip-rule:evenodd;fill:#C15C4D;}
	.st601{fill-rule:evenodd;clip-rule:evenodd;fill:#C05C4C;}
	.st602{fill-rule:evenodd;clip-rule:evenodd;fill:#BE5B4B;}
	.st603{fill-rule:evenodd;clip-rule:evenodd;fill:#BD5A4B;}
	.st604{fill-rule:evenodd;clip-rule:evenodd;fill:#BC5A4A;}
	.st605{fill-rule:evenodd;clip-rule:evenodd;fill:#BA5A49;}
	.st606{fill-rule:evenodd;clip-rule:evenodd;fill:#B95949;}
	.st607{fill-rule:evenodd;clip-rule:evenodd;fill:#B95848;}
	.st608{fill-rule:evenodd;clip-rule:evenodd;fill:#B75848;}
	.st609{fill-rule:evenodd;clip-rule:evenodd;fill:#B65747;}
	.st610{fill-rule:evenodd;clip-rule:evenodd;fill:#B45646;}
	.st611{fill-rule:evenodd;clip-rule:evenodd;fill:#B35646;}
	.st612{fill-rule:evenodd;clip-rule:evenodd;fill:#B25545;}
	.st613{fill-rule:evenodd;clip-rule:evenodd;fill:#B05445;}
	.st614{fill-rule:evenodd;clip-rule:evenodd;fill:#AF5444;}
	.st615{fill-rule:evenodd;clip-rule:evenodd;fill:#AE5343;}
	.st616{fill-rule:evenodd;clip-rule:evenodd;fill:#AD5243;}
	.st617{fill-rule:evenodd;clip-rule:evenodd;fill:#AC5142;}
	.st618{fill-rule:evenodd;clip-rule:evenodd;fill:#AB5142;}
	.st619{fill-rule:evenodd;clip-rule:evenodd;fill:#A95042;}
	.st620{fill-rule:evenodd;clip-rule:evenodd;fill:#A84F41;}
	.st621{fill-rule:evenodd;clip-rule:evenodd;fill:#A75041;}
	.st622{fill-rule:evenodd;clip-rule:evenodd;fill:#A54F40;}
	.st623{fill-rule:evenodd;clip-rule:evenodd;fill:#A44E3F;}
	.st624{fill-rule:evenodd;clip-rule:evenodd;fill:#A24E3F;}
	.st625{fill-rule:evenodd;clip-rule:evenodd;fill:#A14D3E;}
	.st626{fill-rule:evenodd;clip-rule:evenodd;fill:#A04C3E;}
	.st627{fill-rule:evenodd;clip-rule:evenodd;fill:#9E4B3D;}
	.st628{fill-rule:evenodd;clip-rule:evenodd;fill:#9D4B3C;}
	.st629{fill-rule:evenodd;clip-rule:evenodd;fill:#9C4A3C;}
	.st630{fill-rule:evenodd;clip-rule:evenodd;fill:#9A493B;}
	.st631{fill-rule:evenodd;clip-rule:evenodd;fill:#99493A;}
	.st632{fill-rule:evenodd;clip-rule:evenodd;fill:#98483A;}
	.st633{fill-rule:evenodd;clip-rule:evenodd;fill:#96483A;}
	.st634{fill-rule:evenodd;clip-rule:evenodd;fill:#95473A;}
	.st635{fill-rule:evenodd;clip-rule:evenodd;fill:#944739;}
	.st636{fill-rule:evenodd;clip-rule:evenodd;fill:#924638;}
	.st637{fill-rule:evenodd;clip-rule:evenodd;fill:#914538;}
	.st638{fill-rule:evenodd;clip-rule:evenodd;fill:#904637;}
	.st639{fill-rule:evenodd;clip-rule:evenodd;fill:#8F4536;}
	.st640{fill-rule:evenodd;clip-rule:evenodd;fill:#8E4436;}
	.st641{fill-rule:evenodd;clip-rule:evenodd;fill:#8C4435;}
	.st642{fill-rule:evenodd;clip-rule:evenodd;fill:#8B4336;}
	.st643{fill-rule:evenodd;clip-rule:evenodd;fill:#8A4235;}
	.st644{fill-rule:evenodd;clip-rule:evenodd;fill:#884234;}
	.st645{fill-rule:evenodd;clip-rule:evenodd;fill:#874234;}
	.st646{fill-rule:evenodd;clip-rule:evenodd;fill:#864133;}
	.st647{fill-rule:evenodd;clip-rule:evenodd;fill:#844034;}
	.st648{fill-rule:evenodd;clip-rule:evenodd;fill:#834033;}
	.st649{fill-rule:evenodd;clip-rule:evenodd;fill:#823F32;}
	.st650{fill-rule:evenodd;clip-rule:evenodd;fill:#803E32;}
	.st651{fill-rule:evenodd;clip-rule:evenodd;fill:#7F3E31;}
	.st652{fill-rule:evenodd;clip-rule:evenodd;fill:#7E3E30;}
	.st653{fill-rule:evenodd;clip-rule:evenodd;fill:#7D3D31;}
	.st654{fill-rule:evenodd;clip-rule:evenodd;fill:#7C3C30;}
	.st655{fill-rule:evenodd;clip-rule:evenodd;fill:#7A3C30;}
	.st656{fill-rule:evenodd;clip-rule:evenodd;fill:#793B2F;}
	.st657{fill-rule:evenodd;clip-rule:evenodd;fill:#19466A;}
	.st658{fill-rule:evenodd;clip-rule:evenodd;fill:#194569;}
	.st659{fill-rule:evenodd;clip-rule:evenodd;fill:#184669;}
	.st660{fill-rule:evenodd;clip-rule:evenodd;fill:#184568;}
	.st661{fill-rule:evenodd;clip-rule:evenodd;fill:#194567;}
	.st662{fill-rule:evenodd;clip-rule:evenodd;fill:#194467;}
	.st663{fill-rule:evenodd;clip-rule:evenodd;fill:#194466;}
	.st664{fill-rule:evenodd;clip-rule:evenodd;fill:#194365;}
	.st665{fill-rule:evenodd;clip-rule:evenodd;fill:#194364;}
	.st666{fill-rule:evenodd;clip-rule:evenodd;fill:#194264;}
	.st667{fill-rule:evenodd;clip-rule:evenodd;fill:#194263;}
	.st668{fill-rule:evenodd;clip-rule:evenodd;fill:#194262;}
	.st669{fill-rule:evenodd;clip-rule:evenodd;fill:#194161;}
	.st670{fill-rule:evenodd;clip-rule:evenodd;fill:#1A4160;}
	.st671{fill-rule:evenodd;clip-rule:evenodd;fill:#19405F;}
	.st672{fill-rule:evenodd;clip-rule:evenodd;fill:#193F5E;}
	.st673{fill-rule:evenodd;clip-rule:evenodd;fill:#193F5D;}
	.st674{fill-rule:evenodd;clip-rule:evenodd;fill:#193E5C;}
	.st675{fill-rule:evenodd;clip-rule:evenodd;fill:#193D5B;}
	.st676{fill-rule:evenodd;clip-rule:evenodd;fill:#193D5A;}
	.st677{fill-rule:evenodd;clip-rule:evenodd;fill:#193C5A;}
	.st678{fill-rule:evenodd;clip-rule:evenodd;fill:#193C59;}
	.st679{fill-rule:evenodd;clip-rule:evenodd;fill:#193C58;}
	.st680{fill-rule:evenodd;clip-rule:evenodd;fill:#193C57;}
	.st681{fill-rule:evenodd;clip-rule:evenodd;fill:#193B57;}
	.st682{fill-rule:evenodd;clip-rule:evenodd;fill:#193B56;}
	.st683{fill-rule:evenodd;clip-rule:evenodd;fill:#183A56;}
	.st684{fill-rule:evenodd;clip-rule:evenodd;fill:#183A55;}
	.st685{fill-rule:evenodd;clip-rule:evenodd;fill:#183954;}
	.st686{fill-rule:evenodd;clip-rule:evenodd;fill:#183853;}
	.st687{fill-rule:evenodd;clip-rule:evenodd;fill:#183953;}
	.st688{fill-rule:evenodd;clip-rule:evenodd;fill:#193952;}
	.st689{fill-rule:evenodd;clip-rule:evenodd;fill:#183852;}
	.st690{fill-rule:evenodd;clip-rule:evenodd;fill:#183851;}
	.st691{fill-rule:evenodd;clip-rule:evenodd;fill:#183751;}
	.st692{fill-rule:evenodd;clip-rule:evenodd;fill:#183750;}
	.st693{fill-rule:evenodd;clip-rule:evenodd;fill:#18364F;}
	.st694{fill-rule:evenodd;clip-rule:evenodd;fill:#18364E;}
	.st695{fill-rule:evenodd;clip-rule:evenodd;fill:#18354E;}
	.st696{fill-rule:evenodd;clip-rule:evenodd;fill:#18354D;}
	.st697{fill-rule:evenodd;clip-rule:evenodd;fill:#18354C;}
	.st698{fill-rule:evenodd;clip-rule:evenodd;fill:#18344B;}
	.st699{fill-rule:evenodd;clip-rule:evenodd;fill:#19344A;}
	.st700{fill-rule:evenodd;clip-rule:evenodd;fill:#193349;}
	.st701{fill-rule:evenodd;clip-rule:evenodd;fill:#193248;}
	.st702{fill-rule:evenodd;clip-rule:evenodd;fill:#193247;}
	.st703{fill-rule:evenodd;clip-rule:evenodd;fill:#193146;}
	.st704{fill-rule:evenodd;clip-rule:evenodd;fill:#193145;}
	.st705{fill-rule:evenodd;clip-rule:evenodd;fill:#193144;}
	.st706{fill-rule:evenodd;clip-rule:evenodd;fill:#193044;}
	.st707{fill-rule:evenodd;clip-rule:evenodd;fill:#183043;}
	.st708{fill-rule:evenodd;clip-rule:evenodd;fill:#182F42;}
	.st709{fill-rule:evenodd;clip-rule:evenodd;fill:#192E41;}
	.st710{fill-rule:evenodd;clip-rule:evenodd;fill:#192E40;}
	.st711{fill-rule:evenodd;clip-rule:evenodd;fill:#182E3F;}
	.st712{fill-rule:evenodd;clip-rule:evenodd;fill:#182D3F;}
	.st713{fill-rule:evenodd;clip-rule:evenodd;fill:#182D3E;}
	.st714{fill-rule:evenodd;clip-rule:evenodd;fill:#192C3E;}
	.st715{fill-rule:evenodd;clip-rule:evenodd;fill:#192C3D;}
	.st716{fill-rule:evenodd;clip-rule:evenodd;fill:#F8D7AC;}
	.st717{fill:none;stroke:#FFFFFF;stroke-width:0.0326;stroke-miterlimit:10;}
	.st718{fill:#1D1D1B;stroke:#FFFFFF;stroke-width:0.0326;stroke-miterlimit:10;}
	.st719{fill-rule:evenodd;clip-rule:evenodd;fill:#1D1D1B;stroke:#FFFFFF;stroke-width:0.0326;stroke-miterlimit:10;}
	.st720{fill-rule:evenodd;clip-rule:evenodd;fill:none;stroke:#FFFFFF;stroke-width:0.0326;stroke-miterlimit:10;}
	.st721{fill-rule:evenodd;clip-rule:evenodd;stroke:#FFFFFF;stroke-width:0.0326;stroke-miterlimit:10;}
	.st722{fill:#1D1D1B;stroke:#FFFFFF;stroke-width:0.2172;stroke-miterlimit:10;}
	.st723{fill-rule:evenodd;clip-rule:evenodd;fill:#1D1D1B;}
	.st724{fill:#B81817;}
	.st725{fill:#CC1417;}
	.st726{fill:#006E6F;}
	.st727{fill:#00A167;}
	.st728{clip-path:url(#SVGID_216_);}
	.st729{fill:#12110B;}
	.st730{fill:#B4DEF7;}
	.st731{fill:#E21013;}
	.st732{fill:#78B72B;}
	.st733{fill:#35A8E0;}
	.st734{opacity:0.6;}
	.st735{fill:#1D70B7;}
	.st736{fill:#FFFFFF;stroke:#FFFFFF;stroke-width:0.3597;stroke-miterlimit:10;}
	.st737{fill:#FFFFFF;stroke:#FFFFFF;stroke-width:0.0865;stroke-miterlimit:10;}
	.st738{fill:#575756;}
	.st739{fill:#8C150D;}
	.st740{clip-path:url(#SVGID_220_);}
	.st741{clip-path:url(#SVGID_222_);}
	.st742{clip-path:url(#SVGID_224_);}
	.st743{opacity:0.66;clip-path:url(#SVGID_224_);}
	.st744{opacity:0.66;}
	.st745{clip-path:url(#SVGID_228_);}
	.st746{fill:#C01F21;}
	.st747{fill:#008D36;}
	.st748{fill:url(#SVGID_229_);}
	.st749{clip-path:url(#SVGID_231_);}
	.st750{opacity:0.8;fill:#E6007E;}
	.st751{opacity:0.7;fill:#E6007E;}
	.st752{fill:#E6007E;}
	.st753{opacity:0.8;fill:#1D70B7;}
	.st754{opacity:0.7;fill:#1D70B7;}
	.st755{opacity:0.8;fill:#2D2E82;}
	.st756{opacity:0.7;fill:#2D2E82;}
	.st757{fill:#2D2E82;}
	.st758{opacity:0.8;fill:#C0BFBF;}
	.st759{opacity:0.7;fill:#E5E5E5;}
	.st760{fill:#9C9B9B;}
	.st761{opacity:0.8;fill:#662482;}
	.st762{fill:#662482;}
	.st763{opacity:0.8;fill:#634E42;}
	.st764{fill:#634E42;}
	.st765{opacity:0.8;fill:#006633;}
	.st766{opacity:0.7;fill:#006633;}
	.st767{fill:#006633;}
	.st768{opacity:0.8;fill:#008D36;}
	.st769{opacity:0.9;fill:#008D36;}
	.st770{opacity:0.8;fill:#968C79;}
	.st771{opacity:0.8;fill:#CABA9F;}
	.st772{opacity:0.7;fill:#CABA9F;}
	.st773{fill:#CABA9F;}
	.st774{opacity:0.8;fill:#C69F00;}
	.st775{opacity:0.9;fill:#E3A822;}
	.st776{opacity:0.8;fill:#FFDD00;}
	.st777{fill:#FFDD00;}
	.st778{opacity:0.8;fill:#B5D0E6;}
	.st779{fill:#B5D0E6;}
	.st780{opacity:0.8;fill:#29235C;}
	.st781{opacity:0.7;fill:#29235C;}
	.st782{fill:#29235C;}
	.st783{opacity:0.8;fill:#CFAFA5;}
	.st784{opacity:0.9;fill:#CFAFA5;}
	.st785{fill:#CFAFA5;}
	.st786{opacity:0.8;fill:#93C01F;}
	.st787{fill:#93C01F;}
	.st788{opacity:0.9;fill:#006633;}
	.st789{opacity:0.8;fill:#DD6399;}
	.st790{opacity:0.7;fill:#DD6399;}
	.st791{fill:#DD6399;}
	.st792{opacity:0.8;fill:#0083BB;}
	.st793{opacity:0.7;fill:#0083BB;}
	.st794{opacity:0.9;fill:#0083BB;}
	.st795{opacity:0.8;fill:#85C6A4;}
	.st796{opacity:0.7;fill:#85C6A4;}
	.st797{fill:#85C6A4;}
	.st798{fill:#24351C;}
	.st799{opacity:0.7;fill:#24351C;}
	.st800{opacity:0.8;fill:#24351C;}
	.st801{opacity:0.9;fill:#24351C;}
	.st802{opacity:0.8;fill:#301831;}
	.st803{fill:#301831;}
	.st804{clip-path:url(#SVGID_231_);fill:#E6007E;}
	.st805{clip-path:url(#SVGID_233_);}
	.st806{clip-path:url(#SVGID_235_);}
	.st807{clip-path:url(#SVGID_237_);}
	.st808{clip-path:url(#SVGID_239_);}
	.st809{clip-path:url(#SVGID_241_);}
	.st810{clip-path:url(#SVGID_243_);}
	.st811{clip-path:url(#SVGID_245_);}
	.st812{clip-path:url(#SVGID_249_);}
	.st813{clip-path:url(#SVGID_251_);}
	.st814{clip-path:url(#SVGID_253_);}
	.st815{clip-path:url(#SVGID_255_);}
	.st816{clip-path:url(#SVGID_257_);}
	.st817{clip-path:url(#SVGID_259_);}
	.st818{clip-path:url(#SVGID_261_);}
	.st819{clip-path:url(#SVGID_263_);}
	.st820{clip-path:url(#SVGID_267_);}
	.st821{clip-path:url(#SVGID_269_);}
	.st822{clip-path:url(#SVGID_271_);}
	.st823{clip-path:url(#SVGID_273_);}
	.st824{clip-path:url(#SVGID_275_);}
	.st825{clip-path:url(#SVGID_277_);}
	.st826{clip-path:url(#SVGID_281_);}
	.st827{clip-path:url(#SVGID_283_);}
	.st828{clip-path:url(#SVGID_285_);}
	.st829{clip-path:url(#SVGID_287_);}
	.st830{clip-path:url(#SVGID_289_);}
	.st831{clip-path:url(#SVGID_295_);}
</style>
<g>
	<g>
		<linearGradient id="SVGID_2_" gradientUnits="userSpaceOnUse" x1="2.9885" y1="52.8659" x2="86.8074" y2="52.8659">
			<stop  offset="0" style="stop-color:#E2D6D6"/>
			<stop  offset="1" style="stop-color:#F1F1F1"/>
		</linearGradient>
		<polygon style="fill:url(#SVGID_2_);" points="2.99,28.67 2.99,77.06 44.9,101.26 86.81,77.06 86.81,28.67 44.9,4.47 		"/>
		<g>
			<g>
				<path class="st210" d="M49.2,68.28c-0.48,0-0.81-0.19-0.93-0.68l1.17-0.67c0.08-0.05,0.11-0.13,0.06-0.22l-0.34-0.59
					c-0.04-0.09-0.13-0.12-0.21-0.07l-1.66,0.96l-0.07,0.05c-0.06,0.05-0.06,0.11-0.06,0.18l0,0.42c0.07,1.07,1.16,1.56,2.04,1.56
					c0.92,0,2.04-0.46,2.04-1.63v-1.93c0-1.18-1.13-1.69-2.04-1.69c-0.97,0-2.04,0.56-2.04,1.54c0,0.14,0.01,0.15,0.15,0.15l0.81,0
					c0.05,0,0.07-0.09,0.08-0.13l0.03-0.09c0.1-0.28,0.42-0.53,0.96-0.53c0.56,0,0.94,0.38,0.94,0.92v1.58
					C50.13,67.96,49.75,68.28,49.2,68.28"/>
				<path class="st210" d="M39.83,64.07c-0.11,0-0.15,0.02-0.15,0.16v1.85h-1.91v-1.85c0-0.14-0.04-0.16-0.15-0.16h-0.78
					c-0.12,0-0.16,0.02-0.16,0.16v4.72c0,0.14,0.04,0.16,0.16,0.16h0.78c0.11,0,0.15-0.02,0.15-0.16v-1.85h1.91v1.85
					c0,0.14,0.04,0.16,0.15,0.16h0.78c0.11,0,0.16-0.02,0.16-0.16v-4.72c0-0.14-0.05-0.16-0.16-0.16H39.83z M35.06,64.07
					c-0.12,0-0.16,0.02-0.16,0.16v2.99L33.1,64.3l-0.07-0.11c-0.06-0.09-0.11-0.13-0.22-0.13h-0.74c-0.13,0-0.15,0.05-0.15,0.16
					v4.72c0,0.14,0.04,0.16,0.15,0.16h0.78c0.11,0,0.16-0.02,0.16-0.16v-2.99l1.81,2.92l0.07,0.11c0.06,0.09,0.11,0.13,0.22,0.13
					h0.71c0.14,0,0.16-0.05,0.16-0.16v-4.72c0-0.14-0.05-0.16-0.16-0.16H35.06z M28.36,67.27c0.66-0.23,1.14-0.8,1.14-1.53
					c0-0.49-0.16-0.91-0.44-1.18c-0.31-0.31-0.67-0.48-1.51-0.48h-1.99c-0.12,0-0.15,0.05-0.15,0.16v4.72
					c0,0.14,0.05,0.16,0.15,0.16h0.78c0.11,0,0.15-0.02,0.15-0.16v-3.92h1.13c0.45,0,0.81,0.29,0.81,0.75
					c0,0.42-0.41,0.71-0.82,0.71h-0.16c-0.13,0-0.15,0.04-0.15,0.15v0.64c0,0.22,0.01,0.29,0.07,0.36l0.86,1.27
					c0.09,0.15,0.18,0.21,0.33,0.21h0.93c0.07,0,0.11-0.06,0.06-0.14L28.36,67.27z M19.07,64.07c-0.2,0-0.21,0.1-0.29,0.23
					l-1.15,2.05l-1.14-2.05c-0.09-0.17-0.13-0.23-0.3-0.23H15.4c-0.13,0-0.15,0.05-0.15,0.16v4.72c0,0.14,0.04,0.16,0.15,0.16h0.78
					c0.11,0,0.16-0.02,0.16-0.16v-2.66l0.14-0.04l0.78,1.37c0.04,0.05,0.09,0.13,0.16,0.13h0.39c0.06,0,0.1-0.04,0.13-0.08
					l0.96-1.66v2.93c0,0.14,0.05,0.16,0.15,0.16h0.76c0.11,0,0.15-0.02,0.15-0.16v-4.72c0-0.11-0.03-0.16-0.15-0.16H19.07z
					 M31.04,64.07H30.3c-0.16,0-0.18,0.04-0.18,0.07l-0.02,0.09v4.72l0.01,0.07l0.03,0.06l0.1,0.03h0.8l0.07-0.01l0.05-0.03
					L31.19,69v-4.78v-0.08C31.17,64.09,31.14,64.07,31.04,64.07 M25.09,68.99l-1.74-4.73c-0.07-0.14-0.12-0.19-0.26-0.19h-0.76
					c-0.13,0-0.19,0.05-0.25,0.2l-1.75,4.72c-0.03,0.08-0.02,0.12,0.07,0.12h0.82c0.13,0,0.17-0.02,0.23-0.18l0.23-0.68h2.04
					l0.24,0.68c0.06,0.16,0.09,0.18,0.23,0.18h0.82C25.12,69.1,25.13,69.07,25.09,68.99 M22.72,65.25l0.69,2.04h-1.39L22.72,65.25z
					 M74.15,65.03c0.13,0,0.15-0.04,0.15-0.15v-0.65c0-0.11-0.03-0.16-0.15-0.16h-1h-2.16c-0.13,0-0.15,0.05-0.15,0.16v4.72
					c0,0.11,0.03,0.16,0.15,0.16h2.16h1.13c0.12,0,0.15-0.05,0.15-0.16V68.3c0-0.11-0.02-0.15-0.15-0.15h-1.13h-1.21v-1.19h1.21
					h0.73c0.13,0,0.15-0.04,0.15-0.15v-0.62c0-0.11-0.02-0.15-0.15-0.15h-0.73h-1.21v-1.01h1.21H74.15z M45.88,68.99l-1.74-4.73
					c-0.07-0.14-0.12-0.19-0.26-0.19h-0.76c-0.13,0-0.19,0.05-0.25,0.2l-1.75,4.72c-0.03,0.08-0.02,0.12,0.07,0.12h0.83
					c0.13,0,0.17-0.02,0.23-0.18l0.23-0.68h2.04l0.24,0.68c0.06,0.16,0.09,0.18,0.23,0.18h0.83C45.9,69.1,45.92,69.07,45.88,68.99
					 M43.5,65.25l0.69,2.04h-1.39L43.5,65.25z M66.4,64.07c-0.14,0-0.16,0.05-0.16,0.16v4.72c0,0.11,0.02,0.16,0.16,0.16h1.76
					c0.92,0,2.05-0.52,2.05-1.7v-1.64c0-1.17-1.12-1.71-2.05-1.71H66.4z M68.16,68.16h-0.83v-3.14h0.83c0.56,0,0.96,0.31,0.96,0.86
					v1.42C69.11,67.85,68.72,68.16,68.16,68.16 M64.58,64.07c-0.11,0-0.16,0.02-0.16,0.16v2.99l-1.81-2.92l-0.07-0.11
					c-0.06-0.09-0.11-0.13-0.22-0.13h-0.74c-0.12,0-0.15,0.05-0.15,0.16v4.72c0,0.14,0.05,0.16,0.15,0.16h0.79
					c0.11,0,0.15-0.02,0.15-0.16v-2.99l1.81,2.92l0.07,0.11c0.06,0.09,0.11,0.13,0.22,0.13h0.72c0.13,0,0.15-0.05,0.15-0.16v-4.72
					c0-0.14-0.04-0.16-0.15-0.16H64.58z M61.08,68.99l-1.74-4.73c-0.07-0.14-0.12-0.19-0.26-0.19h-0.76c-0.13,0-0.19,0.05-0.25,0.2
					l-1.75,4.72c-0.03,0.08-0.02,0.12,0.07,0.12h0.83c0.13,0,0.17-0.02,0.23-0.18l0.23-0.68h2.04l0.24,0.68
					c0.06,0.16,0.09,0.18,0.23,0.18h0.83C61.11,69.1,61.12,69.07,61.08,68.99 M58.71,65.25l0.7,2.04h-1.39L58.71,65.25z
					 M54.87,67.27c0.66-0.23,1.14-0.8,1.14-1.53c0-0.49-0.16-0.91-0.44-1.18c-0.31-0.31-0.67-0.48-1.51-0.48h-1.99
					c-0.12,0-0.15,0.05-0.15,0.16v4.72c0,0.14,0.04,0.16,0.15,0.16h0.78c0.11,0,0.15-0.02,0.15-0.16v-3.92h1.12
					c0.44,0,0.81,0.29,0.81,0.75c0,0.42-0.41,0.71-0.82,0.71h-0.16c-0.13,0-0.15,0.04-0.15,0.15v0.64c0,0.22,0.01,0.29,0.07,0.36
					l0.86,1.27c0.09,0.15,0.18,0.21,0.33,0.21h0.93c0.07,0,0.11-0.06,0.06-0.14L54.87,67.27z"/>
				<path class="st211" d="M74.02,51.38l-9.38-26.51c0,0-1.7-3.63-5.12-3.98c-3.42-0.35-5.82,2.86-5.82,2.86l-8.86,14.66
					l-8.86-14.66c0,0-2.4-3.21-5.82-2.86c-3.42,0.35-5.12,3.98-5.12,3.98l-9.38,26.51c0,0-2.07,6.77,3.03,9.36
					c5.1,2.59,9.46-2,9.46-2l5.25-6.06l6.37,4.88c0,0,0.79,0.55,2.01,1c1.03,0.47,2.06,0.63,3.03,0.61c0.01,0,0.02,0,0.02,0
					c0.01,0,0.02,0,0.02,0c0.97,0.02,2-0.15,3.03-0.61c1.22-0.46,2.01-1,2.01-1l6.37-4.88l5.25,6.06c0,0,4.37,4.59,9.46,2
					C76.09,58.15,74.02,51.38,74.02,51.38 M69.19,58.04c-4.42,2.24-8.2-1.73-8.2-1.73l-4.55-5.25l-5.52,4.22
					c0,0-4.51,3.13-8.38,0.04c-3.87-3.09-0.93-8.47-0.93-8.47l12.6-20.85c0,0,2.08-2.78,5.04-2.48c2.96,0.3,4.43,3.44,4.43,3.44
					l8.12,22.96C71.81,49.94,73.6,55.8,69.19,58.04"/>
			</g>
			<path class="st211" d="M58.74,73.02c0-0.01-0.01-0.02-0.02-0.02h-0.8v-0.38c0-0.01-0.01-0.02-0.02-0.02
				c-0.01,0-0.02,0.01-0.02,0.02V73H57.1c-0.01,0-0.02,0.01-0.02,0.02l-0.8,6.1c0,0.01,0.01,0.02,0.02,0.03c0,0,0,0,0,0
				c0.01,0,0.02-0.01,0.02-0.02l0.8-6.08h0.76v0.4c0,0.01,0.01,0.02,0.02,0.02h0.6l0,0.52h-1c-0.01,0-0.02,0.01-0.02,0.02v0.6
				c0,0.01,0.01,0.02,0.02,0.02h0.39v0.51h-0.75c-0.01,0-0.02,0.01-0.02,0.02v0.59c0,0.01,0.01,0.02,0.02,0.02h1.23v0.52h-0.85
				c-0.01,0-0.02,0.01-0.02,0.02v0.57c0,0.01,0.01,0.02,0.02,0.02h1.33v0.51h-1.91c-0.01,0-0.02,0.01-0.02,0.02v1.69
				c0,0.01,0.01,0.02,0.02,0.02h0.49c0.01,0,0.02-0.01,0.02-0.02c0.03-0.69,0.46-1.12,0.76-1.13c0.3,0,0.75,0.43,0.8,1.13
				c0,0.01,0.01,0.02,0.02,0.02h0.47c0.01,0,0.01,0,0.02-0.01c0,0,0.01-0.01,0.01-0.02L58.74,73.02z M59.06,79.1
				c-0.05-0.66-0.48-1.15-0.84-1.15h0c-0.35,0-0.77,0.49-0.81,1.15h-0.44v-1.64h1.91c0.01,0,0.02-0.01,0.02-0.02v-0.55
				c0-0.01-0.01-0.02-0.02-0.02h-1.33v-0.53h0.85c0.01,0,0.02-0.01,0.02-0.02v-0.56c0-0.01-0.01-0.02-0.02-0.02h-1.23v-0.54h0.75
				c0.01,0,0.02-0.01,0.02-0.02V74.6c0-0.01-0.01-0.02-0.02-0.02h-0.39v-0.55h1c0.01,0,0.01,0,0.02-0.01c0,0,0.01-0.01,0.01-0.02
				l0-0.56c0-0.01-0.01-0.02-0.02-0.02h-0.6v-0.38h0.78l0.79,6.06H59.06z"/>
			<path class="st211" d="M28,72.6c-0.01,0-0.01-0.01-0.02,0l-2.45,0.46v-0.44c0-0.01-0.01-0.02-0.02-0.02h-1.84
				c-0.01,0-0.02,0.01-0.02,0.02l0,1.21l-0.63,0c-0.01,0-0.02,0.01-0.02,0.02c0,0.01,0.01,0.02,0.02,0.02h0.62l-0.6,5.2h-0.43
				c-0.01,0-0.02,0.01-0.02,0.02s0.01,0.02,0.02,0.02h0.45c0.01,0,0.02-0.01,0.02-0.02l0.61-5.23h0.55v5.22
				c0,0.01,0.01,0.02,0.02,0.02h1.85c0.01,0,0.01,0,0.02-0.01c0,0,0.01-0.01,0.01-0.02l-0.61-5.27v-0.39l2.46,0.43
				c0.01,0,0.01,0,0.02-0.01c0.01,0,0.01-0.01,0.01-0.02v-1.22C28.01,72.61,28.01,72.6,28,72.6 M27.97,73.82l-2.46-0.43
				c-0.01,0-0.01,0-0.02,0.01c-0.01,0-0.01,0.01-0.01,0.02l0,0.42l0.61,5.24h-1.8v-0.6l0.6-0.01c0.01,0,0.02-0.01,0.02-0.02v-0.57
				c0-0.01-0.01-0.02-0.02-0.02h-0.6v-0.58h0.62c0.01,0,0.02-0.01,0.02-0.02v-0.58c0-0.01-0.01-0.02-0.02-0.02h-0.62v-0.58l0.63,0h0
				c0.01,0,0.01,0,0.02-0.01c0,0,0.01-0.01,0.01-0.02v-0.58c0-0.01-0.01-0.02-0.02-0.02h-0.63v-1.58c0-0.01-0.01-0.02-0.02-0.02
				H23.7v-1.19h1.79v0.44c0,0.01,0,0.01,0.01,0.02c0.01,0,0.01,0.01,0.02,0l2.45-0.46V73.82z M24.29,78.43v-0.53h0.58v0.52
				L24.29,78.43z M24.29,76.69h0.59v0.53h-0.59V76.69z M24.29,76.01v-0.53h0.61v0.54L24.29,76.01z"/>
			<g>
				<path class="st211" d="M16.93,79.12c-0.18,0-0.3-0.19-0.42-0.4c-0.12-0.2-0.25-0.4-0.43-0.42c-0.23-0.02-0.49,0.25-0.78,0.81
					c-0.01,0.01-0.02,0.02-0.03,0.01c-0.01-0.01-0.02-0.02-0.01-0.03c0.3-0.58,0.57-0.85,0.82-0.83c0.21,0.02,0.34,0.23,0.47,0.44
					c0.12,0.19,0.23,0.38,0.39,0.38c0.17,0,0.28-0.21,0.4-0.42c0.12-0.21,0.24-0.42,0.42-0.42h0c0.18,0,0.3,0.22,0.42,0.43
					c0.11,0.2,0.22,0.41,0.38,0.41c0.16,0,0.27-0.19,0.38-0.38c0.12-0.2,0.25-0.42,0.43-0.42h0c0.19,0,0.31,0.21,0.43,0.41
					c0.11,0.19,0.23,0.39,0.39,0.39h0c0.16,0,0.26-0.18,0.38-0.38c0.12-0.21,0.24-0.42,0.44-0.44c0.24-0.02,0.5,0.25,0.8,0.83
					c0.01,0.01,0,0.02-0.01,0.03c-0.01,0.01-0.02,0-0.03-0.01c-0.28-0.56-0.54-0.83-0.76-0.81c-0.17,0.02-0.29,0.22-0.41,0.42
					c-0.12,0.21-0.23,0.4-0.41,0.4h0c-0.18,0-0.31-0.21-0.43-0.41c-0.11-0.19-0.23-0.39-0.39-0.39h0c-0.16,0-0.28,0.2-0.39,0.39
					c-0.12,0.2-0.24,0.41-0.42,0.41h0c-0.19,0-0.31-0.22-0.42-0.43c-0.11-0.2-0.22-0.4-0.38-0.4h0c-0.15,0-0.26,0.19-0.38,0.4
					C17.25,78.89,17.12,79.12,16.93,79.12C16.93,79.12,16.93,79.12,16.93,79.12"/>
				<path class="st211" d="M17.81,77.89c-0.16,0-0.28-0.19-0.41-0.4c-0.13-0.22-0.27-0.44-0.47-0.46c-0.24-0.02-0.51,0.26-0.82,0.85
					c-0.01,0.01-0.02,0.02-0.03,0.01c-0.01-0.01-0.02-0.02-0.01-0.03c0.32-0.61,0.6-0.89,0.86-0.87c0.22,0.02,0.37,0.26,0.51,0.48
					c0.12,0.2,0.24,0.39,0.38,0.38c0.14-0.01,0.23-0.2,0.31-0.39c0.09-0.2,0.19-0.41,0.36-0.43c0.17-0.01,0.3,0.17,0.43,0.36
					c0.13,0.19,0.26,0.38,0.43,0.38c0,0,0,0,0,0c0.16,0,0.27-0.17,0.38-0.35c0.12-0.19,0.24-0.38,0.44-0.4
					c0.26-0.03,0.54,0.23,0.86,0.81c0.01,0.01,0,0.02-0.01,0.03c-0.01,0.01-0.02,0-0.03-0.01c-0.31-0.55-0.58-0.81-0.82-0.79
					c-0.18,0.02-0.29,0.2-0.4,0.38c-0.11,0.18-0.23,0.37-0.42,0.38c-0.2,0-0.34-0.2-0.47-0.4c-0.12-0.18-0.24-0.35-0.38-0.34
					c-0.15,0.01-0.24,0.21-0.33,0.4c-0.09,0.2-0.19,0.4-0.35,0.42C17.82,77.89,17.82,77.89,17.81,77.89"/>
				<path class="st211" d="M20.2,76.63c-0.01,0-0.02,0-0.02-0.01c-0.31-0.55-0.58-0.81-0.82-0.79c-0.18,0.02-0.3,0.21-0.42,0.4
					c-0.12,0.19-0.24,0.38-0.42,0.38h0c-0.18,0-0.29-0.18-0.41-0.37c-0.11-0.18-0.23-0.37-0.41-0.39c-0.23-0.03-0.49,0.22-0.78,0.73
					c-0.01,0.01-0.02,0.01-0.03,0.01c-0.01-0.01-0.01-0.02-0.01-0.03c0.3-0.53,0.58-0.78,0.82-0.75c0.2,0.02,0.32,0.22,0.44,0.41
					c0.11,0.18,0.22,0.35,0.37,0.35h0c0.16,0,0.27-0.17,0.38-0.36c0.12-0.2,0.25-0.4,0.45-0.42c0.26-0.03,0.54,0.24,0.86,0.81
					c0.01,0.01,0,0.02-0.01,0.03C20.21,76.63,20.21,76.63,20.2,76.63"/>
				<path class="st211" d="M20.08,74.19h-0.7c-0.01-0.23-0.1-0.43-0.25-0.58l0.49-0.49c0.01-0.01,0.01-0.02,0-0.03
					c-0.01-0.01-0.02-0.01-0.03,0l-0.49,0.49c-0.15-0.14-0.35-0.23-0.58-0.24c0,0,0,0,0-0.01v-0.72c0-0.01-0.01-0.02-0.02-0.02
					c-0.01,0-0.02,0.01-0.02,0.02v0.72c0,0,0,0,0,0.01c-0.23,0.01-0.43,0.1-0.58,0.24l-0.49-0.49c-0.01-0.01-0.02-0.01-0.03,0
					c-0.01,0.01-0.01,0.02,0,0.03l0.49,0.49c-0.14,0.15-0.23,0.36-0.24,0.58c0,0,0,0,0,0h-0.72c-0.01,0-0.02,0.01-0.02,0.02
					s0.01,0.02,0.02,0.02h0.72c0,0,0,0,0,0c0.01,0.23,0.1,0.43,0.24,0.58c0,0-0.01,0-0.01,0l-0.51,0.51c-0.01,0.01-0.01,0.02,0,0.03
					c0,0,0.01,0.01,0.02,0.01c0.01,0,0.01,0,0.02-0.01l0.51-0.51c0,0,0-0.01,0-0.01c0.15,0.15,0.36,0.24,0.58,0.24c0,0,0,0,0,0.01
					v0.72c0,0.01,0.01,0.02,0.02,0.02c0.01,0,0.02-0.01,0.02-0.02V75.1c0,0,0,0,0-0.01c0.23-0.01,0.43-0.1,0.58-0.24l0.5,0.5
					c0,0,0.01,0.01,0.02,0.01c0.01,0,0.01,0,0.02-0.01c0.01-0.01,0.01-0.02,0-0.03l-0.5-0.5c0.14-0.15,0.23-0.35,0.24-0.58h0.7
					c0.01,0,0.02-0.01,0.02-0.02S20.09,74.19,20.08,74.19 M18.51,75.05c-0.46,0-0.83-0.37-0.83-0.83s0.37-0.83,0.83-0.83
					c0.23,0,0.43,0.09,0.58,0.24c0,0,0,0,0,0c0,0,0,0,0,0c0.15,0.15,0.25,0.36,0.25,0.59C19.34,74.67,18.96,75.05,18.51,75.05"/>
			</g>
			<g>
				<path class="st211" d="M62.85,74.51c0-0.01-0.01-0.02-0.02-0.02h-0.74c-0.01,0-0.02,0.01-0.02,0.02c0,0.01,0.01,0.02,0.02,0.02
					h0.74C62.84,74.53,62.85,74.52,62.85,74.51"/>
				<path class="st211" d="M64.12,74.51c0-0.01-0.01-0.02-0.02-0.02h-0.74c-0.01,0-0.02,0.01-0.02,0.02c0,0.01,0.01,0.02,0.02,0.02
					h0.74C64.11,74.53,64.12,74.52,64.12,74.51"/>
				<path class="st211" d="M62.17,74.55c-0.01,0-0.02,0.01-0.02,0.02c0,0.01,0.01,0.02,0.02,0.02h0.57c0.01,0,0.02-0.01,0.02-0.02
					c0-0.01-0.01-0.02-0.02-0.02H62.17z"/>
				<path class="st211" d="M63.44,74.55c-0.01,0-0.02,0.01-0.02,0.02c0,0.01,0.01,0.02,0.02,0.02h0.57c0.01,0,0.02-0.01,0.02-0.02
					c0-0.01-0.01-0.02-0.02-0.02H63.44z"/>
				<path class="st211" d="M67.62,78.33c-0.06-0.2-0.19-0.4-0.38-0.54c-0.36-0.28-0.83-0.31-1.07-0.08l-1.97-1.24
					c0.03-0.03,0.06-0.06,0.09-0.09c0.87-0.98,0.63-3.06,0.63-3.08c0-0.01-0.01-0.02-0.02-0.02h-3.56c-0.01,0-0.02,0.01-0.02,0.02
					c0,0.01,0.01,0.02,0.02,0.02h3.54c0.02,0.22,0.19,2.11-0.62,3.02c-0.03,0.03-0.06,0.06-0.09,0.09l-1.03-0.65
					c-0.01-0.01-0.02,0-0.03,0.01c-0.01,0.01,0,0.02,0.01,0.03l1.02,0.64c-0.27,0.24-0.61,0.36-1.01,0.36
					c-0.76,0-1.69-0.41-1.78-2.37c-0.02-0.51,0.03-0.9,0.03-0.9c0-0.01-0.01-0.02-0.02-0.03c-0.01,0-0.02,0.01-0.03,0.02
					c0,0-0.05,0.4-0.03,0.91c0.04,0.9,0.34,2.41,1.83,2.41c0.42,0,0.77-0.13,1.05-0.38l1.97,1.24c-0.01,0.01-0.01,0.01-0.02,0.02
					c-0.11,0.14-0.14,0.33-0.08,0.54c0.06,0.2,0.19,0.4,0.38,0.54s0.41,0.23,0.62,0.24c0.01,0,0.01,0,0.02,0
					c0.2,0,0.37-0.08,0.48-0.21C67.65,78.73,67.68,78.53,67.62,78.33 M67.5,78.84c-0.1,0.13-0.27,0.2-0.47,0.19
					c-0.2-0.01-0.41-0.09-0.59-0.23c-0.18-0.14-0.31-0.32-0.36-0.52c-0.05-0.19-0.03-0.37,0.08-0.5c0.1-0.13,0.26-0.2,0.45-0.2
					c0.2,0,0.42,0.08,0.61,0.23c0.18,0.14,0.31,0.32,0.36,0.52C67.63,78.53,67.6,78.71,67.5,78.84"/>
				<path class="st211" d="M61.41,72.91h3.41c0.01,0,0.02-0.01,0.02-0.02c0-0.01-0.01-0.02-0.02-0.02h-1.69c0,0,0.01-0.01,0.01-0.01
					v-0.2c0-0.01-0.01-0.02-0.02-0.02c-0.01,0-0.02,0.01-0.02,0.02v0.2c0,0,0,0.01,0.01,0.01h-1.69c-0.01,0-0.02,0.01-0.02,0.02
					C61.39,72.9,61.4,72.91,61.41,72.91"/>
			</g>
			<path class="st211" d="M44.81,79.1c-0.01,0-0.01,0-0.02-0.01l-3.21-3.95c0,0-0.01-0.01-0.01-0.01v-1.67c0-0.01,0-0.01,0.01-0.02
				l0.79-0.76c0,0,0.01-0.01,0.02-0.01h0.82c0.01,0,0.01,0,0.02,0.01l1.58,1.58l1.58-1.58c0,0,0.01-0.01,0.02-0.01h0.79
				c0.01,0,0.01,0,0.02,0.01l0.8,0.8c0,0,0.01,0.01,0.01,0.02v1.58c0,0.01,0,0.01,0,0.01l-3.18,4C44.82,79.09,44.82,79.1,44.81,79.1
				L44.81,79.1z M41.62,75.11l3.19,3.93l3.16-3.98V73.5l-0.79-0.79h-0.77l-1.59,1.59c0,0-0.01,0.01-0.02,0.01
				c-0.01,0-0.01,0-0.02-0.01l-1.59-1.59h-0.8l-0.78,0.75V75.11z"/>
			<path class="st211" d="M74.26,79.06h-0.18v-0.63c0-0.01-0.01-0.02-0.02-0.02h-0.68v-0.44c0-0.01-0.01-0.02-0.02-0.02h-0.3V77.6
				c0-0.01-0.01-0.02-0.02-0.02h-0.27v-2.94h0.27c0.01,0,0.02-0.01,0.02-0.02V74.2h0.3c0.01,0,0.02-0.01,0.02-0.02v-0.74h0.68
				c0.01,0,0.02-0.01,0.02-0.02c0-0.01-0.01-0.02-0.02-0.02l-3.05-0.78c0,0-0.01,0-0.01,0l-3.05,0.78c-0.01,0-0.02,0.01-0.02,0.02
				c0,0.01,0.01,0.02,0.02,0.02h0.67v0.74c0,0.01,0.01,0.02,0.02,0.02h0.29v0.41c0,0.01,0.01,0.02,0.02,0.02h0.27v2.94h-0.27
				c-0.01,0-0.02,0.01-0.02,0.02v0.35h-0.29c-0.01,0-0.02,0.01-0.02,0.02v0.44h-0.67c-0.01,0-0.02,0.01-0.02,0.02v0.63h-0.16
				c-0.01,0-0.02,0.01-0.02,0.02c0,0.01,0.01,0.02,0.02,0.02h0.18c0.01,0,0.02-0.01,0.02-0.02v-0.63h6.05v0.63
				c0,0.01,0.01,0.02,0.02,0.02h0.2c0.01,0,0.02-0.01,0.02-0.02C74.29,79.07,74.28,79.06,74.26,79.06 M73.01,74.59h-0.27
				c-0.01,0-0.02,0.01-0.02,0.02v2.99c0,0.01,0.01,0.02,0.02,0.02h0.27v0.32h-0.8v-0.32h0.27c0.01,0,0.02-0.01,0.02-0.02v-2.99
				c0-0.01-0.01-0.02-0.02-0.02h-0.27V74.2h0.8V74.59z M71.45,77.95V77.6c0-0.01-0.01-0.02-0.02-0.02h-0.27v-2.94h0.27
				c0.01,0,0.02-0.01,0.02-0.02V74.2h0.71v0.41c0,0.01,0.01,0.02,0.02,0.02h0.27v2.94h-0.27c-0.01,0-0.02,0.01-0.02,0.02v0.35H71.45
				z M70.61,77.95v-0.32h0.27c0.01,0,0.02-0.01,0.02-0.02v-2.99c0-0.01-0.01-0.02-0.02-0.02h-0.27V74.2h0.8v0.39h-0.27
				c-0.01,0-0.02,0.01-0.02,0.02v2.99c0,0.01,0.01,0.02,0.02,0.02h0.27v0.32H70.61z M69.84,77.95V77.6c0-0.01-0.01-0.02-0.02-0.02
				h-0.27v-2.94h0.27c0.01,0,0.02-0.01,0.02-0.02V74.2h0.72v0.41c0,0.01,0.01,0.02,0.02,0.02h0.27v2.94h-0.27
				c-0.01,0-0.02,0.01-0.02,0.02v0.35H69.84z M71.01,72.65l2.87,0.73h-5.73L71.01,72.65z M68.69,73.43h4.65v0.72h-0.3c0,0,0,0,0,0
				c0,0,0,0,0,0h-0.84c0,0,0,0,0,0c0,0,0,0,0,0h-0.75c0,0,0,0,0,0c0,0,0,0,0,0h-0.84c0,0,0,0,0,0c0,0,0,0,0,0h-0.77c0,0,0,0,0,0
				c0,0,0,0,0,0h-0.84c0,0,0,0,0,0c0,0,0,0,0,0h-0.29V73.43z M69,77.62h0.27c0.01,0,0.02-0.01,0.02-0.02v-2.99
				c0-0.01-0.01-0.02-0.02-0.02H69V74.2h0.8v0.39h-0.27c-0.01,0-0.02,0.01-0.02,0.02v2.99c0,0.01,0.01,0.02,0.02,0.02h0.27v0.32H69
				V77.62z M68.69,77.99h4.65v0.41h-4.65V77.99z"/>
			<g>
				<path class="st211" d="M51.22,74.35c-0.12-0.07-0.21-0.18-0.25-0.31c-0.04-0.13-0.02-0.27,0.04-0.4
					c0.07-0.12,0.18-0.21,0.31-0.25c0.13-0.04,0.27-0.02,0.4,0.04c0.12,0.07,0.21,0.18,0.25,0.31c0.04,0.13,0.02,0.27-0.04,0.4
					c-0.07,0.12-0.18,0.21-0.31,0.25c-0.05,0.01-0.1,0.02-0.15,0.02C51.38,74.41,51.29,74.39,51.22,74.35 M51.33,73.44
					c-0.12,0.04-0.22,0.12-0.28,0.23c-0.06,0.11-0.07,0.24-0.04,0.36c0.04,0.12,0.12,0.22,0.23,0.28c0.11,0.06,0.24,0.07,0.36,0.04
					c0.12-0.04,0.22-0.12,0.28-0.23c0.06-0.11,0.07-0.24,0.04-0.36c-0.04-0.12-0.12-0.22-0.23-0.28c-0.07-0.04-0.15-0.06-0.23-0.06
					C51.42,73.42,51.37,73.42,51.33,73.44"/>
				<path class="st211" d="M51.57,75.19c-0.01,0-0.01-0.01-0.01-0.01l-0.08-0.25c-0.08,0-0.17-0.01-0.25-0.03l-0.12,0.23
					c-0.01,0.01-0.02,0.02-0.03,0.01l-0.44-0.24c-0.01,0-0.01-0.01-0.01-0.01c0-0.01,0-0.01,0-0.02l0.12-0.23
					c-0.06-0.06-0.11-0.12-0.16-0.2l-0.25,0.08c-0.01,0-0.02,0-0.03-0.02l-0.14-0.48c0-0.01,0-0.02,0.02-0.03l0.25-0.08
					c0-0.08,0.01-0.17,0.03-0.25l-0.23-0.12c-0.01-0.01-0.02-0.02-0.01-0.03l0.24-0.44c0-0.01,0.01-0.01,0.01-0.01
					c0.01,0,0.01,0,0.02,0l0.23,0.12c0.06-0.06,0.12-0.11,0.2-0.16l-0.08-0.25c0-0.01,0-0.02,0.02-0.03l0.48-0.14
					c0.01,0,0.02,0,0.03,0.02l0.08,0.25c0.08,0,0.17,0.01,0.25,0.03l0.13-0.23c0.01-0.01,0.02-0.01,0.03-0.01l0.44,0.24
					c0.01,0,0.01,0.01,0.01,0.01c0,0.01,0,0.01,0,0.02l-0.13,0.23c0.06,0.06,0.11,0.12,0.16,0.2l0.25-0.08c0.01,0,0.02,0,0.03,0.02
					l0.14,0.48c0,0.01,0,0.01,0,0.02c0,0.01-0.01,0.01-0.01,0.01l-0.25,0.08c0,0.08-0.01,0.17-0.03,0.25l0.23,0.13
					c0.01,0.01,0.02,0.02,0.01,0.03l-0.24,0.44c0,0.01-0.01,0.01-0.01,0.01c-0.01,0-0.01,0-0.02,0L52.2,74.6
					c-0.06,0.06-0.12,0.11-0.2,0.16l0.08,0.25c0,0.01,0,0.02-0.02,0.03l-0.48,0.14c0,0,0,0-0.01,0
					C51.58,75.19,51.58,75.19,51.57,75.19 M51.96,74.76c0-0.01,0-0.02,0.01-0.03c0.08-0.05,0.15-0.11,0.21-0.17
					c0.01-0.01,0.02-0.01,0.03,0l0.23,0.12l0.22-0.4l-0.23-0.12c-0.01,0-0.01-0.02-0.01-0.03c0.02-0.09,0.03-0.18,0.03-0.27
					c0-0.01,0.01-0.02,0.02-0.02l0.25-0.07l-0.13-0.44l-0.25,0.07c-0.01,0-0.02,0-0.03-0.01c-0.05-0.08-0.11-0.15-0.17-0.21
					c-0.01-0.01-0.01-0.02,0-0.03l0.12-0.23l-0.4-0.22l-0.12,0.23c0,0.01-0.02,0.01-0.03,0.01c-0.09-0.02-0.18-0.03-0.27-0.03
					c-0.01,0-0.02-0.01-0.02-0.02l-0.07-0.25l-0.44,0.13l0.07,0.25c0,0.01,0,0.02-0.01,0.03c-0.08,0.05-0.15,0.11-0.21,0.17
					c-0.01,0.01-0.02,0.01-0.03,0l-0.22-0.12l-0.22,0.4l0.22,0.12c0.01,0,0.01,0.02,0.01,0.03c-0.02,0.09-0.03,0.18-0.03,0.27
					c0,0.01-0.01,0.02-0.02,0.02l-0.25,0.07l0.13,0.44l0.25-0.07c0.01,0,0.02,0,0.03,0.01c0.05,0.08,0.11,0.15,0.17,0.21
					c0.01,0.01,0.01,0.02,0,0.03l-0.12,0.22l0.4,0.22l0.12-0.22c0-0.01,0.02-0.01,0.03-0.01c0.09,0.02,0.18,0.03,0.27,0.03
					c0.01,0,0.02,0.01,0.02,0.02l0.07,0.25l0.44-0.13L51.96,74.76z"/>
				<path class="st211" d="M53.33,76.55c-0.13,0-0.26-0.05-0.36-0.15c-0.09-0.1-0.15-0.22-0.15-0.36c0-0.13,0.05-0.26,0.15-0.36
					c0.09-0.09,0.22-0.15,0.35-0.15h0c0.28,0,0.5,0.23,0.5,0.5c0,0.13-0.05,0.26-0.15,0.36C53.59,76.5,53.47,76.55,53.33,76.55
					L53.33,76.55z M53.01,75.73c-0.09,0.09-0.13,0.2-0.13,0.32c0,0.12,0.05,0.24,0.13,0.32c0.09,0.09,0.2,0.13,0.32,0.13h0
					c0.12,0,0.24-0.05,0.32-0.13c0.09-0.09,0.13-0.2,0.13-0.32c0-0.25-0.2-0.46-0.46-0.46h0C53.21,75.59,53.1,75.64,53.01,75.73"/>
				<path class="st211" d="M53.57,77.28l-0.48,0c-0.01,0-0.01,0-0.02-0.01c0,0-0.01-0.01-0.01-0.02l0-0.25
					c-0.08-0.02-0.15-0.05-0.22-0.09l-0.18,0.17c-0.01,0.01-0.02,0.01-0.03,0l-0.34-0.34c-0.01-0.01-0.01-0.02,0-0.03l0.18-0.17
					c-0.04-0.07-0.07-0.15-0.09-0.22l-0.25,0c-0.01,0-0.02-0.01-0.02-0.02l0-0.48c0-0.01,0.01-0.02,0.02-0.02l0.25,0
					c0.02-0.08,0.05-0.15,0.09-0.22l-0.17-0.18c-0.01-0.01-0.01-0.02,0-0.03l0.34-0.34c0,0,0.01-0.01,0.02-0.01
					c0.01,0,0.01,0,0.02,0.01l0.17,0.18c0.07-0.04,0.15-0.07,0.22-0.09l0-0.25c0-0.01,0.01-0.02,0.02-0.02h0l0.48,0
					c0.01,0,0.02,0.01,0.02,0.02l0,0.25c0.08,0.02,0.15,0.05,0.22,0.09L54,75.01c0.01-0.01,0.02-0.01,0.03,0l0.34,0.34
					c0.01,0.01,0.01,0.02,0,0.03l-0.18,0.18c0.04,0.07,0.07,0.15,0.09,0.22l0.25,0c0.01,0,0.02,0.01,0.02,0.02l0,0.48
					c0,0.01,0,0.01-0.01,0.02c0,0-0.01,0.01-0.02,0.01h0l-0.25,0c-0.02,0.08-0.05,0.15-0.09,0.22l0.18,0.18
					c0.01,0.01,0.01,0.02,0,0.03l-0.34,0.34c-0.01,0.01-0.02,0.01-0.03,0l-0.18-0.18c-0.07,0.04-0.15,0.07-0.22,0.09l0,0.25
					C53.59,77.27,53.58,77.28,53.57,77.28 M53.84,76.87l0.18,0.18l0.31-0.31l-0.18-0.18c-0.01-0.01-0.01-0.02,0-0.03
					c0.05-0.08,0.08-0.16,0.1-0.24c0-0.01,0.01-0.02,0.02-0.02l0.25,0l0-0.44l-0.25,0c-0.01,0-0.02-0.01-0.02-0.02
					c-0.02-0.09-0.06-0.17-0.1-0.24c-0.01-0.01,0-0.02,0-0.03l0.18-0.18l-0.31-0.31l-0.18,0.18c-0.01,0.01-0.02,0.01-0.03,0
					c-0.08-0.05-0.16-0.08-0.24-0.1c-0.01,0-0.02-0.01-0.02-0.02l0-0.25l-0.44,0l0,0.25c0,0.01-0.01,0.02-0.02,0.02
					c-0.09,0.02-0.17,0.06-0.24,0.1c-0.01,0.01-0.02,0-0.03,0l-0.17-0.17l-0.31,0.31l0.17,0.17c0.01,0.01,0.01,0.02,0,0.03
					c-0.05,0.08-0.08,0.16-0.1,0.24c0,0.01-0.01,0.02-0.02,0.02h0l-0.25,0l0,0.44l0.25,0c0.01,0,0.02,0.01,0.02,0.02
					c0.02,0.09,0.06,0.17,0.1,0.24c0.01,0.01,0,0.02,0,0.03l-0.17,0.17l0.31,0.31l0.17-0.17c0.01-0.01,0.02-0.01,0.03,0
					c0.08,0.05,0.16,0.08,0.24,0.1c0.01,0,0.02,0.01,0.02,0.02l0,0.25l0.44,0l0-0.25c0-0.01,0.01-0.02,0.02-0.02
					c0.09-0.02,0.17-0.06,0.24-0.1c0,0,0.01,0,0.01,0C53.83,76.86,53.83,76.86,53.84,76.87"/>
				<path class="st211" d="M50.06,77.92L50.06,77.92c-0.21-0.02-0.41-0.12-0.54-0.28c-0.14-0.16-0.2-0.37-0.18-0.58
					c0.02-0.21,0.12-0.41,0.28-0.54c0.16-0.14,0.37-0.2,0.58-0.18c0.44,0.04,0.77,0.43,0.73,0.87c-0.02,0.21-0.12,0.41-0.28,0.54
					c-0.15,0.12-0.33,0.19-0.51,0.19C50.11,77.93,50.08,77.93,50.06,77.92 M49.64,76.55c-0.15,0.13-0.25,0.31-0.27,0.51
					c-0.02,0.2,0.04,0.4,0.17,0.55c0.13,0.15,0.31,0.25,0.51,0.27c0.2,0.02,0.4-0.04,0.55-0.17c0.15-0.13,0.25-0.31,0.27-0.51
					c0.04-0.41-0.27-0.78-0.69-0.82c-0.02,0-0.04,0-0.07,0C49.95,76.37,49.78,76.43,49.64,76.55"/>
				<path class="st211" d="M50.35,79.13l-0.78-0.07c-0.01,0-0.01,0-0.02-0.01c0,0-0.01-0.01-0.01-0.02l0.04-0.42
					c-0.13-0.05-0.25-0.11-0.36-0.19l-0.31,0.26c-0.01,0.01-0.02,0.01-0.03,0l-0.5-0.6c-0.01-0.01-0.01-0.02,0-0.03l0.31-0.26
					c-0.06-0.12-0.1-0.26-0.12-0.39l-0.42-0.04c-0.01,0-0.02-0.01-0.02-0.02l0.07-0.78c0-0.01,0-0.01,0.01-0.02
					c0,0,0.01-0.01,0.02-0.01l0.42,0.04c0.05-0.13,0.11-0.25,0.19-0.36l-0.27-0.32c-0.01-0.01-0.01-0.02,0-0.03l0.6-0.5
					c0,0,0.01-0.01,0.02-0.01c0.01,0,0.01,0,0.02,0.01l0.27,0.32c0.12-0.06,0.26-0.1,0.39-0.12l0.04-0.42c0-0.01,0-0.01,0.01-0.02
					c0,0,0.01-0.01,0.02-0.01l0.78,0.07c0.01,0,0.01,0,0.02,0.01c0,0,0.01,0.01,0.01,0.02l-0.04,0.42c0.13,0.05,0.25,0.11,0.36,0.19
					l0.32-0.27c0,0,0.01-0.01,0.02-0.01c0.01,0,0.01,0,0.02,0.01l0.5,0.6c0.01,0.01,0.01,0.02,0,0.03l-0.32,0.27
					c0.06,0.12,0.1,0.26,0.12,0.39l0.42,0.04c0.01,0,0.02,0.01,0.02,0.02l-0.07,0.78c0,0.01,0,0.01-0.01,0.02
					c0,0-0.01,0.01-0.02,0.01l-0.42-0.04c-0.05,0.13-0.11,0.25-0.19,0.36l0.26,0.31c0,0,0.01,0.01,0.01,0.02
					c0,0.01,0,0.01-0.01,0.02l-0.6,0.5c0,0-0.01,0.01-0.02,0.01c-0.01,0-0.01,0-0.02-0.01l-0.26-0.31c-0.12,0.06-0.26,0.1-0.39,0.12
					l-0.04,0.42C50.37,79.12,50.36,79.13,50.35,79.13C50.35,79.13,50.35,79.13,50.35,79.13 M50.82,78.52l0.26,0.31l0.56-0.47
					l-0.26-0.31c-0.01-0.01-0.01-0.02,0-0.03c0.08-0.12,0.15-0.25,0.2-0.38c0-0.01,0.01-0.02,0.02-0.02l0.42,0.04l0.06-0.73
					l-0.42-0.04c-0.01,0-0.02-0.01-0.02-0.02c-0.02-0.14-0.07-0.28-0.13-0.41c0-0.01,0-0.02,0.01-0.03l0.32-0.27l-0.47-0.56
					l-0.32,0.27c-0.01,0.01-0.02,0.01-0.03,0c-0.12-0.08-0.25-0.15-0.38-0.2c-0.01,0-0.02-0.01-0.02-0.02l0.04-0.42l-0.73-0.06
					l-0.04,0.42c0,0.01-0.01,0.02-0.02,0.02c-0.14,0.02-0.28,0.07-0.41,0.13c-0.01,0-0.02,0-0.03-0.01l-0.27-0.32l-0.56,0.47
					l0.27,0.32c0.01,0.01,0.01,0.02,0,0.03c-0.08,0.12-0.15,0.25-0.2,0.38c0,0.01-0.01,0.02-0.02,0.02l-0.42-0.04l-0.06,0.73
					l0.42,0.04c0.01,0,0.02,0.01,0.02,0.02c0.02,0.14,0.07,0.28,0.13,0.41c0,0.01,0,0.02-0.01,0.03l-0.31,0.26l0.47,0.56l0.31-0.26
					c0.01-0.01,0.02-0.01,0.03,0c0.12,0.08,0.25,0.15,0.38,0.2c0.01,0,0.02,0.01,0.02,0.02l-0.04,0.42l0.73,0.06l0.04-0.42
					c0-0.01,0.01-0.02,0.02-0.02c0.14-0.02,0.28-0.07,0.41-0.13c0,0,0.01,0,0.01,0C50.81,78.51,50.82,78.52,50.82,78.52"/>
			</g>
			<g>
				<path class="st211" d="M28.44,78h0.33l-0.26,0.26c-0.01,0.01-0.01,0.02,0,0.03c0,0,0.01,0.01,0.02,0.01c0.01,0,0.01,0,0.02-0.01
					l0.3-0.3h0.38l-0.26,0.26c-0.01,0.01-0.01,0.02,0,0.03c0,0,0.01,0.01,0.02,0.01c0.01,0,0.01,0,0.02-0.01l0.3-0.3h0.42
					l-0.26,0.26c-0.01,0.01-0.01,0.02,0,0.03c0,0,0.01,0.01,0.02,0.01c0.01,0,0.01,0,0.02-0.01l0.3-0.3h0.43l-0.26,0.26
					c-0.01,0.01-0.01,0.02,0,0.03c0,0,0.01,0.01,0.02,0.01c0.01,0,0.01,0,0.02-0.01l0.3-0.3h0.37l-0.26,0.26
					c-0.01,0.01-0.01,0.02,0,0.03c0,0,0.01,0.01,0.02,0.01c0.01,0,0.01,0,0.02-0.01l0.3-0.3h0.37c0.01,0,0.02-0.01,0.02-0.02
					c0-0.01-0.01-0.02-0.02-0.02h-0.33l0.28-0.28h0.37c0.01,0,0.02-0.01,0.02-0.02c0-0.01-0.01-0.02-0.02-0.02h-0.33l0.14-0.14
					c0.07,0,0.14,0.01,0.21,0.01c0.09,0,0.18,0,0.27-0.01c0.53-0.05,1.04-0.22,1.49-0.5c0,0,0.01,0,0.01,0c0,0,0,0,0,0
					c0.9-0.57,1.57-1.55,1.74-2.7c0-0.01-0.01-0.02-0.02-0.03c-0.01,0-0.02,0.01-0.03,0.02c0,0.02-0.41,1.97-2.72,2.13
					c-0.11,0.01-0.24,0.01-0.37,0.02c-0.18,0.01-0.35,0.01-0.5,0.01c-0.16,0-0.32,0-0.47-0.01c-0.74-0.04-1.36-0.16-1.78-0.37
					c-0.36-0.17-0.55-0.39-0.55-0.61c0-0.01-0.01-0.02-0.02-0.02h0c-0.01,0-0.02,0.01-0.02,0.02l-0.01,0.41c0,0,0,0.01,0,0.01
					c0.17,0.25,0.37,0.48,0.59,0.68c0,0,0,0,0,0c0,0,0,0,0,0c0.21,0.19,0.45,0.36,0.7,0.5l-0.28,0.28h-0.37
					c-0.01,0-0.02,0.01-0.02,0.02c0,0.01,0.01,0.02,0.02,0.02h0.33l-0.25,0.25h-0.37c-0.01,0-0.02,0.01-0.02,0.02
					c0,0.01,0.01,0.02,0.02,0.02h0.33l-0.28,0.28h-0.37c-0.01,0-0.02,0.01-0.02,0.02C28.41,77.99,28.42,78,28.44,78 M29.32,77.95
					l0.28-0.28h0.42l-0.28,0.28H29.32z M30.06,77.21c0.1,0.04,0.2,0.08,0.31,0.11l0,0h-0.42L30.06,77.21z M30.5,77.37
					c0.01,0,0.01,0,0.01-0.01c0.08,0.02,0.16,0.04,0.25,0.06l-0.2,0.2h-0.43l0.25-0.25H30.5z M30.32,77.37l-0.25,0.25h-0.42
					l0.25-0.25H30.32z M29.8,77.95l0.28-0.28h0.43l-0.28,0.28H29.8z M30.66,77.95H30.3l0.28-0.28h0.37L30.66,77.95z M30.62,77.63
					l0.19-0.19c0.11,0.02,0.22,0.03,0.33,0.04l-0.15,0.15H30.62z M31.67,77.43c-0.16,0.01-0.32,0.01-0.48,0
					c-0.12-0.01-0.25-0.02-0.38-0.05h0c-0.13-0.02-0.26-0.06-0.39-0.1c-0.13-0.04-0.24-0.08-0.35-0.13v0
					c-0.09-0.04-0.19-0.09-0.29-0.15c-0.25-0.14-0.48-0.3-0.7-0.49c0.1-0.09,0.19-0.03,0.2-0.03h0c0.01,0.01,0.7,0.48,2.14,0.48
					c0.38,0,0.8-0.03,1.28-0.11c0,0,0,0,0,0c0,0,0,0,0,0c0,0,0.21-0.1,0.42,0.09C32.68,77.22,32.19,77.39,31.67,77.43 M34.79,74.64
					c-0.24,0.97-0.85,1.79-1.64,2.29c-0.2-0.19-0.4-0.13-0.46-0.11c-0.14-0.15-0.17-0.36-0.17-0.42
					C33.97,76.16,34.57,75.18,34.79,74.64 M32.15,76.44c0.11-0.01,0.22-0.02,0.32-0.04c0.01,0.07,0.03,0.27,0.17,0.43
					c-2.11,0.34-3.17-0.26-3.33-0.36c0.07-0.08,0.09-0.18,0.1-0.23c0.36,0.11,0.82,0.19,1.39,0.21c0.15,0.01,0.31,0.01,0.47,0.01h0
					h0.01c0.15,0,0.32,0,0.49-0.01C31.92,76.45,32.04,76.45,32.15,76.44 M28.47,75.84l0-0.22c0.1,0.23,0.4,0.45,0.9,0.6
					c0,0.04-0.02,0.14-0.09,0.22c-0.04-0.02-0.14-0.05-0.24,0.05C28.82,76.3,28.63,76.08,28.47,75.84 M29.76,77.07
					c0.09,0.05,0.17,0.09,0.25,0.13l-0.14,0.14H29.5L29.76,77.07z M29.45,77.37h0.38l-0.25,0.25H29.2L29.45,77.37z M29.15,77.67
					h0.38l-0.28,0.28h-0.38L29.15,77.67z"/>
				<path class="st211" d="M34.12,78.28c-0.2,0.02-0.32,0.23-0.44,0.44c-0.11,0.19-0.22,0.38-0.37,0.38h0
					c-0.16,0-0.27-0.2-0.38-0.38c-0.12-0.2-0.24-0.41-0.43-0.41h0c-0.19,0-0.31,0.21-0.43,0.41c-0.11,0.19-0.23,0.38-0.38,0.38h0
					c-0.16,0-0.27-0.21-0.38-0.41c-0.11-0.21-0.23-0.42-0.41-0.42h0c-0.18,0-0.3,0.21-0.42,0.42c-0.11,0.2-0.23,0.41-0.4,0.41
					c0,0,0,0,0,0c-0.15,0-0.27-0.18-0.38-0.37c-0.13-0.21-0.26-0.42-0.46-0.44c-0.25-0.02-0.52,0.25-0.81,0.82
					c-0.01,0.01,0,0.02,0.01,0.03c0.01,0.01,0.02,0,0.03-0.01c0.28-0.55,0.54-0.82,0.77-0.8c0.18,0.02,0.31,0.22,0.43,0.42
					c0.12,0.2,0.24,0.39,0.42,0.39c0,0,0,0,0,0c0.19,0,0.31-0.22,0.43-0.44c0.11-0.2,0.22-0.4,0.38-0.4h0c0.15,0,0.27,0.2,0.37,0.4
					c0.12,0.21,0.24,0.43,0.42,0.43h0c0.18,0,0.3-0.2,0.42-0.4c0.11-0.19,0.23-0.39,0.39-0.39h0c0.16,0,0.28,0.2,0.39,0.39
					c0.12,0.2,0.24,0.41,0.42,0.41h0c0.18,0,0.29-0.19,0.41-0.4c0.11-0.19,0.23-0.4,0.4-0.41c0.22-0.02,0.47,0.25,0.75,0.8
					c0.01,0.01,0.02,0.02,0.03,0.01c0.01-0.01,0.02-0.02,0.01-0.03C34.62,78.53,34.36,78.26,34.12,78.28"/>
				<path class="st211" d="M34.06,77.47c-0.2,0.02-0.33,0.22-0.45,0.42c-0.11,0.18-0.22,0.35-0.38,0.35h0
					c-0.15,0-0.26-0.17-0.37-0.34c-0.12-0.19-0.24-0.38-0.44-0.4c-0.24-0.03-0.52,0.22-0.81,0.74c-0.01,0.01,0,0.02,0.01,0.03
					c0.01,0.01,0.02,0,0.03-0.01c0.29-0.5,0.54-0.74,0.77-0.72c0.18,0.02,0.29,0.2,0.4,0.38c0.12,0.19,0.23,0.36,0.41,0.37h0
					c0.18,0,0.29-0.18,0.41-0.37c0.12-0.18,0.23-0.37,0.41-0.39c0.23-0.03,0.5,0.24,0.81,0.78c0,0.01,0.01,0.01,0.02,0.01
					c0,0,0.01,0,0.01,0c0.01-0.01,0.01-0.02,0.01-0.03C34.6,77.7,34.32,77.44,34.06,77.47"/>
				<path class="st211" d="M31.27,73.5c0,0,0.01,0.01,0.02,0.01c0.01,0,0.01,0,0.02-0.01l0.84-0.84c0.01-0.01,0.01-0.02,0-0.03
					c-0.01-0.01-0.02-0.01-0.03,0l-0.83,0.83l-0.87-0.85c-0.01-0.01-0.02-0.01-0.03,0c-0.01,0.01-0.01,0.02,0,0.03L31.27,73.5z"/>
				<path class="st211" d="M31.78,73.34c-0.01,0.01-0.01,0.02,0,0.03l0.88,0.87c0,0,0.01,0.01,0.02,0.01c0.01,0,0.01,0,0.02-0.01
					l0.84-0.84c0.01-0.01,0.01-0.02,0-0.03c-0.01-0.01-0.02-0.01-0.03,0l-0.83,0.83l-0.87-0.85C31.8,73.34,31.79,73.34,31.78,73.34"
					/>
			</g>
			<path class="st211" d="M40.33,74.21h-2.41v-0.37h2c0.01,0,0.02-0.01,0.02-0.02c0-0.01-0.01-0.02-0.02-0.02h-2v-0.37h1.69
				c0.01,0,0.02-0.01,0.02-0.02c0-0.01-0.01-0.02-0.02-0.02h-1.69v-0.34h1.38c0.01,0,0.02-0.01,0.02-0.02
				c0-0.01-0.01-0.02-0.02-0.02h-1.38v-0.34h0.52c0.01,0,0.02-0.01,0.02-0.02c0-0.01-0.01-0.02-0.02-0.02h-0.93
				c-0.01,0-0.02,0.01-0.02,0.02c0,0.01,0.01,0.02,0.02,0.02h0.36v0.34h-0.7c-0.01,0-0.02,0.01-0.02,0.02
				c0,0.01,0.01,0.02,0.02,0.02h0.7v0.34h-1.06c-0.01,0-0.02,0.01-0.02,0.02c0,0.01,0.01,0.02,0.02,0.02h1.06v0.37h-1.33
				c-0.01,0-0.02,0.01-0.02,0.02c0,0.01,0.01,0.02,0.02,0.02h1.33v0.37h-1.9c-0.01,0-0.02,0.01-0.02,0.02
				c0,0.01,0.01,0.02,0.02,0.02h1.9v0.37h-1.9c-0.01,0-0.02,0.01-0.02,0.02s0.01,0.02,0.02,0.02h1.9v0.37h-1.59
				c-0.01,0-0.02,0.01-0.02,0.02c0,0.01,0.01,0.02,0.02,0.02h1.59v0.34h-1.06c-0.01,0-0.02,0.01-0.02,0.02
				c0,0.01,0.01,0.02,0.02,0.02h1.06v3.67c0,0.01,0.01,0.02,0.02,0.02h0.31c0.01,0,0.02-0.01,0.02-0.02v-2.91
				c0-0.01-0.01-0.02-0.02-0.02c-0.01,0-0.02,0.01-0.02,0.02v2.89h-0.27v-3.65h0.83c0.01,0,0.02-0.01,0.02-0.02
				c0-0.01-0.01-0.02-0.02-0.02h-0.83v-0.34h1.12c0.01,0,0.02-0.01,0.02-0.02c0-0.01-0.01-0.02-0.02-0.02h-1.12v-0.37h2
				c0.01,0,0.02-0.01,0.02-0.02s-0.01-0.02-0.02-0.02h-2v-0.37h2.41c0.01,0,0.02-0.01,0.02-0.02
				C40.36,74.22,40.35,74.21,40.33,74.21"/>
		</g>
	</g>
</g>
</svg>
