<?xml version="1.0" encoding="utf-8"?>
<!-- Generator: Adobe Illustrator 25.2.0, SVG Export Plug-In . SVG Version: 6.00 Build 0)  -->
<svg version="1.1" id="Layer_1" xmlns="http://www.w3.org/2000/svg" xmlns:xlink="http://www.w3.org/1999/xlink" x="0px" y="0px"
	 viewBox="0 0 487.07 410.58" style="enable-background:new 0 0 487.07 410.58;" xml:space="preserve">
<style type="text/css">
	.st0{fill:#FFFFFF;}
</style>
<g>
	<g>
		<path d="M466.46,353.11c-0.31,0.55-0.87,0.98-1.36,1.42c-2.93,2.61-3.49,6.46-1.38,9.58c1.03,1.52,0.52,2.72-1.42,3.21
			c-0.55,0.14-1.14,0.1-1.66,0.14c1.24,2.64,2.44,5.2,3.65,7.77c-0.21,0.11-0.41,0.22-0.62,0.33c-0.53-0.87-1.15-1.7-1.57-2.62
			c-1.58-3.45-2.95-7.01-4.69-10.38c-1.18-2.28-2.39-4.39-3.03-7c-0.67-2.73-1.3-5.06,0.58-7.43c-0.87-0.38-1.6-0.64-2.29-0.99
			c-1.5-0.78-3.02-1.54-4.45-2.44c-0.89-0.56-1.87-1.19-2.41-2.05c-0.91-1.43-2.16-1.63-3.61-1.6c-1.13,0.02-2.33-0.18-2.48,1.56
			c-0.02,0.29-0.92,0.7-1.44,0.74c-3.91,0.3-7.84,0.48-11.75,0.76c-3.38,0.25-6.78,0.41-10.11,0.98c-1.27,0.22-2.67,1.21-3.47,2.26
			c-1.74,2.29-3.07,4.89-4.7,7.27c-2.57,3.75-5.26,7.42-7.91,11.12c-0.22,0.3-0.52,0.58-0.84,0.77c-2.04,1.24-2.49,2.65-1.64,4.87
			c0.59,1.55,1.31,3.11,1.55,4.73c1.81,11.85,6.05,23.03,9.31,34.47c-19.34,0-38.68,0-58.01,0c0.06-0.86,0.11-1.73,0.17-2.59
			c-0.17,0-0.34-0.01-0.5-0.01c-0.24,0.42-0.48,0.83-0.73,1.26c-1.8-1.26-1.99-1.17-2.94,1.34c-57.21,0-114.43,0-171.64,0
			c0.34-0.31,0.83-0.56,0.99-0.95c0.26-0.6,0.53-1.38,0.33-1.92c-0.11-0.31-1.17-0.46-1.75-0.37c-1.56,0.26-1.77,1.26-0.78,3.24
			c-11.2,0-22.4,0-33.61,0c-0.05-0.3-0.25-0.78-0.13-0.88c0.95-0.77,1.07-1.75,0.07-2.29c-0.86-0.46-2.24-0.74-3.02-0.36
			c-0.97,0.49-0.84,1.66,0.12,2.5c0.27,0.24,0.38,0.67,0.56,1.02c-69.08,0-138.16,0-207.25,0c1.29-2.68,2.05-5.9,4.03-7.88
			c1.61-1.61,1.98-2.92,2.03-4.89c0.04-1.58,0.65-3.13,0.83-4.71c0.14-1.24,0.3-2.59-0.05-3.74c-0.7-2.28,0.02-4.21,1-6.12
			c1.21-2.36,2.45-4.71,3.81-6.98c2.05-3.42,2.66-7.15,2.85-11.06c0.3-6.01,1.81-11.83,3.56-17.54c0.94-3.08,2.44-5.98,3.74-8.94
			c0.2-0.45,0.77-0.72,1.06-1.15c0.66-0.97,1.44-1.92,1.82-3c0.8-2.23,1.38-4.54,2.09-6.99c1.59,0.95,2,2.34,2.09,3.9
			c0.03,0.46-0.11,0.96,0.01,1.39c0.19,0.72,0.53,1.4,0.81,2.09c0.65-0.44,1.32-0.85,1.94-1.34c0.18-0.14,0.2-0.49,0.56-0.57
			c0.55,2.11,0.19,3.98-1.18,5.39c-2,2.06-2.19,4.64-2.45,7.21c-0.05,0.53,0.47,1.12,0.73,1.68c0.49-0.37,1.21-0.64,1.43-1.13
			c1.09-2.43,2.03-4.93,3.08-7.38c0.49-1.15,1.04-2.3,1.73-3.34c1.49-2.26,1.91-2.3,4.31-0.93c0.42,0.24,1.11,0.43,1.44,0.24
			c0.33-0.19,0.51-0.89,0.49-1.36c-0.15-5.8,1.43-11.17,4.93-15.7c1.99-2.57,4.62-4.92,7.43-6.54c6.37-3.67,11.69-8.31,15.67-14.48
			c1.35-2.09,3.05-3.61,5.6-4.17c3.18-0.7,6.28-1.78,9.48-2.34c3.41-0.59,6.9-0.7,10.34-1.16c1.22-0.17,2.36-0.88,3.59-1.14
			c2.25-0.47,4.54-0.78,6.81-1.16c0.7-0.12,1.56-0.05,2.08-0.43c3.89-2.87,7.89-5.64,11.52-8.83c3.01-2.65,6.61-3.08,10.18-3.54
			c2.86-0.37,5.84-0.21,8.72,0.13c3.53,0.41,4.59,3.05,2.7,6c-0.28,0.43-0.67,1.05-0.55,1.44c0.54,1.77,1.23,3.49,1.9,5.21
			c0.07,0.19,0.42,0.32,0.67,0.37c2.63,0.61,6.62-2.43,6.81-5.12c0.17-2.31,0.19-4.68,0.75-6.9c0.6-2.4,4.39-4.54,6.82-4.24
			c1.36,0.17,1.92,1.1,1.54,2.28c-1.16,3.52-0.13,6.94,0.29,10.39c0.05,0.39,0.45,1.01,0.72,1.03c0.43,0.03,1.11-0.24,1.29-0.59
			c0.35-0.68,0.53-1.5,0.62-2.28c0.27-2.46,1.17-4.45,3.03-6.28c2.35-2.31,4.2-5.13,6.29-7.7c0.56-0.69,1.22-1.3,2.12-2.24
			c0.36,1.8,0.75,3.01,2.49,3.21c0.36,0.04,0.74,1.44,0.81,2.24c0.13,1.54,0.04,3.09,0.51,4.69c2.14-5.45,1.55-11.55,4.06-16.83
			c0.25-0.01,0.5-0.02,0.74-0.03c0.34,0.87,0.81,1.71,1,2.61c1.4,6.44,2.62,12.92,4.13,19.34c1.9,8.09,3.09,16.5,8.08,23.46
			c4.67,6.51,10.52,11.58,18.5,13.88c5.39,1.55,10.77,1.34,16.21,0.85c3.98-0.35,7.95-0.75,11.93-0.99
			c3.51-0.21,5.85-2.53,8.68-4.35c-1.81-0.32-2.95-0.97-2.63-2.95c0.02-0.1-1.16-0.52-1.79-0.58c-0.87-0.08-1.96,0.37-2.58-0.01
			c-0.83-0.51-1.3-1.6-1.92-2.44c0.77-0.54,1.48-1.22,2.33-1.6c1.99-0.88,2.13-1.31,0.49-2.68c-3.04-2.56-6.05-5.17-9.21-7.56
			c-1.35-1.02-3.06-1.57-4.63-2.29c-0.9-0.41-1.83-0.75-2.75-1.11c0.15-0.16,0.31-0.31,0.46-0.47c-0.46-0.72-0.75-1.73-1.41-2.11
			c-6.43-3.71-11.81-8.82-17.78-13.15c-0.84-0.61-1.57-1.36-2.7-2.35c1.17,0,1.82,0,3.12,0c-2.08-1.62-3.63-2.99-5.34-4.1
			c-1.37-0.89-2.59-1.62-2.09-3.58c0.1-0.38-0.37-1.02-0.73-1.39c-1.37-1.42-2.86-2.72-4.17-4.18c-0.37-0.42-0.56-1.36-0.33-1.83
			c0.18-0.37,1.1-0.45,1.71-0.53c2.38-0.29,4.46,0.34,6.21,2.07c0.53,0.53,1.26,0.85,2.39,1.58c-0.56-1.26-0.86-1.95-1.31-2.97
			c1.22,0.07,2.12,0.13,3.03,0.18c0.08-0.22,0.16-0.44,0.24-0.67c-0.98-0.39-1.94-0.98-2.96-1.14c-1.86-0.29-3.19-1.44-3.51-3.01
			c-0.43-2.1-1.7-3.12-3.28-4.2c-0.91-0.63-1.53-1.7-2.23-2.62c-0.39-0.52-0.63-1.15-1.01-1.68c-1.01-1.39-1.9-2.69-0.73-4.52
			c0.25-0.38-0.28-1.64-0.79-2.06c-1.15-0.91-1.68-1.81-1.1-3.25c0.14-0.35-0.01-1.18-0.16-1.21c-2.4-0.55-1.68-1.8-0.54-3.18
			c-0.39-0.04-0.58-0.1-0.75-0.06c-0.67,0.18-1.33,0.39-1.99,0.59c0-0.69-0.02-1.37,0.01-2.06c0.06-1.25,0.15-2.5,0.23-3.72
			c-0.62,0.33-1.29,0.68-1.96,1.04c-0.39-0.82-0.84-1.62-1.17-2.46c-0.88-2.2-1.7-4.42-2.21-6.86c0.37,0.28,0.74,0.56,1.53,1.17
			c0.36-1.68,0.82-3.05,0.9-4.44c0.13-2.26-0.1-4.53,0.03-6.79c0.26-4.55,0.61-9.09,1.01-13.63c0.2-2.27,0.53-4.51-0.97-6.53
			c-0.32-0.44-0.43-1.09-0.49-1.66c-0.16-1.65-0.24-3.3-0.35-4.96c-0.04-0.59-0.3-1.37-0.02-1.75c1-1.4,2.22-2.46,2.31-4.53
			c0.05-1.08,1.68-0.49,2.31,0.4c1.65,2.36,2.71,4.88,1.6,8.08c-0.58-1.9-1.09-3.61-1.61-5.33c-0.21,0.05-0.42,0.1-0.63,0.16
			c0.02,0.36-0.05,0.76,0.06,1.09c0.56,1.66,0.37,3.1-0.89,4.43c-0.36,0.39-0.31,1.17-0.45,1.77c0.55,0.1,1.12,0.35,1.64,0.27
			c3.02-0.45,3.13-0.36,3.59,2.81c0.19,1.3,0.53,2.58,1.24,3.96c0.2-0.94,0.4-1.87,0.6-2.81c0.11-0.04,0.22-0.08,0.32-0.11
			c0.37,1.39,0.67,2.81,1.13,4.17c1.32,3.89,2.17,8.07,4.24,11.53c1.67,2.79,1.89,5.32,1.68,8.26c-0.17,2.27-0.03,4.56,0.37,7
			c0.29-0.92,0.59-1.84,0.85-2.76c0.18-0.64,0.23-1.32,0.48-1.94c0.16-0.39,0.6-1,0.83-0.96c0.44,0.07,0.99,0.44,1.19,0.84
			c0.87,1.71,1.62,3.48,2.47,5.34c-0.55,0.29-1.02,0.54-1.94,1.02c2.83,0.83,2.54,2.42,1.76,4.3c-0.33,0.78-0.17,1.76-0.26,3.01
			c2.04-2.4,3.19-5.08,6.55-6.41c-0.26,2.21-0.46,3.89-0.66,5.57c0.15,0.05,0.29,0.1,0.44,0.15c0.44-0.41,0.89-0.81,1.59-1.46
			c-0.14,1.33-0.29,2.35-0.32,3.37c-0.01,0.33,0.25,0.82,0.52,0.94c0.21,0.09,0.78-0.2,0.92-0.46c1.02-1.99,1.74-0.94,2.43,0.13
			c1.26-0.35,2.5-0.69,3.85-1.07c0.14,0.79,0.27,1.51,0.39,2.23c0.17,0.04,0.34,0.08,0.51,0.12c0.4-0.76,0.8-1.52,1.26-2.41
			c0.16,0.78,0.3,1.48,0.45,2.17c0.22,0,0.43,0,0.65,0c0.1-1.89,0.2-3.79,0.31-6c2.44,2.51,0.33,4.86,0.51,7.34
			c0.8-0.37,1.41-0.64,2.19-1c0.11,0.78,0.19,1.39,0.27,2c0.17,0.08,0.33,0.15,0.5,0.23c0.73-1.17,1.45-2.33,2.31-3.72
			c0.2,0.63,0.35,1.12,0.63,2c0.68-1.11,1.17-1.91,1.77-2.89c0.84,1.39-0.96,3.52,1.28,4.01c0.83,0.18,1.89-0.26,2.73-0.67
			c0.77-0.37,1.39-1.07,2.4-1.89c0.32,0.45,0.91,1.1,1.3,1.86c0.72,1.39,1.65,1.38,2.91-0.29c0.12,0.39,0.23,0.65,0.28,0.92
			c0.05,0.25,0.05,0.51,0.11,1.05c0.49-0.47,0.82-0.78,1.03-0.98c0.57,1.56,1.12,3.09,1.85,5.1c0.94-1.28,1.46-1.99,1.98-2.7
			c0.18,0.01,0.36,0.02,0.54,0.03c0.06,0.84,0.17,1.68,0.15,2.52c-0.03,1.15,0.35,2.14,1.57,2.09c0.71-0.03,1.42-0.76,2.06-1.26
			c0.23-0.18,0.21-0.66,0.42-0.89c0.42-0.45,0.93-0.83,1.4-1.23c0.33,0.46,0.7,0.9,0.99,1.38c0.23,0.37,0.37,0.8,0.83,1.84
			c0.48-1.36,1.04-2.18,1.01-2.97c-0.21-5.82,2.18-10.72,5.11-15.49c0.9-1.46,1.47-3.11,2.18-4.68c0.22-0.48,0.31-1.07,0.64-1.45
			c3-3.58,4.04-8.03,5.63-12.26c1.17-3.1,2.6-6.13,4.15-9.06c1.4-2.64,3.1-5.12,4.73-7.63c0.4-0.61,1.06-1.06,1.59-1.58
			c0.15,0.08,0.31,0.16,0.46,0.23c-0.06,0.46-0.13,0.92-0.19,1.39c-0.31,2.3-0.86,4.6-0.88,6.91c-0.04,3.86,3.19,6.15,6.78,4.81
			c4.29-1.6,8.63-1.35,13.03-1.01c0.97,0.07,2.09,0.14,2.92-0.25c1.71-0.82,3.11-0.41,4.49,0.56c1.4,0.99,2.88,1.91,4.09,3.1
			c1.21,1.19,2.45,1.37,3.8,0.66c2.34-1.22,4.39-1.46,6.51,0.61c1.18,1.15,2.71,0.93,3.87-0.53c3.03,2.89,5.57,5.77,6.87,9.88
			c1.61,5.1,4.01,9.96,6.09,14.91c0.12,0.3,0.36,0.74,0.59,0.77c2.25,0.31,2.98,2.11,3.63,4c0.19-0.06,0.38-0.12,0.58-0.18
			c0-0.5,0.06-1.01-0.01-1.5c-0.28-1.84-0.67-3.66-0.89-5.5c-0.23-1.93,1.48-2.22,2.69-2.7c2.78-1.09,3.58-0.52,3.32,2.36
			c-0.36,3.91-0.81,7.8-1.35,11.69c-0.27,1.97,0.66,2.88,2.28,3.68c4.53,2.2,9.15,4.28,13.43,6.9c3.17,1.93,6.54,3.97,7.75,7.98
			c0.14,0.47,0.81,0.81,1.26,1.17c0.14,0.11,0.48,0.04,0.56,0.16c2.64,3.9,7.61,1.59,10.91,4.1c1.32,1.01,3.59,0.74,5.41,1.16
			c2.19,0.5,4.35,1.11,6.52,1.7c0.31,0.08,0.69,0.25,0.85,0.49c2.29,3.56,6.95,4.11,9.4,7.46c1.06,1.44,2.1,2.94,3.37,4.17
			c1.26,1.22,2.83,2.1,4.2,3.22c0.93,0.76,2,1.53,2.52,2.55c0.67,1.31,1.4,2.23,2.89,2.41c5.12,0.61,9.68,2.98,13.6,5.9
			c2.07,1.54,4.02,2.47,6.33,3.14c1.34,0.39,2.61,1.13,3.96,1.31c1.14,0.15,2.35-0.29,3.52-0.49c0.51-0.09,1.04-0.19,1.51-0.39
			c0.56-0.24,1.51-0.63,1.5-0.91c-0.04-0.63-0.44-1.59-0.93-1.76c-1.4-0.51-2.92-0.92-4.4-0.96c-2.61-0.06-4.15-1.7-3.86-4.24
			c0.1-0.87-0.33-1.8-0.47-2.47c1.53-0.48,3.32-1.2,5.17-1.59c2.84-0.6,5.53,0.65,7.49,2.23c2.73,2.2,4.74,5.29,7.18,7.89
			c0.55,0.58,1.6,1,2.39,0.97c2.4-0.1,4.79-0.45,7.27-0.72c-0.46-1.58-1.81-2.32-3.59-2.84c-1.24-0.36-2.43-1.18-3.39-2.08
			c-0.71-0.67-0.37-1.48,0.73-1.69c0.98-0.19,1.99-0.68,2.92-0.56c3.79,0.48,7.77-0.67,11.33,2c1.96,1.47,4.55,2.12,6.94,2.94
			c0.56,0.19,1.48-0.36,2.08-0.79c0.14-0.1-0.17-1.28-0.57-1.62c-1.14-0.97-2.42-1.77-3.65-2.64 M481.48,410.58
			c-18.91,0-37.82,0-56.73,0c3.29-0.84,6.59-1.62,9.85-2.53c6.34-1.76,12.62-3.71,19-5.31c2.48-0.63,5.19-0.32,7.71-0.84
			c3.6-0.73,6.81-0.35,9.78,1.95c0.54,0.42,1.91,0.6,2.26,0.25c0.66-0.66,1.35-1.9,1.16-2.69c-1.41-5.74-2.42-11.62-5.31-16.9
			c-0.69-1.27-1.17-2.66-1.72-4.01c-0.4-0.98-0.75-1.98-1.32-3.46 M211.79,253.09c0.11,0.16,0.21,0.32,0.32,0.48
			c0.64-0.65,1.31-1.27,1.91-1.96c2.14-2.5,3-2.5,5.82-1.02c1.84,0.97,3.97,1.47,6.03,1.91c0.65,0.14,1.49-0.63,2.25-0.96
			c0.95-0.42,1.87-1.08,2.85-1.17c4.63-0.42,9.29-0.6,13.93-1.04c3.61-0.34,3.59-0.45,5.16,2.92c0.48,1.02,0.94,2.09,1.63,2.97
			c0.69,0.88,1.65,1.55,2.72,2.52c0.3-1.98,0.51-3.44,0.77-5.17c0.45,0.56,0.66,1.07,1.02,1.21c0.34,0.13,1.2-0.14,1.19-0.21
			c-0.16-2.79,2.03-4.54,2.92-6.82c0.77-1.96,0.83-4.23,0.97-6.38c0.19-2.89,0.29-5.77-0.71-8.62c-1.04-2.96-2.14-3.19-4.62-1.47
			c-1.87,1.3-4.28,1.93-6.54,2.51c-1.24,0.31-2.19-1.3-1.4-2.27c1.7-2.07,1.44-3.95-0.41-6.03c0.81-0.14,1.38-0.23,1.94-0.35
			c2.2-0.45,4.44-0.79,6.59-1.41c1.22-0.35,2.26-1.21,2.17-2.77c-0.09-1.57-1.05-2.42-2.46-2.77c-1.57-0.39-3.34-0.32-4.71-1.05
			c-1.87-0.99-3.43-0.45-5.17,0.01c-1.96,0.52-3.96,0.92-5.95,1.27c-2.48,0.43-5.03,0.54-7.46,1.16c-4.56,1.16-9.08,2.5-13.56,3.95
			c-2.2,0.71-4.29,1.76-6.36,2.81c-0.4,0.2-0.45,1.09-0.67,1.66c0.53,0.15,1.06,0.33,1.6,0.42c0.24,0.04,0.51-0.15,0.77-0.19
			c4.77-0.8,9.55-1.37,14.41-0.83c1.09,0.12,2.26-0.13,3.34-0.4c2.13-0.53,4.2-1.31,6.34-1.76c2.26-0.47,4.51-0.33,6.63,1.06
			c-0.66,0.48-1.34,0.71-2.04,0.82c-1.95,0.29-3.9,0.56-5.85,0.8c-1.33,0.16-2.69,0.47-4,0.36c-2.46-0.2-4.93,0.07-6.34,2.06
			c-1.12,1.58-1.6,1.76-3.14,0.69c-0.59-0.42-2.15-0.11-2.83,0.43c-0.76,0.6-1.41,1.85-1.38,2.79c0.02,0.62,1.24,1.47,2.07,1.72
			c0.87,0.27,1.93-0.03,2.9-0.12c0.48-0.05,0.95-0.19,1.5-0.3c-0.19,2.31-1.05,3.12-3.17,3.18c-1.19,0.04-2.47-0.21-3.55,0.16
			c-3.92,1.35-7.42,0.82-10.71-1.7c-0.52-0.4-1.4-0.33-2.11-0.48c-0.11,0.86-0.38,1.73-0.3,2.57c0.09,1.09,0.34,2.2,0.72,3.23
			c0.58,1.57,0.27,4.06,3.27,3.44c0.2-0.04,1.02,1.19,0.87,1.46c-0.34,0.63-1.07,1.08-1.7,1.54c-0.62,0.45-1.29,0.81-1.94,1.22
			c0.08,0.18,0.16,0.36,0.25,0.54c0.44,0,0.88-0.06,1.3,0.01c1.19,0.21,2.36,0.47,3.54,0.71C212.2,251.32,212,252.2,211.79,253.09z
			 M21.01,372.97c3.19-1.17,4.99-2.71,5.41-5.49c0.05-0.36,0.42-0.66,0.66-0.99c1.61-2.28,3.26-4.53,4.82-6.84
			c2.6-3.85,5.01-7.82,7.73-11.58c3.26-4.52,6.79-8.85,10.13-13.31c2.06-2.76,3.96-5.64,5.99-8.42c2.23-3.04,4.5-6.06,6.81-9.04
			c0.73-0.93,1.57-1.85,2.53-2.51c1.91-1.33,2.64-3.24,3.15-5.36c0.35-1.48,0.81-2.94,1.34-4.37c1.36-3.68,2.82-7.32,4.17-11
			c0.24-0.66,0.26-1.45,0.18-2.16c-0.08-0.68-0.42-1.32-0.65-1.98c-0.67,0.36-1.6,0.55-1.95,1.1c-2.03,3.26-4.02,6.55-5.83,9.93
			c-2.31,4.31-4.39,8.74-6.67,13.07c-0.71,1.34-1.76,2.5-2.59,3.78c-2.38,3.67-4.63,7.41-7.1,11.02c-2.18,3.18-4.62,6.17-6.87,9.3
			c-2.79,3.87-5.54,7.78-8.26,11.71c-2.98,4.3-6.11,8.52-7.92,13.52c-0.43,1.18-1.13,2.25-1.72,3.37
			C23.33,368.66,22.28,370.6,21.01,372.97z M272.23,255.55c0.33-2.66-1.68-3.29-3.01-4.35c-1.16-0.93-2.43-0.32-2.54,1.16
			c-0.06,0.79,0.14,1.59,0.17,2.38c0.07,1.85,0.12,3.7,0.18,5.9c-1.24-0.81-1.95-1.28-3.14-2.06c0.4,2.25,0.98,3.61,2.35,4.66
			c0.45,0.35,0.8,1.3,0.67,1.84c-0.57,2.33-1.33,4.61-2.04,6.94c-0.48,0.07-1.23,0.18-2.06,0.31c-0.59-1.08-1.18-2.18-1.77-3.28
			c-0.27,0.07-0.55,0.14-0.82,0.22c0.1,1.58,0.17,3.17,0.31,4.74c0.18,2.09,0.2,2.09-2.26,2.55c2.15-2.43,0.42-4.47-0.36-6.57
			c-0.2-0.54-0.96-1.32-1.33-1.26c-2.2,0.38-3.4-1.21-4.9-2.22c-0.37-0.25-0.77-0.46-1.16-0.69c0.7,1.2,1.51,2.31,2.59,2.79
			c2.59,1.15,1.98,5.23,5.64,5.42c-2.07,0.74-1.6,1.94-1.24,3.21c0.34,1.2,1.12,2.93,0.61,3.58c-1.2,1.55-0.5,2.88-0.34,4.33
			c0.02,0.16-0.12,0.34-0.2,0.55c-0.5-0.35-0.95-0.66-1.27-0.89c-0.76,0.96-1.41,1.79-2.28,2.89c-0.15-2.03-0.25-3.43-0.35-4.83
			c-0.21,0-0.43,0.01-0.64,0.01c-0.05,0.23-0.14,0.47-0.15,0.7c-0.13,3.66-0.27,7.29-3.09,10.17c-0.29,0.3,0.09,1.22,0.11,1.85
			c0.03,0.87,0.01,1.75,0.01,2.82c-0.78-0.95-1.25-1.53-2.06-2.51c-0.13-0.81,0.42-2.57-1.6-3.2c-0.48,1.55,0.95,7.38,2.03,8.05
			c0.35,0.21,1.33,0.13,1.37-0.02c0.42-1.37,1.72-1.57,2.64-2.3c2.22-1.77,4.16-3.89,6.24-5.84c0.26-0.24,0.78-0.53,1.02-0.43
			c1.82,0.77,2-0.54,2.33-1.72c0.33-1.21,0.37-3.16,1.09-3.48c1.64-0.7,1.1-1.8,1.28-2.86c0.27-1.55,0.51-3.18,2.82-2.92
			c0.98,0.11,1.91-2.12,1.71-3.06c-0.42-2.06-0.6-4.16-0.92-6.59c1.21,0.34,1.8,0.5,2.65,0.74c0.05-0.89,0.16-1.58,0.12-2.27
			c-0.2-3.97-0.47-7.93-0.64-11.9C269.97,256.72,270.17,255.33,272.23,255.55z M219.66,292.41c0.96-2.61-0.9-5.25,0.72-7.26
			c0.75,0.57,1.31,0.99,1.54,1.16c0.06,4.5,0.39,8.87-3.1,12.13c1.7,0.8,3.05,1.42,4.48,2.1c0.16-1.7,0.37-3.24,0.43-4.78
			c0.05-1.22,0.22-2.56-0.19-3.64c-0.93-2.44-0.04-4.72,0.24-7.05c0.05-0.44,0.74-0.8,1.42-1.47c0.01-0.19,0.05-0.86,0.09-1.53
			c0.25,0,0.51,0,0.76-0.01c0,1.23,0.02,2.45-0.01,3.68c-0.03,1.37-0.11,2.75-0.18,4.12c-0.11,2.16,0.2,4.47-0.48,6.43
			c-0.62,1.76-0.36,3.12,0.09,5.08c0.71-1,1.19-1.68,1.55-2.19c-1.94-2.46,0.53-4.28,0.57-6.33c0.03-1.56,1.35-2.23,3.03-2.41
			c-0.57,1.55-1.33,2.99-2.27,4.3c-0.6,0.84-1.58,1.47-0.27,2.91c1.09-1.74,2.75-3.25,2.89-4.89c0.21-2.42,2-3.26,3.27-4.5
			c1.38-1.34,1.63-2.52-0.08-3.99c-0.45,0.52-0.9,1.04-1.56,1.8c-0.46-1.12-0.82-2-1.29-3.13c-0.71,2.27,1.14,5.39-2.6,6.38
			c0.19-2.04,0.39-3.8,0.52-5.57c0.14-1.86,0.11-3.73,0.35-5.57c0.2-1.55,0.69-3.06,1.04-4.59c-0.26-0.05-0.51-0.1-0.77-0.15
			c-1.79,2.2-1.19,5.17-1.83,7.74c-0.17-0.04-0.34-0.08-0.52-0.12c-0.43-2.55-0.86-5.1-1.39-8.29c-0.66,2.16-1.16,3.79-1.66,5.42
			c-0.13-0.02-0.25-0.05-0.38-0.07c0-0.86,0-1.72,0-2.97c-0.85,0.77-1.95,1.39-1.87,1.76c0.45,2.05-0.97,3.2-2.16,4.67
			c0.36-3.52,0.01-6.91-1.7-10.14c-0.07,0.04-0.47,0.11-0.55,0.32c-0.74,1.78-1.39,3.59-2.13,5.36c-0.25,0.59-0.72,1.6-0.99,1.57
			c-0.85-0.11-1.84-0.43-2.43-1.02c-0.55-0.55-0.6-1.58-0.99-2.34c-0.5-0.98-1.12-1.9-1.69-2.85c-0.15,0.07-0.29,0.15-0.44,0.22
			c-0.4,2.68-0.8,5.35-1.17,7.8c0.75,0.27,1.78,0.63,2.73,0.97c-0.1-0.93-0.23-2.16-0.36-3.38c0.32-0.01,0.65-0.01,0.97-0.02
			c-1.21,2.88,2.31,5.51-0.49,8.83c-1.28,1.52-0.73,4.59-1.05,7.36c1.98-1.64,1.68-3.53,1.98-5.26c0.1-0.55,0.79-1,1.21-1.5
			c0.29,0.66,0.97,1.45,0.8,1.95c-0.62,1.86-1.53,3.62-2.33,5.41c-0.19,0.43-0.36,0.86-0.54,1.29c0.61-0.07,0.81-0.41,1.11-0.6
			c0.48-0.31,1.02-0.51,1.53-0.76c0.18,0.59,0.55,1.19,0.5,1.76c-0.06,0.82-0.42,1.61-0.64,2.41c1.29-1.45,2.69-2.8,2.55-4.98
			c-0.05-0.7,0.15-1.58,0.57-2.11c1.36-1.71,1.37-3.25-0.1-4.83c-0.38-0.41-0.77-1.03-0.75-1.54c0.2-3.81,0.6-7.58,2.97-10.88
			c0.12,0.74,0.22,1.52-0.01,2.19c-0.73,2.12-0.7,4.17,0.24,6.22c0.21,0.46,0.47,1.16,0.27,1.51
			C217.62,287.17,219.1,289.55,219.66,292.41z M425.13,291.79c-0.55,0.8-0.78,0.99-0.75,1.11c0.86,3.43,1.72,6.86,2.68,10.27
			c0.12,0.42,0.71,0.84,1.18,1c1.66,0.55,2.48,1.67,2.63,3.37c0.13,1.53,1.19,2.18,2.48,2.79c2.02,0.96,3.9,2.19,5.88,3.22
			c0.56,0.29,1.29,0.28,1.93,0.41c-0.03-0.65,0.15-1.42-0.12-1.94c-0.58-1.11-1.38-2.1-2.11-3.13c-1.71-2.39-3.36-4.84-5.21-7.12
			c-0.76-0.95-2.04-1.47-2.96-2.31c-1.08-0.99-2.14-2.04-3.01-3.21C426.82,294.97,426.12,293.51,425.13,291.79z M11.15,311.79
			c0.74-0.58,1.62-0.96,2.03-1.63c0.85-1.41,1.58-2.92,2.08-4.47c0.27-0.82-0.05-1.82-0.1-2.74c-1.06,0.14-2.47-0.09-3.09,0.51
			c-0.83,0.8-1.34,2.2-1.46,3.4C10.48,308.28,10.9,309.76,11.15,311.79z M233.39,302.68c1.54-3.47,2.46-6.9,2.5-10.56
			c0-0.13-0.02-0.29-0.1-0.38c-0.29-0.31-0.6-0.6-0.91-0.89c-0.29,0.32-0.75,0.6-0.84,0.97c-0.43,1.7-0.76,3.43-1.12,5.15
			c-3.01,0.19-1.07,2.65-1.78,3.89c-0.05,0.09,0.03,0.25,0.03,0.31C231.79,301.6,232.38,302,233.39,302.68z M250.71,283.01
			c2.34-1.97,1.87-8.84-1.05-10.84C250.01,275.84,250.36,279.44,250.71,283.01z M120.42,196.08c3.59-3.24,4.15-5.53,2.21-8.06
			C121.88,190.76,121.15,193.42,120.42,196.08z M126.26,197.36c-1.81,1.28-1.77,1.97,0.14,5.54c1.18-0.92,1.75-3.37,1.09-5.13
			c-0.26,0.52-0.46,0.93-0.76,1.53c-0.08-0.52-0.09-0.78-0.16-1.03C126.49,197.97,126.37,197.68,126.26,197.36z M238.71,287.88
			c-0.16,0.07-0.32,0.14-0.48,0.21c0.67,4.71,1.99,7.68,4.42,8.81C241.2,293.57,239.96,290.73,238.71,287.88z M98.46,279.65
			c1.84-0.3,3.37-3.44,2.77-5.69C99.31,275.48,98.26,277.65,98.46,279.65z M197.59,279.03c0.45-1.23,0.75-2.05,1.19-3.25
			c0.24,0.78,0.36,1.18,0.48,1.58c-0.33-1.3,1.35-3.35-1.46-3.94C197.52,275.21,196.42,276.8,197.59,279.03z M215.94,265.76
			c-1.36,0.99-1.91,6.35-0.65,8.37C215.51,271.27,215.73,268.45,215.94,265.76z M210.76,264.33c-0.29-0.06-0.58-0.12-0.88-0.19
			c-0.42,2.02-0.84,4.03-1.27,6.05c0.3,0.06,0.6,0.12,0.89,0.19C209.93,268.37,210.34,266.35,210.76,264.33z M202.36,280.04
			c-1.49,1.59-1.14,2.82,1.04,3.48C203.04,282.32,202.7,281.21,202.36,280.04z M144.47,243.24c-0.28-0.07-0.55-0.15-0.83-0.22
			c-0.33,1.26-0.67,2.52-1,3.77c0.28,0.07,0.55,0.15,0.83,0.22C143.81,245.76,144.14,244.5,144.47,243.24z M237.99,276.82
			c-2.2,1.35-2.19,1.79-0.17,2.98C237.87,278.84,237.92,278.03,237.99,276.82z M243.23,270.15c-0.23-0.01-0.46-0.03-0.7-0.04
			c-0.07,1.46-0.13,2.93-0.2,4.39c0.2,0.01,0.4,0.02,0.59,0.03C243.03,273.07,243.13,271.61,243.23,270.15z M189.27,272.26
			c-0.21-0.21-0.42-0.42-0.63-0.63c-0.87,0.92-1.73,1.83-2.6,2.75c0.19,0.19,0.38,0.37,0.58,0.56
			C187.5,274.05,188.39,273.15,189.27,272.26z M198.18,263.55c-0.27-0.12-0.54-0.24-0.8-0.36c-0.33,0.95-0.67,1.9-1,2.86
			c0.25,0.09,0.51,0.18,0.76,0.27C197.49,265.39,197.84,264.47,198.18,263.55z M240.59,285.96c0.18-0.06,0.36-0.12,0.54-0.19
			c-0.38-1.3-0.76-2.61-1.13-3.91c-0.16,0.05-0.32,0.09-0.48,0.14C239.87,283.32,240.23,284.64,240.59,285.96z M276.84,246.04
			c-0.26-0.04-0.53-0.09-0.79-0.13c0,0.77,0,1.53,0,2.3c0.19,0.01,0.37,0.03,0.56,0.04C276.69,247.51,276.77,246.78,276.84,246.04z
			 M409.62,399.3c-0.53-1.25-1.31-2.47-1.55-3.77c-0.33-1.8,1.2-2.19,2.55-2.46c2.63-0.52,5.3-0.87,7.91-1.48
			c10.15-2.35,20.28-4.83,30.44-7.14c3.55-0.8,7.17-1.33,10.78-1.8c3.56-0.46,6.98,1.06,7.94,4.28c0.74,2.47,1.81,4.67,2.83,6.96
			c0.4,0.9,0.07,2.13,0.07,3.66c-1.09-0.6-1.78-0.83-2.25-1.28c-1.78-1.69-3.9-1.95-6.23-1.88c-7.76,0.23-15.06,2.64-22.47,4.57
			c-5.75,1.5-11.52,2.9-17.28,4.31c-2.91,0.71-5.84,1.35-8.76,2.03c-1.35,0.32-2.62,0.78-2.18-1.61c0.13-0.72-0.8-1.64-1.14-2.27
			c7.11-1.6,13.98-3.04,20.78-4.71c8.2-2.02,16.32-4.41,24.55-6.3c3.74-0.86,7.64-1.71,11.57-0.36c-0.92-1.35-3.04-2.51-5-2.48
			c-5.38,0.07-10.66,0.65-15.9,2.17c-6.01,1.74-12.17,2.95-18.27,4.34c-3.93,0.9-7.87,1.71-11.81,2.54
			c-1.12,0.24-2.28,0.36-3.37,0.69c-0.99,0.3-1.92,0.81-2.88,1.22C409.84,398.8,409.73,399.05,409.62,399.3z M457.38,374.06
			c-1.19-0.24-2.41-0.77-3.56-0.66c-4.7,0.46-9.38,1.09-14.06,1.73c-1.63,0.23-2.77-0.68-3.21-3.02c-0.29-1.51,0.97-1.64,1.95-1.77
			c5.32-0.72,10.64-1.5,15.99-2c2.91-0.27,5.87,4,4.86,6.77c1,0.91,2.09,1.79,3.04,2.8c0.6,0.64,1.1,1.43,1.45,2.23
			c0.19,0.43,0.17,1.16-0.09,1.52c-0.18,0.26-1.02,0.35-1.38,0.16c-6.92-3.62-13.56-0.72-20.23,0.87c-3.65,0.87-7.22,2.13-10.9,2.88
			c-6.51,1.32-13.07,2.4-19.61,3.54c-1.44,0.25-2.9,0.39-4.36,0.44c-0.36,0.01-0.85-0.45-1.07-0.81c-0.36-0.6-0.6-1.29-0.78-1.96
			c-0.1-0.38-0.06-0.85,0.08-1.22c0.07-0.17,0.72-0.34,0.78-0.26c0.98,1.29,2.13,0.38,3.13,0.2c6.07-1.11,12.14-2.27,18.18-3.51
			c3.61-0.74,7.54-0.97,10.69-2.65c4.11-2.19,8.53-2.49,12.8-3.61c2-0.53,4.14-0.55,6.22-0.8
			C457.34,374.63,457.36,374.35,457.38,374.06z M418.94,370.63c-1.25-1.01-1.75-2.86-3.78-3.07c-0.46-0.05-0.79-1.33-1.18-2.04
			l-0.05,0.05c1.62-0.7,2.85-0.64,3.72,1.27c0.23,0.5,1.62,0.47,2.47,0.69c0.1-0.24,0.19-0.49,0.29-0.73
			c-1.15-0.76-2.33-1.47-3.42-2.31c-0.56-0.43-0.94-1.08-1.4-1.63c0.34-0.23,0.76-0.72,1.02-0.65c0.69,0.19,1.44,0.49,1.94,0.98
			c0.46,0.45,0.63,1.2,0.97,1.91c0.78-0.37,1.38-0.66,2.42-1.16c-1.72-1.29-3.18-2.38-4.63-3.47c1.33-2.16,1.89-1.98,4.23,1.25
			c0.5-0.13,1.04-0.27,1.76-0.45c-0.93-1.76-1.25-3.29,1.66-3.16c-2.33-2.65-2.74,0.59-4.16,0.91c-1.47-0.21-2.1-3.03-4.32-1.82
			c-0.03,0.22-0.08,0.35-0.06,0.47c0.11,0.61,0.25,1.23,0.37,1.84c-0.83-0.22-1.9-0.19-2.43-0.71c-1.16-1.12-1.86-1.27-2.84,0.18
			c-0.42,0.62-1.37,0.89-2.26,1.42c-0.2-0.66-0.46-1.04-0.35-1.22c0.73-1.27,2.39-1.99,2.22-3.79c0.48,0.1,1.13,0.04,1.43,0.32
			c1.28,1.24,1.24,1.27,3.27,0.89c0.06-0.27,0.09-0.58,0.19-0.87c0.23-0.64,0.51-1.27,0.76-1.91c0.57,0.3,1.16,0.59,1.72,0.91
			c0.71,0.4,1.4,0.84,1.92,1.16c0.57-1.14,0.95-1.9,1.34-2.66c0.97,0.73,1.94,1.45,3.25,2.43c0.24-0.25,0.73-0.71,1.15-1.23
			c0.44-0.54,0.82-1.61,1.23-1.6c0.67,0,1.38,0.62,1.99,1.09c0.38,0.29,0.62,0.77,0.99,1.26c-0.96,0.73-1.86,1.42-2.77,2.1
			c0.12,0.2,0.24,0.4,0.36,0.59c0.41-0.04,0.83-0.18,1.21-0.11c1.4,0.25,1.9,1.93,0.98,3.06c-0.29,0.36-0.71,0.94-0.59,1.23
			c0.14,0.35,0.79,0.49,1.21,0.75c0.57,0.35,1.51,0.65,1.59,1.1c0.12,0.65-0.2,1.57-0.66,2.1c-1.16,1.34-0.98,1.86,0.68,2.56
			c0.79,0.34,1.31,1.3,2.13,2.18c-0.79,0.39-1.19,0.48-1.41,0.73c-0.29,0.34-0.64,0.83-0.58,1.2c0.05,0.32,0.62,0.77,0.98,0.79
			c1.34,0.07,2.11,0.8,2.11,2.02c0.01,1.5-1.3,1.25-2.29,1.38c-0.76,0.1-1.52,0.24-2.25,0.46c-1.06,0.32-1.86,0.42-2.61-0.75
			c-0.37-0.58-1.48-0.67-2.26-0.99l0.05,0.06c-2.02-1.63-4.02-3.27-6.08-4.85c-0.3-0.23-0.85-0.14-1.29-0.2L418.94,370.63z
			 M426.25,369.14c-0.93,0.13-1.87,0.26-2.8,0.39c-0.29-0.6-0.49-1.29-0.92-1.77c-0.15-0.17-1.28,0.21-1.28,0.31
			c0.02,0.68,0.23,1.36,0.4,2.1c0.81-0.31,1.34-0.51,1.86-0.71c0.77,1.29,1.01,3.31,3.23,2.52c-0.2-1.07-0.37-1.98-0.54-2.9
			c0.72-0.11,1.44-0.21,2.15-0.32c0.03-0.21,0.06-0.42,0.09-0.63c-0.55-0.18-1.16-0.58-1.62-0.46
			C426.52,367.76,426.43,368.62,426.25,369.14z M425.18,361.02c-0.31,0.36-1.1,0.88-1.08,1.37c0.03,0.62,0.92,1.8,1.08,1.74
			c2.16-0.76,2.1,1.24,2.88,2.22c0.65-0.26,1.28-0.51,1.91-0.76c0.09-0.19,0.19-0.38,0.28-0.56c-0.82-0.5-1.68-0.93-2.43-1.52
			C427.01,362.86,426.3,362.08,425.18,361.02z M428.31,372.47c-0.16,0.17-0.32,0.34-0.47,0.51c0.14,0.46,0.14,1.18,0.44,1.35
			c1.08,0.61,2.27,1.03,3.63,1.61c0.07-0.28,0.39-1.02,0.26-1.11C430.92,373.98,429.6,373.24,428.31,372.47z M422.64,366.84
			c1.33-0.18,1.92-0.25,3.09-0.41c-0.97-0.75-1.56-1.21-2.14-1.67C423.34,365.31,423.1,365.84,422.64,366.84z M429.21,369.11
			c-0.14,0.17-0.28,0.33-0.43,0.5c0.3,0.58,0.59,1.15,0.91,1.76c0.69-0.19,1.24-0.35,2.2-0.62
			C430.76,370.06,429.99,369.58,429.21,369.11z M426.2,375.59c0.02,0.45,0.16,0.93,0.03,1.33c-0.17,0.54-0.43,1.21-0.86,1.46
			c-0.29,0.16-0.97-0.27-1.44-0.51c-0.77-0.4-1.51-0.87-2.35-1.35c-1,3.09-1.47,3.13-3.82,1.33c-1.4-1.07-3.11-1.74-4.58-2.74
			c-0.97-0.65-1.76-1.56-2.93-2.64c-0.44,0.34-1.09,0.84-1.42,1.1c1.1,0.81,2.01,1.26,2.56,1.98c0.3,0.39-0.02,1.25-0.06,1.9
			c-0.64-0.14-1.35-0.15-1.91-0.45c-0.85-0.45-1.62-1.06-2.4-1.65c-0.48-0.36-1.24-0.77-1.28-1.2c-0.05-0.61,0.42-1.28,0.76-1.87
			c0.12-0.2,0.54-0.22,1.18-0.45c-1.45-1.34-2.7-2.49-4.17-3.84c1.07-0.54,1.68-0.85,1.87-0.95c0.41-1.06,0.64-2.39,0.99-2.42
			c1.45-0.12,2.64,0.47,1.6,2.19c-0.28,0.47-1.3,0.49-1.98,0.71c-0.05,0.24-0.1,0.49-0.15,0.73c1.2,0.5,2.41,0.97,3.58,1.52
			c0.44,0.21,0.87,0.57,1.14,0.97c0.53,0.79,0.76,1.61,2.17,1.15c0.49-0.16,1.51,1.27,2.42,2.1c0.35-0.19,0.86-0.48,1.59-0.88
			c-2.81-1.93-5.42-3.73-8.03-5.53c1.45-1.86,1.99-1.82,3.16-0.34c0.47,0.59,1.27,0.92,1.94,1.34c0.52,0.32,1.32,0.47,1.56,0.93
			c0.86,1.63,2.14,1.49,3.55,1.12c0,0-0.06-0.04-0.06-0.04c0.25,0.77,0.34,2.09,0.77,2.21c2.34,0.66,3.81,3.31,6.59,2.84
			L426.2,375.59z M420.45,375.78c-1.23-0.8-1.75-2.34-3.41-1.48c0.46,0.81,0.87,1.54,1.31,2.32
			C418.89,376.4,419.51,376.15,420.45,375.78z M434.48,354.99c3.87-0.47,7.73-0.95,11.6-1.4c2.8-0.33,5.82,1.25,6.94,3.78
			c0.29,0.66,0.05,1.55,0.05,2.34c-0.69,0-1.43,0.16-2.05-0.04c-3.84-1.22-7.73-0.62-11.6-0.35c-1.78,0.13-3.56,0.42-5.34,0.57
			c-1.56,0.13-3.73-2.63-3.16-4.1c0.16-0.41,0.8-0.79,1.27-0.88c0.74-0.15,1.53-0.04,2.29-0.04
			C434.48,354.91,434.48,354.95,434.48,354.99z M455.73,365.99c-0.39,0.21-1.16,0.97-1.64,0.82c-4.72-1.47-9.39-0.31-14.07,0.11
			c-1.14,0.1-2.28,0.3-3.42,0.45c-1.2,0.15-1.91-0.35-2.26-1.54c-0.82-2.81-0.61-3.09,2.35-3.37c4.77-0.45,9.52-1.09,14.29-1.45
			C453.36,360.82,455.65,363.15,455.73,365.99z M451.03,351.99c-1.33-0.31-2.74-0.34-3.82-0.95c-2.36-1.33-4.78-1.61-7.39-1.23
			c-1,0.14-2.05,0.11-3.06-0.01c-0.52-0.06-1-0.5-1.49-0.77c0.5-0.46,0.92-1.17,1.5-1.35c3.41-1.05,6.68-0.08,9.94,0.9
			c0.48,0.14,0.98,0.25,1.47,0.27C450.31,348.95,450.82,349.46,451.03,351.99z M471.94,402.6c-1.73,0.75-3.13,0.51-4.12-1.14
			c-0.77-1.27-1.7-1.63-3.2-1.11c-1.03,0.36-2.25,0.24-3.37,0.16c-0.36-0.02-0.69-0.58-1.03-0.89c0.3-0.28,0.58-0.78,0.91-0.82
			c2.7-0.32,5.39-1.4,8.02,0.72C470.22,400.4,471.95,400.46,471.94,402.6z M413.98,365.52c-0.11,0.06-0.23,0.18-0.34,0.17
			c-2.63-0.24-4.31-2.23-6.57-3.22c0.77-0.75,1.12-1.75,2.09-0.32c0.48,0.71,2.14,0.61,2.84,0.78c0.49-1.32,0.8-2.12,1.1-2.92
			c0.65,0.42,1.81,0.82,1.83,1.27c0.04,0.76-0.66,1.55-1.04,2.32c-0.16-0.06-0.31-0.12-0.47-0.18c0.17,0.72,0.34,1.44,0.5,2.16
			C413.93,365.58,413.98,365.52,413.98,365.52z M411.95,380.19c0.21-1.11,0.35-1.81,0.52-2.75c0.77-0.4,1.69-0.64,2.27,0.69
			c0.63,1.47-0.42,1.97-1.48,2.34c-0.83,0.29-1.73,0.38-2.57,0.64c-1.43,0.44-2.17-0.45-2.74-1.47c-0.14-0.24,0.18-1.07,0.46-1.17
			c1.09-0.41,2.15-0.4,2.67,0.96C411.1,379.54,411.25,379.6,411.95,380.19z M426.36,350.11c2.02-1.52,4.1-2.83,6.83-1.74
			c0.35,0.14,0.62,0.51,0.92,0.77c-0.28,0.31-0.53,0.86-0.84,0.9c-2.27,0.3-4.55,0.51-6.83,0.74
			C426.41,350.56,426.38,350.34,426.36,350.11z M424.85,349c-0.22,0.48-0.4,1-0.69,1.44c-0.1,0.15-0.47,0.16-0.72,0.17
			c-0.75,0.02-1.5,0.01-2.25,0.01c0.63-0.29,1.28-0.55,1.89-0.89c0.46-0.26,0.87-0.61,1.3-0.92
			C424.54,348.87,424.69,348.94,424.85,349z M425.18,361.02c1.12,1.06,1.82,1.84,2.64,2.48c0.75,0.58,1.62,1.02,2.43,1.52
			c-0.09,0.19-0.19,0.38-0.28,0.56c-0.63,0.25-1.26,0.51-1.91,0.76c-0.77-0.99-0.72-2.98-2.88-2.22c-0.17,0.06-1.05-1.11-1.08-1.74
			C424.08,361.9,424.88,361.38,425.18,361.02z M426.25,375.64c-2.78,0.47-4.25-2.18-6.59-2.84c-0.43-0.12-0.52-1.44-0.77-2.21
			c0.44,0.06,0.99-0.04,1.29,0.2C422.23,372.37,424.23,374.02,426.25,375.64z M428.31,372.47c1.3,0.77,2.61,1.51,3.86,2.36
			c0.13,0.09-0.19,0.82-0.26,1.11c-1.36-0.58-2.55-1-3.63-1.61c-0.3-0.17-0.3-0.88-0.44-1.35
			C427.99,372.81,428.15,372.64,428.31,372.47z M426.2,369.08c0.17,0.92,0.34,1.84,0.54,2.9c-2.22,0.79-2.47-1.24-3.23-2.52
			l-0.06,0.06c0.93-0.13,1.87-0.26,2.8-0.39L426.2,369.08z M423.51,369.47c-0.52,0.2-1.05,0.4-1.86,0.71
			c-0.16-0.74-0.38-1.42-0.4-2.1c0-0.1,1.13-0.48,1.28-0.31c0.43,0.47,0.63,1.16,0.92,1.77
			C423.45,369.52,423.51,369.47,423.51,369.47z M422.64,366.84c0.46-1,0.7-1.54,0.95-2.08c0.59,0.46,1.18,0.92,2.14,1.67
			C424.57,366.59,423.97,366.67,422.64,366.84z M429.21,369.11c0.77,0.47,1.55,0.95,2.68,1.64c-0.96,0.27-1.51,0.43-2.2,0.62
			c-0.32-0.61-0.61-1.19-0.91-1.76C428.93,369.44,429.07,369.28,429.21,369.11z M426.25,369.14c0.18-0.51,0.27-1.37,0.57-1.46
			c0.47-0.13,1.08,0.28,1.62,0.46c-0.03,0.21-0.06,0.42-0.09,0.63c-0.72,0.11-1.44,0.21-2.15,0.32
			C426.2,369.08,426.25,369.14,426.25,369.14z M420.45,375.78c-0.94,0.37-1.55,0.62-2.1,0.84c-0.44-0.78-0.85-1.5-1.31-2.32
			C418.69,373.44,419.22,374.98,420.45,375.78z"/>
		<path d="M149.41,63.7c-0.9,0.28-1.79,0.79-2.7,0.81c-2.38,0.05-4.11,1.16-5.52,2.82c-2.85-0.48-5.69-0.95-8.92-1.5
			c0.48,0.86,0.81,1.28,0.96,1.75c0.49,1.51-0.51,2.67-2.03,2.42c-2.89-0.49-2.69-0.39-3.95,2.23c-0.55,1.13-2.03,2.09-3.3,2.53
			c-1.37,0.47-1.93,1.01-2.02,2.46c-0.18,3.02,0.38,6.13-1.08,9.04c-0.28,0.56,0.1,1.43,0.09,2.16c-0.04,2.7-0.14,5.4-0.16,8.09
			c-0.01,0.82,0.18,1.65,0.2,2.45c0,2.49,0.21,5.01-0.09,7.46c-0.15,1.22-1.21,2.33-1.92,3.45c-0.08,0.13-0.82,0.09-0.87-0.03
			c-0.21-0.52-0.56-1.26-0.35-1.64c1.3-2.37,0.07-4.51-0.71-7.01c-0.3,0.58-0.6,1.16-0.9,1.74c-0.23,0.04-0.46,0.08-0.68,0.11
			c-0.29-0.48-0.59-0.96-0.96-1.57c-0.32,0.51-0.62,0.99-1.04,1.67c-1.98-1.43,0.41-2.78-0.04-3.94c-1.13-0.1-2.19-0.28-3.25-0.23
			c-0.41,0.02-0.87,0.48-1.17,0.85c-0.61,0.79-1.03,1.74-1.72,2.44c-0.34,0.35-1.22,0.58-1.61,0.38c-1.77-0.88-2.91-0.33-3.14,1.69
			c-0.04,0.32-0.07,0.63-0.11,0.95c-0.21,0.04-0.41,0.09-0.62,0.13c-0.12-0.75-0.22-1.5-0.37-2.24c-0.1-0.52-0.25-1.04-0.37-1.55
			c-0.41,0.28-0.85,0.52-1.21,0.86c-0.35,0.34-0.61,0.78-0.91,1.17c-0.18-0.05-0.37-0.11-0.55-0.16c0.34-1.56,0.69-3.13,1.03-4.69
			c-0.22-0.06-0.44-0.13-0.66-0.19c-1.82,1.86-4.66,2.66-5.49,5.56c-0.13,0.44-0.64,0.89-1.09,1.1c-0.43,0.2-1.06,0.23-1.48,0.06
			c-0.22-0.09-0.29-0.81-0.23-1.22c0.24-1.69,0.55-3.36,0.88-5.27c-0.52,0.16-1.03,0.15-1.15,0.37c-1.07,1.98-2.25,3.92-3.04,6.02
			c-0.71,1.9-1.05,3.95-1.41,5.96c-0.2,1.14-0.12,2.32-0.18,3.49c-0.03,0.58,0.11,1.32-0.19,1.71c-1.17,1.49-2.5,2.85-3.73,4.29
			c-0.51,0.59-0.96,1.24-1.39,1.89c-0.37,0.58-0.67,1.2-1.27,1.78c-0.83-3.53-3.83-6.42-2.37-10.48c0.5-1.39,0.26-3.03,0.43-4.54
			c0.14-1.25,0.4-2.48,0.57-3.72c0.07-0.51,0.24-1.12,0.05-1.54c-1.11-2.46-0.41-4.84,0.21-7.23c0.47-1.81,1.59-2.79,3.49-2.51
			c1.72,0.25,2.78-0.42,3.53-1.93c0.25-0.5,0.75-1.08,1.24-1.22c2.07-0.58,2.5-2.11,2.7-3.96c0.24-2.32,0.53-4.64,1.02-6.91
			c0.24-1.13,0.92-2.19,1.53-3.2c0.23-0.39,0.81-0.57,1.24-0.84c0.2,0.44,0.44,0.86,0.59,1.31c0.14,0.41,0.18,0.86,0.3,1.46
			c1.76-0.59,2.42-2.26,2.22-3.29c-0.64-3.19,1.39-5.79,1.44-8.75c0.03-1.62-0.19-3.25-0.02-4.85c0.12-1.1,0.41-2.67,1.17-3.14
			c2.43-1.5,3.21-3.98,3.86-6.3c1.2-4.32,4.2-7.18,7.05-10.26c0.97-1.04,1.9-2.32,2.31-3.65c1.33-4.33,4.4-6.97,8.14-9.08
			c1.83-1.03,3.62-2.14,5.43-3.21c0.14,0.13,0.28,0.25,0.42,0.38c-0.26,0.45-0.43,0.98-0.8,1.32c-2.04,1.9-4.23,3.65-6.17,5.64
			c-1.93,2-4.01,4.02-5.34,6.41c-2.21,4-3.91,8.29-5.73,12.51c-0.22,0.52,0.17,1.3,0.28,1.96c0.48-0.27,1.02-0.47,1.41-0.84
			c0.69-0.66,0.78-2.27,2.3-1.5c1.26,0.64,1.49,2.4,0.56,3.85c-0.37,0.58-0.88,1.08-1.39,1.7c3.93,0.49,3.46-0.7,3.08-3.76
			c-0.33-2.71-0.77-5.34-0.04-8.21c0.4-1.58,1.01-3,1.5-4.52c1.17-3.57,3.59-5.61,7.02-6.7c1.27-0.4,2.55-0.77,3.82-1.19
			c1.04-0.35,1.43-1.17,2.03-2.08c1.53-2.31,2.44-4.93,5.27-6.65c3.24-1.96,6.31-4.13,9.87-5.51c1.78-0.69,3.48-1.61,5.29-2.22
			c2.8-0.94,5.66-1.72,8.51-2.51c4.02-1.12,8.08-1.88,12.31-1.48c1.91,0.18,3.68,0.31,5.51-1.33c1.05-0.94,3.56-0.33,5.41-0.3
			c1.97,0.03,3.94,0.17,5.91,0.31c1.09,0.08,2.17,0.26,3.68,0.44c-0.86,0.65-1.31,0.99-2.33,1.76c1.49,0.36,2.47,0.71,3.47,0.83
			c3.75,0.45,7.6,0.47,11.24,1.33c4.45,1.05,8.92,2.42,13.04,4.36c3.52,1.65,7.6,2.3,10.52,5.22c0.39,0.39,1.05,0.62,1.62,0.72
			c2.27,0.39,3.71,1.63,4.38,3.85c0.17,0.57,0.64,1.04,1.39,1.41c0.03-0.52,0.06-1.04,0.1-1.67c0.28,0.04,0.64-0.01,0.75,0.13
			c1.68,2.14,4.39,3.44,5.14,6.38c0.11,0.44,0.99,0.63,1.3,1.08c0.47,0.67,0.98,1.45,1.05,2.22c0.12,1.33-0.1,2.68-0.19,4.29
			c2.45-0.75,2.73,0.84,3.28,2.35c0.53,1.45,1.54,2.73,2.04,4.18c0.92,2.65,3.22,4.11,4.8,6.18c0.54,0.71,0.71,1.91,0.64,2.85
			c-0.1,1.23-0.98,0.85-1.56,0.31c-1.26-1.19-2.34-2.58-3.68-3.67c-1.52-1.23-3.19-2.31-4.91-3.27c-0.82-0.46-1.91-0.72-2.66,0.41
			c-0.12,0.18-0.5,0.32-0.71,0.27c-2.57-0.63-4.89,0.56-7.32,0.97c-2.46,0.41-5.11,1.47-7.34,0.9c-2.61-0.67-4.58,0.01-6.78,0.81
			c-0.31,0.11-0.74-0.13-1.12-0.2c-0.69-0.13-1.39-0.25-2.47-0.45c-0.03-0.04-0.25-0.59-0.66-0.87c-0.44-0.3-1.05-0.36-1.59-0.53
			c-0.1,0.47-0.23,0.94-0.3,1.41c-0.1,0.66,0.04,1.78-0.27,1.91c-0.97,0.41-2.09,0.53-3.16,0.62c-0.86,0.07-2.09-0.47-2.54-0.06
			c-1.78,1.64-3.95,1.33-6.01,1.62c-0.33,0.05-0.67,0.02-0.99,0.1c-5.98,1.33-12.06,1.34-18.14,1.38c-2.98,0.02-5.96,0.23-8.94,0.21
			c-1.36-0.01-2.71-0.39-4.06-0.6c-0.26-0.04-0.54-0.21-0.77-0.16c-2.3,0.47-4.91,0.45-6.83,1.58c-3.32,1.97-6.5,1.29-9.81,0.78
			C149.45,63.34,149.43,63.52,149.41,63.7z M146.64,41.53c-1.27-1.54-2.41-2.92-3.72-4.51c2.49-0.43,4.71-1.97,7.11-0.06
			c2.45-3.33,7.24-1.51,10.3-4.53c-0.77-0.27-1.14-0.54-1.46-0.48c-3.11,0.56-6.44,0.65-9.22,1.93c-2.4,1.11-4.79,1.35-7.23,1.87
			c-2.01,0.43-3.99,1.03-5.98,1.56c0,0.22,0,0.44,0,0.67c1.53,0.42,3.05,0.85,4.8,1.33c-3.15,1.74-5.44-0.32-8.08-1.66
			c0.58,1.79,3.44,3.88,5.18,3.98c2.41,0.14,4.84,0.15,7.25,0.18C145.96,41.81,146.34,41.61,146.64,41.53z M133.33,45.72
			c-0.98-1.61-2.02-2.45-3.58-2.27c-1.51,0.18-3.01,0.44-4.49,0.78c-0.54,0.12-1.04,0.52-1.5,0.87c-0.92,0.71-1.85,1.42-2.67,2.24
			c-0.36,0.37-0.77,1.16-0.61,1.49c0.59,1.18,2.6,1.46,3.67,0.59c2.02-1.65,4.09-3.1,6.92-2.91
			C131.71,46.55,132.39,46.07,133.33,45.72z M158.07,25.88c0.03,0.12,0.07,0.24,0.1,0.35c1.13,0.28,2.26,0.74,3.4,0.78
			c1.57,0.05,3.15-0.16,4.7-0.41c0.35-0.06,0.6-0.73,0.9-1.13c-0.4-0.29-0.83-0.87-1.18-0.82
			C163.35,24.99,160.71,25.45,158.07,25.88z M84.12,103.75c3.07-1.69,3.58-4.88,1.21-8.12C84.9,98.5,84.53,101.01,84.12,103.75z
			 M140.29,44.25c-1.09-1.11-4.3-1.38-6.52-0.41C135.88,45.41,137.88,46.89,140.29,44.25z M101.07,60.99
			c0.26,0.15,0.52,0.31,0.77,0.46c1.22-2.07,2.44-4.14,3.66-6.21c-0.17-0.1-0.33-0.21-0.5-0.31
			C103.49,56.82,101.47,58.37,101.07,60.99z M106.26,95.82c-0.28-0.04-0.56-0.08-0.85-0.12c-0.33,0.85-0.83,1.68-0.91,2.55
			c-0.04,0.39,0.75,0.85,1.17,1.28c0.34-0.45,0.94-0.87,0.98-1.34C106.71,97.41,106.41,96.61,106.26,95.82z M90.28,85.16
			c0.2,0.06,0.4,0.13,0.6,0.19c0.5-0.9,1.07-1.77,1.48-2.71c0.14-0.32-0.07-0.8-0.12-1.21c-0.41,0.2-1.06,0.31-1.17,0.63
			C90.71,83.05,90.53,84.12,90.28,85.16z M139.65,26.69c-0.09-0.35-0.17-0.7-0.26-1.05c-1.38,0.33-2.77,0.65-4.15,0.98
			c0.06,0.29,0.13,0.57,0.19,0.86C136.83,27.21,138.24,26.95,139.65,26.69z M136.88,30.24c-1.29-1.32-2.37-1.44-3.2-0.26
			c0.05,0.27,0.1,0.54,0.15,0.81C134.85,30.61,135.86,30.43,136.88,30.24z M164.4,32.21c-0.05-0.3-0.1-0.59-0.15-0.89
			c-0.89,0.13-1.78,0.26-2.67,0.39c0.05,0.33,0.11,0.65,0.16,0.98C162.63,32.53,163.52,32.37,164.4,32.21z M185.53,19.68
			c-0.09-0.26-0.17-0.52-0.26-0.78c-1.01,0.29-2.02,0.59-3.04,0.88c0.07,0.24,0.14,0.48,0.21,0.73
			C183.47,20.24,184.5,19.96,185.53,19.68z"/>
		<path d="M162.63,151.01c-0.12-3.12,2.11-3.97,3.78-5.25c1.52-1.17,1.6-2.32,0.01-3.56c0.89-0.24,1.93-0.27,2.64-0.76
			c1.47-1.02,2.94-2.15,4.11-3.48c2.27-2.57,4.3-5.35,6.52-7.96c0.41-0.48,1.23-0.71,1.9-0.85c2.59-0.54,5.19-0.99,7.78-1.47
			c0.46-0.09,0.94-0.33,1.36-0.25c2.97,0.55,5.52-1.04,8.28-1.54c0.26-0.05,0.67-0.28,0.74-0.2c1.58,1.85,3.02-0.16,4.51-0.13
			c3.97,0.08,8.01,0.13,11.45,2.43c1.2,0.8,2.05,2.2,2.89,3.44c0.26,0.38,0.14,1.18-0.07,1.68c-1.08,2.55-0.78,3.87,0.99,5.92
			c1.67,1.94,3.44,3.91,4.58,6.17c1.46,2.89,0.98,6-0.43,8.91c-0.17,0.36-0.44,0.69-0.54,1.07c-0.89,3.24-2.98,4.51-6.32,4.97
			c-2.21,0.3-4.23,2.03-6.32,3.14c-1.04,0.55-2.05,1.16-3.09,1.72c-0.35,0.19-0.78,0.24-1.1,0.46c-2.96,1.97-5.79,4.17-8.9,5.86
			c-1.91,1.04-4.21,1.63-6.4,1.86c-3.7,0.4-7.44,0.4-11.17,0.48c-0.95,0.02-1.9-0.3-2.86-0.47c-0.03-0.22-0.06-0.44-0.09-0.65
			c2.07-0.64,4.09-1.6,6.21-1.85c4.92-0.59,9.57-2.01,14.28-3.49c2.91-0.92,4.72-3.27,7.47-4.22c0.74-0.25,1.39-1.26,1.73-2.07
			c0.54-1.29-0.3-2.21-1.7-2.11c-3.82,0.27-9.04-4.03-9.83-8c-0.16-0.8-0.51-1.65-1.04-2.25c-0.22-0.25-1.14,0.02-1.7,0.19
			c-0.23,0.07-0.46,0.77-0.5,0.76c-3.06-1.4-2.88,2.62-4.95,2.99c-0.53,0.09-0.87,1.1-1.35,1.65c-0.5,0.58-1.04,1.13-1.59,1.66
			c-0.23,0.22-0.7,0.3-0.8,0.55c-1.8,4.31-6.22,5.11-9.7,7.01c-3.25,1.77-6.84,2.9-10.3,4.27c-0.55,0.22-1.18,0.19-1.78,0.28
			c-0.08-0.16-0.16-0.31-0.25-0.47c0.4-0.48,0.73-1.04,1.2-1.43c1.32-1.1,2.42-2.25,2.29-4.19c-0.03-0.47,0.46-1.08,0.87-1.47
			c2.94-2.79,5.74-5.75,8.92-8.24c4.96-3.9,10.1-7.59,15.34-11.11c1.59-1.07,3.8-1.15,5.62-1.94c0.75-0.33,1.22-1.32,1.81-2.01
			c-0.9-0.37-1.87-1.18-2.68-1.04c-3.48,0.62-6.85,1.43-9.85,3.67c-3.11,2.31-6.68,3.99-10.02,6.01c-0.93,0.56-1.73,1.35-3.02,2.38
			c1.22,0,1.82,0,2.42,0c-2.13,1.69-4.03,3.83-7.17,2.67c-0.62-0.23-1.41-0.01-2.12,0.05C164.03,150.82,163.36,150.93,162.63,151.01
			z M192.83,145.62c-0.14-0.35-0.28-0.7-0.42-1.05c-0.67-0.17-1.52-0.67-1.99-0.44c-1.4,0.7-2.7,1.63-3.94,2.6
			c-0.26,0.2-0.1,0.95-0.13,1.45c1.67-0.64,3.35-1.28,5.02-1.94C191.87,146.06,192.35,145.83,192.83,145.62z M195.79,143.95
			c0.04,0.31,0.08,0.62,0.11,0.93c1.03-0.15,2.06-0.31,3.09-0.46c-0.03-0.22-0.05-0.44-0.08-0.66
			C197.87,143.82,196.83,143.89,195.79,143.95z"/>
		<path d="M274.36,123.72c-0.53-0.31-1.06-0.63-1.6-0.94c-2.26-1.27-4.47-0.44-6.54,0.41c-3.49,1.44-6.89,3.14-10.31,4.75
			c-0.26,0.12-0.44,0.44-0.99,1.02c0.93,0.08,1.47,0.17,2,0.16c2.06-0.05,4.12-0.2,6.18-0.17c2.72,0.03,6.05,2.78,6.69,5.45
			c0.46,1.92,0.84,3.86,1.27,5.87c-0.41,0.08-0.83,0.16-1.45,0.27c1.39,1.99,0.72,3.18-1.17,4.21c-1.32,0.71-2.38,1.9-3.61,2.79
			c-0.86,0.63-1.59,0.46-2.09-0.58c-0.34-0.71-0.87-1.33-1.22-2.04c-0.22-0.46-0.41-1.02-0.35-1.5c0.1-0.85,0.39-1.68,0.61-2.52
			c-1.48-0.22-3.05-0.86-4.43-0.58c-2.38,0.49-4.77,1.31-6.93,2.43c-2.69,1.39-5.15,3.21-7.7,4.86c-0.25,0.16-0.41,0.45-0.99,1.14
			c1.03-0.09,1.57-0.08,2.08-0.19c0.38-0.08,0.74-0.49,1.08-0.47c1.02,0.08,2.03,0.25,3.02,0.51c0.17,0.04,0.32,0.96,0.25,0.99
			c-0.86,0.42-1.77,1.06-2.65,1.04c-1.66-0.04-3.74,0.35-4.66-1.54c-1.22-2.49-2.67-5.18-0.94-7.94c1.07-1.71,2.53-3.25,4.07-4.57
			c2.26-1.95,4.75-3.63,7.36-5.59c-2.32-1.26-0.8-2.66-0.39-3.94c0.36-1.12,0.94-2.21,1.65-3.15c0.65-0.86,1.5-1.69,2.45-2.19
			c1.68-0.9,3.51-1.52,5.25-2.32c2.23-1.02,4.41-0.35,6.58,0.13c1.36,0.31,2.65,0.99,3.89-0.32c0.19-0.2,1.04-0.18,1.19,0.03
			c0.97,1.35,1.83,2.77,2.72,4.18C274.56,123.52,274.46,123.62,274.36,123.72z M253.3,138.4c0.62,0.09,0.87,0.19,1.09,0.14
			c4.36-0.81,8.66-2.3,13.2-1.04c0.34,0.09,1.14-0.28,1.15-0.46c0.01-0.46-0.17-1.11-0.5-1.35c-1.57-1.11-3.15-2.25-4.86-3.12
			c-2.55-1.31-5.07-0.65-7.4,0.72c-0.5,0.3-1.18,1.18-1.05,1.5C255.57,136.42,254.82,137.41,253.3,138.4z M265.1,144.88
			c0.14-0.03,0.29-0.06,0.43-0.09c-0.1-1.03-0.09-2.09-0.37-3.06c-0.12-0.43-0.83-0.77-1.34-0.95c-0.2-0.07-0.83,0.36-0.85,0.59
			c-0.03,0.48,0.1,1.06,0.38,1.46C263.86,143.56,264.51,144.2,265.1,144.88z"/>
		<path d="M85.95,182.32c-0.15-0.25-0.33-0.42-0.33-0.58c0.1-4.04,0.22-8.08,0.34-12.11c0.02-0.8,0.08-1.59,0.13-2.38
			c0.15-2.33,1.95-3.71,3.98-2.66c2.65,1.36,5.1,3.11,7.56,4.8c0.39,0.27,0.38,1.13,0.56,1.71c-0.55,0.09-1.16,0.37-1.64,0.23
			c-3.63-1.05-4.25-0.91-6.16,2.43C88.82,176.5,87.47,179.37,85.95,182.32z"/>
		<path d="M95.38,194.58c-0.83-1.07-1.79-1.83-2.08-2.79c-0.49-1.61-0.84-3.27,0.5-4.89c1.57-1.91,2.76-4.14,4.25-6.13
			c0.86-1.15,1.94-2.15,3.04-3.08c0.24-0.2,1.27,0.04,1.45,0.35c0.98,1.73,1.95,3.49,2.65,5.34c0.58,1.53-0.29,2.56-1.8,2.98
			c-1.28,0.36-2.58,0.67-3.88,0.93c-3.06,0.62-4.18,2.18-3.66,5.21c0.06,0.32,0.12,0.66,0.1,0.98
			C95.94,193.66,95.78,193.82,95.38,194.58z"/>
		<path d="M116.56,113.14c-0.19,2.68-0.19,4.78-0.53,6.82c-0.35,2.13-0.96,4.24-1.63,6.3c-0.13,0.4-1.03,0.54-1.57,0.8
			c-0.08-0.52-0.36-1.11-0.2-1.54c0.62-1.69,0.78-3.14-0.11-4.94c-0.53-1.08-0.21-2.98,0.43-4.12
			C113.68,115.18,115.19,114.35,116.56,113.14z"/>
		<path d="M94.17,59.58c-0.55,3.17,2.21,5.98-0.7,8.67c-0.49,0.45-0.17,1.68-0.46,2.46c-0.31,0.84-0.82,1.66-1.43,2.32
			c-0.17,0.18-1.47-0.28-1.47-0.44c0.01-0.93,0.14-1.9,0.46-2.77c0.18-0.49,0.82-0.82,1.23-1.19
			C90.36,66.31,91.44,61.42,94.17,59.58z"/>
		<path d="M244.5,154.02c0.76,0.1,1.13,0.06,1.38,0.21c1.89,1.11,3.77,2.22,5.61,3.4c0.55,0.35,1.19,0.8,1.42,1.36
			c0.29,0.7,0.47,1.68,0.19,2.31c-0.16,0.35-1.39,0.42-2.08,0.29C247.04,160.83,246.18,157.35,244.5,154.02z"/>
		<path d="M192.69,160.45c3.13-0.21,6.03-2.61,9.15,0.52c-0.88,0.58-1.79,1.27-2.8,1.77c-0.28,0.14-1.13-0.17-1.23-0.45
			c-0.53-1.52-1.42-1.04-2.36-0.57C194.23,162.33,193.31,162.16,192.69,160.45z"/>
		<path d="M247.43,153.23c2.68-1.45,4.62-0.34,5.21,2.88C251.04,155.23,249.44,154.34,247.43,153.23z"/>
		<path d="M99.07,48.44c1.42,1.67,0.49,4.77-1.74,6.04C97.94,52.37,98.48,50.5,99.07,48.44z"/>
		<path d="M96.48,118.8c-0.68,1.64-1.16,2.79-1.74,4.17C93.67,120.98,94.09,119.86,96.48,118.8z"/>
		<path d="M103.56,118.41c0.37-0.7,0.73-1.39,1.1-2.09c0.41,0.23,0.82,0.47,1.23,0.7c-0.46,0.65-0.92,1.3-1.39,1.96
			C104.19,118.79,103.87,118.6,103.56,118.41z"/>
		<path d="M109.64,120.74c-0.24,1.16-0.49,2.31-0.73,3.47c-0.28-0.04-0.56-0.09-0.84-0.13c0.15-1.17,0.3-2.33,0.45-3.5
			C108.9,120.63,109.27,120.68,109.64,120.74z"/>
		<path d="M-39.61,322.51c-0.5,1.11-1,2.21-1.51,3.32c-0.32-0.15-0.63-0.3-0.95-0.45c0.55-1.07,1.11-2.14,1.66-3.2
			C-40.14,322.28-39.88,322.4-39.61,322.51z"/>
		<path d="M77.97,133.13c-0.12-1.47-0.24-2.95-0.37-4.42c0.18-0.02,0.36-0.04,0.54-0.06C78.42,130.13,79.58,131.51,77.97,133.13z"/>
		<path d="M104.99,197.09c0.28,0.86,0.56,1.71,0.84,2.57c-0.29,0.1-0.57,0.21-0.86,0.31c-0.33-0.84-0.67-1.68-1-2.52
			C104.31,197.33,104.65,197.21,104.99,197.09z"/>
		<path d="M114.17,107.97c0.72-0.84,1.45-1.67,2.17-2.51c0.22,0.17,0.44,0.35,0.66,0.52c-0.67,0.88-1.34,1.76-2.01,2.64
			C114.72,108.4,114.45,108.18,114.17,107.97z"/>
		<path d="M96.7,114.46c-0.59,0.56-0.92,1.1-1.18,1.07c-0.42-0.05-0.79-0.48-1.18-0.75c0.26-0.31,0.48-0.83,0.77-0.86
			C95.51,113.86,95.96,114.18,96.7,114.46z"/>
		<path d="M87.49,154.93c0.15,0.62,0.29,1.24,0.44,1.86c-0.24,0.07-0.48,0.14-0.72,0.2c-0.19-0.61-0.39-1.22-0.58-1.83
			C86.91,155.08,87.2,155,87.49,154.93z"/>
		<path class="st0" d="M255,291.65c1.43-0.67,1.34-1.82,0.2-3.2c-2.81,2.6-3,3.89-0.53,6.11C254.79,293.5,254.88,292.71,255,291.65z
			"/>
		<path class="st0" d="M213.14,284.77c0.21-0.03,0.42-0.06,0.64-0.09c0.74-1.59,0.17-3.22-0.22-4.81c-0.06-0.24-0.66-0.53-0.95-0.48
			c-0.23,0.04-0.58,0.61-0.53,0.88C212.37,281.77,212.77,283.26,213.14,284.77z"/>
		<path d="M445.87,400.44c-10.69,2.75-21.09,6.67-32.13,8.04c-0.09-0.22-0.18-0.43-0.27-0.65c1.11-0.43,2.23-1.25,3.33-1.22
			c2.87,0.07,5.4-0.51,8-1.84c2.1-1.07,4.69-1.21,7.07-1.72c1.61-0.34,3.25-0.53,4.84-0.9c3-0.71,5.98-1.5,8.97-2.26
			C445.75,400.08,445.81,400.26,445.87,400.44z"/>
		<path d="M252.76,254.3c-0.45-1.16-0.99-2.3-1.28-3.5c-0.07-0.27,0.69-0.75,1.07-1.13c0.43,0.44,1.17,0.83,1.23,1.31
			c0.11,1.01-0.13,2.06-0.23,3.09C253.29,254.15,253.03,254.22,252.76,254.3z"/>
		<path d="M255,291.65c-0.12,1.06-0.21,1.85-0.33,2.91c-2.47-2.22-2.28-3.52,0.53-6.11C256.34,289.83,256.43,290.98,255,291.65z"/>
		<path d="M213.14,284.77c-0.37-1.5-0.77-2.99-1.06-4.51c-0.05-0.27,0.3-0.84,0.53-0.88c0.3-0.05,0.9,0.24,0.95,0.48
			c0.39,1.59,0.95,3.22,0.22,4.81C213.56,284.7,213.35,284.73,213.14,284.77z"/>
	</g>
	<path d="M81.23,92.83c0,0-0.37-3.96,0.52-5.15c0.88-1.19,1.36-4.02,1.52-5.68c0.17-1.66,1.49-3.45,2.32-6.01s2.75-2.6,3.27-3.99
		s-0.95,3.74-0.45,4.51c0.5,0.77-0.34,4.29-0.34,4.29l-0.29,4.77c0,0,0.33,1.39-0.27,2.69c-0.6,1.3-1.53,2.89-2.52,3.27
		C84,91.91,81.23,92.83,81.23,92.83z"/>
</g>
</svg>
