<svg id="Layer_1" data-name="Layer 1" xmlns="http://www.w3.org/2000/svg" xmlns:xlink="http://www.w3.org/1999/xlink" width="85.5" height="97.5" viewBox="0 0 85.5 97.5"><defs><style>.cls-1{fill:none;}.cls-2{fill:#cae7fa;}.cls-3{fill:#43ac4c;}.cls-4{fill:#8cbf43;}.cls-5{fill:#ea5b2a;}.cls-6{fill:#1c75bb;}.cls-7{fill:#d81e5d;}.cls-8{fill:#28a8df;}.cls-9{fill:#f29121;}.cls-10{fill:#59595b;}.cls-11{fill:#010000;}.cls-12{fill:#e52a2b;}.cls-12,.cls-13{fill-rule:evenodd;}.cls-13{fill:#fff;}.cls-14{clip-path:url(#clip-path);}</style><clipPath id="clip-path"><path class="cls-1" d="M30.7632-60.0969A36.02,36.02,0,0,1-5.4-24.2382,35.99,35.99,0,0,1-41.0491-60.5847,36.02,36.02,0,0,1-4.8855-96.4436,35.9909,35.9909,0,0,1,30.7632-60.0969Z"/></clipPath></defs><rect class="cls-2" x="-2.7012" y="-2.2012" width="91" height="103"/><path class="cls-3" d="M49.8557,19.86l2.5934-3.8986a19.3414,19.3414,0,0,0-7.3152-2.468l-.2955,4.6773A14.71,14.71,0,0,1,49.8557,19.86Z"/><path class="cls-4" d="M55.3672,25.1766l4.1982-2.0807a19.6261,19.6261,0,0,0-5.1018-5.7924l-2.5946,3.902A14.934,14.934,0,0,1,55.3672,25.1766Z"/><path class="cls-5" d="M42.4216,18.0174,42.718,13.34a19.3564,19.3564,0,0,0-7.5684,1.525l2.08,4.1954A14.7108,14.7108,0,0,1,42.4216,18.0174Z"/><path class="cls-6" d="M27.903,33.0866l-4.6774-.296A19.328,19.328,0,0,0,24.75,40.3588l4.1959-2.0807A14.6856,14.6856,0,0,1,27.903,33.0866Z"/><path class="cls-7" d="M30.0266,40.4453l-4.1977,2.0815a19.5977,19.5977,0,0,0,5.1012,5.791l2.5947-3.9008A14.913,14.913,0,0,1,30.0266,40.4453Z"/><path class="cls-8" d="M29.7457,25.652l-3.8985-2.5927a19.32,19.32,0,0,0-2.4683,7.314l4.6775.2962A14.6916,14.6916,0,0,1,29.7457,25.652Z"/><path class="cls-9" d="M35.0633,20.1407l-2.0816-4.1979A19.6234,19.6234,0,0,0,27.19,21.0445l3.9011,2.5948A14.9236,14.9236,0,0,1,35.0633,20.1407Z"/><path class="cls-10" d="M59.5466,42.563c2.5541-5.58,3.8894-10.6917,1.096-17.2993l-4.1949,2.08c1.8135,4.5428,1.4223,9.752-2.1461,14.64L56.32,48.6228l-5.99-3.1411a14.8372,14.8372,0,0,1-14.7923.28l-2.5937,3.8993c6.1507,3.5711,11.3774,2.9453,17.2994,1.0954l10.7778,3.2025Z"/><path class="cls-11" d="M25.3705,60.5844a1.5839,1.5839,0,0,0,.3238-.0288,1.17,1.17,0,0,0,.24-.0742,1.1283,1.1283,0,0,0,.1748-.0957c.0484-.0337.0908-.0654.1275-.0957s.0688-.0552.0971-.0747a.1514.1514,0,0,1,.085-.0288.116.116,0,0,1,.061.0151.2352.2352,0,0,1,.04.0308l.2763.3432a1.9481,1.9481,0,0,1-.6713.503,2.1366,2.1366,0,0,1-.8873.1748,1.7152,1.7152,0,0,1-.72-.1446,1.5366,1.5366,0,0,1-.5351-.3994,1.7551,1.7551,0,0,1-.3325-.605,2.4412,2.4412,0,0,1-.1138-.7627,3.0488,3.0488,0,0,1,.082-.7187,2.6725,2.6725,0,0,1,.2339-.626,2.3794,2.3794,0,0,1,.3648-.5151,2.3135,2.3135,0,0,1,.4707-.3887,2.1662,2.1662,0,0,1,.5576-.2461,2.2785,2.2785,0,0,1,.6245-.0854,2.0168,2.0168,0,0,1,.4375.0444,1.6027,1.6027,0,0,1,.3589.123,1.3325,1.3325,0,0,1,.2885.19,1.6062,1.6062,0,0,1,.231.2475l-.2734.3282a.3466.3466,0,0,1-.0718.0639.18.18,0,0,1-.1016.0274.1905.1905,0,0,1-.1274-.0547,1.6031,1.6031,0,0,0-.1538-.12,1.0577,1.0577,0,0,0-.24-.12,1.1325,1.1325,0,0,0-.3877-.0547,1.3381,1.3381,0,0,0-.5864.1294,1.3872,1.3872,0,0,0-.4712.3691,1.7819,1.7819,0,0,0-.3144.5786,2.39,2.39,0,0,0-.1138.7612,1.8089,1.8089,0,0,0,.0776.55,1.2456,1.2456,0,0,0,.2139.4117.9309.9309,0,0,0,.3252.2583A.9466.9466,0,0,0,25.3705,60.5844Z"/><path class="cls-11" d="M31.372,58.7128a2.9112,2.9112,0,0,1-.0806.6944,2.6324,2.6324,0,0,1-.2309.6123,2.3952,2.3952,0,0,1-.3618.51,2.2271,2.2271,0,0,1-1.0435.6367,2.3635,2.3635,0,0,1-.6445.087,1.8332,1.8332,0,0,1-.7534-.149,1.6823,1.6823,0,0,1-.57-.4106,1.7937,1.7937,0,0,1-.36-.6167,2.3186,2.3186,0,0,1-.1245-.772,2.9211,2.9211,0,0,1,.08-.6943,2.6371,2.6371,0,0,1,.231-.6123,2.4475,2.4475,0,0,1,.3618-.51,2.2742,2.2742,0,0,1,.4741-.3906,2.223,2.223,0,0,1,.57-.249,2.3774,2.3774,0,0,1,.6469-.0869,1.8372,1.8372,0,0,1,.7539.1489,1.6589,1.6589,0,0,1,.5679.4106,1.8013,1.8013,0,0,1,.3589.6182A2.3337,2.3337,0,0,1,31.372,58.7128Zm-.8081.0181a1.8393,1.8393,0,0,0-.0747-.541,1.2146,1.2146,0,0,0-.2158-.416.9586.9586,0,0,0-.3447-.2676,1.085,1.085,0,0,0-.459-.0942,1.2989,1.2989,0,0,0-1.0576.5136,1.8079,1.8079,0,0,0-.2959.5928,2.6449,2.6449,0,0,0-.105.7686,1.89,1.89,0,0,0,.0727.541,1.1909,1.1909,0,0,0,.2129.4145.94.94,0,0,0,.3418.2647,1.0973,1.0973,0,0,0,.46.0927,1.3132,1.3132,0,0,0,1.0634-.5107,1.7729,1.7729,0,0,0,.2964-.5879A2.6442,2.6442,0,0,0,30.5639,58.7309Z"/><path class="cls-11" d="M32.68,56.8149a.2039.2039,0,0,1,.0625.0185.15.15,0,0,1,.0484.0381.4409.4409,0,0,1,.0459.0664l1.71,2.9995c.0044-.0586.0088-.1162.0137-.1718s.0107-.1079.0171-.1563l.3432-2.7988h.6958l-.5439,4.394h-.4043a.3766.3766,0,0,1-.1548-.0288.2343.2343,0,0,1-.1064-.1079l-1.7017-2.999c-.0039.0483-.0083.0957-.0122.1411s-.0078.0884-.0122.1289l-.3462,2.8657H31.64l.5405-4.394h.4136A.7186.7186,0,0,1,32.68,56.8149Z"/><path class="cls-11" d="M38.893,57.4394H37.1245L36.96,58.7768h1.4917l-.082.6289H36.8842l-.2217,1.7988H35.87l.5405-4.394h2.562Z"/><path class="cls-11" d="M42.1083,56.8105l-.0791.6289H40.2607l-.1519,1.249h1.3887l-.0762.605H40.0327l-.1578,1.2822h1.7745l-.0791.6289H39.0058l.5405-4.394Z"/><path class="cls-11" d="M43.2167,59.4726l-.2124,1.7319H42.22l.538-4.394h1.2491a2.2921,2.2921,0,0,1,.65.0806,1.2352,1.2352,0,0,1,.4438.2246.8808.8808,0,0,1,.2554.3452,1.1533,1.1533,0,0,1,.082.44,1.5522,1.5522,0,0,1-.0718.4785,1.3833,1.3833,0,0,1-.5332.7251,1.5548,1.5548,0,0,1-.44.2124.6275.6275,0,0,1,.1275.1035.6163.6163,0,0,1,.1005.146l.7837,1.6377h-.708a.3206.3206,0,0,1-.1684-.041.25.25,0,0,1-.1021-.1172l-.644-1.4248a.2641.2641,0,0,0-.09-.1142.3088.3088,0,0,0-.1655-.0347Zm.2554-2.0542-.185,1.4917h.4555a1.0949,1.0949,0,0,0,.4087-.0684.7627.7627,0,0,0,.2827-.1884.7773.7773,0,0,0,.1656-.2808,1.0684,1.0684,0,0,0,.0546-.3467.5737.5737,0,0,0-.1762-.4463.7866.7866,0,0,0-.544-.1611Z"/><path class="cls-11" d="M48.9755,56.8105l-.0791.6289H47.1279l-.1519,1.249h1.3887l-.0762.605H46.9l-.1577,1.2822h1.7744l-.0791.6289H45.873l.5405-4.394Zm-.2007-.313h-.55a.2876.2876,0,0,1-.09-.0151.4932.4932,0,0,1-.0806-.0337l-.24-.2124a.0824.0824,0,0,1-.021-.0152l-.0215-.0185-.0483.0337-.2949.2124a.2575.2575,0,0,1-.0879.0366.4177.4177,0,0,1-.0977.0122h-.5439l.7568-.6626h.7231Z"/><path class="cls-11" d="M50.1074,56.8149a.2056.2056,0,0,1,.0625.0185.15.15,0,0,1,.0483.0381.4337.4337,0,0,1,.0459.0664l1.7105,2.9995c.0043-.0586.0087-.1162.0136-.1718s.0108-.1079.0171-.1563l.3433-2.7988h.6958l-.544,4.394h-.4043a.3769.3769,0,0,1-.1548-.0288.2348.2348,0,0,1-.1064-.1079l-1.7017-2.999c-.0039.0483-.0083.0957-.0122.1411s-.0078.0884-.0122.1289l-.3462,2.8657h-.6958l.5406-4.394h.4135A.7215.7215,0,0,1,50.1074,56.8149Z"/><path class="cls-11" d="M55.144,60.5844a1.5835,1.5835,0,0,0,.3237-.0288,1.1708,1.1708,0,0,0,.24-.0742,1.1377,1.1377,0,0,0,.1748-.0957c.0483-.0337.0908-.0654.1274-.0957s.0688-.0552.0972-.0747a.1511.1511,0,0,1,.0849-.0288.1167.1167,0,0,1,.0611.0151.23.23,0,0,1,.04.0308l.2764.3432a1.9494,1.9494,0,0,1-.6714.503,2.1358,2.1358,0,0,1-.8872.1748,1.7149,1.7149,0,0,1-.72-.1446,1.536,1.536,0,0,1-.5352-.3994,1.7567,1.7567,0,0,1-.3325-.605,2.4412,2.4412,0,0,1-.1138-.7627,3.0488,3.0488,0,0,1,.0821-.7187,2.6723,2.6723,0,0,1,.2338-.626,2.3794,2.3794,0,0,1,.3648-.5151,2.3135,2.3135,0,0,1,.4707-.3887,2.1677,2.1677,0,0,1,.5576-.2461,2.2785,2.2785,0,0,1,.6245-.0854,2.0155,2.0155,0,0,1,.4375.0444,1.5992,1.5992,0,0,1,.3589.123,1.3356,1.3356,0,0,1,.2886.19,1.6105,1.6105,0,0,1,.2309.2475l-.2734.3282a.344.344,0,0,1-.0718.0639.18.18,0,0,1-.1015.0274.1906.1906,0,0,1-.1275-.0547,1.6031,1.6031,0,0,0-.1538-.12,1.0588,1.0588,0,0,0-.24-.12,1.1333,1.1333,0,0,0-.3877-.0547,1.3382,1.3382,0,0,0-.5865.1294,1.3868,1.3868,0,0,0-.4711.3691,1.7839,1.7839,0,0,0-.3145.5786,2.39,2.39,0,0,0-.1138.7612,1.8057,1.8057,0,0,0,.0777.55,1.2436,1.2436,0,0,0,.2138.4117.9309.9309,0,0,0,.3252.2583A.9467.9467,0,0,0,55.144,60.5844Z"/><path class="cls-11" d="M57.8452,61.2045h-.793l.5381-4.394h.7929Z"/><path class="cls-11" d="M62.2724,61.2045h-.6108a.2537.2537,0,0,1-.1641-.0488.2073.2073,0,0,1-.0757-.13l-.1826-.9179H59.6015l-.4072.9179a.3346.3346,0,0,1-.1094.1245.2833.2833,0,0,1-.17.0547h-.62l2.124-4.394h.8052Zm-2.4248-1.6533h1.2793l-.2979-1.5039c-.0161-.0727-.0322-.15-.0483-.231s-.0317-.1723-.0459-.2734c-.0386.1011-.0762.1948-.1138.2813s-.0722.1611-.1049.226Z"/><path class="cls-11" d="M14.9521,64.7768a2.78,2.78,0,0,1-.1763,1.0059,2.3378,2.3378,0,0,1-.4907.7885,2.2123,2.2123,0,0,1-.7456.5132,2.3727,2.3727,0,0,1-.9424.1841H11.0507l.5406-4.394h1.55a1.9132,1.9132,0,0,1,.7553.143,1.6443,1.6443,0,0,1,.57.395,1.744,1.744,0,0,1,.36.6016A2.2333,2.2333,0,0,1,14.9521,64.7768Zm-.8081.0181a1.8443,1.8443,0,0,0-.0728-.5347,1.1736,1.1736,0,0,0-.2114-.4087.93.93,0,0,0-.3389-.26A1.0942,1.0942,0,0,0,13.062,63.5h-.7564L11.92,66.64h.7563a1.3875,1.3875,0,0,0,.6016-.1279,1.3026,1.3026,0,0,0,.4634-.3662,1.696,1.696,0,0,0,.2978-.58A2.6293,2.6293,0,0,0,14.144,64.7949Z"/><path class="cls-11" d="M18.3286,62.8745l-.0791.6289H16.4809l-.1519,1.249h1.3887l-.0762.605H16.2529L16.0952,66.64H17.87l-.0791.6289H15.226l.54-4.394Z"/><path class="cls-11" d="M19.7446,67.2685V64.1171h.5835a.26.26,0,0,1,.1474.04.2146.2146,0,0,1,.0835.1186l.0513.17a1.7034,1.7034,0,0,1,.1645-.1508,1.0458,1.0458,0,0,1,.1836-.1182.9971.9971,0,0,1,.2129-.0791,1.0282,1.0282,0,0,1,.2505-.0288.7375.7375,0,0,1,.4727.1475.92.92,0,0,1,.2842.3935.9238.9238,0,0,1,.1928-.25,1.0327,1.0327,0,0,1,.2461-.167,1.2019,1.2019,0,0,1,.28-.0942,1.457,1.457,0,0,1,.293-.03,1.33,1.33,0,0,1,.48.0806.91.91,0,0,1,.351.2338,1.011,1.011,0,0,1,.2144.377,1.6357,1.6357,0,0,1,.0727.5059v2.0024h-.9419V65.2661q0-.4893-.4194-.4893a.4306.4306,0,0,0-.3174.126.4918.4918,0,0,0-.126.3633v2.0024h-.9423V65.2661a.5394.5394,0,0,0-.106-.38.4185.4185,0,0,0-.313-.1094.5246.5246,0,0,0-.2417.0576.8875.8875,0,0,0-.2143.1548v2.2793Z"/><path class="cls-11" d="M27.1528,67.2685a.4392.4392,0,0,1-.2022-.0366.2786.2786,0,0,1-.1142-.1519l-.0664-.1733c-.0791.0669-.1553.126-.2281.1763a1.4616,1.4616,0,0,1-.2265.1293,1.1263,1.1263,0,0,1-.2491.0791,1.5458,1.5458,0,0,1-.2934.0259,1.2789,1.2789,0,0,1-.3916-.0566.8063.8063,0,0,1-.2993-.1655.7215.7215,0,0,1-.19-.272.9738.9738,0,0,1-.0669-.375.7915.7915,0,0,1,.085-.3438.8453.8453,0,0,1,.2949-.32,1.8773,1.8773,0,0,1,.565-.2417,3.7992,3.7992,0,0,1,.8964-.1094v-.1337a.5794.5794,0,0,0-.1137-.4.42.42,0,0,0-.3238-.123.8551.8551,0,0,0-.2734.0366,1.1359,1.1359,0,0,0-.19.0821q-.0835.0453-.1626.082a.4547.4547,0,0,1-.1885.0361.2845.2845,0,0,1-.1655-.0469.3429.3429,0,0,1-.1079-.1171l-.1705-.2945a1.915,1.915,0,0,1,.6338-.3755,2.222,2.222,0,0,1,.7461-.123,1.36,1.36,0,0,1,.5152.0928,1.1049,1.1049,0,0,1,.3886.2583,1.122,1.122,0,0,1,.2447.3935,1.4158,1.4158,0,0,1,.0849.4981v1.9692Zm-1.084-.5742a.7525.7525,0,0,0,.32-.064.9715.9715,0,0,0,.2773-.2065v-.4375a3.1618,3.1618,0,0,0-.4663.0483,1.1272,1.1272,0,0,0-.29.0913.3516.3516,0,0,0-.148.1245.296.296,0,0,0-.041.1519.2632.2632,0,0,0,.0884.2265A.431.431,0,0,0,26.0688,66.6943Z"/><path class="cls-11" d="M28.2529,67.2685V64.1171h.5591a.49.49,0,0,1,.1167.0122.2063.2063,0,0,1,.0791.0381.1616.1616,0,0,1,.0488.0684.6318.6318,0,0,1,.0288.1035l.0518.2944a1.5475,1.5475,0,0,1,.3886-.4223.7922.7922,0,0,1,.4712-.1548.5416.5416,0,0,1,.3462.1035l-.1211.6924a.1348.1348,0,0,1-.0488.09.166.166,0,0,1-.0972.0259.627.627,0,0,1-.1216-.0137.9376.9376,0,0,0-.1762-.0136.6472.6472,0,0,0-.5835.395v1.9326Z"/><path class="cls-11" d="M31.7045,62.72V65.269h.14a.2943.2943,0,0,0,.1352-.0244.249.249,0,0,0,.09-.0879l.5957-.8872a.3219.3219,0,0,1,.123-.1157.3929.3929,0,0,1,.1807-.0367h.8628l-.814,1.1216a.8767.8767,0,0,1-.1264.14,1.0275,1.0275,0,0,1-.1475.1093.9273.9273,0,0,1,.2373.2735l.8872,1.5073h-.8506a.4414.4414,0,0,1-.1841-.0352.2681.2681,0,0,1-.1259-.123l-.5957-1.1152a.2332.2332,0,0,0-.0884-.0987.3174.3174,0,0,0-.1367-.0229h-.1822v1.395h-.9419V62.72Z"/><path class="cls-11" d="M35.43,64.0688a1.62,1.62,0,0,1,.5728.0972,1.2458,1.2458,0,0,1,.4468.2827,1.29,1.29,0,0,1,.2915.4541,1.6686,1.6686,0,0,1,.1049.6094,1.2954,1.2954,0,0,1-.0092.1733.2687.2687,0,0,1-.0332.1059.1251.1251,0,0,1-.0655.0547.3.3,0,0,1-.105.0157H34.8163a.89.89,0,0,0,.24.5727.7163.7163,0,0,0,.5015.1777.8971.8971,0,0,0,.2827-.04,1.41,1.41,0,0,0,.2114-.0884q.0923-.0483.17-.0879a.3547.3547,0,0,1,.1626-.04.1948.1948,0,0,1,.17.082l.2735.3374a1.4032,1.4032,0,0,1-.3145.272,1.6444,1.6444,0,0,1-.3467.164,1.87,1.87,0,0,1-.3554.0821,2.6894,2.6894,0,0,1-.3389.0229,1.775,1.775,0,0,1-.6216-.1079,1.43,1.43,0,0,1-.5073-.3208A1.5058,1.5058,0,0,1,34,66.36a1.9752,1.9752,0,0,1-.1259-.7353,1.6575,1.6575,0,0,1,.1079-.5987,1.4525,1.4525,0,0,1,.7988-.8325A1.6158,1.6158,0,0,1,35.43,64.0688Zm.0181.65a.5675.5675,0,0,0-.4224.1533.7986.7986,0,0,0-.2.4419h1.1758a.8456.8456,0,0,0-.0288-.2188.5421.5421,0,0,0-.0942-.19.4823.4823,0,0,0-.1719-.1352A.59.59,0,0,0,35.4482,64.7192Z"/><path class="cls-11" d="M38.4931,67.3173a1.1112,1.1112,0,0,1-.3965-.0654.7664.7664,0,0,1-.4663-.4756,1.1238,1.1238,0,0,1-.061-.38V64.7675h-.2671a.1692.1692,0,0,1-.1763-.185v-.3677l.501-.0977.1855-.7685a.1875.1875,0,0,1,.2066-.146h.4922v.9209h.7661v.644h-.7661v1.565a.2943.2943,0,0,0,.0532.1806.18.18,0,0,0,.1538.0718.2943.2943,0,0,0,.0864-.0107.3419.3419,0,0,0,.0606-.0245l.0488-.0244a.1282.1282,0,0,1,.0532-.01.1093.1093,0,0,1,.0684.0195.2475.2475,0,0,1,.0532.0625l.2857.4463a1.3057,1.3057,0,0,1-.41.2056A1.6374,1.6374,0,0,1,38.4931,67.3173Z"/><path class="cls-11" d="M40.8994,63.2543a.498.498,0,0,1-.0455.211.5465.5465,0,0,1-.1245.1733.6081.6081,0,0,1-.184.1187.5707.5707,0,0,1-.2232.0439.5315.5315,0,0,1-.2158-.0439.602.602,0,0,1-.1777-.1187.54.54,0,0,1-.1216-.1733.5124.5124,0,0,1-.044-.211.5315.5315,0,0,1,.044-.2158.5579.5579,0,0,1,.1216-.1763.5758.5758,0,0,1,.1777-.1186.5477.5477,0,0,1,.2158-.0425.5884.5884,0,0,1,.2232.0425.5824.5824,0,0,1,.184.1186.5648.5648,0,0,1,.1245.1763A.5165.5165,0,0,1,40.8994,63.2543Zm-.1094.8628v3.1514h-.9419V64.1171Z"/><path class="cls-11" d="M41.55,67.2685V64.1171h.5835a.26.26,0,0,1,.1475.04.2146.2146,0,0,1,.0835.1186l.0547.1822a2.1788,2.1788,0,0,1,.1885-.1578,1.06,1.06,0,0,1,.208-.123,1.1971,1.1971,0,0,1,.24-.0791,1.309,1.309,0,0,1,.2813-.0288,1.1082,1.1082,0,0,1,.4575.0893.9513.9513,0,0,1,.3354.25,1.079,1.079,0,0,1,.2071.38,1.5784,1.5784,0,0,1,.07.4786v2.0024h-.9419V65.2661a.5532.5532,0,0,0-.1064-.36.3831.3831,0,0,0-.313-.1289.6585.6585,0,0,0-.292.0669,1.1452,1.1452,0,0,0-.2613.1792v2.2456Z"/><path class="cls-11" d="M46.187,64.0624a1.7335,1.7335,0,0,1,.3779.04,1.524,1.524,0,0,1,.33.1128h.9506v.3432a.1716.1716,0,0,1-.0439.1246.3025.3025,0,0,1-.15.07l-.2309.0517a.9479.9479,0,0,1,.0424.2828.9017.9017,0,0,1-.0986.4253.9645.9645,0,0,1-.27.32,1.25,1.25,0,0,1-.4058.2036,1.6984,1.6984,0,0,1-.5009.0718,2.0132,2.0132,0,0,1-.28-.0186.1706.1706,0,0,0-.1035.14.118.118,0,0,0,.0839.1138.7816.7816,0,0,0,.22.0488c.0908.0088.1953.0152.3129.0181s.2369.01.3584.021a2.8129,2.8129,0,0,1,.3584.0566.9594.9594,0,0,1,.313.1275.6681.6681,0,0,1,.2207.2353.7565.7565,0,0,1,.0835.3755.91.91,0,0,1-.1035.416,1.0849,1.0849,0,0,1-.3037.3618,1.5911,1.5911,0,0,1-.4922.254,2.1568,2.1568,0,0,1-.6684.0957,2.5737,2.5737,0,0,1-.64-.07,1.5426,1.5426,0,0,1-.4468-.184.7736.7736,0,0,1-.2632-.2627.619.619,0,0,1-.0849-.31.5143.5143,0,0,1,.1279-.354.8467.8467,0,0,1,.3491-.2266.5279.5279,0,0,1-.17-.1792.5416.5416,0,0,1-.064-.2763.4931.4931,0,0,1,.0245-.1475.5449.5449,0,0,1,.0756-.15.7584.7584,0,0,1,.1309-.14.8423.8423,0,0,1,.1885-.1187,1.0268,1.0268,0,0,1-.3877-.3467.891.891,0,0,1-.1411-.5009.9015.9015,0,0,1,.1-.4273.962.962,0,0,1,.2754-.3218,1.2806,1.2806,0,0,1,.4116-.2036A1.7644,1.7644,0,0,1,46.187,64.0624Zm.6987,3.3213a.16.16,0,0,0-.0474-.1211.3342.3342,0,0,0-.1274-.0732.928.928,0,0,0-.1885-.04c-.0718-.0078-.1494-.0141-.2324-.018s-.169-.0078-.2583-.0108-.1773-.0092-.2642-.0195a.6113.6113,0,0,0-.1445.1353.27.27,0,0,0-.0562.1684.26.26,0,0,0,.0288.1216.2359.2359,0,0,0,.1021.0942.6679.6679,0,0,0,.1958.062,1.71,1.71,0,0,0,.3115.023,1.8409,1.8409,0,0,0,.334-.0244.6929.6929,0,0,0,.2085-.0669.2509.2509,0,0,0,.1079-.1016A.2821.2821,0,0,0,46.8857,67.3837Zm-.6987-1.8564a.3886.3886,0,0,0,.4433-.4194.4149.4149,0,0,0-.105-.3008.5787.5787,0,0,0-.6772,0,.417.417,0,0,0-.105.3008.5153.5153,0,0,0,.0259.1669.3437.3437,0,0,0,.0806.1324.3749.3749,0,0,0,.1381.0883A.5648.5648,0,0,0,46.187,65.5273Z"/><path class="cls-11" d="M50.2709,65.7128,50.08,67.2685h-.7841l.538-4.394H51.17a2.0309,2.0309,0,0,1,.6425.09,1.1933,1.1933,0,0,1,.4424.25,1.0057,1.0057,0,0,1,.2569.3813,1.36,1.36,0,0,1,.0834.4849,1.8693,1.8693,0,0,1-.1108.6519,1.3969,1.3969,0,0,1-.333.5166,1.5486,1.5486,0,0,1-.5547.34,2.2344,2.2344,0,0,1-.7764.123Zm.2764-2.23-.2007,1.6167H50.9a1.0506,1.0506,0,0,0,.4014-.07.7541.7541,0,0,0,.2822-.1958.7949.7949,0,0,0,.1661-.2994,1.3136,1.3136,0,0,0,.0527-.3828.8433.8433,0,0,0-.0425-.2734.5328.5328,0,0,0-.13-.2114.6173.6173,0,0,0-.22-.1353.9208.9208,0,0,0-.3149-.0483Z"/><path class="cls-11" d="M56.9653,64.7768a2.9149,2.9149,0,0,1-.0806.6943,2.6335,2.6335,0,0,1-.2309.6123,2.3988,2.3988,0,0,1-.3619.51,2.2261,2.2261,0,0,1-1.0434.6367,2.368,2.368,0,0,1-.6446.0869,1.8354,1.8354,0,0,1-.7534-.1489,1.6819,1.6819,0,0,1-.57-.4106,1.7949,1.7949,0,0,1-.36-.6167,2.3194,2.3194,0,0,1-.1245-.772,2.9225,2.9225,0,0,1,.08-.6944,2.6326,2.6326,0,0,1,.231-.6123,2.4468,2.4468,0,0,1,.3618-.51,2.2711,2.2711,0,0,1,.4741-.3906,2.226,2.226,0,0,1,.57-.2491,2.3776,2.3776,0,0,1,.647-.0869,1.8356,1.8356,0,0,1,.7539.149,1.66,1.66,0,0,1,.5679.4106,1.8019,1.8019,0,0,1,.3589.6182A2.3333,2.3333,0,0,1,56.9653,64.7768Zm-.8081.0181a1.84,1.84,0,0,0-.0747-.5411,1.2139,1.2139,0,0,0-.2159-.416.9567.9567,0,0,0-.3447-.2675,1.0847,1.0847,0,0,0-.459-.0943,1.3,1.3,0,0,0-1.0576.5137,1.81,1.81,0,0,0-.2959.5928,2.6477,2.6477,0,0,0-.105.7685,1.8862,1.8862,0,0,0,.0728.541,1.1889,1.1889,0,0,0,.2129.4146.94.94,0,0,0,.3418.2646,1.0953,1.0953,0,0,0,.46.0928,1.314,1.314,0,0,0,1.0635-.5107,1.7748,1.7748,0,0,0,.2964-.5879A2.6476,2.6476,0,0,0,56.1572,64.7949Z"/><path class="cls-11" d="M58.0986,66.6152h1.5986l-.0762.6533H57.2329l.5405-4.394h.7871Z"/><path class="cls-11" d="M61.0063,67.2685h-.793l.5381-4.394h.793Zm1.4316-5.4365-.8632.626a1.1886,1.1886,0,0,1-.12.0761.2679.2679,0,0,1-.1289.0274h-.62l.62-.6138a.6373.6373,0,0,1,.07-.0576.3089.3089,0,0,1,.0654-.0352.2788.2788,0,0,1,.0757-.018.95.95,0,0,1,.102-.0049Z"/><path class="cls-11" d="M65.2973,62.8745l-.082.6474H64.0122l-.462,3.7466h-.7841l.4589-3.7466H62.0185l.0791-.6474Z"/><path class="cls-11" d="M66.1,67.2685h-.793l.5381-4.394h.7929Z"/><path class="cls-11" d="M68.8281,66.6484a1.5835,1.5835,0,0,0,.3237-.0288,1.18,1.18,0,0,0,.24-.0742,1.1283,1.1283,0,0,0,.1748-.0957c.0484-.0337.0909-.0655.1275-.0958s.0688-.0551.0971-.0747a.1524.1524,0,0,1,.085-.0288.116.116,0,0,1,.061.0152.2311.2311,0,0,1,.04.0307l.2764.3433a1.95,1.95,0,0,1-.6714.5029,2.1358,2.1358,0,0,1-.8872.1748,1.7145,1.7145,0,0,1-.72-.1445,1.536,1.536,0,0,1-.5352-.3994,1.7567,1.7567,0,0,1-.3325-.605,2.4412,2.4412,0,0,1-.1138-.7627,3.0535,3.0535,0,0,1,.082-.7187,2.6769,2.6769,0,0,1,.2339-.626,2.3824,2.3824,0,0,1,.3648-.5152,2.3163,2.3163,0,0,1,.4707-.3886,2.1594,2.1594,0,0,1,.5576-.2461,2.2747,2.2747,0,0,1,.6245-.0855,2.0152,2.0152,0,0,1,.4375.0445,1.601,1.601,0,0,1,.3589.123,1.3316,1.3316,0,0,1,.2886.19,1.6159,1.6159,0,0,1,.2309.2476l-.2734.3281a.3473.3473,0,0,1-.0718.064.18.18,0,0,1-.1016.0273.19.19,0,0,1-.1274-.0546,1.6023,1.6023,0,0,0-.1538-.12,1.0618,1.0618,0,0,0-.24-.12,1.1348,1.1348,0,0,0-.3876-.0547,1.34,1.34,0,0,0-.5865.1294,1.39,1.39,0,0,0-.4712.3692,1.7827,1.7827,0,0,0-.3144.5786,2.39,2.39,0,0,0-.1138.7612,1.8089,1.8089,0,0,0,.0776.55,1.245,1.245,0,0,0,.2139.4116.93.93,0,0,0,.3252.2583A.9454.9454,0,0,0,68.8281,66.6484Z"/><path class="cls-11" d="M74.83,64.7768a2.9149,2.9149,0,0,1-.0805.6943,2.6292,2.6292,0,0,1-.231.6123,2.3984,2.3984,0,0,1-.3618.51,2.2258,2.2258,0,0,1-1.0435.6367,2.3673,2.3673,0,0,1-.6445.0869,1.8348,1.8348,0,0,1-.7534-.1489,1.6809,1.6809,0,0,1-.57-.4106,1.7933,1.7933,0,0,1-.36-.6167,2.3194,2.3194,0,0,1-.1245-.772,2.9225,2.9225,0,0,1,.08-.6944,2.6324,2.6324,0,0,1,.2309-.6123,2.4468,2.4468,0,0,1,.3618-.51,2.2743,2.2743,0,0,1,.4742-.3906,2.226,2.226,0,0,1,.57-.2491,2.3776,2.3776,0,0,1,.647-.0869,1.8362,1.8362,0,0,1,.7539.149,1.66,1.66,0,0,1,.5678.4106,1.8,1.8,0,0,1,.3589.6182A2.3333,2.3333,0,0,1,74.83,64.7768Zm-.8081.0181a1.84,1.84,0,0,0-.0747-.5411,1.2155,1.2155,0,0,0-.2158-.416.9575.9575,0,0,0-.3447-.2675,1.085,1.085,0,0,0-.459-.0943A1.2994,1.2994,0,0,0,71.87,63.99a1.8079,1.8079,0,0,0-.2959.5928,2.6443,2.6443,0,0,0-.105.7685,1.89,1.89,0,0,0,.0727.541,1.1923,1.1923,0,0,0,.2129.4146.9419.9419,0,0,0,.3418.2646,1.0958,1.0958,0,0,0,.46.0928,1.3144,1.3144,0,0,0,1.0635-.5107,1.7746,1.7746,0,0,0,.2963-.5879A2.6442,2.6442,0,0,0,74.0214,64.7949Z"/><path class="cls-11" d="M21.1415,71.9213V69.7665h.2623v.8863a.7651.7651,0,0,1,.2114-.1719.5628.5628,0,0,1,.2724-.0649.5461.5461,0,0,1,.2329.0483.4681.4681,0,0,1,.1768.144.6992.6992,0,0,1,.1128.2369,1.21,1.21,0,0,1,.04.3256,1.022,1.022,0,0,1-.044.3052.7377.7377,0,0,1-.1265.2442.5844.5844,0,0,1-.47.2216.4951.4951,0,0,1-.2436-.0556.5583.5583,0,0,1-.1748-.1548l-.0132.1343a.0627.0627,0,0,1-.0674.0556Zm.6617-1.2973a.4221.4221,0,0,0-.2232.0581.6425.6425,0,0,0-.1762.1655v.7168a.4074.4074,0,0,0,.1557.1362.4489.4489,0,0,0,.1909.0391.3748.3748,0,0,0,.3189-.1475.6894.6894,0,0,0,.1113-.4214,1.0466,1.0466,0,0,0-.0259-.2485.4861.4861,0,0,0-.0737-.17.2886.2886,0,0,0-.1187-.0977A.4023.4023,0,0,0,21.8032,70.624Z"/><path class="cls-11" d="M23.165,72.3588a.1352.1352,0,0,1-.0327.0469.09.09,0,0,1-.0611.0176h-.1928l.2705-.5884-.6114-1.3955h.2251a.08.08,0,0,1,.0528.0166.106.106,0,0,1,.0278.0376l.3965.9331c.0088.0215.0161.043.0225.0645s.0122.0434.017.0659l.0205-.0659q.01-.0323.0235-.066l.3848-.9316a.0837.0837,0,0,1,.03-.0391.0815.0815,0,0,1,.0464-.0151h.2075Z"/><path class="cls-11" d="M26.3115,71.4882a.0586.0586,0,0,1,.0424.0191l.1114.1215a.8965.8965,0,0,1-.3125.2325,1.0639,1.0639,0,0,1-.4424.0835,1.0393,1.0393,0,0,1-.4111-.0782.8983.8983,0,0,1-.3145-.22.9884.9884,0,0,1-.2021-.3384,1.2763,1.2763,0,0,1-.0713-.4345,1.19,1.19,0,0,1,.0766-.4346.9942.9942,0,0,1,.2158-.3394.97.97,0,0,1,.3326-.22,1.1337,1.1337,0,0,1,.4282-.0781,1.0073,1.0073,0,0,1,.3984.0718.9962.9962,0,0,1,.2979.1943l-.0923.13a.0986.0986,0,0,1-.0234.0239.0641.0641,0,0,1-.0381.01.0741.0741,0,0,1-.04-.0142c-.0141-.0093-.0312-.02-.05-.0342s-.0424-.0283-.0688-.0439a.6074.6074,0,0,0-.0938-.044.775.775,0,0,0-.1259-.0341.869.869,0,0,0-.1651-.0142.8069.8069,0,0,0-.3081.0576.6966.6966,0,0,0-.2407.1646.7493.7493,0,0,0-.1572.2607.9918.9918,0,0,0-.0562.3438,1.01,1.01,0,0,0,.0562.35.771.771,0,0,0,.1538.26.647.647,0,0,0,.23.1617.7337.7337,0,0,0,.2867.0556,1.1542,1.1542,0,0,0,.1679-.0112.695.695,0,0,0,.1387-.0342.59.59,0,0,0,.1182-.06.9207.9207,0,0,0,.11-.0854A.0742.0742,0,0,1,26.3115,71.4882Z"/><path class="cls-11" d="M28.13,69.8251v.231H27.1235v.6963h.8144v.2226h-.8144V71.69H28.13v.2309h-1.292V69.8251Z"/><path class="cls-11" d="M28.7407,69.8344a.1488.1488,0,0,1,.042.0391l1.2138,1.58c-.0029-.0254-.0049-.05-.0058-.0738s-.0015-.0468-.0015-.0693V69.8251h.249v2.0962h-.1435a.1215.1215,0,0,1-.0562-.0117.1431.1431,0,0,1-.0449-.04l-1.2124-1.5787q.0029.0367.0044.0718c.001.0235.0015.0449.0015.0645v1.4936H28.538V69.8251h.1465A.1276.1276,0,0,1,28.7407,69.8344Z"/><path class="cls-11" d="M32.1777,69.8251v.2383H31.5v1.8579h-.2837V70.0634h-.68v-.2383Z"/><path class="cls-11" d="M32.7875,71.0463v.875h-.2822V69.8251h.5928a1.293,1.293,0,0,1,.3437.04.6584.6584,0,0,1,.2393.1162.4687.4687,0,0,1,.14.1836.6125.6125,0,0,1,.0455.2407.6048.6048,0,0,1-.0352.208.5527.5527,0,0,1-.1021.1734.6151.6151,0,0,1-.1621.1308A.8018.8018,0,0,1,33.35,71a.2934.2934,0,0,1,.0937.0889l.6113.8325h-.2514a.1243.1243,0,0,1-.1143-.06l-.5444-.7491a.1521.1521,0,0,0-.0537-.05.1946.1946,0,0,0-.0879-.0157Zm0-.206h.2974a.7421.7421,0,0,0,.2188-.03.4461.4461,0,0,0,.1577-.085.3555.3555,0,0,0,.0957-.1308.4282.4282,0,0,0,.0322-.1685.3334.3334,0,0,0-.1235-.2822.5969.5969,0,0,0-.3677-.0952h-.3106Z"/><path class="cls-11" d="M36.24,70.874a1.2078,1.2078,0,0,1-.0747.4321.9908.9908,0,0,1-.2105.3389.9422.9422,0,0,1-.3271.22,1.1773,1.1773,0,0,1-.8433,0,.9442.9442,0,0,1-.3262-.22.9917.9917,0,0,1-.2109-.3389,1.2955,1.2955,0,0,1,0-.8643,1,1,0,0,1,.2109-.34.9452.9452,0,0,1,.3262-.2212,1.1634,1.1634,0,0,1,.8433,0,.9433.9433,0,0,1,.3271.2212.9985.9985,0,0,1,.2105.34A1.2061,1.2061,0,0,1,36.24,70.874Zm-.291,0a1.0625,1.0625,0,0,0-.0528-.3467.7312.7312,0,0,0-.1494-.26.6423.6423,0,0,0-.2339-.1631.8506.8506,0,0,0-.6128,0,.6534.6534,0,0,0-.2348.1631.7247.7247,0,0,0-.15.26,1.1614,1.1614,0,0,0,0,.6924.7272.7272,0,0,0,.15.2592.6451.6451,0,0,0,.2348.1622.8576.8576,0,0,0,.6128,0,.6343.6343,0,0,0,.2339-.1622.7338.7338,0,0,0,.1494-.2592A1.0546,1.0546,0,0,0,35.9492,70.874Z"/><path class="cls-11" d="M39.0092,70.874a1.1921,1.1921,0,0,1-.0742.4287.9543.9543,0,0,1-.2109.3305.9393.9393,0,0,1-.3262.2129,1.1336,1.1336,0,0,1-.4214.0752h-.7842V69.8251h.7842a1.1336,1.1336,0,0,1,.4214.0752.94.94,0,0,1,.3262.2134.9581.9581,0,0,1,.2109.3316A1.19,1.19,0,0,1,39.0092,70.874Zm-.291,0a1.0517,1.0517,0,0,0-.0527-.3452.7286.7286,0,0,0-.149-.2579.6413.6413,0,0,0-.2343-.1606.806.806,0,0,0-.3057-.0557H37.478v1.6372h.4985a.806.806,0,0,0,.3057-.0556.64.64,0,0,0,.2343-.16.7193.7193,0,0,0,.149-.2568A1.0543,1.0543,0,0,0,38.7182,70.874Z"/><path class="cls-11" d="M40.6874,69.8251v.231H39.6811v.6963h.8144v.2226h-.8144V71.69h1.0063v.2309H39.3955V69.8251Z"/><path class="cls-11" d="M43.3852,71.9213h-.22a.0948.0948,0,0,1-.0616-.019.1169.1169,0,0,1-.0351-.0484l-.1958-.5058h-.94l-.1963.5058a.1146.1146,0,0,1-.0352.0469.0934.0934,0,0,1-.0615.02H41.42l.8383-2.0962h.2881Zm-1.374-.7783h.7827l-.3291-.853a1.5591,1.5591,0,0,1-.063-.1973c-.0107.04-.021.0767-.0313.11s-.02.0634-.03.0883Z"/><path class="cls-11" d="M43.9609,71.1372v.7841h-.2822V69.8251h.6191a1.1622,1.1622,0,0,1,.3457.0459.6662.6662,0,0,1,.2437.1309.5274.5274,0,0,1,.144.2051.7182.7182,0,0,1,.0474.2676.6888.6888,0,0,1-.0508.2675.5776.5776,0,0,1-.15.21.7013.7013,0,0,1-.2446.1367,1.0546,1.0546,0,0,1-.335.0489Zm0-.2251h.3369a.65.65,0,0,0,.2139-.0323.4405.4405,0,0,0,.1562-.09.3791.3791,0,0,0,.0947-.1387.4683.4683,0,0,0,.0323-.1767.4016.4016,0,0,0-.1236-.313.5389.5389,0,0,0-.3735-.1128h-.3369Z"/><path class="cls-11" d="M47.3842,70.874a1.2078,1.2078,0,0,1-.0747.4321.9905.9905,0,0,1-.21.3389.9426.9426,0,0,1-.3272.22,1.177,1.177,0,0,1-.8432,0,.9423.9423,0,0,1-.3262-.22.9919.9919,0,0,1-.211-.3389,1.2955,1.2955,0,0,1,0-.8643,1,1,0,0,1,.211-.34.9434.9434,0,0,1,.3262-.2212,1.1631,1.1631,0,0,1,.8432,0,.9437.9437,0,0,1,.3272.2212.9983.9983,0,0,1,.21.34A1.2061,1.2061,0,0,1,47.3842,70.874Zm-.291,0a1.0653,1.0653,0,0,0-.0527-.3467.7342.7342,0,0,0-.1494-.26.6423.6423,0,0,0-.2339-.1631.795.795,0,0,0-.3072-.0571.7868.7868,0,0,0-.3056.0571.6547.6547,0,0,0-.2349.1631.7277.7277,0,0,0-.15.26,1.1635,1.1635,0,0,0,0,.6924.73.73,0,0,0,.15.2592.6463.6463,0,0,0,.2349.1622.796.796,0,0,0,.3056.0566.8043.8043,0,0,0,.3072-.0566.6343.6343,0,0,0,.2339-.1622.7368.7368,0,0,0,.1494-.2592A1.0574,1.0574,0,0,0,47.0932,70.874Z"/><path class="cls-11" d="M48.1083,71.9213h-.2836V69.8251h.2836Z"/><path class="cls-11" d="M50.6171,70.874a1.2078,1.2078,0,0,1-.0747.4321.9905.9905,0,0,1-.21.3389.9417.9417,0,0,1-.3272.22,1.177,1.177,0,0,1-.8432,0,.9423.9423,0,0,1-.3262-.22.9917.9917,0,0,1-.2109-.3389,1.2939,1.2939,0,0,1,0-.8643,1,1,0,0,1,.2109-.34.9434.9434,0,0,1,.3262-.2212,1.1631,1.1631,0,0,1,.8432,0,.9428.9428,0,0,1,.3272.2212.9983.9983,0,0,1,.21.34A1.2061,1.2061,0,0,1,50.6171,70.874Zm-.291,0a1.0653,1.0653,0,0,0-.0527-.3467.7342.7342,0,0,0-.1494-.26.6423.6423,0,0,0-.2339-.1631.8506.8506,0,0,0-.6128,0,.6547.6547,0,0,0-.2349.1631.7277.7277,0,0,0-.15.26,1.1635,1.1635,0,0,0,0,.6924.73.73,0,0,0,.15.2592.6463.6463,0,0,0,.2349.1622.8576.8576,0,0,0,.6128,0,.6343.6343,0,0,0,.2339-.1622.7368.7368,0,0,0,.1494-.2592A1.0574,1.0574,0,0,0,50.3261,70.874Z"/><path class="cls-11" d="M51.8808,71.1372v.7841h-.2822V69.8251h.6191a1.1622,1.1622,0,0,1,.3457.0459.6653.6653,0,0,1,.2437.1309.5274.5274,0,0,1,.144.2051.7162.7162,0,0,1,.0474.2676.6888.6888,0,0,1-.0508.2675.5776.5776,0,0,1-.15.21.7013.7013,0,0,1-.2446.1367,1.0546,1.0546,0,0,1-.335.0489Zm0-.2251h.3369a.65.65,0,0,0,.2139-.0323.4405.4405,0,0,0,.1562-.09.3805.3805,0,0,0,.0948-.1387.47.47,0,0,0,.0322-.1767.4015.4015,0,0,0-.1235-.313.5393.5393,0,0,0-.3736-.1128h-.3369Z"/><path class="cls-11" d="M55.3041,70.874a1.2078,1.2078,0,0,1-.0747.4321.9905.9905,0,0,1-.21.3389.9417.9417,0,0,1-.3272.22,1.177,1.177,0,0,1-.8432,0,.9423.9423,0,0,1-.3262-.22.9917.9917,0,0,1-.2109-.3389,1.2939,1.2939,0,0,1,0-.8643,1,1,0,0,1,.2109-.34.9434.9434,0,0,1,.3262-.2212,1.1631,1.1631,0,0,1,.8432,0,.9428.9428,0,0,1,.3272.2212.9983.9983,0,0,1,.21.34A1.2061,1.2061,0,0,1,55.3041,70.874Zm-.291,0a1.0653,1.0653,0,0,0-.0527-.3467.7342.7342,0,0,0-.1494-.26.6423.6423,0,0,0-.2339-.1631.8506.8506,0,0,0-.6128,0,.6547.6547,0,0,0-.2349.1631.7277.7277,0,0,0-.15.26,1.1635,1.1635,0,0,0,0,.6924.73.73,0,0,0,.15.2592.6463.6463,0,0,0,.2349.1622.8576.8576,0,0,0,.6128,0,.6343.6343,0,0,0,.2339-.1622A.7368.7368,0,0,0,54.96,71.22,1.0574,1.0574,0,0,0,55.0131,70.874Z"/><path class="cls-11" d="M55.976,71.683h.9068v.2383h-1.191V69.8251h.2842Z"/><path class="cls-11" d="M57.892,69.3144l-.43.3159a.1661.1661,0,0,1-.0439.0235.1743.1743,0,0,1-.05.0058h-.2022l.3091-.2969a.2928.2928,0,0,1,.0259-.0239.0929.0929,0,0,1,.0249-.0146.1293.1293,0,0,1,.03-.0074.3342.3342,0,0,1,.0415-.0024Zm-.36,2.6069h-.2837V69.8251h.2837Z"/><path class="cls-11" d="M59.5214,69.8251v.2383h-.6772v1.8579h-.2837V70.0634h-.68v-.2383Z"/><path class="cls-11" d="M60.1562,71.9213h-.2837V69.8251h.2837Z"/><path class="cls-11" d="M62.1957,71.4882a.0588.0588,0,0,1,.0425.0191l.1114.1215a.8965.8965,0,0,1-.3125.2325,1.0642,1.0642,0,0,1-.4424.0835,1.04,1.04,0,0,1-.4112-.0782.8988.8988,0,0,1-.3144-.22.99.99,0,0,1-.2022-.3384,1.2788,1.2788,0,0,1-.0713-.4345,1.1874,1.1874,0,0,1,.0767-.4346.9942.9942,0,0,1,.2158-.3394.9692.9692,0,0,1,.3325-.22,1.1342,1.1342,0,0,1,.4283-.0781.9579.9579,0,0,1,.6963.2661l-.0923.13a.099.099,0,0,1-.0235.0239.0639.0639,0,0,1-.0381.01.0741.0741,0,0,1-.04-.0142c-.0141-.0093-.0312-.02-.05-.0342s-.0425-.0283-.0688-.0439a.6074.6074,0,0,0-.0938-.044.7736.7736,0,0,0-.126-.0341.8671.8671,0,0,0-.165-.0142.8069.8069,0,0,0-.3081.0576.6956.6956,0,0,0-.2407.1646.75.75,0,0,0-.1573.2607.9942.9942,0,0,0-.0561.3438,1.0127,1.0127,0,0,0,.0561.35.7711.7711,0,0,0,.1539.26.647.647,0,0,0,.23.1617.7336.7336,0,0,0,.2866.0556,1.1556,1.1556,0,0,0,.168-.0112.695.695,0,0,0,.1387-.0342.5926.5926,0,0,0,.1182-.06.9207.9207,0,0,0,.11-.0854A.0742.0742,0,0,1,62.1957,71.4882Z"/><path class="cls-11" d="M64.6694,70.874a1.2078,1.2078,0,0,1-.0747.4321.9908.9908,0,0,1-.21.3389.9422.9422,0,0,1-.3271.22,1.1773,1.1773,0,0,1-.8433,0,.9442.9442,0,0,1-.3262-.22.9917.9917,0,0,1-.2109-.3389,1.2955,1.2955,0,0,1,0-.8643,1,1,0,0,1,.2109-.34.9452.9452,0,0,1,.3262-.2212,1.1634,1.1634,0,0,1,.8433,0,.9433.9433,0,0,1,.3271.2212.9985.9985,0,0,1,.21.34A1.2061,1.2061,0,0,1,64.6694,70.874Zm-.291,0a1.0625,1.0625,0,0,0-.0528-.3467.7312.7312,0,0,0-.1494-.26.6423.6423,0,0,0-.2339-.1631.8506.8506,0,0,0-.6128,0,.6534.6534,0,0,0-.2348.1631.7247.7247,0,0,0-.15.26,1.1614,1.1614,0,0,0,0,.6924.7272.7272,0,0,0,.15.2592.6451.6451,0,0,0,.2348.1622.8576.8576,0,0,0,.6128,0,.6343.6343,0,0,0,.2339-.1622.7338.7338,0,0,0,.1494-.2592A1.0546,1.0546,0,0,0,64.3784,70.874Z"/><path class="cls-11" d="M37.039,74.0566v.7842h-.2822V72.7446h.6191a1.159,1.159,0,0,1,.3457.0459.6637.6637,0,0,1,.2437.1308.5282.5282,0,0,1,.144.2051.7166.7166,0,0,1,.0474.2676.69.69,0,0,1-.0508.2676.5781.5781,0,0,1-.15.2094.703.703,0,0,1-.2446.1368,1.0547,1.0547,0,0,1-.335.0488Zm0-.2251h.3369a.6523.6523,0,0,0,.2139-.0322.4407.4407,0,0,0,.1562-.09.38.38,0,0,0,.0948-.1387.47.47,0,0,0,.0322-.1767.4015.4015,0,0,0-.1235-.313.5393.5393,0,0,0-.3736-.1128H37.039Z"/><path class="cls-11" d="M39.5888,73.0722a.1122.1122,0,0,1-.0278.0327.0617.0617,0,0,1-.0376.0113.1018.1018,0,0,1-.0581-.0249.9173.9173,0,0,0-.0835-.0552.66.66,0,0,0-.1211-.0547.5219.5219,0,0,0-.1719-.0249.5079.5079,0,0,0-.1684.0259.356.356,0,0,0-.1221.0693.2845.2845,0,0,0-.0737.103.3271.3271,0,0,0-.0249.128.2361.2361,0,0,0,.0429.1455.3743.3743,0,0,0,.1143.0991.8862.8862,0,0,0,.1606.0708c.06.02.1216.04.1846.062s.1245.0459.1841.0728a.6345.6345,0,0,1,.1611.1015.4665.4665,0,0,1,.1143.15.5024.5024,0,0,1,.0429.22.71.71,0,0,1-.0468.2583.5929.5929,0,0,1-.1368.21.64.64,0,0,1-.2207.1406.8116.8116,0,0,1-.2978.0513.909.909,0,0,1-.3711-.0737.88.88,0,0,1-.2857-.2l.0821-.1348a.1082.1082,0,0,1,.0283-.0269.0664.0664,0,0,1,.0371-.0112.1168.1168,0,0,1,.07.0332c.0264.022.06.0459.0987.0723a.7545.7545,0,0,0,.1435.0722.5645.5645,0,0,0,.2056.0332.5353.5353,0,0,0,.18-.0278.383.383,0,0,0,.1342-.0786.3365.3365,0,0,0,.084-.1206.4019.4019,0,0,0,.0293-.1563.2612.2612,0,0,0-.0434-.1557.3588.3588,0,0,0-.1133-.1021.7911.7911,0,0,0-.16-.0693c-.06-.019-.1216-.0386-.1841-.0586a1.873,1.873,0,0,1-.1845-.0693.5993.5993,0,0,1-.16-.1026.469.469,0,0,1-.1133-.1572.56.56,0,0,1-.0429-.2334.5588.5588,0,0,1,.1679-.3994.6047.6047,0,0,1,.2027-.1284.74.74,0,0,1,.2773-.0484.8879.8879,0,0,1,.32.0557.7359.7359,0,0,1,.253.1606Z"/><path class="cls-11" d="M40.9145,74.6025h.9067v.2383H40.63V72.7446h.2842Z"/><path class="cls-11" d="M43.4262,72.7446v.2309H42.42v.6963h.8144v.2227H42.42V74.61h1.0063v.231h-1.292V72.7446Z"/><path class="cls-11" d="M44.17,74.8408h-.2837V72.7446H44.17Z"/><path class="cls-11" d="M45.0439,73.9658v.875h-.2822V72.7446h.5927a1.2982,1.2982,0,0,1,.3438.04.6587.6587,0,0,1,.2392.1162.47.47,0,0,1,.14.1836.6129.6129,0,0,1,.0454.2407.602.602,0,0,1-.0352.208.5543.5543,0,0,1-.102.1734.6131.6131,0,0,1-.1621.1308.8026.8026,0,0,1-.2173.0821.2933.2933,0,0,1,.0938.0888l.6113.8326H46.06a.1243.1243,0,0,1-.1142-.06l-.5445-.749a.1516.1516,0,0,0-.0537-.05.1942.1942,0,0,0-.0879-.0156Zm0-.2061h.2974a.7382.7382,0,0,0,.2187-.03.4475.4475,0,0,0,.1577-.0849.3555.3555,0,0,0,.0957-.1309.4278.4278,0,0,0,.0322-.1685.3334.3334,0,0,0-.1235-.2822.5967.5967,0,0,0-.3677-.0952h-.31Z"/><path class="cls-11" d="M46.9531,74.8408h-.2837V72.7446h.2837Z"/><path class="cls-11" d="M49.24,74.8408h-.22a.0949.0949,0,0,1-.0616-.0191.1172.1172,0,0,1-.0351-.0483l-.1958-.5059h-.94l-.1963.5059a.1153.1153,0,0,1-.0352.0469.0939.0939,0,0,1-.0615.02h-.2193l.8384-2.0962h.2881Zm-1.374-.7784h.7827l-.3291-.853a1.5518,1.5518,0,0,1-.063-.1972c-.0108.04-.021.0766-.0313.11s-.02.0635-.03.0884Z"/><path class="cls-12" d="M56.7119,32.7754A13.8124,13.8124,0,1,1,42.8987,18.9632,13.8118,13.8118,0,0,1,56.7119,32.7754"/><path class="cls-13" d="M47.7942,30.1029a15.9741,15.9741,0,0,1-1.4261,1.7136s-.5036.7483.3015.9045A1.3728,1.3728,0,0,0,48.133,32.23a2.0329,2.0329,0,0,0,.7255-1.7595s-.3761-.8568-1.0643-.3675"/><path class="cls-13" d="M47.6644,29.3751s.1414-1.6549-1.6885-1.1157a.9489.9489,0,0,0-.31.4946s-1.1287,2.1315-1.2175,2.1531-.7407.73.0778.9865a1.4721,1.4721,0,0,0,1.804-.4711,13.886,13.886,0,0,0,1.3345-2.0474"/><path class="cls-13" d="M44.5923,30.1233a5.7192,5.7192,0,0,0,.6321-1.5249,1.553,1.553,0,0,0,0-.6251A8.4377,8.4377,0,0,0,44.94,26.756a.5914.5914,0,0,0-.6244-.3911.7808.7808,0,0,0-.9336.7532s-.2994,1.3266-.39,1.6332c0,0-.56.9633-.6748,1.1935s-.5064,1.0172.5982,1.1412a1.9,1.9,0,0,0,1.6763-.9627"/><path class="cls-13" d="M43.3546,26.0261c-.0931-.5644-.87-.5937-1.04-.5959a5.1368,5.1368,0,0,0-1.3742.2588,2.0289,2.0289,0,0,0-1.1148,1.0372s-.2752.6525.5972.3385L40.785,26.7s.56,1.1374,2.1166.36a1.294,1.294,0,0,0,.453-1.0342"/><polygon class="cls-13" points="31.884 36.961 32.642 36.908 32.481 36.494 31.884 36.961"/><path class="cls-13" d="M36.3384,24.2251a.3838.3838,0,0,0,.3314-.0678.3931.3931,0,0,0,.1792-.2831.7763.7763,0,0,0-.1792-.45.6328.6328,0,0,0-.337-.2744.4.4,0,0,0-.3291.0693.391.391,0,0,0-.1726.2857.6694.6694,0,0,0,.1618.425.66.66,0,0,0,.3455.2957"/><path class="cls-13" d="M31.3952,33.4656a.1814.1814,0,0,0-.0693-.0941.1743.1743,0,0,0-.1192-.0315.1827.1827,0,0,0-.1463.0724.3821.3821,0,0,0-.0364.235l.02.2738.409-.0291-.0189-.2623a.9919.9919,0,0,0-.039-.1642"/><path class="cls-13" d="M34.29,26.4077a.6449.6449,0,0,0,.1354-.2478.2883.2883,0,0,0-.0447-.1963.8944.8944,0,0,0-.2508-.247.6694.6694,0,0,0-.4146-.1819.443.443,0,0,0-.3037.205l-.0938.126.8811.663Z"/><path class="cls-13" d="M33.4,39.2452a.2055.2055,0,0,0-.1727.0387.2335.2335,0,0,0-.0954.1454.3519.3519,0,0,0,.0887.2312l.1026.1416.3652-.2651-.088-.12a.4084.4084,0,0,0-.2-.1718"/><polygon class="cls-13" points="52.153 39.656 51.696 39.053 51.434 39.411 52.153 39.656"/><polygon class="cls-13" points="52.208 26.06 51.492 26.309 51.753 26.666 52.208 26.06"/><path class="cls-13" d="M44.7541,22.4392a.3831.3831,0,0,0,.3283-.0686.74.74,0,0,0,.1989-.4371.63.63,0,0,0-.0354-.4317.393.393,0,0,0-.2825-.1915.3719.3719,0,0,0-.3209.0747.6872.6872,0,0,0-.1965.4121.7261.7261,0,0,0,.0254.4533.3951.3951,0,0,0,.2827.1888"/><path class="cls-13" d="M42.8,18.7064A14.0767,14.0767,0,1,0,56.8768,32.7807,14.0757,14.0757,0,0,0,42.8,18.7064M42.7626,46.15A13.2987,13.2987,0,1,1,56.06,32.8531,13.3166,13.3166,0,0,1,42.7626,46.15"/><path class="cls-13" d="M42.8,23.7057a9.0765,9.0765,0,1,0,9.08,9.075,9.0082,9.0082,0,0,0-9.08-9.075m-.878,17.5184c.03-.3649.046-.6326.046-.6326.1358-.6408.1594-.0852.1594-.0852.0042.2548.01.4985.0144.728-.0713-.0036-.1482-.0036-.22-.01m1.5338.01c.109-.8557.1851-2.0081.1851-2.0081.1362-.6425.16-.0878.16-.0878.0173.8522.0267,1.5941.03,2.0629-.1236.0138-.2481.0256-.3753.033m2.3058-.5059-.1607-1.5633a4.6061,4.6061,0,0,0-.3825-1.2275c.5906,0,1.3168-.8582,1.3168-.8582a3.6986,3.6986,0,0,0,.4861-1.0641l.0915-.3048c.36-.0137,1.3057-1.6412,1.3057-1.6412.0671-.8363-.61-.3965-.61-.3965a2.479,2.479,0,0,1-2.1881-.0936c-.1875-.1638-.6956-.1071-.6956-.1071a1.972,1.972,0,0,1-1.5574-.1662c-.4015.6833.2152,1.9173.2152,1.9173a.6063.6063,0,0,0-.5537.2425l.0039-.0309a.96.96,0,0,1-.2729.6093l-.2431.1535a3.3268,3.3268,0,0,0-.2458-4.0794A1.8709,1.8709,0,0,0,40.87,31.417c-.46.3487-.5766.0593-.5766.0593a8.9041,8.9041,0,0,0-.5182-.9752,1.5016,1.5016,0,0,0,.12-.8792c-.2788-.4711.6418-.2122.6418-.2122a2.5328,2.5328,0,0,0,2.2491-1.0961c.4518-.8342-.4553-.73-.4553-.73a7.8779,7.8779,0,0,1-1.4019,0,4.6372,4.6372,0,0,0-1.7635-.0318l-1.5226,1.5508c-.0341.3442-.3831,4.24-.3831,4.24l1.7139,3.8934c.09.2617.2341.2856.2341.2856l.4785-.0117c.29.053.272.16.272.16l-.1821.1507c-.4488.0746-.3845.4168-.3845.4168-.0643.4358-.12,1.55-.12,1.55l-.0043.7007a8.4817,8.4817,0,1,1,6.4943.24"/><path class="cls-13" d="M42.7591,19.9979a12.8538,12.8538,0,0,0,.0018,25.7076h.0017a12.8538,12.8538,0,0,0-.0035-25.7076m12.075,11.5287-1.9994.2811-.0888-.6225,2.0008-.2781Zm-.6784-2.8742-1.4384.4955.3181.919-.4687.1622-.5231-1.5123,1.911-.654Zm-1.718-3.1687.3985.55-1.1874,1.7988-.3826-.5263.2111-.2751-.42-.5759-.3251.1149-.3763-.5161Zm-1.8854-1.9816.4639.419-1.3509,1.5-.4642-.4167Zm-3.4182-.9731a1.0446,1.0446,0,0,1,.5973-.5571,1.21,1.21,0,0,1,1.25.5356.9105.9105,0,0,1,.0652.5706l-.5446-.1519a.5118.5118,0,0,0,.0094-.1455.37.37,0,0,0-.06-.1577.3919.3919,0,0,0-.1335-.1148.3688.3688,0,0,0-.3674-.0007.7131.7131,0,0,0-.2618.31.7727.7727,0,0,0-.1261.4561.3473.3473,0,0,0,.1968.2433.3323.3323,0,0,0,.2827.0389.6108.6108,0,0,0,.2544-.1932l.4076.402a1.0173,1.0173,0,0,1-.3345.2581.8079.8079,0,0,1-.3684.0676,1.119,1.119,0,0,1-.4314-.1433,1.3167,1.3167,0,0,1-.4319-.3348.8807.8807,0,0,1-.16-.4693,1.1438,1.1438,0,0,1,.1562-.6137m-3.3-.8529a1.0954,1.0954,0,0,1,1.9325-.4137,1.0172,1.0172,0,0,1,.1262.7953,1.2939,1.2939,0,0,1-.2268.5508.8748.8748,0,0,1-.4074.2789,1.1209,1.1209,0,0,1-.5742.0138,1.2655,1.2655,0,0,1-.5345-.2154.8461.8461,0,0,1-.2905-.4054,1.1553,1.1553,0,0,1-.0253-.6043m-1.9148.32a.7412.7412,0,0,0-.33-.0906,1.3826,1.3826,0,0,1-.6011-.1939.4926.4926,0,0,1-.212-.3734.532.532,0,0,1,.0635-.3.6075.6075,0,0,1,.2526-.2415,1.3024,1.3024,0,0,1,.4865-.1218,1.0329,1.0329,0,0,1,.6009.0933.6235.6235,0,0,1,.2829.4353l-.5843.0855a.32.32,0,0,0-.1152-.19.3085.3085,0,0,0-.21-.0421.25.25,0,0,0-.1624.06.1416.1416,0,0,0-.0453.1143.1208.1208,0,0,0,.053.0844.5779.5779,0,0,0,.2161.0541,2.5557,2.5557,0,0,1,.5982.13.6093.6093,0,0,1,.277.1987.56.56,0,0,1,.1059.29.63.63,0,0,1-.0747.3679.709.709,0,0,1-.2774.2748,1.3162,1.3162,0,0,1-.4752.1272,1.0223,1.0223,0,0,1-.7294-.1378.7953.7953,0,0,1-.2677-.4835l.59-.09a.46.46,0,0,0,.0943.215.3381.3381,0,0,0,.285.0973.3229.3229,0,0,0,.2019-.0792.1992.1992,0,0,0,.06-.1514.1813.1813,0,0,0-.0828-.1325M35.2647,23.5a1.0279,1.0279,0,0,1,.4691-.6666,1.0586,1.0586,0,0,1,.79-.2225,1.0174,1.0174,0,0,1,.6612.464,1.2347,1.2347,0,0,1,.235.5456.8512.8512,0,0,1-.08.4857,1.1151,1.1151,0,0,1-.3873.422,1.3126,1.3126,0,0,1-.5243.2383.8529.8529,0,0,1-.4946-.0759,1.1576,1.1576,0,0,1-.4539-.4054,1.0384,1.0384,0,0,1-.215-.7852m-2.13,1.8459a1.0812,1.0812,0,0,1,.3256-.3065.75.75,0,0,1,.3381-.0961.8984.8984,0,0,1,.3552.0688,1.4515,1.4515,0,0,1,.3434.1956,1.3938,1.3938,0,0,1,.3565.3624.85.85,0,0,1,.1162.3432.6664.6664,0,0,1-.0418.32,1.3942,1.3942,0,0,1-.18.33l-.558.7394-1.6119-1.2142ZM31.826,27.4585l1.8293.8537-.2639.5673-1.8291-.8541ZM31.0421,29.4l.4883.1044-.1319.6207,1.4878.3148-.1285.6127-1.4913-.3185-.1285.6235-.4884-.1036Zm-.4334,4.1374a1.47,1.47,0,0,1,.0168-.4459.4715.4715,0,0,1,.1666-.2569.5565.5565,0,0,1,.3212-.1164.5907.5907,0,0,1,.2938.0507.5618.5618,0,0,1,.21.1832.7766.7766,0,0,1,.0964.2126.6574.6574,0,0,1,.0608-.1683.8842.8842,0,0,1,.098-.1055.6428.6428,0,0,1,.1214-.0948l.5614-.3433.05.7053-.5928.3734a.4906.4906,0,0,0-.1466.1233.2584.2584,0,0,0-.0354.1561l.0019.0542.8175-.0542.0458.6228-2.014.1419Zm.6618,3.2892,1.6125-1.4334.233.61-.2737.214.2554.6611.3456-.0288.2306.5972-2.1586.0132Zm2.0924,3.7271-.6107-.8407a.7193.7193,0,0,1-.1693-.5061.6107.6107,0,0,1,.2731-.405.6046.6046,0,0,1,.4937-.1284.7737.7737,0,0,1,.47.35l.2022.2758.6059-.4388.3689.5069ZM42.8,42.3075a9.5238,9.5238,0,1,1,9.5217-9.5268A9.535,9.535,0,0,1,42.8,42.3075m9.5709-2.061L50.2937,39.67l.3843-.5256.3271.1156.4174-.5756L51.211,38.41l.3713-.5149,1.189,1.8011ZM53.7489,38.06l-.4663-.177.2277-.5954-1.42-.5467.2223-.58,1.42.5455.228-.5944.4631.1783Zm.9373-3.5283a.6208.6208,0,0,1-.4759.2016l.0165-.5894a.2751.2751,0,0,0,.2857-.2815.2376.2376,0,0,0-.035-.1711.1439.1439,0,0,0-.1026-.0615.1065.1065,0,0,0-.0908.0395.4676.4676,0,0,0-.0938.2006,2.47,2.47,0,0,1-.23.5663.6074.6074,0,0,1-.2438.2381.5485.5485,0,0,1-.304.0539.634.634,0,0,1-.3489-.1377.6549.6549,0,0,1-.22-.3228,1.237,1.237,0,0,1-.0432-.4922,1.0123,1.0123,0,0,1,.2587-.6921.8022.8022,0,0,1,.5245-.1808l-.0144.5966a.4214.4214,0,0,0-.2267.059.334.334,0,0,0-.1483.2644.3069.3069,0,0,0,.0439.2087.1842.1842,0,0,0,.138.0846.1746.1746,0,0,0,.1477-.0562.7665.7665,0,0,0,.1444-.3069,1.3234,1.3234,0,0,1,.2965-.561.4775.4775,0,0,1,.4-.1418.542.542,0,0,1,.2862.1146.5725.5725,0,0,1,.194.2893,1.2838,1.2838,0,0,1,.0372.5015,1.0211,1.0211,0,0,1-.1962.5763"/></svg>