<svg id="Layer_1" data-name="Layer 1" xmlns="http://www.w3.org/2000/svg" xmlns:xlink="http://www.w3.org/1999/xlink" width="85.5" height="97.5" viewBox="0 0 85.5 97.5"><defs><style>.cls-1{fill:none;}.cls-2{fill:#303031;}.cls-3{clip-path:url(#clip-path);}.cls-4{fill:#fff;}.cls-5{fill:#1dbbee;}</style><clipPath id="clip-path"><path class="cls-1" d="M30.7632,163.9031A36.02,36.02,0,0,1-5.4,199.7618a35.99,35.99,0,0,1-35.6486-36.3465A36.02,36.02,0,0,1-4.8855,127.5564,35.9909,35.9909,0,0,1,30.7632,163.9031Z"/></clipPath></defs><rect class="cls-2" x="-3.7012" y="-3.2012" width="93" height="103"/><path class="cls-4" d="M32.1509,49.4405l-2.0548,1.1172L34.0667,39.06c-2.0671,0-7.2283-1.2982-7.28,1.5647-5.735-6.4136-10.9145,3.43-11.4289,8.4744-.2258,2.2177.1715,5.806,3.1516,5.806,1.95,0,3.7755-1.6017,5.2761-2.7006l.066.01a6.5551,6.5551,0,0,0,5.5054,3.1781c3.4127,0,6.8449-3.8823,6.8449-3.8823ZM23.078,50.954l-1.8909-.653,2.897-8.2831,1.8925.6859Z"/><path class="cls-4" d="M66.0605,49.4405l-2.0558,1.1172L67.9754,39.06c-2.0681,0-7.23-1.2982-7.2814,1.5647-5.7346-6.4136-10.9128,3.43-11.4282,8.4744-.2274,2.2177.1715,5.806,3.1518,5.806,1.9481,0,3.7756-1.6017,5.2774-2.7006l.0629.01a6.5584,6.5584,0,0,0,5.5066,3.1781c3.4153,0,6.845-3.8823,6.845-3.8823ZM56.9852,50.954l-1.8913-.653,2.8992-8.2831,1.8925.6859Z"/><path class="cls-5" d="M53.8606,47.41,42.5637,49.2922a4.43,4.43,0,0,0-3.6432,5.097l.9657,5.8089a4.4346,4.4346,0,0,0,5.1009,3.6454l5.7056-.95c4.624-.77,3.5825,2.5775,2.5844,3.7045,5.8072-.9666,7.69-3.4765,7.0363-7.4073L58.958,51.0514A4.4308,4.4308,0,0,0,53.8606,47.41"/><path class="cls-4" d="M45.4,53.0809l-.2719.0473c-.0148.0016-.0259-.0016-.0306-.0151l-.13-.2719c-.0029-.0127-.0158-.0127-.03-.0127l-.3868.0654c-.0149.0013-.0237.006-.0237.019l-.037.3c0,.0161-.0082.0209-.0233.024l-.27.0449c-.02.0031-.031-.0026-.0351-.0177,0-.01.0051-.0272.0073-.0512l.2232-1.7017c0-.0127.01-.02.0234-.0247l.1964-.03a.0244.0244,0,0,1,.03.0127l.7651,1.5394a.1971.1971,0,0,1,.019.0452c.0041.0151-.0044.0271-.0259.0278M44.8,52.48l-.1308-.3031c-.0094-.0177-.0467-.1238-.0565-.1444h-.0066c-.0013.0237-.0067.1314-.0082.1564l-.0281.3268a.2727.2727,0,0,0-.0054.059.032.032,0,0,0,.0335.02l.1992-.0325c.02-.0057.0269-.0177.0259-.0322a.4887.4887,0,0,0-.023-.05"/><path class="cls-4" d="M46.1655,52.9813,46.0594,53a.47.47,0,0,1-.467-.1484c-.03-.036-.0673-.0742-.0679-.0909a.023.023,0,0,1,.0113-.0228l.199-.1462a.1393.1393,0,0,1,.03-.02c.0088-.0025.0164.0032.0259.0142.0682.11.1462.1412.2185.1292l.1086-.02a.1985.1985,0,0,0,.1639-.2258c-.0255-.1468-.1774-.1781-.3353-.2207-.23-.0673-.486-.1408-.5391-.46a.4716.4716,0,0,1,.4241-.5646l.0442-.0073a.4679.4679,0,0,1,.4652.15.3234.3234,0,0,1,.0679.0909c0,.0089-.0013.0136-.0136.0231l-.1983.1459a.0808.0808,0,0,1-.03.0192.0271.0271,0,0,1-.0259-.0167.2144.2144,0,0,0-.2182-.126l-.0436.0063a.1989.1989,0,0,0-.1629.2274c.023.1411.1875.1538.3577.2008.222.0616.4633.1516.5176.48a.4726.4726,0,0,1-.4263.5637"/><path class="cls-4" d="M47.4037,52.7772l-.1087.0177a.4661.4661,0,0,1-.4651-.151.3505.3505,0,0,1-.0679-.0909c-.0016-.0076.0025-.0136.0136-.0212l.1967-.1452a.1213.1213,0,0,1,.0313-.0218c.0082-.0022.018.0031.0243.0167.07.108.1471.14.221.127l.1064-.0174a.2.2,0,0,0,.163-.23c-.0246-.1459-.1756-.1753-.336-.22-.2318-.0654-.4847-.1389-.539-.4585a.4722.4722,0,0,1,.4244-.5631l.0448-.01a.4673.4673,0,0,1,.4652.15.395.395,0,0,1,.0694.0915c.0013.007-.0037.0152-.0142.0206l-.1964.1477a.1462.1462,0,0,1-.0325.0193c-.007.0022-.0168-.0035-.0243-.0151a.2214.2214,0,0,0-.2195-.1286l-.043.0079a.2.2,0,0,0-.1635.2274c.0227.1377.1866.1531.3571.2.2233.0619.4642.1553.516.4815a.4715.4715,0,0,1-.4231.5653"/><path class="cls-4" d="M48.8067,52.5419l-.1327.0224a.4706.4706,0,0,1-.5842-.3957l-.1348-.8043a.4712.4712,0,0,1,.4254-.5634l.1323-.023a.4745.4745,0,0,1,.5861.3963l.1339.803a.4745.4745,0,0,1-.426.5647m-.02-1.315a.1943.1943,0,0,0-.2252-.1635l-.1326.0224a.1961.1961,0,0,0-.1636.227l.1342.8024a.2.2,0,0,0,.229.1652l.131-.0221a.1931.1931,0,0,0,.1595-.2274Z"/><path class="cls-4" d="M50.6275,52.0139a.4612.4612,0,0,1-.3916.29l-.1313.0231A.4707.4707,0,0,1,49.52,51.93l-.1352-.8025a.4734.4734,0,0,1,.4269-.5662l.1308-.02a.46.46,0,0,1,.4664.1491.3514.3514,0,0,1,.07.0893c0,.0079-.0051.0146-.0161.0221l-.1961.1485c-.01.0072-.02.017-.0313.0176-.0091.0013-.0177-.0031-.0259-.0151-.0676-.11-.1449-.14-.22-.126l-.1313.0208a.1993.1993,0,0,0-.1636.2277l.1339.8034a.1991.1991,0,0,0,.2292.161l.1311-.02c.0751-.012.138-.0663.167-.1917.0032-.0161.01-.0221.019-.024a.2552.2552,0,0,1,.0344.0079l.2362.0771c.0117.0044.0161.0075.0193.0148a.406.406,0,0,1-.037.1108"/><path class="cls-4" d="M51.23,52.1129l-.2577.0407c-.0183.0041-.0259-.0025-.03-.0224l-.2763-1.6556c-.005-.019.0041-.0294.0224-.0326l.258-.0416c.019-.0048.0272.0025.0326.023l.2753,1.6544c.0013.02-.005.0275-.0243.0341"/><path class="cls-4" d="M52.6532,51.8735l-.2747.0448a.0215.0215,0,0,1-.03-.0151l-.13-.2688c-.0038-.0135-.0152-.0135-.0294-.0126l-.3862.0638c-.0136.0028-.024.0085-.024.02l-.0366.3006c0,.0143-.0082.0209-.0221.024l-.2719.0439c-.019.0041-.0316-.0034-.0341-.0151,0-.0145.005-.0288.0057-.0528l.2245-1.7017c0-.0158.0107-.0224.0243-.0262l.1955-.0313a.0264.0264,0,0,1,.0306.0152L52.6573,51.8a.167.167,0,0,1,.0221.0461c.0013.0152-.0066.0243-.0262.0272m-.6022-.6-.131-.3047c-.0083-.0174-.0446-.1232-.0544-.1424l-.0078.0006c-.0029.02-.007.1323-.0095.1531l-.0275.3294a.338.338,0,0,0-.0054.0565c.0026.013.0149.0215.0354.0187l.1967-.0329c.018-.0025.0275-.0151.025-.0287a.1426.1426,0,0,0-.0215-.05"/><path class="cls-4" d="M53.8406,51.48a.4658.4658,0,0,1-.3528.2839c-.0347.0063-.0394.02-.0353.0471a.0163.0163,0,0,0,.0126.0161.22.22,0,0,1,.1459.1793l.0047.0206a.2862.2862,0,0,1-.2545.33l-.1607.024c-.0177.0047-.0269-.0022-.03-.0193l-.031-.1809c-.0028-.02.0048-.0288.0228-.0319l.161-.0272a.0514.0514,0,0,0,.04-.0543l-.0031-.0231a.0524.0524,0,0,0-.0562-.0382l-.1109.0168c-.0173.0038-.0281-.0026-.03-.0168a.17.17,0,0,1,.0127-.0584l.0255-.0925c.0041-.019.007-.0269.0041-.0341,0-.01-.0041-.02-.03-.0215a.4557.4557,0,0,1-.4469-.4055l-.1332-.8027a.4724.4724,0,0,1,.4244-.5656l.1339-.0214a.4679.4679,0,0,1,.4648.1484c.0319.0373.0676.0739.0685.0909.0022.01-.0028.0152-.0151.0237l-.1971.1462a.063.063,0,0,1-.03.0193c-.0073.0013-.0161-.0019-.0234-.0161a.22.22,0,0,0-.22-.127l-.1335.0225a.1988.1988,0,0,0-.1614.228l.1317.8039a.2031.2031,0,0,0,.2308.1627l.1314-.0231c.0729-.0136.1358-.0669.167-.1917a.026.026,0,0,1,.0174-.0236.0827.0827,0,0,1,.0341.0085l.2368.0751c.0111.0054.0174.0089.0193.0168a.4591.4591,0,0,1-.0347.1108"/><path class="cls-4" d="M55.1881,51.4532l-.2747.0448c-.0136.0026-.0252,0-.0287-.0151l-.1308-.271a.0207.0207,0,0,0-.0277-.0116l-.3878.0641c-.0142.0022-.0256.0072-.0262.0214l-.0332.2975a.0289.0289,0,0,1-.0237.0256l-.2722.0423c-.0192.0032-.0325,0-.0335-.0161a.3287.3287,0,0,1,.0064-.05l.2245-1.7024c0-.0145.01-.0212.0227-.0243l.1958-.0335a.03.03,0,0,1,.0306.0155l.763,1.5391a.2961.2961,0,0,1,.023.0467c.0025.013-.0066.0234-.0275.0272m-.8-1.8271c-.0953.0161-.1847-.0566-.2611-.043a.1381.1381,0,0,0-.1127.0941c-.0079.0218-.02.0256-.0408.0146l-.0922-.0433a.0325.0325,0,0,1-.0151-.0366c.0574-.1589.1373-.205.2314-.22.1083-.0193.1844.0527.2615.0375.0445-.0072.0767-.03.1162-.0966.0114-.0167.0158-.0284.0373-.0167l.0975.0511a.0276.0276,0,0,1,.0177.0351.3014.3014,0,0,1-.24.2239m.1984,1.2252-.133-.3047c-.006-.0168-.0432-.1222-.054-.1428h-.0076c-.0006.0222-.005.1333-.0079.1554l-.0277.3287a.1828.1828,0,0,0-.0048.0566c0,.0151.0145.0224.0325.0177l.1987-.0319c.02-.0035.0274-.0152.0265-.03-.0032-.0086-.0161-.0316-.0227-.0493"/><path class="cls-4" d="M55.9828,51.35l-.1333.02a.471.471,0,0,1-.5851-.3957l-.1333-.8024a.4727.4727,0,0,1,.4254-.5652l.1313-.0231a.4725.4725,0,0,1,.5852.3963l.1339.8056a.4737.4737,0,0,1-.4241.5646m-.0215-1.3184a.1947.1947,0,0,0-.2242-.1636l-.1339.0225a.2012.2012,0,0,0-.1632.2289l.1354.8037a.2018.2018,0,0,0,.2255.1629l.1348-.0221a.195.195,0,0,0,.16-.2283Z"/><path class="cls-4" d="M48.4839,54.4027l-1.0181.17c-.0319.0057-.0416.0215-.0366.0511L47.5,55.06c.005.0288.0195.04.0521.0335l.8384-.14a.0363.0363,0,0,1,.0474.036l.0745.4434a.0407.0407,0,0,1-.0341.0518l-.8353.1386c-.035.0041-.0464.0187-.0407.0483l.1667,1a.0385.0385,0,0,1-.0347.05l-.5075.0853a.0393.0393,0,0,1-.05-.0351L46.75,54.1977a.0391.0391,0,0,1,.0338-.0515l1.6127-.27a.0407.0407,0,0,1,.05.0366l.0739.444c.006.0287-.0072.0391-.036.0458"/><path class="cls-4" d="M50.8411,56.2033l-.5366.0909a.04.04,0,0,1-.047-.0215l-.1813-.365c-.0117-.02-.0221-.0234-.0524-.0186l-.5545.0925c-.0322.005-.0379.01-.0436.0341l-.0591.4045c-.0056.0224-.0113.0335-.0322.036l-.5308.0875c-.0382.0057-.0609-.012-.0518-.0468l.4023-2.7148c.0038-.0224.013-.0309.0373-.035l.3758-.0632a.0414.0414,0,0,1,.0461.0215l1.259,2.4391c.02.03.0107.0534-.0312.0588m-1.15-1.1429a2.7824,2.7824,0,0,1-.1513-.4417l-.0173.0038a2.681,2.681,0,0,1-.01.4667l-.03.3565c-.0035.0272.0176.05.0574.043l.259-.043a.0415.0415,0,0,0,.0372-.0616Z"/><path class="cls-4" d="M51.6927,55.46c-.0107.0367.012.0585.053.05l.8407-.1386c.0278-.0041.0394.006.0451.0373l.0727.4408c.0047.0322-.0061.0458-.0313.05l-1.7356.2886c-.0369.0064-.0584-.0161-.0486-.0511l.6243-2.1748c.0111-.0357-.01-.0629-.0508-.0559l-.7519.1244c-.0316.0073-.0458-.0006-.05-.0294l-.0733-.4433c-.0044-.03.0051-.0458.0357-.05l1.65-.2754c.0426-.006.0587.0171.0486.0512Z"/><path class="cls-4" d="M54.7179,55.56l-1.6136.2672a.0368.0368,0,0,1-.0493-.0329l-.4292-2.5749c-.0047-.0328.01-.0473.0345-.0495l1.6142-.27c.0259-.0048.042.0066.0477.036l.0739.4427c.0041.0272-.005.0392-.0363.0452l-1.0162.1686a.04.04,0,0,0-.0385.053l.0707.4355c.0057.0313.0215.0417.0547.0354l.8352-.139c.0268-.006.0439.0051.05.0345l.0723.4443c.007.03-.0082.0439-.0344.0492l-.8327.1364c-.0376.0064-.0477.0215-.0423.0528l.0767.4721c.0067.03.0228.04.0553.035l1.0178-.1714a.0392.0392,0,0,1,.0483.0372l.0742.4421a.0375.0375,0,0,1-.0335.05"/><path class="cls-4" d="M57.1563,55.1546l-.5441.09a.044.044,0,0,1-.0439-.0212l-.5469-.97a.0381.0381,0,0,0-.0433-.0173l-.3312.0549c-.0351.0038-.0461.02-.0411.05l.1664.9985c.0057.0319-.0079.0446-.035.0487l-.505.0846a.039.039,0,0,1-.0518-.0338l-.4263-2.5765a.0391.0391,0,0,1,.0332-.05l1.056-.1746a.78.78,0,0,1,.98.665l.0078.0433a.7474.7474,0,0,1-.2286.6316.0491.0491,0,0,0-.0113.0679l.5892,1.0462c.018.0344.0136.0549-.024.0622m-.9211-1.7927a.2517.2517,0,0,0-.3041-.2L55.47,53.24a.0393.0393,0,0,0-.0379.0533l.0752.4491c.0069.0328.0214.0464.0546.04l.46-.0749a.2478.2478,0,0,0,.2213-.2835Z"/><path class="cls-4" d="M44.9083,61.0675l-.5362.089c-.0259.0035-.035-.0047-.0477-.0255l-.1818-.3625c-.0124-.0193-.0209-.0244-.0506-.0177l-.557.0915c-.03.0057-.0379.0105-.0423.0329l-.06.4042a.04.04,0,0,1-.0338.0391l-.53.0869c-.0385.0066-.0578-.012-.0514-.0493l.4013-2.7132c.0066-.0224.0123-.03.0382-.0351l.3749-.0637a.0416.0416,0,0,1,.0483.023l1.26,2.4366c.0183.0316.0088.0534-.0326.0638m-1.1494-1.1463a2.7653,2.7653,0,0,1-.1525-.44l-.0143.0051a3.4105,3.4105,0,0,1-.0107.4632l-.0328.3575c-.0029.0262.0167.0486.059.0407l.258-.0423c.0395-.005.0518-.0344.0395-.0574Z"/><path class="cls-4" d="M46.0671,60.8423a.0476.0476,0,0,1-.0372.0383l-.3758.0615a.0455.0455,0,0,1-.0464-.023l-1.26-2.4376c-.0158-.03-.0048-.0536.0331-.0619l.535-.0884c.0271-.005.0417.0032.05.0221l.5971,1.2726a2.07,2.07,0,0,1,.1033.264l.0177-.0034a2.4455,2.4455,0,0,1,.0151-.2786l.1431-1.4005c.0019-.0224.012-.0325.0376-.036l.54-.0915a.0413.0413,0,0,1,.0518.0492Z"/><path class="cls-4" d="M48.8162,60.4159l-.5352.089c-.0256.0051-.0373-.0006-.0468-.023l-.1816-.3625c-.0132-.02-.0214-.0266-.0524-.0193l-.5567.0925c-.03.0048-.0373.0111-.0433.0332l-.0574.4039c-.0045.0236-.0111.0325-.0329.0372l-.5333.0884c-.0357.0057-.0582-.0135-.0506-.0483l.4026-2.7157c.007-.02.0117-.03.0379-.0341l.3755-.0632a.0427.0427,0,0,1,.0471.0224l1.2615,2.4373c.02.0309.0079.0565-.0344.0622m-1.15-1.1454a2.7551,2.7551,0,0,1-.149-.4386l-.0168.0032a3.1977,3.1977,0,0,1-.0085.4651l-.0325.3556c-.0054.0287.0167.05.0578.0436l.26-.0436c.0375-.0057.05-.0354.0375-.0591Z"/><path class="cls-4" d="M50.9541,60.06l-.4317.071a.0557.0557,0,0,1-.05-.0192l-.905-1.1612a1.4652,1.4652,0,0,1-.1232-.1935l-.0177.0063c.04.1515.1061.4768.1706.8706l.0988.5918c.0066.0287-.006.0439-.0344.05l-.5.0827a.0384.0384,0,0,1-.0474-.035l-.4288-2.5769a.0382.0382,0,0,1,.0366-.0492l.4387-.072a.0543.0543,0,0,1,.05.0151l.9075,1.1836a1.7837,1.7837,0,0,1,.1238.192l.0152-.0069c-.0366-.1668-.1086-.5265-.1671-.88l-.101-.6c-.0044-.0281.0012-.0417.0312-.0471L50.51,57.4a.0394.0394,0,0,1,.0493.0344l.4285,2.5759a.0378.0378,0,0,1-.0338.05"/><path class="cls-4" d="M53.1337,59.5027a.7841.7841,0,0,1-.5058.3253c-.0291.0047-.0455.0319-.0547.0622-.0053.0215,0,.0455.0256.0486a.3066.3066,0,0,1,.2687.2634l.0206.1178c.0445.2744-.15.4755-.4519.5258l-.3067.0508a.0363.0363,0,0,1-.0461-.0341l-.0549-.34c-.0051-.0291.0057-.0426.0322-.0477l.2634-.0445a.0878.0878,0,0,0,.0827-.1039.0925.0925,0,0,0-.1121-.0764l-.2027.0328a.0341.0341,0,0,1-.0411-.0417l.0752-.2987c.01-.0272-.006-.0458-.0386-.0458a.7363.7363,0,0,1-.7525-.642l-.2024-1.2192a.7715.7715,0,0,1,.7219-.91l.2435-.0423a.7878.7878,0,0,1,.726.1923,1.0952,1.0952,0,0,1,.1695.19.0518.0518,0,0,1-.0028.0748l-.4042.2792a.0542.0542,0,0,1-.0742-.0152.3548.3548,0,0,0-.343-.1945l-.23.0391a.2569.2569,0,0,0-.2239.2887l.2012,1.2208a.2566.2566,0,0,0,.3066.2005l.23-.0392c.1188-.0192.2113-.1181.2618-.299a.0522.0522,0,0,1,.0635-.0376l.4749.14c.0307.0079.0341.0335.0275.0606a1.4685,1.4685,0,0,1-.1472.32"/><path class="cls-4" d="M55.514,59.3l-.5381.09a.0382.0382,0,0,1-.0461-.0221l-.1816-.3638c-.0139-.0218-.0221-.024-.0518-.0193l-.558.0941c-.03.0035-.0372.0105-.0413.0319l-.0584.4055c-.0038.023-.0105.0331-.0326.0347l-.5324.0894c-.0363.0066-.0587-.0136-.0508-.0477l.4026-2.7142a.04.04,0,0,1,.0379-.0382l.3752-.0619a.0446.0446,0,0,1,.0476.0231l1.26,2.4372c.018.0316.0076.0534-.0319.0613m-1.15-1.1438a2.727,2.727,0,0,1-.1522-.44l-.0164.0019a2.6385,2.6385,0,0,1-.01.4664l-.0313.3566c-.0053.0287.0168.0511.0594.0429l.258-.0429c.0369-.0057.05-.0329.0369-.0591Z"/><path class="cls-4" d="M57.7849,58.9236l-.5457.0894a.0412.0412,0,0,1-.0433-.024l-.5463-.9666a.0481.0481,0,0,0-.0435-.019l-.3329.0559c-.0338.006-.0451.0189-.0379.05l.1671,1.0007a.0386.0386,0,0,1-.0376.0477l-.5056.085a.0367.0367,0,0,1-.0486-.0348l-.4295-2.5774a.0381.0381,0,0,1,.0351-.0477l1.0547-.1746a.7777.7777,0,0,1,.98.665l.0066.0439a.7433.7433,0,0,1-.2286.6316.05.05,0,0,0-.0114.066l.5912,1.0487c.02.0313.0142.0534-.0234.06m-.9237-1.7905a.2471.2471,0,0,0-.3012-.2008l-.4611.0751a.0421.0421,0,0,0-.0385.0556l.0742.4522c.0047.0272.02.0423.0546.0376l.46-.0783a.247.247,0,0,0,.2217-.283Z"/><path class="cls-4" d="M47.5128,34.9353l1.2051.6884L52.89,33.39c-3.7114-2.5437-10.3479-2.2544-11.74,1.8148-.3935,1.1529-1.1065,3.8557-2.9842,3.8557H36.0587l-1.4763,4.0983h3.7888L33.594,56.9323,32.4521,56.06l-4.2549,2.3071a8.6139,8.6139,0,0,0,2.1521,1.319,7.0256,7.0256,0,0,0,2.4871.5511,8.22,8.22,0,0,0,8.1324-4.8306v-.0006c1.1454-1.8461,1.4072-3.6814,1.968-6.0132.7235-3.0028,1.6206-5.5515,4.0847-5.5515,3.3157,0,4.1147-4.781,4.1147-4.781H46.1123Z"/><polygon class="cls-5" points="71.711 37.841 70.938 37.572 71.433 38.229 71.66 38.917 70.292 39.359 70.075 38.67 70.087 37.851 69.613 38.519 69.032 38.939 68.192 37.788 68.774 37.368 69.559 37.121 68.774 36.884 68.192 36.454 69.032 35.303 69.613 35.732 70.087 36.399 70.075 35.58 70.292 34.892 71.66 35.334 71.433 36.023 70.938 36.667 71.711 36.41 72.433 36.41 72.433 37.841 71.711 37.841"/></svg>