<svg id="Layer_1" data-name="Layer 1" xmlns="http://www.w3.org/2000/svg" xmlns:xlink="http://www.w3.org/1999/xlink" width="85.5" height="97.5" viewBox="0 0 85.5 97.5"><defs><style>.cls-1{fill:url(#linear-gradient);}.cls-2,.cls-3{fill:#bd1622;}.cls-2{fill-rule:evenodd;}</style><linearGradient id="linear-gradient" x1="0.9687" y1="49.5738" x2="84.7876" y2="49.5738" gradientUnits="userSpaceOnUse"><stop offset="0" stop-color="#e2d6d6"/><stop offset="1" stop-color="#f1f1f1"/></linearGradient></defs><polygon class="cls-1" points="0.969 25.377 0.969 73.77 42.878 97.967 84.788 73.77 84.788 25.377 42.878 1.181 0.969 25.377"/><path class="cls-2" d="M47.1784,64.9863a.8317.8317,0,0,1-.9276-.6834l1.1719-.6671a.1522.1522,0,0,0,.0607-.2212l-.339-.5862a.1391.1391,0,0,0-.21-.0662l-1.6635.9577-.0705.0459a.2094.2094,0,0,0-.0582.18l-.0013.42a1.8867,1.8867,0,0,0,2.0376,1.5622c.9161,0,2.0364-.462,2.0364-1.6275V62.37a1.85,1.85,0,0,0-2.0364-1.6912c-.9694,0-2.0363.5561-2.0363,1.5427,0,.1406.0073.1452.1531.1452l.8116-.003c.0474,0,.0693-.09.08-.1273l.0268-.0872a.9381.9381,0,0,1,.9647-.528.885.885,0,0,1,.9368.9213V64.12a.8434.8434,0,0,1-.9368.8664"/><path class="cls-2" d="M37.8064,60.7731c-.1063,0-.15.0207-.15.16v1.8526H35.7451V60.9333c0-.1416-.0377-.16-.1519-.16h-.7776c-.1191,0-.1609.0223-.1609.16v4.7178c0,.138.0431.1607.1609.1607h.7776c.1142,0,.1519-.0184.1519-.1607V63.7992h1.9112v1.8519c0,.14.0438.1607.15.1607h.78c.1093,0,.16-.0242.16-.1607V60.9333c0-.1358-.0492-.16-.16-.16Zm-4.7635,0c-.1178,0-.16.0223-.16.16v2.994L31.0758,61.01l-.0693-.1066a.2388.2388,0,0,0-.2235-.13h-.7412c-.1252,0-.1506.0475-.1506.16v4.7178c0,.14.0443.1607.1506.1607h.7776c.1118,0,.1616-.0242.1616-.1607V62.6573l1.8055,2.9173.0705.1069a.2382.2382,0,0,0,.2236.13h.712c.1366,0,.1616-.05.1616-.1607V60.9333c0-.1358-.0487-.16-.1616-.16Zm-6.6978,3.2014A1.6251,1.6251,0,0,0,27.4842,62.44a1.6526,1.6526,0,0,0-.4374-1.1834,1.87,1.87,0,0,0-1.5138-.4837H23.5439c-.124,0-.1507.0475-.1507.16v4.7178c0,.14.045.1607.1507.1607h.7788c.1063,0,.1507-.0206.1507-.1607V61.7294h1.1251a.7493.7493,0,0,1,.8056.7488.784.784,0,0,1-.825.71H25.42c-.1277,0-.1506.0419-.1506.1506v.637c0,.2181.0133.2877.07.3587l.8554,1.2673a.3458.3458,0,0,0,.3317.21h.9283c.0667,0,.1093-.062.0607-.1381Zm-9.2936-3.2014c-.2048,0-.212.1-.2923.2349L15.6068,63.06l-1.1427-2.0531c-.0923-.1662-.1288-.234-.3014-.234H13.384c-.1252,0-.1507.0475-.1507.16v4.7178c0,.14.0437.1607.1507.1607h.7787c.1106,0,.16-.0242.16-.1607V62.993l.1385-.037.7843,1.3708c.042.0538.0869.1272.1635.1272h.3943a.1728.1728,0,0,0,.1317-.081L16.9,62.7169v2.9342c0,.14.045.1607.1513.1607H17.81c.1069,0,.1512-.0206.1512-.1607V60.9333c0-.1127-.0261-.16-.1512-.16Zm11.9722,0h-.7406c-.16,0-.1756.0426-.1816.0657l-.0159.0908v4.7215l.0061.0732.034.0575.1.03h.7983l.0728-.0066.0529-.0307.0255-.062V60.854c-.0249-.0553-.0559-.0809-.1512-.0809m-5.95,4.9215L21.335,60.9679c-.0681-.1428-.1239-.1948-.2588-.1948h-.7594c-.1287,0-.1919.0541-.25.1966l-1.7533,4.7179c-.0339.0836-.0195.1242.0717.1242h.825c.1325,0,.1738-.0227.23-.1843l.2333-.6768H21.71l.2425.6762c.0577.1634.0892.1849.23.1849h.8249c.0876,0,.1052-.0382.0657-.1172m-2.3729-3.7365.6949,2.0355H20.007Zm51.4341-.22c.1288,0,.1507-.0413.1507-.1507v-.6545c0-.1127-.0261-.16-.1507-.16h-3.16c-.1263,0-.1518.0475-.1518.16v4.7178c0,.1137.0267.1607.1518.1607h3.2915c.1245,0,.1513-.047.1513-.1607v-.6455c0-.1089-.0225-.1506-.1513-.1506H69.9223V63.6677h1.94c.1288,0,.1507-.0419.1507-.1507V62.9c0-.1091-.0219-.1507-.1507-.1507h-1.94v-1.01h2.2126ZM43.8565,65.6946l-1.738-4.7267c-.0687-.1428-.1233-.1948-.2594-.1948H41.1c-.1287,0-.1908.0541-.249.1966l-1.7546,4.7179c-.0328.0836-.0182.1242.0717.1242h.8257c.1329,0,.173-.0227.23-.1843l.232-.6768h2.0376l.2431.6762c.057.1634.0885.1849.23.1849h.8256c.0881,0,.1045-.0382.0643-.1172m-2.3717-3.7365.6938,2.0355H40.79Zm22.891-1.185c-.1361,0-.16.049-.16.16v4.7178c0,.111.0243.1607.16.1607h1.7636a1.8568,1.8568,0,0,0,2.0455-1.6958V62.4782a1.863,1.863,0,0,0-2.0455-1.7051Zm1.7636,4.0917h-.8329V61.7206h.8329a.854.854,0,0,1,.9556.86v1.4237a.8489.8489,0,0,1-.9556.86m-3.5763-4.0917c-.1119,0-.1617.0244-.1617.16v2.994L60.5959,61.01l-.07-.1069a.2381.2381,0,0,0-.2237-.13h-.7411c-.1239,0-.1507.0475-.1507.16v4.7178c0,.14.045.1607.1507.1607h.7873c.1069,0,.1519-.0206.1519-.1607V62.6573l1.8066,2.9173.0694.1069a.24.24,0,0,0,.2235.13h.7223c.1253,0,.1514-.047.1514-.1607V60.9333c0-.14-.0438-.16-.1514-.16Zm-3.4994,4.9215-1.738-4.7267c-.0687-.1428-.1233-.1948-.2588-.1948h-.76c-.1287,0-.1908.0541-.2489.1966l-1.7546,4.7179c-.0328.0836-.0194.1242.0711.1242h.8262c.1318,0,.1731-.0227.23-.1843l.2321-.6768h2.0382l.2424.6762c.0571.1634.0893.1849.23.1849h.8262c.0875,0,.1045-.0382.0644-.1172m-2.3729-3.7365.6956,2.0355H55.997ZM52.85,63.9745A1.626,1.626,0,0,0,53.9886,62.44a1.6552,1.6552,0,0,0-.4374-1.1834,1.8677,1.8677,0,0,0-1.5139-.4837h-1.989c-.124,0-.1507.0475-.1507.16v4.7178c0,.14.0449.1607.1507.1607h.7788c.1069,0,.152-.0206.152-.1607V61.7294h1.1237a.75.75,0,0,1,.8056.7488.7832.7832,0,0,1-.825.71h-.1591c-.1276,0-.1506.0419-.1506.1506v.637c0,.2181.0133.2877.07.3587L52.7,65.602a.3446.3446,0,0,0,.3311.21H53.96c.0667,0,.1081-.062.0607-.1381Z"/><path class="cls-3" d="M72.0012,48.0858l-9.38-26.511S60.92,17.948,57.5021,17.5991s-5.817,2.8594-5.817,2.8594l-8.86,14.663-8.86-14.663s-2.3994-3.2083-5.817-2.8594-5.1192,3.9757-5.1192,3.9757l-9.38,26.511s-2.0712,6.7724,3.0273,9.36,9.4646-2.0021,9.4646-2.0021l5.2516-6.0611,6.368,4.875a10.08,10.08,0,0,0,2.0109,1.003,7.0055,7.0055,0,0,0,3.0306.6149c.0075,0,.0153,0,.0228,0s.0153,0,.0229,0a7.0057,7.0057,0,0,0,3.0306-.6149,10.0769,10.0769,0,0,0,2.0108-1.003l6.3681-4.875,5.2516,6.0611s4.366,4.5895,9.4646,2.0021,3.0273-9.36,3.0273-9.36M67.1685,54.75c-4.4159,2.2409-8.1973-1.734-8.1973-1.734l-4.5486-5.25-5.5154,4.2223s-4.5065,3.129-8.3786.042-.93-8.4692-.93-8.4692L52.1945,22.7146s2.0782-2.7787,5.0382-2.4765,4.4338,3.4434,4.4338,3.4434L69.7906,46.643s1.7938,5.8657-2.6221,8.1067"/><path class="cls-3" d="M56.72,69.7258a.0229.0229,0,0,0-.0226-.02H55.902v-.3776a.0228.0228,0,1,0-.0455,0v.3776H55.08a.0229.0229,0,0,0-.0226.02l-.8042,6.1024a.0227.0227,0,0,0,.02.0256l.003,0a.023.023,0,0,0,.0226-.02L55.1,69.7514h.7563V70.15a.0228.0228,0,0,0,.0228.0228h.6021l.0037.5155H55.484a.0228.0228,0,0,0-.0228.0227v.5951a.0228.0228,0,0,0,.0228.0228h.3866v.5142h-.7462a.0228.0228,0,0,0-.0228.0228v.5892a.0228.0228,0,0,0,.0228.0228h1.2318v.5169h-.8456a.0229.0229,0,0,0-.0229.0228v.573a.0229.0229,0,0,0,.0229.0228h1.3312V74.12h-1.91a.0227.0227,0,0,0-.0228.0229V75.83a.0227.0227,0,0,0,.0228.0227h.488a.0227.0227,0,0,0,.0227-.0217c.0318-.6941.4648-1.1235.7613-1.1258.3013-.0021.7492.4253.795,1.1271a.0228.0228,0,0,0,.0227.0214h.472a.023.023,0,0,0,.0172-.0077.0236.0236,0,0,0,.0055-.018Zm.3224,6.0825c-.0514-.66-.48-1.1485-.8362-1.1485H56.203c-.3517.0028-.7668.4925-.8053,1.1475h-.4436v-1.642h1.9105a.0228.0228,0,0,0,.0228-.0227V73.59a.0228.0228,0,0,0-.0228-.0228H55.5333V73.04h.8457a.0229.0229,0,0,0,.0228-.0229v-.5625a.0228.0228,0,0,0-.0228-.0228H55.1472v-.5436h.7462a.0228.0228,0,0,0,.0228-.0228v-.56a.0228.0228,0,0,0-.0228-.0228h-.3866v-.5494H56.508a.0229.0229,0,0,0,.0228-.023l-.004-.5611a.0228.0228,0,0,0-.0227-.0226H55.902v-.3753h.7752l.79,6.0569Z"/><path class="cls-3" d="M25.9843,69.3085a.0228.0228,0,0,0-.0187-.0048l-2.4462.4595v-.4371a.0228.0228,0,0,0-.0228-.0228H21.6591a.0228.0228,0,0,0-.0228.0228l0,1.2067-.63.0021a.0228.0228,0,0,0,0,.0456h.6246l-.6028,5.2009h-.4343a.0228.0228,0,1,0,0,.0456h.4545a.0228.0228,0,0,0,.0227-.02l.6056-5.2263h.546v5.2237a.0229.0229,0,0,0,.0228.0228h1.847a.0228.0228,0,0,0,.0226-.0254l-.61-5.2662v-.39l2.4614.4272a.0226.0226,0,0,0,.0266-.0224V69.3261a.0232.0232,0,0,0-.0082-.0176m-.0373,1.2147-2.4614-.4273a.0212.0212,0,0,0-.0186.005.023.023,0,0,0-.008.0175v.42l.6078,5.2434H22.2682V75.18l.6033-.0144a.0228.0228,0,0,0,.0223-.0228v-.566a.0228.0228,0,0,0-.0228-.0228h-.6028v-.58h.6177a.0228.0228,0,0,0,.0228-.0229v-.5792a.0227.0227,0,0,0-.0228-.0228h-.6177v-.5825l.6325.0008h0a.0228.0228,0,0,0,.0161-.0067.0232.0232,0,0,0,.0067-.0161v-.5808a.0228.0228,0,0,0-.0228-.0229h-.6326V70.5577a.0228.0228,0,0,0-.0228-.0228h-.5636v-1.186h1.792v.4417a.0229.0229,0,0,0,.0082.0176.0226.0226,0,0,0,.0188.0049l2.4462-.46Zm-3.6788,4.6111V74.6h.58V75.12Zm0-1.74h.5949v.5337h-.5949Zm0-.6736v-.5345h.61v.5353Z"/><path class="cls-3" d="M14.907,75.8271c-.1813,0-.2994-.1931-.4242-.3974-.1214-.1985-.2468-.4036-.4311-.42-.2269-.0211-.4892.25-.7754.8054a.0228.0228,0,0,1-.0405-.0209c.3-.5814.5673-.8522.82-.83.2071.0188.3387.2339.4658.4418.119.1947.2312.3783.3893.3757.1656-.0031.284-.2129.3986-.4159.1169-.2073.2379-.4218.4177-.4218h.0019c.1811.0016.3.2182.4153.4278.11.2.224.4077.3825.41.1557.0047.2709-.1935.3833-.3827.1211-.2041.2463-.4151.4339-.4151h0c.1866,0,.3105.2094.43.4117.1125.19.2287.3861.3867.3861h0c.1553,0,.2621-.1847.3751-.38.1191-.2058.2424-.4185.4405-.4378.2412-.0228.5041.2477.8.83a.0228.0228,0,1,1-.0406.0207c-.2827-.5558-.5368-.827-.7552-.8053-.1749.0171-.2922.22-.4056.4153-.12.2067-.2329.402-.4143.4025h-.0008c-.1839,0-.3069-.2077-.4258-.4085-.1134-.1913-.23-.3892-.3911-.3892h0c-.1616,0-.28.2-.3947.3926-.1183.1991-.2405.4051-.42.4051h-.0033c-.1851-.0026-.3055-.2218-.4219-.4336-.1088-.1981-.2214-.4028-.3757-.404h-.0016c-.1532,0-.2624.1935-.378.3985-.1208.2141-.2458.4355-.4374.4391H14.907"/><path class="cls-3" d="M15.7932,74.5936c-.1641,0-.2837-.1932-.41-.3973-.1346-.2178-.2738-.4429-.4739-.4609-.2392-.0215-.5133.2628-.8153.8453a.0229.0229,0,0,1-.0406-.021c.3158-.609.5973-.893.86-.87.2229.02.3682.2551.5087.4823.1232.1991.24.3866.3849.3752.14-.0115.2289-.2044.3148-.3908.0935-.2024.19-.4117.3631-.4268s.2956.1672.4264.36c.126.1857.2563.3778.4277.3778h.0049c.1612-.0035.2674-.1736.38-.3536.1168-.1873.2378-.3811.4356-.4041.2552-.029.5368.2349.86.8092a.0228.0228,0,0,1-.04.0223c-.309-.5488-.5837-.814-.8151-.7863-.1761.0206-.2912.2048-.4023.383-.1139.1824-.2317.3711-.4175.375-.1963.0044-.3373-.2-.4713-.3977-.1232-.1815-.2393-.3529-.3847-.34s-.2376.21-.3256.4c-.0916.1983-.1861.4034-.3526.4171l-.0174.0007"/><path class="cls-3" d="M18.1819,73.3384a.0227.0227,0,0,1-.02-.0117c-.3072-.5481-.5817-.8134-.8152-.7862-.1823.0206-.303.2134-.42.4-.1217.1944-.2368.378-.419.378h-.0015c-.18-.001-.2926-.18-.4115-.37-.1135-.1809-.2307-.3679-.4086-.3881-.2253-.026-.4861.2188-.7754.7265a.0228.0228,0,0,1-.04-.0226c.2992-.5251.5754-.7773.82-.7492.2.0227.3228.2192.4421.4092.112.1788.2179.3476.373.3484h.0012c.1572,0,.2656-.1732.38-.3566.1225-.1956.2491-.3979.4534-.421.2577-.0291.5385.2358.86.8092a.0229.0229,0,0,1-.0088.0311l-.0111.0029"/><path class="cls-3" d="M18.0568,70.9022H17.36a.8723.8723,0,0,0-.2455-.585l.4919-.4918a.0228.0228,0,1,0-.0322-.0323l-.4925.4925a.87.87,0,0,0-.5759-.2351l.0026-.0063v-.7183a.0228.0228,0,0,0-.0456,0v.7183l.0026.0063a.8714.8714,0,0,0-.5816.24l-.4932-.4932a.0229.0229,0,0,0-.0322,0,.0227.0227,0,0,0,0,.0323l.4931.4931a.8715.8715,0,0,0-.24.58l-.0019-.0008h-.7181a.0228.0228,0,1,0,0,.0455H15.61l.0019-.0007a.8719.8719,0,0,0,.243.5828l-.01.004-.5079.5079a.0227.0227,0,0,0,0,.0323.0223.0223,0,0,0,.016.0067.0227.0227,0,0,0,.0162-.0067l.5079-.5079.004-.01a.8714.8714,0,0,0,.5846.2429l-.0026.0063v.7182a.0228.0228,0,1,0,.0456,0v-.7182l-.0026-.0063a.8707.8707,0,0,0,.5817-.24l.5.5a.0225.0225,0,0,0,.0161.0067.0228.0228,0,0,0,.0162-.0389l-.5-.5a.8711.8711,0,0,0,.24-.5791h.6966a.0228.0228,0,1,0,0-.0455m-1.571.8527a.83.83,0,1,1,.58-1.4221l0,0,0,0a.8293.8293,0,0,1-.5812,1.4214"/><path class="cls-3" d="M60.8332,71.219a.0228.0228,0,0,0-.0228-.0227H60.068a.0228.0228,0,1,0,0,.0455H60.81a.0227.0227,0,0,0,.0228-.0228"/><path class="cls-3" d="M62.1,71.219a.0228.0228,0,0,0-.0228-.0227h-.7424a.0228.0228,0,1,0,0,.0455h.7424A.0227.0227,0,0,0,62.1,71.219"/><path class="cls-3" d="M60.1541,71.26a.0228.0228,0,1,0,0,.0456h.57a.0228.0228,0,1,0,0-.0456Z"/><path class="cls-3" d="M61.4208,71.26a.0228.0228,0,1,0,0,.0456h.57a.0228.0228,0,1,0,0-.0456Z"/><path class="cls-3" d="M65.6028,75.0369a1.0663,1.0663,0,0,0-.3792-.5422.8443.8443,0,0,0-1.0713-.0775l-1.9729-1.2383c.03-.0287.06-.0577.0882-.0894.8663-.9753.63-3.0586.628-3.0795a.0228.0228,0,0,0-.0226-.02H59.3142a.0228.0228,0,0,0,0,.0456h3.5383c.022.2166.1885,2.1148-.619,3.0237-.03.0338-.0616.0647-.0936.0949l-1.0341-.649a.0232.0232,0,0,0-.0315.0072.0229.0229,0,0,0,.0072.0315l1.0237.6424a1.4738,1.4738,0,0,1-1.0116.3625c-.7618,0-1.69-.4114-1.7825-2.3712a5.7822,5.7822,0,0,1,.0258-.9.0229.0229,0,0,0-.02-.0256.0226.0226,0,0,0-.0255.02,5.8463,5.8463,0,0,0-.0259.9084c.0427.9018.3371,2.4146,1.8279,2.4146a1.516,1.516,0,0,0,1.0524-.3824l1.9749,1.24-.0179.02a.596.596,0,0,0-.0836.539,1.1263,1.1263,0,0,0,.9973.7779l.0211,0a.5584.5584,0,0,0,.565-.7516m-.12.5109a.55.55,0,0,1-.4653.1949,1.0817,1.0817,0,0,1-.9545-.7446.5131.5131,0,0,1,.5213-.6938,1.0787,1.0787,0,0,1,.9742.7447.5515.5515,0,0,1-.0757.4988"/><path class="cls-3" d="M59.3882,69.6226H62.799a.0228.0228,0,0,0,0-.0456H61.1112a.0215.0215,0,0,0,.0052-.0126v-.2022a.0228.0228,0,1,0-.0456,0v.2022a.0222.0222,0,0,0,.0052.0126H59.3882a.0228.0228,0,0,0,0,.0456"/><path class="cls-3" d="M42.7907,75.8033a.0229.0229,0,0,1-.0177-.0084l-3.2123-3.9536a.0222.0222,0,0,1-.0052-.0144v-1.673a.0234.0234,0,0,1,.007-.0165l.79-.7614a.0228.0228,0,0,1,.0158-.0064H41.19a.0228.0228,0,0,1,.016.0067l1.5773,1.58,1.58-1.58a.023.023,0,0,1,.0161-.0067h.7931a.0232.0232,0,0,1,.0161.0067l.8017.8018a.0226.0226,0,0,1,.0067.0161v1.5823a.0227.0227,0,0,1-.0049.0142l-3.1832,4.004a.0223.0223,0,0,1-.0176.0086Zm-3.19-3.9845,3.1894,3.9254,3.1606-3.9757V70.2037l-.7885-.7885h-.7742l-1.5893,1.5894a.023.023,0,0,1-.0162.0067.0228.0228,0,0,1-.0161-.0067L41.18,69.4152h-.8022l-.7768.7484Z"/><path class="cls-3" d="M72.2433,75.7657h-.18v-.6288a.0228.0228,0,0,0-.0228-.0228h-.6819v-.4356a.0228.0228,0,0,0-.0227-.0228h-.3043V74.31a.0228.0228,0,0,0-.0227-.0229h-.27V71.3429h.27a.0228.0228,0,0,0,.0227-.0228v-.4138h.3043a.0228.0228,0,0,0,.0227-.0228v-.7427h.6819a.0228.0228,0,0,0,.0057-.0448L69,69.3172h-.0114l-3.0466.7788a.0227.0227,0,0,0,.0057.0448h.6749v.7427a.0228.0228,0,0,0,.0227.0228h.29V71.32a.0228.0228,0,0,0,.0227.0228h.27v2.9437h-.27a.0228.0228,0,0,0-.0227.0229v.3462h-.29a.0228.0228,0,0,0-.0227.0228v.4356h-.6749a.0228.0228,0,0,0-.0228.0228v.6288h-.1551a.0228.0228,0,1,0,0,.0456h.1779a.0228.0228,0,0,0,.0227-.0228V75.16h6.0477v.6288a.0228.0228,0,0,0,.0228.0228h.2028a.0228.0228,0,1,0,0-.0456m-1.2572-4.4684h-.27a.0229.0229,0,0,0-.0228.0228V74.31a.0229.0229,0,0,0,.0228.0228h.27v.3234H70.19v-.3234h.27a.0229.0229,0,0,0,.0228-.0228V71.32a.0228.0228,0,0,0-.0228-.0228h-.27v-.391h.796ZM69.434,74.6557V74.31a.0229.0229,0,0,0-.0229-.0229h-.27V71.3429h.27a.0229.0229,0,0,0,.0229-.0228v-.4138h.7106V71.32a.0228.0228,0,0,0,.0228.0228h.27v2.9437h-.27a.0228.0228,0,0,0-.0228.0229v.3462Zm-.8416,0v-.3234h.27a.0228.0228,0,0,0,.0227-.0228V71.32a.0228.0228,0,0,0-.0227-.0228h-.27v-.391h.796v.391h-.27a.0228.0228,0,0,0-.0227.0228V74.31a.0228.0228,0,0,0,.0227.0228h.27v.3234Zm-.77,0V74.31a.0228.0228,0,0,0-.0228-.0229h-.27V71.3429h.27a.0228.0228,0,0,0,.0228-.0228v-.4138h.7247V71.32a.0229.0229,0,0,0,.0228.0228h.27v2.9437h-.27a.0229.0229,0,0,0-.0228.0229v.3462Zm1.1718-5.2928,2.8654.7323H66.1285Zm-2.3261.7779H71.313v.72h-.3018l-.0023-.0009-.0023.0009H70.17l-.0022-.0009-.0023.0009h-.7518l-.0022-.0009-.0022.0009h-.8371L68.57,70.86l-.0022.0009h-.7659l-.0022-.0009-.0023.0009H66.96l-.0022-.0009-.0022.0009h-.2877Zm.3128,4.1915h.27a.0229.0229,0,0,0,.0228-.0228V71.32a.0228.0228,0,0,0-.0228-.0228h-.27v-.391h.7959v.391h-.27a.0228.0228,0,0,0-.0228.0228V74.31a.0229.0229,0,0,0,.0228.0228h.27v.3234h-.7959Zm-.3128.369h4.6453v.4128H66.6678Z"/><path class="cls-3" d="M49.1968,71.0587a.5178.5178,0,1,1,.2479.0633.5181.5181,0,0,1-.2479-.0633m.1131-.9152a.4723.4723,0,1,0,.1362-.02.4783.4783,0,0,0-.1362.02"/><path class="cls-3" d="M49.5521,71.8935a.023.023,0,0,1-.011-.0135l-.0756-.2541a1.01,1.01,0,0,1-.2518-.0262l-.1227.2263a.0227.0227,0,0,1-.0309.0092l-.4394-.2383a.0233.0233,0,0,1-.0111-.0135.0237.0237,0,0,1,.0019-.0173l.1227-.2264a1.0234,1.0234,0,0,1-.1594-.1966l-.2541.0754a.0228.0228,0,0,1-.0284-.0153L48.15,70.724a.0229.0229,0,0,1,.0153-.0284L48.42,70.62a1.0243,1.0243,0,0,1,.0262-.2518l-.2264-.1228a.0227.0227,0,0,1-.0091-.0308l.2382-.4395a.0227.0227,0,0,1,.0135-.011.0237.0237,0,0,1,.0173.0018l.2265.1228a1.0155,1.0155,0,0,1,.1967-.16l-.0755-.254a.0227.0227,0,0,1,.0154-.0283l.4791-.1424a.0229.0229,0,0,1,.0284.0153l.0755.2542a1.0163,1.0163,0,0,1,.2517.0261l.1267-.2336a.0228.0228,0,0,1,.0309-.0091l.4395.2382a.0228.0228,0,0,1,.0091.0309l-.1266.2336a1.0248,1.0248,0,0,1,.1594.1967l.2541-.0755a.0231.0231,0,0,1,.0283.0153l.1424.4792a.0234.0234,0,0,1-.0019.0174.0226.0226,0,0,1-.0136.011l-.2541.0755a1.0147,1.0147,0,0,1-.0261.2518l.2336.1267a.0227.0227,0,0,1,.0092.0309l-.2382.4394a.023.023,0,0,1-.0135.011.0224.0224,0,0,1-.0174-.0018l-.2337-.1267a1.0173,1.0173,0,0,1-.1966.1594l.0754.2541a.0228.0228,0,0,1-.0153.0283l-.4792.1424-.0065.001-.0108-.0028m.3877-.4267a.0229.0229,0,0,1,.01-.0261.979.979,0,0,0,.214-.1734.0229.0229,0,0,1,.0276-.0046l.2289.1242.2165-.4-.229-.1241a.0227.0227,0,0,1-.0112-.0256.9751.9751,0,0,0,.0285-.274.0229.0229,0,0,1,.0163-.0226l.249-.074-.1293-.4355-.249.074a.0226.0226,0,0,1-.026-.01.9788.9788,0,0,0-.1735-.2139.0227.0227,0,0,1-.0045-.0276l.1242-.229-.3994-.2165-.1242.229a.0231.0231,0,0,1-.0256.0113.9672.9672,0,0,0-.274-.0286.0217.0217,0,0,1-.0227-.0163l-.0739-.249-.4355.1293.074.249a.023.023,0,0,1-.01.0261.9761.9761,0,0,0-.214.1734.0227.0227,0,0,1-.0275.0046l-.2219-.12-.2164.3994.2218.12a.0229.0229,0,0,1,.0112.0256.9744.9744,0,0,0-.0285.2739.0229.0229,0,0,1-.0163.0228l-.249.0739.1293.4355.249-.074a.0227.0227,0,0,1,.026.01.9765.9765,0,0,0,.1735.2139.0228.0228,0,0,1,.0046.0276l-.12.2218.3994.2164.12-.2217a.023.023,0,0,1,.0256-.0113.9624.9624,0,0,0,.274.0286.0239.0239,0,0,1,.0227.0163l.0739.249.4355-.1293Z"/><path class="cls-3" d="M51.3116,73.2607a.503.503,0,0,1,.0013-1.0059h.0014a.503.503,0,0,1-.0013,1.0059Zm-.3211-.8272a.4572.4572,0,0,0,.3212.7815h.0013a.4573.4573,0,0,0,.0012-.9146h-.0013a.4541.4541,0,0,0-.3224.1331"/><path class="cls-3" d="M51.55,73.988l-.481-.0013a.0227.0227,0,0,1-.0227-.0228l.0007-.2544a.984.984,0,0,1-.2239-.0933l-.1752.1742a.0227.0227,0,0,1-.0322,0l-.3391-.3409a.0227.0227,0,0,1,0-.0322l.1752-.1744a.98.98,0,0,1-.0922-.2242l-.2543-.0008a.0227.0227,0,0,1-.0228-.0228l.0012-.481a.0229.0229,0,0,1,.0229-.0227l.2544.0007a.9817.9817,0,0,1,.0934-.2238l-.1742-.1753a.0225.0225,0,0,1,0-.0322l.3409-.3392a.0229.0229,0,0,1,.0323,0l.1742.1753a.9766.9766,0,0,1,.2243-.0922l.0008-.2544a.0228.0228,0,0,1,.0228-.0228h0l.4809.0014a.0228.0228,0,0,1,.0228.0229l-.0007.2543a.98.98,0,0,1,.2239.0934l.1808-.18a.0228.0228,0,0,1,.0322,0l.3393.341a.0228.0228,0,0,1,0,.0322l-.1808.18a.9826.9826,0,0,1,.0921.2242l.2544.0008a.0228.0228,0,0,1,.0227.0228l-.0013.481a.0226.0226,0,0,1-.0067.0161.023.023,0,0,1-.016.0067h0l-.2544-.0008a.9885.9885,0,0,1-.0933.2239l.18.1808a.0228.0228,0,0,1,0,.0322L52.01,73.8a.0225.0225,0,0,1-.0321,0l-.18-.1808a.9833.9833,0,0,1-.2244.0921l-.0007.2543a.0227.0227,0,0,1-.0228.0228m.2678-.4138.1762.1771.3087-.307-.1761-.1771a.0226.0226,0,0,1-.0034-.0277.9413.9413,0,0,0,.1019-.2445.0229.0229,0,0,1,.0221-.017l.2491.0007.0012-.4354-.2492-.0007a.0228.0228,0,0,1-.022-.0172.9323.9323,0,0,0-.1006-.2449.0229.0229,0,0,1,.0036-.0277l.1771-.1762L52,71.7679l-.1771.1762a.0231.0231,0,0,1-.0278.0034.9361.9361,0,0,0-.2444-.102.0227.0227,0,0,1-.0169-.0221l.0007-.249-.4355-.0013-.0007.2491a.0229.0229,0,0,1-.0172.0221.9325.9325,0,0,0-.2448.1006.023.023,0,0,1-.0278-.0036l-.1706-.1715-.3087.3071.1706.1714a.023.023,0,0,1,.0034.0278.9339.9339,0,0,0-.1019.2444.023.023,0,0,1-.0221.017h0l-.249-.0007-.0013.4354.2491.0008a.0225.0225,0,0,1,.022.0171.942.942,0,0,0,.1006.2449.0227.0227,0,0,1-.0036.0278l-.1713.1705.307.3087.1714-.1705a.023.023,0,0,1,.0278-.0034.937.937,0,0,0,.2444.1018.0229.0229,0,0,1,.017.0222l-.0006.2491.4353.0012.0007-.2491a.023.023,0,0,1,.0172-.0221.9349.9349,0,0,0,.2449-.1l.0116-.0032a.0227.0227,0,0,1,.0161.0067"/><path class="cls-3" d="M48.04,74.6317h0a.796.796,0,1,1,.07.0031q-.0351,0-.07-.0031m-.4164-1.3741a.7542.7542,0,1,0,.55-.1741q-.0333-.0029-.0664-.0028a.7485.7485,0,0,0-.484.1769"/><path class="cls-3" d="M48.3261,75.8369l-.7755-.067a.0234.0234,0,0,1-.0155-.0081.0223.0223,0,0,1-.0052-.0166l.0364-.4209a1.5741,1.5741,0,0,1-.3641-.189l-.3144.2643a.0229.0229,0,0,1-.0322-.0029l-.5008-.5957a.0228.0228,0,0,1,.0028-.0321l.3144-.2644a1.5789,1.5789,0,0,1-.1237-.3912l-.4208-.0364a.0229.0229,0,0,1-.0208-.0246l.0672-.7755a.0224.0224,0,0,1,.0081-.0155.0229.0229,0,0,1,.0166-.0053l.4209.0365a1.5805,1.5805,0,0,1,.189-.3642l-.2725-.3242a.0227.0227,0,0,1,.0028-.0321l.5958-.5009a.0233.0233,0,0,1,.0166-.0052.0222.0222,0,0,1,.0154.0081l.2726.3241a1.5743,1.5743,0,0,1,.3912-.1236l.0365-.4208a.0225.0225,0,0,1,.008-.0155.0235.0235,0,0,1,.0166-.0053l.7755.0671a.0234.0234,0,0,1,.0155.0081.0227.0227,0,0,1,.0052.0166l-.0364.4209a1.5708,1.5708,0,0,1,.3642.189l.3242-.2726a.0235.0235,0,0,1,.0165-.0052.0222.0222,0,0,1,.0155.0081l.501.5958a.0228.0228,0,0,1-.0029.0321l-.3241.2725a1.585,1.585,0,0,1,.1237.3913l.4208.0364a.0228.0228,0,0,1,.0207.0246l-.0672.7755a.0224.0224,0,0,1-.0081.0155.0235.0235,0,0,1-.0166.0052l-.4208-.0364a1.5726,1.5726,0,0,1-.189.3642l.2642.3144a.0218.0218,0,0,1,.0053.0166.0224.0224,0,0,1-.008.0154l-.5959.5009a.0227.0227,0,0,1-.0321-.0028l-.2643-.3143a1.5778,1.5778,0,0,1-.3911.1236l-.0365.4208a.0227.0227,0,0,1-.0227.0208l-.002,0m.4759-.6079.2609.31.561-.4715-.261-.31a.0227.0227,0,0,1-.001-.0279,1.5327,1.5327,0,0,0,.1993-.3839.0226.0226,0,0,1,.0234-.0151l.4156.036.0633-.73-.4157-.036a.0228.0228,0,0,1-.02-.0189,1.5305,1.5305,0,0,0-.13-.4124.0229.0229,0,0,1,.0059-.0273l.32-.2692-.4714-.561-.32.2692a.0226.0226,0,0,1-.0279.0011,1.5327,1.5327,0,0,0-.3839-.1993.0229.0229,0,0,1-.0151-.0235l.036-.4156-.73-.0633-.036.4157a.0226.0226,0,0,1-.019.02,1.53,1.53,0,0,0-.4123.13.0229.0229,0,0,1-.0274-.0059l-.2692-.32-.5609.4715.2692.32a.0228.0228,0,0,1,.0011.0279,1.5289,1.5289,0,0,0-.1993.3838.022.022,0,0,1-.0234.0152l-.4157-.036-.0633.73.4157.036a.0227.0227,0,0,1,.02.0189,1.5331,1.5331,0,0,0,.13.4124.0226.0226,0,0,1-.0058.0273l-.31.261.4715.5609.31-.2609a.0228.0228,0,0,1,.028-.0011,1.5323,1.5323,0,0,0,.3838.1993.0229.0229,0,0,1,.0152.0235l-.0361.4156.73.0632.0361-.4156a.0227.0227,0,0,1,.019-.0206,1.5309,1.5309,0,0,0,.4123-.13l.01-.0023a.0229.0229,0,0,1,.0175.0082"/><path class="cls-3" d="M26.4161,74.7058h.329l-.2641.2641a.0228.0228,0,0,0,.0323.0322l.2962-.2963h.3783l-.264.2641a.0228.0228,0,0,0,.0161.0389.0223.0223,0,0,0,.0161-.0067l.2963-.2963h.42l-.264.2641a.0228.0228,0,0,0,0,.0322.0223.0223,0,0,0,.016.0067.0227.0227,0,0,0,.0162-.0067l.2962-.2963h.4307l-.2641.2641a.0228.0228,0,0,0,0,.0322.0225.0225,0,0,0,.0161.0067.0229.0229,0,0,0,.0162-.0067l.2962-.2963h.3675l-.264.2641a.0229.0229,0,0,0,0,.0322.0228.0228,0,0,0,.0323,0l.2962-.2963h.3745a.0228.0228,0,1,0,0-.0455h-.3289l.28-.28h.3745a.0228.0228,0,1,0,0-.0456h-.329l.1422-.1421c.07.0042.1387.0067.2074.0067.0912,0,.1816-.0038.27-.0113a3.35,3.35,0,0,0,1.4872-.5022l.0111-.0046.0013-.0031a3.87,3.87,0,0,0,1.74-2.7.0228.0228,0,0,0-.045-.0077,2.8482,2.8482,0,0,1-2.7192,2.13c-.115.0079-.2357.0145-.3694.02-.1772.0074-.3469.0113-.5049.0108-.16,0-.3188-.0041-.4715-.0116a4.8014,4.8014,0,0,1-1.7787-.3663c-.3554-.1718-.5511-.3874-.5511-.6071a.0229.0229,0,0,0-.0226-.0228h0a.0229.0229,0,0,0-.0229.0223l-.0076.4091a.0232.0232,0,0,0,.0041.0133,3.894,3.894,0,0,0,.5949.68l0,.0009.0014.0005a3.8029,3.8029,0,0,0,.6981.5008l-.2849.2849H27.04a.0228.0228,0,1,0,0,.0455h.3289l-.2531.2532h-.3746a.0228.0228,0,1,0,0,.0456h.329l-.28.28h-.3745a.0228.0228,0,1,0,0,.0455m.8819-.0455.28-.28h.42l-.28.28Zm.7407-.7409c.097.0414.1983.0786.3065.1134l-.0034.0034h-.42Zm.4391.1623a.0226.0226,0,0,0,.0142-.0058c.0826.0227.1649.0428.2464.0588l-.2.2h-.4307l.2533-.2532Zm-.1816,0-.2531.2532h-.42l.2531-.2532Zm-.5141.5786.28-.28h.4306l-.28.28Zm.8626,0h-.3676l.28-.28h.3676Zm-.0423-.3254.19-.1894c.1113.02.22.0336.3253.0422l-.1472.1472Zm1.0481-.1921a3.2567,3.2567,0,0,1-.4814.0041,3.3026,3.3026,0,0,1-.3809-.0481h0a3.4216,3.4216,0,0,1-.3941-.0976,3.4619,3.4619,0,0,1-.3516-.1294v0c-.0947-.0409-.1912-.0885-.2948-.1451a3.7473,3.7473,0,0,1-.6956-.4928.1671.1671,0,0,1,.1987-.0291h0a3.9192,3.9192,0,0,0,2.142.484,7.7366,7.7366,0,0,0,1.282-.1125l.0023-.0014.0039-.0006a.3906.3906,0,0,1,.4162.0861,3.3016,3.3016,0,0,1-1.4467.4825m3.1241-2.799a3.81,3.81,0,0,1-1.6372,2.2913.442.442,0,0,0-.4607-.1082.7312.7312,0,0,1-.1748-.4237,2.8637,2.8637,0,0,0,2.2727-1.7594m-2.6417,1.8027c.1124-.0079.22-.02.3237-.0356a.7774.7774,0,0,0,.1689.4269,4.8871,4.8871,0,0,1-3.3279-.3569.45.45,0,0,0,.0958-.23,5.8652,5.8652,0,0,0,1.3884.2149c.1535.0076.3128.0115.4736.0118h.0134c.1547,0,.3207-.0037.4935-.0109.1341-.0057.2553-.0123.3706-.02m-3.6862-.5975.004-.2158a1.4009,1.4009,0,0,0,.898.6041.4018.4018,0,0,1-.09.22.2171.2171,0,0,0-.2414.0453,3.8487,3.8487,0,0,1-.5709-.654m1.2942,1.2255c.0883.0478.1716.0888.2531.1252l-.1365.1365h-.3783Zm-.3073.3072h.3783l-.2531.2532h-.3783Zm-.2988.2988h.3784l-.28.28h-.3784Z"/><path class="cls-3" d="M32.096,74.9915c-.197.0192-.3194.2307-.4379.4351-.1123.1937-.2183.3768-.3725.3772h0c-.1569,0-.2724-.195-.384-.3835-.1192-.2011-.2423-.409-.4278-.4091h0c-.1865,0-.311.21-.4313.4123-.111.1871-.2258.38-.3781.38h-.0026c-.1574-.0022-.2705-.2081-.38-.4072-.1145-.2083-.2327-.4236-.4128-.425h-.0018c-.1789,0-.2991.213-.4153.4191-.1138.2017-.2314.41-.396.4131h-.0035c-.155,0-.2659-.1812-.3832-.3731-.1263-.2067-.257-.42-.4629-.4392-.2492-.0225-.5171.2468-.8149.8246a.0228.0228,0,1,0,.0405.0209c.2844-.5517.5437-.8209.77-.8.1831.0166.3077.2205.4282.4175.1241.2031.2416.395.4217.395h.0047c.1905-.0035.3147-.2235.4348-.4363.1149-.2036.2234-.396.3756-.396h.0014c.1533.0013.2651.2047.3733.4014.1156.2106.2353.4283.4192.4309h.0034c.178,0,.2995-.2046.4171-.4026.1139-.1918.2316-.39.3921-.39h0c.16,0,.2759.1967.3885.3868.1182.2.24.4059.4233.4059h.0007c.18-.0005.2927-.1945.4118-.4.1127-.1945.2292-.3956.4028-.4125.2152-.0226.4694.2479.75.8a.0227.0227,0,1,0,.04-.0206c-.2942-.5786-.5548-.8481-.7952-.8248"/><path class="cls-3" d="M32.0429,74.1747c-.2018.0227-.3271.2227-.4482.4161-.1133.1812-.2205.3523-.3756.3523H31.218c-.1533-.0008-.2579-.1676-.3687-.3442-.1177-.1879-.2395-.382-.437-.4045-.2429-.0283-.515.2216-.8107.74a.0228.0228,0,0,0,.04.0226c.2859-.5017.5436-.7432.766-.7178.1757.02.2916.2047.4035.3834.1176.1876.2287.3647.407.3656h.0015c.18,0,.2939-.1815.4142-.3737.1154-.1842.2346-.3747.4146-.395.2315-.0274.5018.2353.8054.7768a.0227.0227,0,0,0,.02.0116l.0111-.0029a.0228.0228,0,0,0,.0087-.031c-.3178-.5668-.5961-.8275-.85-.8"/><path class="cls-3" d="M29.2478,70.2121a.0227.0227,0,0,0,.032,0l.8448-.8448a.0228.0228,0,0,0-.0323-.0322l-.8287.8287L28.397,69.31a.0228.0228,0,0,0-.032.0325Z"/><path class="cls-3" d="M29.757,70.0529a.0228.0228,0,0,0,0,.0322l.8827.87a.0228.0228,0,0,0,.0321,0l.8446-.8446a.0227.0227,0,1,0-.0321-.0322l-.8287.8286-.8667-.8539a.0228.0228,0,0,0-.0322,0"/><path class="cls-3" d="M38.3146,70.9185H35.9087v-.3744h2.0046a.0228.0228,0,0,0,0-.0456H35.9087V70.124h1.6859a.0228.0228,0,0,0,0-.0456H35.9087v-.3438h1.3777a.0228.0228,0,1,0,0-.0455H35.9087v-.34h.5221a.0228.0228,0,0,0,0-.0456h-.9316a.0228.0228,0,0,0,0,.0456h.3639v.34h-.704a.0228.0228,0,1,0,0,.0455h.704v.3438H34.8a.0228.0228,0,1,0,0,.0456h1.0636v.3745H34.5322a.0228.0228,0,1,0,0,.0456h1.3309v.3744H33.9652a.0229.0229,0,0,0,0,.0457h1.8979v.37H33.9652a.0228.0228,0,0,0,0,.0455h1.8979v.3653H34.27a.0228.0228,0,0,0,0,.0456h1.5933v.34H34.8a.0228.0228,0,0,0,0,.0456h1.0636v3.6706a.0228.0228,0,0,0,.0227.0228h.3136a.0227.0227,0,0,0,.0227-.0228V72.9345a.0228.0228,0,1,0-.0455,0v2.8893h-.2679V72.176h.83a.0228.0228,0,1,0,0-.0456h-.83v-.34h1.1187a.0228.0228,0,1,0,0-.0456H35.9087V71.38h1.9979a.0228.0228,0,0,0,0-.0455H35.9087v-.37h2.4059a.0229.0229,0,0,0,0-.0457"/></svg>