<svg xmlns="http://www.w3.org/2000/svg" xmlns:xlink="http://www.w3.org/1999/xlink" width="85.5" height="97.5" viewBox="0 0 85.5 97.5"><defs><style>.cls-1,.cls-6{fill:#fff;}.cls-2{fill:none;}.cls-10,.cls-11,.cls-2,.cls-9{stroke:#fff;stroke-miterlimit:10;stroke-width:0.985px;}.cls-3{isolation:isolate;}.cls-4{fill:#a4a3a3;}.cls-5{clip-path:url(#clip-path);}.cls-6,.cls-7,.cls-9{mix-blend-mode:multiply;}.cls-8{clip-path:url(#clip-path-2);}.cls-9{fill:url(#radial-gradient);}.cls-10{fill:#f1f1f1;}.cls-11{fill:#0971b7;}</style><clipPath id="clip-path"><path class="cls-1" d="M61.3857,38.7424c.215-5.1452-12.1026-7.6513-12.6361-8.2368-.2662-.2927.6166-7.86-6.0646-7.8555-6.68-.0044-5.7984,7.5628-6.0634,7.8555-.5346.5855-12.8523,3.0916-12.6361,8.2368s6.7532,2.5041,8.146,4.0189c1.22,1.324-5.7142,9.8116-6.4916,15.2007-.2539,1.7544.2408,2.096,1.9484,2.096,3.0949,0,6.0525-.0023,8.7725-.0023,1.23,0,1.6679-.7074,2.3011-1.681,1.4039-2.1536,3.1006-5.62,4.0231-5.62s2.6192,3.4663,4.0232,5.62c.6354.9736,1.0712,1.6787,2.3021,1.6787,2.7212,0,5.6765.0046,8.7726.0046,1.7065,0,2.2-.3416,1.9472-2.096-.7763-5.3891-7.71-13.8767-6.4916-15.2007C54.6334,41.2465,61.17,43.8879,61.3857,38.7424Z"/></clipPath><clipPath id="clip-path-2"><path class="cls-2" d="M61.3857,38.7424c.215-5.1452-12.1026-7.6513-12.6361-8.2368-.2662-.2927.6166-7.86-6.0646-7.8555-6.68-.0044-5.7984,7.5628-6.0634,7.8555-.5346.5855-12.8523,3.0916-12.6361,8.2368s6.7532,2.5041,8.146,4.0189c1.22,1.324-5.7142,9.8116-6.4916,15.2007-.2539,1.7544.2408,2.096,1.9484,2.096,3.0949,0,6.0525-.0023,8.7725-.0023,1.23,0,1.6679-.7074,2.3011-1.681,1.4039-2.1536,3.1006-5.62,4.0231-5.62s2.6192,3.4663,4.0232,5.62c.6354.9736,1.0712,1.6787,2.3021,1.6787,2.7212,0,5.6765.0046,8.7726.0046,1.7065,0,2.2-.3416,1.9472-2.096-.7763-5.3891-7.71-13.8767-6.4916-15.2007C54.6334,41.2465,61.17,43.8879,61.3857,38.7424Z"/></clipPath><radialGradient id="radial-gradient" cx="330.4941" cy="113.1827" r="71.573" gradientTransform="matrix(0.9877, -0.2565, 0.2329, 0.8967, -293.5357, 47.7113)" gradientUnits="userSpaceOnUse"><stop offset="0.2182" stop-color="#2761aa"/><stop offset="0.3087" stop-color="#367cbd"/><stop offset="0.4788" stop-color="#56b7e8"/><stop offset="0.4953" stop-color="#60bbe9"/><stop offset="0.5851" stop-color="#90d0f0"/><stop offset="0.6744" stop-color="#b8e1f5"/><stop offset="0.7617" stop-color="#d7eefa"/><stop offset="0.8463" stop-color="#edf7fd"/><stop offset="0.9271" stop-color="#fafdfe"/><stop offset="1" stop-color="#fff"/></radialGradient></defs><g class="cls-3"><g id="Layer_1" data-name="Layer 1"><polygon class="cls-4" points="1.015 24.353 1.015 72.746 42.924 96.942 84.834 72.746 84.834 24.353 42.924 0.157 1.015 24.353"/><path class="cls-1" d="M61.3857,38.7424c.215-5.1452-12.1026-7.6513-12.6361-8.2368-.2662-.2927.6166-7.86-6.0646-7.8555-6.68-.0044-5.7984,7.5628-6.0634,7.8555-.5346.5855-12.8523,3.0916-12.6361,8.2368s6.7532,2.5041,8.146,4.0189c1.22,1.324-5.7142,9.8116-6.4916,15.2007-.2539,1.7544.2408,2.096,1.9484,2.096,3.0949,0,6.0525-.0023,8.7725-.0023,1.23,0,1.6679-.7074,2.3011-1.681,1.4039-2.1536,3.1006-5.62,4.0231-5.62s2.6192,3.4663,4.0232,5.62c.6354.9736,1.0712,1.6787,2.3021,1.6787,2.7212,0,5.6765.0046,8.7726.0046,1.7065,0,2.2-.3416,1.9472-2.096-.7763-5.3891-7.71-13.8767-6.4916-15.2007C54.6334,41.2465,61.17,43.8879,61.3857,38.7424Z"/><g class="cls-5"><path class="cls-6" d="M31.0992,69.1074l.01-.0027c-.1953-1.1709,5.7-1.0748,5.2135-2.2559-2.7592-6.7028-1.4211-18.8436,7.09-24.4444,8.54-5.609,17.9829-6.2707,24.8836-3.4526.1671.0684.3259.1475.49.22l-.4991-1.922a57.1425,57.1425,0,0,0-51.7022-3.0231l9.004,34.67a16.9848,16.9848,0,0,1,2.7395-.1558A14.0109,14.0109,0,0,1,31.0992,69.1074Z"/><g class="cls-7"><path class="cls-1" d="M14.8579,27.5766,21.275,52.2859c5.7032,1.7791,7.5443,2.625,11.183,7.1993,1.5783,1.9842,3.09,4.8186,2.5405,7.478l38.69-8.9164L62.9,16.5052c-.8282-.2688-1.6561-.52-2.4835-.76Z"/></g><g class="cls-7"><path class="cls-1" d="M51.6572,18.02l-36.7993,9.557L24.707,65.5009a21.25,21.25,0,0,1,15.0977,1.3456l33.8835-8.8-8.66-33.3452A74.4175,74.4175,0,0,0,51.6572,18.02Z"/></g></g><path class="cls-1" d="M14.4609,64.3458h2.723a2.674,2.674,0,0,1,.8368.111,1.3816,1.3816,0,0,1,.5453.3267,1.0451,1.0451,0,0,1,.2152.3195,1.066,1.066,0,0,1,.0835.4376v.0136a1.0252,1.0252,0,0,1-.2362.705,1.47,1.47,0,0,1-.6322.4064,1.7843,1.7843,0,0,1,.7552.41,1.0245,1.0245,0,0,1,.28.7711v.014a1.2282,1.2282,0,0,1-.1184.5381,1.173,1.173,0,0,1-.3547.4271,1.7462,1.7462,0,0,1-.5878.2813,2.9391,2.9391,0,0,1-.81.1009H14.4609Zm2.2923,1.91q.5138,0,.5139-.3334v-.014q0-.333-.5209-.3334h-.7015v.6808Zm.1042,1.7224a.6824.6824,0,0,0,.3993-.097.302.302,0,0,0,.1354-.2572V67.61a.3045.3045,0,0,0-.132-.2572.6653.6653,0,0,0-.3959-.097h-.82v.722Z"/><path class="cls-1" d="M21.9136,69.312a2.77,2.77,0,0,1-1.0453-.1945,2.6337,2.6337,0,0,1-.84-.5347,2.4558,2.4558,0,0,1-.7605-1.7922v-.014a2.4127,2.4127,0,0,1,.2049-.99,2.5259,2.5259,0,0,1,.5626-.8054,2.6423,2.6423,0,0,1,.8438-.542,2.893,2.893,0,0,1,2.0942-.0033,2.639,2.639,0,0,1,.8406.5347,2.4574,2.4574,0,0,1,.7605,1.7922v.0136a2.4144,2.4144,0,0,1-.205.99,2.5244,2.5244,0,0,1-.5627.8059,2.646,2.646,0,0,1-.8438.5419A2.7577,2.7577,0,0,1,21.9136,69.312Zm.014-1.4376a.9428.9428,0,0,0,.4167-.0907.9907.9907,0,0,0,.3195-.2394,1.0428,1.0428,0,0,0,.2014-.344,1.21,1.21,0,0,0,.0695-.41v-.014a1.19,1.19,0,0,0-.0728-.4131,1.1387,1.1387,0,0,0-.2051-.3509.9843.9843,0,0,0-.32-.2432.9715.9715,0,0,0-.4237-.09.9551.9551,0,0,0-.4167.09,1.0075,1.0075,0,0,0-.32.24,1.0468,1.0468,0,0,0-.2014.3437,1.21,1.21,0,0,0-.0695.41v.0136a1.1839,1.1839,0,0,0,.0731.4135,1.1276,1.1276,0,0,0,.2048.3508.9709.9709,0,0,0,.32.2428A.959.959,0,0,0,21.9276,67.8744Z"/><path class="cls-1" d="M26.7133,64.3111h1.6113l2.049,4.8967H28.6093l-.2571-.653H26.6506l-.25.653H24.6643ZM27.95,67.4019l-.4448-1.1808L27.06,67.4019Z"/><path class="cls-1" d="M30.5749,64.3458H32.95a3.2691,3.2691,0,0,1,1.0733.1491,1.793,1.793,0,0,1,.6771.4064,1.4826,1.4826,0,0,1,.3334.5,1.7484,1.7484,0,0,1,.111.6529v.0135a1.5389,1.5389,0,0,1-.2567.9029,1.78,1.78,0,0,1-.7017.5835l1.1321,1.6533H33.4641l-.9169-1.3894H32.2v1.3894H30.5749Zm2.3265,2.313a.7509.7509,0,0,0,.4585-.125.41.41,0,0,0,.1669-.3474v-.014a.3969.3969,0,0,0-.1669-.3509.7861.7861,0,0,0-.4513-.1143H32.2v.9516Z"/><path class="cls-1" d="M35.5411,64.3458h1.8613a4.262,4.262,0,0,1,1.2677.17,2.5006,2.5006,0,0,1,.9063.4826,1.9777,1.9777,0,0,1,.5419.7538,2.5724,2.5724,0,0,1,.1805.9825v.014a2.6031,2.6031,0,0,1-.1843.9932,2.0486,2.0486,0,0,1-.5555.7779,2.6055,2.6055,0,0,1-.9236.5072,4.1561,4.1561,0,0,1-1.2885.1805H35.5411Zm1.896,3.4451a1.4889,1.4889,0,0,0,.8923-.24.8838.8838,0,0,0,.33-.7673V66.77a.8843.8843,0,0,0-.33-.7673,1.4882,1.4882,0,0,0-.8923-.24h-.2707v2.0282Z"/><path class="cls-1" d="M43.3617,69.312a3.0969,3.0969,0,0,1-1.066-.18,2.6341,2.6341,0,0,1-.8686-.514,2.3982,2.3982,0,0,1-.5834-.7991,2.4535,2.4535,0,0,1-.2119-1.0278v-.014a2.51,2.51,0,0,1,.2017-1.0072,2.4032,2.4032,0,0,1,.5627-.8054,2.6086,2.6086,0,0,1,.8508-.5313,2.9017,2.9017,0,0,1,1.066-.1911,3.1307,3.1307,0,0,1,1.1355.1945,2.97,2.97,0,0,1,.8995.5419l-.91,1.0973a2.0358,2.0358,0,0,0-.5071-.3126,1.45,1.45,0,0,0-.5695-.1111,1.0921,1.0921,0,0,0-.4377.0869,1.048,1.048,0,0,0-.3474.2394,1.0739,1.0739,0,0,0-.2254.3614,1.2673,1.2673,0,0,0-.08.4585v.0135a1.2456,1.2456,0,0,0,.0869.4724,1.0857,1.0857,0,0,0,.24.3682,1.0548,1.0548,0,0,0,.3644.236,1.2725,1.2725,0,0,0,.469.0835,1.5851,1.5851,0,0,0,.3335-.028.7874.7874,0,0,0,.222-.083V67.374h-.8334V66.3393h2.3545v2.2452a3.2308,3.2308,0,0,1-.9377.5267A3.4562,3.4562,0,0,1,43.3617,69.312Z"/><path class="cls-1" d="M47.6754,64.3111h1.6113l2.0491,4.8967H49.5715l-.2572-.653H47.6127l-.25.653H45.6264Zm1.2364,3.0908-.4449-1.1808-.4445,1.1808Z"/><path class="cls-1" d="M51.537,64.3458h1.6948l1.0419,1.7088,1.0414-1.7088H57.01v4.862H55.3918v-2.41L54.27,68.5269h-.0276L53.12,66.7978v2.41H51.537Z"/><path class="cls-1" d="M57.5658,64.3458h4.1464v1.3334h-2.549v.4932h2.3752v1.174H59.1632v.528h2.5837v1.3334H57.5658Z"/><path class="cls-1" d="M62.1846,64.3458H64.56a3.2691,3.2691,0,0,1,1.0733.1491,1.793,1.793,0,0,1,.6771.4064,1.4826,1.4826,0,0,1,.3334.5,1.75,1.75,0,0,1,.111.6529v.0135a1.5382,1.5382,0,0,1-.2568.9029,1.7786,1.7786,0,0,1-.7016.5835l1.1321,1.6533H65.0738l-.9169-1.3894H63.81v1.3894H62.1846Zm2.3265,2.313a.7509.7509,0,0,0,.4585-.125.41.41,0,0,0,.1669-.3474v-.014a.3969.3969,0,0,0-.1669-.3509.7861.7861,0,0,0-.4513-.1143H63.81v.9516Z"/><path class="cls-1" d="M69.2413,69.298a4.5384,4.5384,0,0,1-1.3855-.2046,3.062,3.062,0,0,1-1.108-.6148l.8682-1.0351a2.5858,2.5858,0,0,0,.8334.4377,2.9921,2.9921,0,0,0,.8682.1317.6753.6753,0,0,0,.3194-.0555.1693.1693,0,0,0,.0975-.1525v-.014q0-.1042-.1424-.1737a2.4813,2.4813,0,0,0-.5313-.1458q-.41-.0833-.7813-.1944a2.7233,2.7233,0,0,1-.6529-.2848,1.3859,1.3859,0,0,1-.4483-.4343,1.1826,1.1826,0,0,1-.1665-.65v-.0136a1.5394,1.5394,0,0,1,.1356-.6461,1.4809,1.4809,0,0,1,.3957-.5207,1.874,1.874,0,0,1,.6457-.3475,2.8717,2.8717,0,0,1,.886-.1249,4.1574,4.1574,0,0,1,1.24.1665,2.9684,2.9684,0,0,1,.9551.5L70.4777,66.02a2.4355,2.4355,0,0,0-.733-.3648,2.5561,2.5561,0,0,0-.7258-.1144.5052.5052,0,0,0-.2674.0555.1676.1676,0,0,0-.0868.1458v.014a.16.16,0,0,0,.0279.09.2657.2657,0,0,0,.1009.08.9869.9869,0,0,0,.1978.0729q.1252.035.32.0694a7.2186,7.2186,0,0,1,.8474.2017,2.4931,2.4931,0,0,1,.6563.3021,1.3487,1.3487,0,0,1,.4237.4411,1.2237,1.2237,0,0,1,.1491.625v.0139a1.5188,1.5188,0,0,1-.1525.6877,1.4725,1.4725,0,0,1-.4309.5173,2.0253,2.0253,0,0,1-.6771.3267A3.2076,3.2076,0,0,1,69.2413,69.298Z"/><path class="cls-1" d="M25.3258,70.8636h1.8615a4.2616,4.2616,0,0,1,1.2675.17,2.5,2.5,0,0,1,.9065.4826,1.972,1.972,0,0,1,.5417.7538,2.572,2.572,0,0,1,.1807.9825v.014A2.6073,2.6073,0,0,1,29.9,74.26a2.0523,2.0523,0,0,1-.5557.7779,2.6045,2.6045,0,0,1-.9236.5071,4.1531,4.1531,0,0,1-1.2885.18h-1.806Zm1.8963,3.4451a1.49,1.49,0,0,0,.8925-.24.884.884,0,0,0,.33-.7674v-.0139a.8844.8844,0,0,0-.33-.7674,1.49,1.49,0,0,0-.8925-.24h-.271v2.0283Z"/><path class="cls-1" d="M30.528,70.8636h4.1469V72.197H32.1255V72.69H34.501v1.1741H32.1255v.5279H34.71v1.3334H30.528Z"/><path class="cls-1" d="M36.9112,70.8636h1.6253v3.4726h2.285v1.3893h-3.91Z"/><path class="cls-1" d="M41.1758,70.8636h4.1463V72.197h-2.549V72.69h2.3753v1.1741H42.7731v.5279h2.5837v1.3334h-4.181Z"/><path class="cls-1" d="M45.8089,70.8636h1.6249v4.8619H45.8089Z"/><path class="cls-1" d="M48.0033,70.8636h2.3752a3.268,3.268,0,0,1,1.0732.1491,1.7934,1.7934,0,0,1,.6771.4063,1.4839,1.4839,0,0,1,.3335.5,1.7513,1.7513,0,0,1,.111.653v.0135a1.5382,1.5382,0,0,1-.2568.9029,1.7808,1.7808,0,0,1-.7016.5835l1.1321,1.6532H50.8925l-.9169-1.3893h-.347v1.3893H48.0033Zm2.3265,2.313a.7506.7506,0,0,0,.4584-.125.4094.4094,0,0,0,.167-.3475V72.69a.3967.3967,0,0,0-.167-.3508.7858.7858,0,0,0-.4512-.1144h-.7084v.9517Z"/><path class="cls-1" d="M52.9834,70.8636h1.6249v4.8619H52.9834Z"/><path class="cls-1" d="M56.873,70.8288h1.6113l2.049,4.8967H58.769l-.2571-.6529H56.81l-.25.6529H54.824ZM58.1093,73.92l-.4448-1.1808L57.22,73.92Z"/><g class="cls-8"><path class="cls-9" d="M31.0992,69.1074l.01-.0027c-.1953-1.1709,5.7-1.0748,5.2135-2.2559-2.7592-6.7028-1.4211-18.8436,7.09-24.4444,8.54-5.609,17.9829-6.2707,24.8836-3.4526.1671.0684.3259.1475.49.22l-.4991-1.922a57.1425,57.1425,0,0,0-51.7022-3.0231l9.004,34.67a16.9848,16.9848,0,0,1,2.7395-.1558A14.0109,14.0109,0,0,1,31.0992,69.1074Z"/><g class="cls-7"><path class="cls-10" d="M14.8579,27.5766,21.275,52.2859c5.7032,1.7791,7.5443,2.625,11.183,7.1993,1.5783,1.9842,3.09,4.8186,2.5405,7.478l38.69-8.9164L62.9,16.5052c-.8282-.2688-1.6561-.52-2.4835-.76Z"/></g><g class="cls-7"><path class="cls-11" d="M51.6572,18.02l-36.7993,9.557L24.707,65.5009a21.25,21.25,0,0,1,15.0977,1.3456l33.8835-8.8-8.66-33.3452A74.4175,74.4175,0,0,0,51.6572,18.02Z"/></g></g><path class="cls-2" d="M61.3857,38.7424c.215-5.1452-12.1026-7.6513-12.6361-8.2368-.2662-.2927.6166-7.86-6.0646-7.8555-6.68-.0044-5.7984,7.5628-6.0634,7.8555-.5346.5855-12.8523,3.0916-12.6361,8.2368s6.7532,2.5041,8.146,4.0189c1.22,1.324-5.7142,9.8116-6.4916,15.2007-.2539,1.7544.2408,2.096,1.9484,2.096,3.0949,0,6.0525-.0023,8.7725-.0023,1.23,0,1.6679-.7074,2.3011-1.681,1.4039-2.1536,3.1006-5.62,4.0231-5.62s2.6192,3.4663,4.0232,5.62c.6354.9736,1.0712,1.6787,2.3021,1.6787,2.7212,0,5.6765.0046,8.7726.0046,1.7065,0,2.2-.3416,1.9472-2.096-.7763-5.3891-7.71-13.8767-6.4916-15.2007C54.6334,41.2465,61.17,43.8879,61.3857,38.7424Z"/><path class="cls-1" d="M34.9125,16.63l-.9957-.9759.285,1.3742-.15,1.2349L31.6,17.95l.17-1.222.6266-1.259-1.2315.6875-1.21.213-.4618-2.3878,1.2125-.2287,1.3969.1868L31.0581,13l-.5758-1.09,2.1259-1.1774.5847,1.0942.2648,1.383.5792-1.2731.8258-.9125L36.67,12.7l-.854.9076-1.2405.6372,1.3829.165,1.1278.5291-1.0512,2.218Z"/><path class="cls-1" d="M44.5412,16.63l-.9957-.9759.285,1.3742-.15,1.2349L41.2289,17.95l.17-1.222.6267-1.259-1.2316.6875-1.21.213-.4617-2.3878,1.2124-.2287,1.397.1868L40.6868,13l-.5757-1.09,2.1258-1.1774.5848,1.0942.2647,1.383.5793-1.2731.8258-.9125L46.2991,12.7l-.8539.9076-1.2406.6372,1.383.165,1.1277.5291-1.0512,2.218Z"/><path class="cls-1" d="M53.8711,16.63l-.9957-.9759.285,1.3742-.15,1.2349L50.5587,17.95l.17-1.222.6266-1.259-1.2315.6875-1.21.213-.4618-2.3878,1.2125-.2287,1.3969.1868L50.0167,13l-.5758-1.09,2.1259-1.1774.5847,1.0942.2648,1.383.5792-1.2731.8258-.9125L55.629,12.7l-.854.9076-1.24.6372,1.3829.165,1.1278.5291-1.0512,2.218Z"/><path class="cls-1" d="M27.8061,79.2376h.6427l.8171,1.9529h-.7036l-.1025-.26h-.6786l-.1.26H26.989Zm.4931,1.2326-.1773-.4708-.1773.4708Z"/><path class="cls-1" d="M30.6231,81.2264a1.8082,1.8082,0,0,1-.5526-.0817,1.218,1.218,0,0,1-.4418-.2451l.3462-.4127a1.029,1.029,0,0,0,.3324.1745,1.1974,1.1974,0,0,0,.3463.0526.2692.2692,0,0,0,.1274-.0222.0677.0677,0,0,0,.0388-.0609v-.0054c0-.0279-.019-.0509-.0568-.0694a.9932.9932,0,0,0-.2119-.0581q-.1635-.0333-.3116-.0777a1.0792,1.0792,0,0,1-.26-.1135.5546.5546,0,0,1-.1787-.1731.4715.4715,0,0,1-.0664-.259v-.0054a.6167.6167,0,0,1,.054-.2577.593.593,0,0,1,.1579-.2077.7416.7416,0,0,1,.2576-.1385,1.145,1.145,0,0,1,.3531-.05,1.65,1.65,0,0,1,.4945.0666,1.18,1.18,0,0,1,.3808.1993l-.3158.4376a.97.97,0,0,0-.2922-.1453,1.013,1.013,0,0,0-.2894-.0458.2005.2005,0,0,0-.1067.0223.0663.0663,0,0,0-.0346.058v.0056a.0637.0637,0,0,0,.0111.036.1059.1059,0,0,0,.04.0319.41.41,0,0,0,.079.029q.05.0138.1274.0278a2.8533,2.8533,0,0,1,.3379.08,1,1,0,0,1,.2618.1206.5389.5389,0,0,1,.169.1758.49.49,0,0,1,.0595.2493V80.57a.605.605,0,0,1-.0609.2742.5866.5866,0,0,1-.1717.2064.8066.8066,0,0,1-.27.13A1.2772,1.2772,0,0,1,30.6231,81.2264Z"/><path class="cls-1" d="M32.5675,79.8H31.997v-.5484h1.7893V79.8h-.5706v1.3906h-.6482Z"/><path class="cls-1" d="M34.3763,79.2515H36.03v.5319H35.0134V79.98h.9473v.4681h-.9473v.21h1.03v.5319H34.3763Z"/><path class="cls-1" d="M36.6614,79.2515h.9474a1.298,1.298,0,0,1,.4279.06.7148.7148,0,0,1,.27.1621.5933.5933,0,0,1,.1329.1994.7.7,0,0,1,.0444.26v.0056a.6135.6135,0,0,1-.1026.36.7077.7077,0,0,1-.28.2326l.4515.6594h-.74l-.3656-.554H37.31v.554h-.6482Zm.928.9223a.3.3,0,0,0,.1828-.05.1637.1637,0,0,0,.0665-.1386V79.98a.1579.1579,0,0,0-.0665-.14.3123.3123,0,0,0-.18-.0458H37.31v.3794Z"/><path class="cls-1" d="M39.0907,79.2515h.6481v1.939h-.6481Z"/><path class="cls-1" d="M41.2429,81.2264a1.8078,1.8078,0,0,1-.5526-.0817,1.2172,1.2172,0,0,1-.4418-.2451l.3462-.4127a1.029,1.029,0,0,0,.3324.1745,1.1974,1.1974,0,0,0,.3463.0526.27.27,0,0,0,.1274-.0222.0676.0676,0,0,0,.0387-.0609v-.0054c0-.0279-.0189-.0509-.0568-.0694a.9913.9913,0,0,0-.2119-.0581q-.1633-.0333-.3116-.0777a1.0785,1.0785,0,0,1-.26-.1135.5536.5536,0,0,1-.1787-.1731.4715.4715,0,0,1-.0665-.259v-.0054a.6182.6182,0,0,1,.054-.2577.5942.5942,0,0,1,.1579-.2077.7434.7434,0,0,1,.2576-.1385,1.1461,1.1461,0,0,1,.3532-.05,1.6492,1.6492,0,0,1,.4944.0666,1.1809,1.1809,0,0,1,.3809.1993l-.3158.4376a.9707.9707,0,0,0-.2922-.1453,1.0135,1.0135,0,0,0-.2894-.0458.2005.2005,0,0,0-.1067.0223.0663.0663,0,0,0-.0346.058v.0056a.0635.0635,0,0,0,.011.036.1063.1063,0,0,0,.04.0319.4091.4091,0,0,0,.0789.029c.0333.0092.0757.0185.1275.0278a2.858,2.858,0,0,1,.3379.08,1.0017,1.0017,0,0,1,.2618.1206.5375.5375,0,0,1,.1689.1758.4889.4889,0,0,1,.06.2493V80.57a.605.605,0,0,1-.061.2742.5866.5866,0,0,1-.1717.2064.8056.8056,0,0,1-.27.13A1.277,1.277,0,0,1,41.2429,81.2264Z"/><path class="cls-1" d="M43.6527,81.232a1.0283,1.0283,0,0,1-.3837-.0721.9757.9757,0,0,1-.32-.2049.9867.9867,0,0,1-.22-.3185,1.0058,1.0058,0,0,1-.0817-.41V80.221a1.0153,1.0153,0,0,1,.0789-.4016.9747.9747,0,0,1,.2188-.3214,1.01,1.01,0,0,1,.3283-.2118,1.0679,1.0679,0,0,1,.4044-.0762,1.0952,1.0952,0,0,1,.295.0374.9575.9575,0,0,1,.2437.1039.8743.8743,0,0,1,.194.1592,1.0745,1.0745,0,0,1,.1454.2035l-.5346.3131a.5288.5288,0,0,0-.1371-.17.3724.3724,0,0,0-.3643-.032.3426.3426,0,0,0-.1136.0915.4362.4362,0,0,0-.0733.1357.5041.5041,0,0,0-.0264.1634v.0056a.5427.5427,0,0,0,.0264.1731.4028.4028,0,0,0,.0747.1358.3454.3454,0,0,0,.115.0885.3342.3342,0,0,0,.1468.0318.34.34,0,0,0,.2216-.0677.6131.6131,0,0,0,.144-.1759l.5346.3018a1.2323,1.2323,0,0,1-.144.2037.8736.8736,0,0,1-.1953.1661.9985.9985,0,0,1-.2548.1123A1.1585,1.1585,0,0,1,43.6527,81.232Z"/><path class="cls-1" d="M46.1483,81.232a1.1066,1.1066,0,0,1-.4168-.0775,1.0489,1.0489,0,0,1-.3352-.2133.9781.9781,0,0,1-.3033-.7146V80.221a.9614.9614,0,0,1,.0817-.3947,1.0082,1.0082,0,0,1,.2244-.3214,1.0524,1.0524,0,0,1,.3365-.216,1.1539,1.1539,0,0,1,.8351-.0014,1.0507,1.0507,0,0,1,.3352.2133.9781.9781,0,0,1,.3033.7146v.0056a.9617.9617,0,0,1-.0817.3947,1.01,1.01,0,0,1-.2244.3214,1.0561,1.0561,0,0,1-.3365.2159A1.0993,1.0993,0,0,1,46.1483,81.232Zm.0056-.5734a.3785.3785,0,0,0,.1662-.036.398.398,0,0,0,.1274-.0956.4171.4171,0,0,0,.08-.137.4814.4814,0,0,0,.0277-.1634V80.221a.4723.4723,0,0,0-.0291-.1648.4479.4479,0,0,0-.0817-.14.3893.3893,0,0,0-.1274-.0969.3846.3846,0,0,0-.169-.036.3777.3777,0,0,0-.1661.036.4.4,0,0,0-.1275.0954.4173.4173,0,0,0-.08.1372.4818.4818,0,0,0-.0277.1634v.0056a.4727.4727,0,0,0,.0291.1648.45.45,0,0,0,.0817.14.381.381,0,0,0,.2964.1329Z"/><path class="cls-1" d="M48.6634,81.2264a1.8082,1.8082,0,0,1-.5526-.0817A1.218,1.218,0,0,1,47.669,80.9l.3462-.4127a1.029,1.029,0,0,0,.3324.1745,1.1974,1.1974,0,0,0,.3463.0526.27.27,0,0,0,.1274-.0222.0677.0677,0,0,0,.0388-.0609v-.0054c0-.0279-.019-.0509-.0568-.0694a.9932.9932,0,0,0-.2119-.0581q-.1635-.0333-.3116-.0777a1.0792,1.0792,0,0,1-.26-.1135.5536.5536,0,0,1-.1787-.1731.4715.4715,0,0,1-.0665-.259v-.0054a.6182.6182,0,0,1,.054-.2577.5945.5945,0,0,1,.158-.2077.7416.7416,0,0,1,.2576-.1385,1.145,1.145,0,0,1,.3531-.05,1.65,1.65,0,0,1,.4945.0666,1.1815,1.1815,0,0,1,.3808.1993l-.3158.4376a.97.97,0,0,0-.2922-.1453,1.0135,1.0135,0,0,0-.2894-.0458.2005.2005,0,0,0-.1067.0223.0663.0663,0,0,0-.0346.058v.0056a.0637.0637,0,0,0,.0111.036.1051.1051,0,0,0,.04.0319.4079.4079,0,0,0,.079.029q.05.0138.1274.0278a2.858,2.858,0,0,1,.3379.08,1,1,0,0,1,.2618.1206.5375.5375,0,0,1,.1689.1758.4889.4889,0,0,1,.06.2493V80.57a.6037.6037,0,0,1-.061.2742.5855.5855,0,0,1-.1717.2064.8056.8056,0,0,1-.27.13A1.277,1.277,0,0,1,48.6634,81.2264Z"/><path class="cls-1" d="M50.0705,80.5534h.6426v.6371h-.6426Z"/><path class="cls-1" d="M52.3474,81.232a1.1071,1.1071,0,0,1-.4169-.0775,1.0489,1.0489,0,0,1-.3352-.2133.9781.9781,0,0,1-.3033-.7146V80.221a.9614.9614,0,0,1,.0817-.3947,1.01,1.01,0,0,1,.2244-.3214,1.0546,1.0546,0,0,1,.3365-.216,1.1539,1.1539,0,0,1,.8351-.0014,1.0507,1.0507,0,0,1,.3352.2133.9781.9781,0,0,1,.3033.7146v.0056a.9617.9617,0,0,1-.0817.3947,1.0111,1.0111,0,0,1-.2243.3214,1.0576,1.0576,0,0,1-.3366.2159A1.0992,1.0992,0,0,1,52.3474,81.232Zm.0055-.5734a.3785.3785,0,0,0,.1662-.036.398.398,0,0,0,.1274-.0956.4153.4153,0,0,0,.08-.137.4814.4814,0,0,0,.0277-.1634V80.221a.4745.4745,0,0,0-.029-.1648.45.45,0,0,0-.0818-.14.3893.3893,0,0,0-.1274-.0969.3845.3845,0,0,0-.1689-.036.3778.3778,0,0,0-.1662.036.3982.3982,0,0,0-.1274.0954.4158.4158,0,0,0-.08.1372.4818.4818,0,0,0-.0277.1634v.0056a.4727.4727,0,0,0,.0291.1648.45.45,0,0,0,.0817.14.3893.3893,0,0,0,.1274.0969A.3849.3849,0,0,0,52.3529,80.6586Z"/><path class="cls-1" d="M54.0287,79.2515h.9473a1.2976,1.2976,0,0,1,.4279.06.7148.7148,0,0,1,.27.1621.5936.5936,0,0,1,.133.1994.7.7,0,0,1,.0443.26v.0056a.6134.6134,0,0,1-.1025.36.7081.7081,0,0,1-.28.2326l.4515.6594h-.74l-.3656-.554h-.1385v.554h-.6481Zm.9279.9223a.3.3,0,0,0,.1828-.05.1637.1637,0,0,0,.0665-.1386V79.98a.1579.1579,0,0,0-.0665-.14.312.312,0,0,0-.18-.0458h-.2826v.3794Z"/><path class="cls-1" d="M57.4966,81.232a1.2323,1.2323,0,0,1-.4252-.0721,1.047,1.047,0,0,1-.3463-.2049.9526.9526,0,0,1-.2326-.3185.9766.9766,0,0,1-.0845-.41V80.221a.9988.9988,0,0,1,.08-.4016.9616.9616,0,0,1,.2244-.3214,1.0392,1.0392,0,0,1,.3393-.2118,1.16,1.16,0,0,1,.4252-.0762,1.2517,1.2517,0,0,1,.4529.0775,1.1893,1.1893,0,0,1,.3587.2161l-.3629.4376a.8119.8119,0,0,0-.2022-.1247.582.582,0,0,0-.2271-.0443.4339.4339,0,0,0-.1745.0347.4156.4156,0,0,0-.1385.0956.4269.4269,0,0,0-.09.1439.5062.5062,0,0,0-.0319.1829v.0056a.4984.4984,0,0,0,.0346.1883.433.433,0,0,0,.0956.1468.4231.4231,0,0,0,.1454.0942.5059.5059,0,0,0,.187.0332.6432.6432,0,0,0,.1329-.011.3185.3185,0,0,0,.0887-.0333v-.1939h-.3324v-.4128h.939v.8954a1.2848,1.2848,0,0,1-.374.21A1.3773,1.3773,0,0,1,57.4966,81.232Z"/></g></g></svg>