<svg id="Layer_1" data-name="Layer 1" xmlns="http://www.w3.org/2000/svg" xmlns:xlink="http://www.w3.org/1999/xlink" width="85.5" height="97.5" viewBox="0 0 85.5 97.5"><defs><style>.cls-1{fill:none;}.cls-2{fill:url(#linear-gradient);}.cls-3,.cls-6{fill:#fff;}.cls-3,.cls-5{fill-rule:evenodd;}.cls-4,.cls-5{fill:#e2161b;}.cls-7{clip-path:url(#clip-path);}.cls-8{fill:#c01f21;}.cls-9{fill:#008d36;}</style><linearGradient id="linear-gradient" x1="-1.7012" y1="49.2988" x2="89.2988" y2="49.2988" gradientUnits="userSpaceOnUse"><stop offset="0" stop-color="#885da9"/><stop offset="0.4281" stop-color="#6c3796"/><stop offset="0.7826" stop-color="#5b1f8a"/><stop offset="1" stop-color="#541686"/></linearGradient><clipPath id="clip-path"><rect class="cls-1" x="-155.055" y="-6.4868" width="14.5181" height="101.7785" transform="translate(-192.1984 -103.3935) rotate(-90)"/></clipPath></defs><rect class="cls-2" x="-1.7012" y="-2.2012" width="91" height="103"/><path class="cls-3" d="M49.0237,32.02A13.8272,13.8272,0,1,1,62.8649,45.8524,13.8255,13.8255,0,0,1,49.0237,32.02Z"/><path class="cls-4" d="M49.7632,32.0828h0A13.056,13.056,0,0,1,62.8269,19.02h0A13.0624,13.0624,0,0,1,75.8863,32.0828h0A13.0676,13.0676,0,0,1,62.8269,45.1489h0A13.0555,13.0555,0,0,1,49.7632,32.0828Zm.4351,0h0a12.6273,12.6273,0,0,0,12.6286,12.63h0a12.6372,12.6372,0,0,0,12.6277-12.63h0A12.6442,12.6442,0,0,0,62.8269,19.4533h0a12.6343,12.6343,0,0,0-12.6286,12.63Z"/><path class="cls-4" d="M53.5084,32.02h0a9.341,9.341,0,0,1,9.3489-9.3521h.0076a9.3433,9.3433,0,0,1,9.3456,9.3463V32.02h0a9.35,9.35,0,0,1-9.3456,9.35h-.0076a9.3445,9.3445,0,0,1-9.3489-9.35Zm.4341,0h0a8.9051,8.9051,0,0,0,8.9148,8.9162h.0076A8.9155,8.9155,0,0,0,71.7735,32.02h0v-.0058a8.9239,8.9239,0,0,0-8.9086-8.9121h-.0076A8.9038,8.9038,0,0,0,53.9425,32.02Z"/><path class="cls-5" d="M62.8649,23.6865A8.3229,8.3229,0,0,0,59.3829,39.58v-.68s.0679-1.0926.1367-1.5263c0,0-.0688-.3329.3644-.4l.1881-.1532s.0213-.1011-.2746-.156h-.4631s-.1558-.0128-.2389-.2648l-1.6766-3.834s.3343-3.8249.37-4.162L59.285,26.88a4.526,4.526,0,0,1,1.7437.03,7.7248,7.7248,0,0,0,1.3555,0s.9129-.103.46.7251a2.5194,2.5194,0,0,1-2.2191,1.0789s-.8911-.2579-.62.1924a1.4982,1.4982,0,0,1-.1211.882,7.5867,7.5867,0,0,1,.5072.9509s.1207.28.5719-.0667a1.8693,1.8693,0,0,1,1.3779.6877,3.2842,3.2842,0,0,1,.2394,4.0159l.2465-.15a1.0427,1.0427,0,0,0,.26-.5911l-.0071.0223.0109-.0392a.0236.0236,0,0,1-.0038.0169.5877.5877,0,0,1,.5434-.22s-.6018-1.2072-.2195-1.8819a1.9944,1.9944,0,0,0,1.5318.1772s.5025-.072.684.0945a2.4545,2.4545,0,0,0,2.1488.0862s.6764-.4384.6084.3821c0,0-.9409,1.6145-1.2933,1.6145l-.0841.3087a3.7817,3.7817,0,0,1-.4826,1.0516s-.71.8424-1.3.8424a4.0742,4.0742,0,0,1,.3876,1.2035l.1572,1.5169a8.3236,8.3236,0,0,0-2.9035-16.124Zm.0954,2.7059c-1.5284.77-2.0855-.3562-2.0855-.3562l-.3477.3712c-.854.3045-.5895-.3363-.5895-.3363a1.9981,1.9981,0,0,1,1.0911-1.0245,5.0425,5.0425,0,0,1,1.3555-.2515c.1525,0,.9243.0342,1.01.5844A1.2292,1.2292,0,0,1,62.96,26.3924Zm.0153,3.9585c-1.0934-.1188-.7077-.8875-.5914-1.1217.1254-.2185.6607-1.1727.6607-1.1727.0789-.3037.3885-1.5971.3885-1.5971a.7669.7669,0,0,1,.92-.7412.5678.5678,0,0,1,.6041.3729,6.7344,6.7344,0,0,1,.2855,1.2126,1.8635,1.8635,0,0,1,0,.6,5.6076,5.6076,0,0,1-.6227,1.5116A1.8894,1.8894,0,0,1,62.9756,30.3509Zm1.58.7927c-.806-.2524-.1705-.9409-.0835-.9735.0987-.0223,1.2059-2.1136,1.2059-2.1136a.9161.9161,0,0,1,.3059-.4771c1.7916-.5289,1.6633,1.096,1.6633,1.096a15.21,15.21,0,0,1-1.3285,2.0125A1.4356,1.4356,0,0,1,64.5553,31.1436Zm3.5476.336a1.3414,1.3414,0,0,1-1.4491.47c-.79-.1491-.2883-.8748-.2883-.8748a18.3547,18.3547,0,0,0,1.4011-1.6969c.664-.4716,1.0326.3714,1.0326.3714A1.9461,1.9461,0,0,1,68.1029,31.48Z"/><path class="cls-5" d="M54.2275,38.4133l-.181-.2683a.7382.7382,0,0,0-.47-.337.61.61,0,0,0-.494.1159.64.64,0,0,0-.2659.408.7377.7377,0,0,0,.1686.502l.61.8172,1.59-1.1691-.35-.484Zm-.6688.5056-.12-.1361a.4373.4373,0,0,1-.086-.2341.3305.3305,0,0,1,.1021-.1525.2836.2836,0,0,1,.1686-.0339.4572.4572,0,0,1,.2009.1681l.085.1235Z"/><path class="cls-5" d="M53.6718,36.0183l-.35.0264-.2475-.6534.2645-.1952-.2189-.6132L51.524,36.0007l.2559.6127,2.1089-.0128Zm-1.5371.1106.5814-.47.172.42Z"/><path class="cls-5" d="M52.8881,33.0283l-.8056.0641v-.0641a.749.749,0,0,1,.0295-.1544.4624.4624,0,0,1,.15-.117l.5738-.3712L52.8031,31.7l-.5539.3268a1.0741,1.0741,0,0,0-.1145.0933.6784.6784,0,0,0-.1077.1185.6473.6473,0,0,0-.068.1468.501.501,0,0,0-.0812-.1976.73.73,0,0,0-.2185-.1905.8236.8236,0,0,0-.28-.0485.6753.6753,0,0,0-.3235.1169.37.37,0,0,0-.1487.25,1.1228,1.1228,0,0,0-.0151.4408l.0655,1.0214,1.9768-.1332Zm-1.5793.1157-.0176-.27c0-.117,0-.2033.0366-.2358a.1493.1493,0,0,1,.1425-.0715.1925.1925,0,0,1,.1258.0347.2482.2482,0,0,1,.0632.0862c.0166.086.0333.1356.0333.1648l.018.2544Z"/><polygon class="cls-5" points="51.524 30.008 52.985 30.32 53.119 29.714 51.659 29.416 51.793 28.791 51.309 28.692 50.917 30.523 51.406 30.62 51.524 30.008"/><polygon class="cls-5" points="53.879 27.635 52.083 26.796 51.809 27.346 53.624 28.187 53.879 27.635"/><path class="cls-5" d="M54.95,25.9063a1.5,1.5,0,0,0,.1753-.3137.7844.7844,0,0,0,.0461-.3251.8586.8586,0,0,0-.12-.338,1.7564,1.7564,0,0,0-.3548-.3552,1.3363,1.3363,0,0,0-.3344-.1967.8065.8065,0,0,0-.3534-.0518.7228.7228,0,0,0-.3173.082,1.4035,1.4035,0,0,0-.3381.3044l-.5367.7194,1.5788,1.2069Zm-1.3061-.8077a.4335.4335,0,0,1,.284-.2033.7041.7041,0,0,1,.4213.1848.8453.8453,0,0,1,.2356.2361.25.25,0,0,1,.0489.2046.7217.7217,0,0,1-.1411.234l-.0779.114-.8735-.6486Z"/><path class="cls-5" d="M56.6945,22.0227a1,1,0,0,0-.7713.2247.9246.9246,0,0,0-.2532,1.4251,1.2416,1.2416,0,0,0,.4365.4006.804.804,0,0,0,.4844.0677,1.2765,1.2765,0,0,0,.524-.2344.9727.9727,0,0,0,.3737-.4172.7843.7843,0,0,0,.0822-.4724,1.1473,1.1473,0,0,0-.2384-.5419A.9686.9686,0,0,0,56.6945,22.0227Zm.1439,1.5351a.4728.4728,0,0,1-.3253.0634.6926.6926,0,0,1-.3373-.2964.8145.8145,0,0,1-.1705-.4265.3714.3714,0,0,1,.1705-.2689.3815.3815,0,0,1,.3373-.0676.5974.5974,0,0,1,.3253.2686.7726.7726,0,0,1,.181.4389A.4566.4566,0,0,1,56.8384,23.5578Z"/><path class="cls-5" d="M62.2883,20.9376a3.3179,3.3179,0,0,0-.588-.142c-.1188,0-.1853-.01-.2147-.0454a.0878.0878,0,0,1-.0537-.0836.1256.1256,0,0,1,.0537-.1014.1975.1975,0,0,1,.1463-.062.2752.2752,0,0,1,.2042.048.2458.2458,0,0,1,.115.1831l.5728-.091a.6635.6635,0,0,0-.2679-.4324.92.92,0,0,0-.59-.0829,1.1765,1.1765,0,0,0-.4864.1171.6037.6037,0,0,0-.2556.2358.5167.5167,0,0,0-.0493.3045.3936.3936,0,0,0,.2023.3472,1.0812,1.0812,0,0,0,.589.204.6487.6487,0,0,1,.32.0852.1581.1581,0,0,1,.086.1314.3276.3276,0,0,1-.0475.1546.3788.3788,0,0,1-.2066.0677.3152.3152,0,0,1-.2826-.0846.5851.5851,0,0,1-.0874-.22l-.5866.082a.722.722,0,0,0,.2721.4861.9227.9227,0,0,0,.703.1188.8918.8918,0,0,0,.4655-.1188.5934.5934,0,0,0,.2878-.2638.6806.6806,0,0,0,.0679-.3537.7329.7329,0,0,0-.0992-.2892A.6557.6557,0,0,0,62.2883,20.9376Z"/><path class="cls-5" d="M65.0783,20.3a1.0092,1.0092,0,0,0-.7861.113,1.0405,1.0405,0,0,0-.4265.6866,1.3,1.3,0,0,0,.0342.608.6635.6635,0,0,0,.29.3854,1.0889,1.0889,0,0,0,.5139.2192,1.0762,1.0762,0,0,0,.5695-.019.7154.7154,0,0,0,.3895-.2707,1.1154,1.1154,0,0,0,.2351-.5348,1.0979,1.0979,0,0,0-.1173-.7887A1.1282,1.1282,0,0,0,65.0783,20.3Zm.0157,1.4938a.3527.3527,0,0,1-.3178.0636.3618.3618,0,0,1-.2726-.1807.6037.6037,0,0,1-.0318-.4574.7955.7955,0,0,1,.2042-.4073.4145.4145,0,0,1,.3182-.062.3352.3352,0,0,1,.266.1874.6226.6226,0,0,1,.0318.4149A.6526.6526,0,0,1,65.094,21.794Z"/><path class="cls-5" d="M68.9873,22.4749a.9865.9865,0,0,0-.0465-.5527,1.13,1.13,0,0,0-.4574-.3992.9842.9842,0,0,0-.7851-.1195,1.0043,1.0043,0,0,0-.5791.5385,1.3047,1.3047,0,0,0-.1633.61.9284.9284,0,0,0,.1633.4652,1.3644,1.3644,0,0,0,.4223.3154.9043.9043,0,0,0,.4227.1411.68.68,0,0,0,.37-.0518,1.3143,1.3143,0,0,0,.3206-.2693l-.389-.3872a.4924.4924,0,0,1-.2475.1848.3331.3331,0,0,1-.2883-.0351.3254.3254,0,0,1-.1881-.2335.7058.7058,0,0,1,.1192-.4531.8641.8641,0,0,1,.2542-.3059.3839.3839,0,0,1,.3737,0,.408.408,0,0,1,.1164.1171.2657.2657,0,0,1,.0622.1537.616.616,0,0,1-.0156.1529Z"/><polygon class="cls-5" points="70.467 22.898 69.137 24.378 69.607 24.784 70.938 23.325 70.467 22.898"/><path class="cls-5" d="M70.6483,25.92l.3211-.1138.4184.5671-.2184.2653.3885.5237L72.7154,25.38l-.3838-.53-2.05.5674Zm1.4473-.5028-.438.5927-.27-.3586Z"/><polygon class="cls-5" points="72.45 29.518 72.916 29.344 72.596 28.442 74.01 27.954 73.819 27.382 71.942 28.022 72.45 29.518"/><polygon class="cls-5" points="72.715 31.057 74.679 30.789 74.597 30.17 72.629 30.457 72.715 31.057"/><path class="cls-5" d="M74.6975,32.6706a.85.85,0,0,0-.1976-.2849.4176.4176,0,0,0-.2746-.1019.4968.4968,0,0,0-.4061.1346,1.4265,1.4265,0,0,0-.28.5543.771.771,0,0,1-.152.3.1761.1761,0,0,1-.1282.0511.19.19,0,0,1-.1425-.082.3462.3462,0,0,1-.0537-.203.3928.3928,0,0,1,.1581-.2655.3328.3328,0,0,1,.219-.0518l.0157-.5887a.8414.8414,0,0,0-.5187.1831,1.0129,1.0129,0,0,0-.2531.6775,1.5006,1.5006,0,0,0,.0318.4883.85.85,0,0,0,.2213.3144.6372.6372,0,0,0,.3515.1316.5342.5342,0,0,0,.3021-.0515.7019.7019,0,0,0,.2289-.2313,2.2475,2.2475,0,0,0,.2247-.5527c.0323-.12.0641-.1857.0978-.2016a.0631.0631,0,0,1,.0836-.0385.1054.1054,0,0,1,.1026.0544.1943.1943,0,0,1,.0333.1646.28.28,0,0,1-.0826.2016c-.0319.0511-.1.0677-.2024.09l-.0147.5647a.5458.5458,0,0,0,.47-.1969.9932.9932,0,0,0,.199-.5593A1.61,1.61,0,0,0,74.6975,32.6706Z"/><polygon class="cls-5" points="73.601 35.877 72.211 35.337 71.979 35.912 73.387 36.452 73.154 37.041 73.601 37.205 74.279 35.458 73.819 35.286 73.601 35.877"/><path class="cls-5" d="M71.1171,37.54l.2057.2679-.409.5726-.3087-.1126-.3928.5148,2.05.57.3838-.536-1.1546-1.7759Zm.9257,1.2259-.7091-.2356.2551-.3484Z"/><path class="cls-5" d="M62.037,39.69s-.0128.3686-.0541.8459a2.22,2.22,0,0,0,.2375.0167c-.0114-.282-.0157-.6047-.0157-.95C62.2047,39.6034,62.171,39.0529,62.037,39.69Z"/><path class="cls-5" d="M63.6785,38.3423s-.0731,1.3677-.2023,2.2106c.1344-.0086.2731-.0269.4028-.0437-.0019-.4166-.0148-1.2611-.03-2.2412C63.8486,38.268,63.8144,37.7289,63.6785,38.3423Z"/><path class="cls-6" d="M25.373,63.365c.1326.3983.1326.5306-.0228.6849a9.4259,9.4259,0,0,1-4.4191,1.0844c-4.3978,0-7.8-2.696-7.8-8.2233,0-5.5218,3.3809-8.2184,7.8-8.2184A9.416,9.416,0,0,1,25.35,49.777c.1554.1329.1554.2438.0228.5744l-.3553.93c-.11.1534-.3524.108-.5752.0427a14.2,14.2,0,0,0-3.5114-.5313c-2.6742,0-4.8818,1.6364-4.8818,6.1184,0,4.4862,2.2319,6.1227,4.8818,6.1227a14.1385,14.1385,0,0,0,3.5114-.5318c.2014-.0636.4651-.1113.5752.044Z"/><path class="cls-6" d="M20.9311,65.5926c-5.0932,0-8.26-3.3269-8.26-8.6816,0-5.352,3.1666-8.677,8.26-8.677a9.7971,9.7971,0,0,1,4.6875,1.17.8723.8723,0,0,1,.18,1.119L25.39,51.5488a.728.728,0,0,1-.6152.2954,1.7,1.7,0,0,1-.4607-.0786,13.6373,13.6373,0,0,0-3.3827-.5134c-2.8941,0-4.4225,1.9583-4.4225,5.6588,0,3.6512,1.5712,5.6634,4.4225,5.6634a13.7226,13.7226,0,0,0,3.38-.512.9756.9756,0,0,1,1.0782.2165l.4022.9025a1.0415,1.0415,0,0,1-.1182,1.1929A9.6263,9.6263,0,0,1,20.9311,65.5926Zm0-16.44c-4.5949,0-7.3413,2.9-7.3413,7.7586,0,4.8614,2.7464,7.7621,7.3413,7.7621A9.3826,9.3826,0,0,0,25,63.7307a1.6611,1.6611,0,0,0-.0656-.2216l-.2584-.5951a.7214.7214,0,0,0-.0893.0261,14.8874,14.8874,0,0,1-3.6558.5531c-1.6059,0-5.3421-.6405-5.3421-6.5822,0-5.9374,3.7362-6.5779,5.3421-6.5779a14.8229,14.8229,0,0,1,3.6083.54c.0542.0157.0969.027.1288.0344l.274-.72a.8269.8269,0,0,0,.0385-.1057A9.4444,9.4444,0,0,0,20.9311,49.1524Z"/><path class="cls-6" d="M35.2867,64.8683c-.31,0-.3743-.1333-.4432-.442l-.2194-.9084h-.0447a3.3716,3.3716,0,0,1-3.1813,1.6164,3.8188,3.8188,0,0,1-4.1546-4.0022c0-2.85,2.0989-3.5995,4.6167-3.5995h2.2746c-.1092-.9308-.5732-2.5844-2.4066-2.5844a9.0329,9.0329,0,0,0-2.496.55c-.42.1322-.5087.0463-.5747-.0437l-.4646-.7075a.412.412,0,0,1,.0238-.5738,6.2262,6.2262,0,0,1,3.8211-1.0836c3.8227,0,4.7944,2.7422,4.7944,5.9v5.4367c0,.3087-.132.442-.4426.442Zm-1.1062-5.48H31.86c-1.1694,0-1.9422.6167-1.9422,1.6782a2.0844,2.0844,0,0,0,2.0975,2.208c1.3494,0,2.165-.9944,2.165-3.2448Z"/><path class="cls-6" d="M31.3981,65.5926a4.2537,4.2537,0,0,1-4.6135-4.4605c0-2.6931,1.7085-4.0593,5.0756-4.0593h1.73a1.8708,1.8708,0,0,0-1.8624-1.665,8.9454,8.9454,0,0,0-2.3592.5274c-.7167.23-1.0084-.1076-1.08-.2087l-.4807-.7282a.8674.8674,0,0,1,.0632-1.13A6.5711,6.5711,0,0,1,32.0378,52.63c3.4869,0,5.2533,2.1393,5.2533,6.36v5.4367a.8282.8282,0,0,1-.9015.9008H35.2867a.8531.8531,0,0,1-.8925-.8036v-.0024A4.1637,4.1637,0,0,1,31.3981,65.5926Zm.4621-7.6012c-2.8736,0-4.1565.9694-4.1565,3.1407a3.3712,3.3712,0,0,0,3.6944,3.541A2.9755,2.9755,0,0,0,34.1752,63.3l.1288-.2406H34.94l.1283.3522.2237.9077c.0076.0354.0142.0651.0171.0848l1.0592.0049L36.372,58.99c0-3.7134-1.377-5.4412-4.3342-5.4412a5.8958,5.8958,0,0,0-3.4815.9334l.4118.612c.0323-.0076.0722-.0183.1268-.0342a9.4389,9.4389,0,0,1,2.6333-.5705c1.5954,0,2.6394,1.0894,2.8641,2.989l.06.5133Zm.1553,5.7424a2.5478,2.5478,0,0,1-2.5581-2.6668A2.1387,2.1387,0,0,1,31.86,58.9283h2.7815V60.03C34.6417,63.2524,32.9944,63.7338,32.0155,63.7338ZM31.86,59.8471c-.4446,0-1.4838.1183-1.4838,1.22a1.6642,1.6642,0,0,0,1.6391,1.7472c.4232,0,1.7061,0,1.7061-2.784v-.1831Z"/><path class="cls-6" d="M41.1578,59.8507a3.1154,3.1154,0,0,1-2.3425-3.2c0-2.0365,1.4363-3.5616,4.13-3.5616a6.1518,6.1518,0,0,1,3.8453,1.0836c.0893.09.2224.2442,0,.5738l-.464.7075c-.0883.2006-.3752.1113-.5733.0437a7.3553,7.3553,0,0,0-2.5629-.55c-1.3029,0-1.8548.5733-1.8548,1.4356a1.0478,1.0478,0,0,0,.8607,1.08l2.5828.7534a3.0165,3.0165,0,0,1,2.52,3.3336c0,2.3875-2.163,3.5832-4.5958,3.5832-1.8543,0-3.5561-.5106-3.9765-1.0844a.4353.4353,0,0,1-.0228-.5752l.465-.7072c.11-.1532.3743-.1107.5738-.0423a8.5827,8.5827,0,0,0,2.8284.55c1.834,0,2.2077-.7731,2.2077-1.48,0-.6851-.4407-.9717-1.7217-1.37Z"/><path class="cls-6" d="M42.7034,65.5926c-1.6994,0-3.7375-.4377-4.3474-1.2724a.8934.8934,0,0,1-.0328-1.1017l.4622-.7018a.9578.9578,0,0,1,1.1071-.2256,8.1619,8.1619,0,0,0,2.6788.5231c1.7494,0,1.7494-.7136,1.7494-1.0188,0-.3082-.067-.5177-1.4-.9328l-1.8956-.5721a3.5591,3.5591,0,0,1-2.6693-3.64c0-2.4436,1.8035-4.0212,4.5892-4.0212a6.5448,6.5448,0,0,1,4.17,1.2184.8487.8487,0,0,1,.0575,1.1541l-.4631.7037a.6373.6373,0,0,1-.6018.3313,1.6076,1.6076,0,0,1-.5044-.105,7.0124,7.0124,0,0,0-2.4133-.5243c-1.3965,0-1.3965.7074-1.3965.976,0,.3463.153.5313.5268.6381l2.5886.7545a3.4545,3.4545,0,0,1,2.8494,3.7747C47.7586,64.3439,45.22,65.5926,42.7034,65.5926Zm-3.2222-2.4634-.3914.5975c.2764.4182,1.7142.9464,3.6136.9464,1.908,0,4.1375-.8182,4.1375-3.122a2.5763,2.5763,0,0,0-2.1877-2.8929l-2.5863-.7528a1.4989,1.4989,0,0,1-1.1917-1.5216c0-.57.2261-1.8947,2.3151-1.8947a7.8,7.8,0,0,1,2.7182.5755.7264.7264,0,0,0,.1079.034l.39-.603a5.4351,5.4351,0,0,0-3.4616-.9472c-2.2638,0-3.67,1.1877-3.67,3.1024a2.6721,2.6721,0,0,0,2.0172,2.76l1.8976.5744c1.1622.36,2.049.7234,2.049,1.81,0,.7227-.3439,1.9384-2.668,1.9384a9.1006,9.1006,0,0,1-2.9733-.5721A.6312.6312,0,0,0,39.4812,63.1292Z"/><path class="cls-6" d="M53.3162,65.1255c-1.9906,0-3.05-1.1257-3.05-3.4479V55.3821h-1.148c-.3106,0-.4412-.133-.4412-.4413V54.079c0-.3118.1306-.4446.4412-.4446h1.148v-1.7c0-.31.1549-.3306.4422-.442l1.7684-.66c.2868-.1116.44.133.44.4405v2.3613h1.3926c.3087,0,.4422.1328.4422.4446v.8618c0,.3083-.1335.4413-.4422.4413H52.9168V61.746c0,1.0794.5529,1.525,1.0606,1.525h.1548c.3073,0,.4418.1322.4418.4412v.9727c0,.3083-.1345.4406-.4418.4406Z"/><path class="cls-6" d="M54.1322,65.585h-.816c-2.2637,0-3.5081-1.3891-3.5081-3.9074V55.8419h-.69a.8287.8287,0,0,1-.902-.9011V54.079a.8293.8293,0,0,1,.902-.9034h.69V51.9343a.8284.8284,0,0,1,.6535-.8407l1.8553-.6921a.81.81,0,0,1,1.0587.8716v1.9025h.9338a.8283.8283,0,0,1,.901.9034v.8618a.8277.8277,0,0,1-.901.9011h-.9338V61.746c0,.7353.3031,1.0661.6018,1.0661h.1548a.8264.8264,0,0,1,.9006.9v.9727A.8267.8267,0,0,1,54.1322,65.585ZM49.1341,54.9171l1.5916.0064v6.7541c0,2.0394.8222,2.9891,2.59,2.9891h.7956l.0033-.9329-.1377-.0031c-.7324,0-1.519-.6217-1.519-1.9847V54.9235h1.8287l.0057-.8245-1.8344-.0041V51.3225l-1.5887.6c-.0656.0246-.1112.0394-.144.052v2.12H49.14Z"/><path class="cls-6" d="M57.1787,65.1255c-.3082,0-.4427-.1323-.4427-.4406V54.079c0-.3118.1345-.4446.4427-.4446h1.1029c.3116,0,.3116.1584.4422.4446l.2209.8412h.0441a3.0681,3.0681,0,0,1,3.0062-1.461c.3092,0,.3961.0206.3961.3336v1.6551c0,.5733-.4854.3337-.9048.3337a1.9021,1.9021,0,0,0-2.1008,2.14v6.7629c0,.3083-.13.4406-.4408.4406Z"/><path class="cls-6" d="M58.9447,65.585h-1.766a.8288.8288,0,0,1-.9024-.9V54.079a.83.83,0,0,1,.9024-.9034h1.1029a.7949.7949,0,0,1,.8084.5916l.0736.2033a3.5572,3.5572,0,0,1,2.7349-.9687c.3411.0014.9524-.0017.9524.791v1.6551c0,.6236-.4394.91-1.1243.8139a2.2714,2.2714,0,0,0-.24-.0217c-1.1191,0-1.64.5346-1.64,1.6819v6.7629A.828.828,0,0,1,58.9447,65.585Zm-1.75-.924,1.7289.0057.0033-6.7447a2.35,2.35,0,0,1,2.5592-2.6012,2.5687,2.5687,0,0,1,.3586.0314c.028.0031.0575.008.084.0109l.0029-1.443a2.5843,2.5843,0,0,0-2.5559,1.2511l-.1377.2088h-.6018l-.1349-.3434-.26-.9193a.0529.0529,0,0,1-.008-.0214L57.2,54.0949Z"/><path class="cls-6" d="M63.5994,59.1147c0-3.2911,1.1048-6.0545,5.3468-6.0545s5.3463,2.7634,5.3463,6.0329c0,3.29-1.1038,6.0112-5.3463,6.0112S63.5994,62.4091,63.5994,59.1147Zm8.0423-.0216c0-2.1859-.4845-4.0406-2.6955-4.0406-2.2082,0-2.6955,1.8547-2.6955,4.0406,0,2.211.4873,4.0232,2.6955,4.0232C71.1572,63.1163,71.6417,61.3041,71.6417,59.0931Z"/><path class="cls-6" d="M68.9462,65.5639c-3.8525,0-5.8066-2.17-5.8066-6.4492,0-4.3227,1.9541-6.5138,5.8066-6.5138s5.8056,2.1839,5.8056,6.4922C74.7518,63.3871,72.8,65.5639,68.9462,65.5639Zm0-12.0442c-3.3338,0-4.8865,1.7781-4.8865,5.595,0,3.824,1.5066,5.53,4.8865,5.53,3.3339,0,4.888-1.7636,4.888-5.552C73.8342,55.2909,72.28,53.52,68.9462,53.52Zm0,10.0564c-3.1538,0-3.1538-3.374-3.1538-4.483,0-1.1119,0-4.5,3.1538-4.5s3.1548,3.3883,3.1548,4.5C72.101,61.0174,71.7742,63.5761,68.9462,63.5761Zm0-8.0639c-1.5688,0-2.2362,1.0716-2.2362,3.5809,0,2.5316.6484,3.5637,2.2362,3.5637s2.2357-1.0321,2.2357-3.5637C71.1819,56.5838,70.5141,55.5122,68.9462,55.5122Z"/><path class="cls-6" d="M32.6463,50.7036a.3123.3123,0,0,1-.304-.1719l-1.2981-2.0645H30.25v2.0314c0,.1438-.0617.205-.2051.205h-.8778c-.143,0-.2033-.0612-.2033-.205V43.5614c0-.1437.06-.204.2033-.204h1.9384A2.5544,2.5544,0,0,1,32.28,48.2131l1.5712,2.3279c.0793.1123.0793.1626-.0812.1626ZM30.9022,47.56c1,0,1.54-.5386,1.54-1.6406,0-1.1057-.54-1.6441-1.54-1.6548H30.25V47.56Z"/><path class="cls-6" d="M33.77,50.795H32.6463a.4106.4106,0,0,1-.3857-.2175l-1.2686-2.02h-.6531v1.9407a.2637.2637,0,0,1-.294.2964h-.8778a.2648.2648,0,0,1-.2959-.2964V43.5614a.2642.2642,0,0,1,.2959-.2957h1.9384A2.6251,2.6251,0,0,1,33.82,45.9194a2.5928,2.5928,0,0,1-1.4069,2.3286L33.9278,50.49c.0332.0446.0964.1346.0541.2185C33.9439,50.7839,33.8523,50.795,33.77,50.795Zm-3.6146-2.4188h.941L32.42,50.4827a.226.226,0,0,0,.2266.1283h1.14l-.01-.0157-1.6339-2.4205.0979-.0439a2.42,2.42,0,0,0,1.3964-2.2115,2.4467,2.4467,0,0,0-2.5321-2.471H29.1671c-.0917,0-.1116.02-.1116.113v6.9372c0,.0934.02.1124.1116.1124h.8778c.0907,0,.1106-.019.1106-.1124Zm.7467-.7262h-.7467V44.1732h.7467a1.5225,1.5225,0,0,1,1.6335,1.7462C32.5357,47.0513,31.9709,47.65,30.9022,47.65Zm-.5633-.1819h.5633c.9613,0,1.4506-.5218,1.4506-1.5487,0-1.04-.4774-1.5519-1.452-1.5631h-.5619Z"/><path class="cls-6" d="M38.1745,50.7036c-.141,0-.1738-.0612-.2028-.205l-.104-.4163h-.019a1.557,1.557,0,0,1-1.4691.7422,1.7621,1.7621,0,0,1-1.9189-1.8436c0-1.3176.97-1.6655,2.1341-1.6655h1.0511A1.1738,1.1738,0,0,0,36.5335,46.12a4.2663,4.2663,0,0,0-1.1542.2551c-.1938.0655-.2346.0206-.2646-.0183L34.9,46.03a.1912.1912,0,0,1,.01-.265,2.8575,2.8575,0,0,1,1.7636-.499c1.7659,0,2.2181,1.2629,2.2181,2.724v2.5085c0,.1438-.0637.205-.2057.205Zm-.5092-2.5307H36.5948c-.543,0-.9.2871-.9.7764a.9634.9634,0,0,0,.9718,1.0181c.6194,0,.9988-.4558.9988-1.5Z"/><path class="cls-6" d="M36.38,50.9169a1.85,1.85,0,0,1-2.01-1.936c0-1.1837.7291-1.7562,2.2253-1.7562h.9433a1.0384,1.0384,0,0,0-1.0046-1.0129,4.0459,4.0459,0,0,0-1.0882.2382l-.0384.0128c-.2408.0812-.3387-.0112-.3677-.05l-.2185-.3322a.2828.2828,0,0,1,.0209-.3769,2.9046,2.9046,0,0,1,1.8325-.5289c1.5527,0,2.3069.9207,2.3069,2.8154v2.5085a.2642.2642,0,0,1-.2945.2964h-.512c-.217,0-.2622-.1313-.2926-.2764l-.0574-.2287A1.71,1.71,0,0,1,36.38,50.9169Zm.2152-3.5091c-1.3931,0-2.0424.5-2.0424,1.5731A1.6689,1.6689,0,0,0,36.38,50.7345a1.463,1.463,0,0,0,1.3888-.6956l.0242-.0487H37.92l.0375.07.1026.4161c.03.1344.0418.1344.1144.1344h.512c.0912,0,.1107-.019.1107-.1124V47.99c0-1.7712-.6934-2.6323-2.1231-2.6323a2.8,2.8,0,0,0-1.6962.4685c-.0408.0468-.05.0789-.0009.1544l.2137.3268c.0148.0176.0148.0308.16-.02l.0408-.0123a4.1034,4.1034,0,0,1,1.1419-.2463c.9471,0,1.1551.892,1.2017,1.2762l.0128.1029Zm.0717,2.6513a1.06,1.06,0,0,1-1.063-1.11.8743.8743,0,0,1,.9913-.8676h1.1613v.3855C37.7561,49.7836,37.1628,50.0591,36.6665,50.0591Zm-.0717-1.7942c-.5068,0-.808.2564-.808.6844a.8748.8748,0,0,0,.88.9264c.6022,0,.9076-.4747.9076-1.4085v-.2023Z"/><path class="cls-6" d="M43.54,50.7036c-.1421,0-.1739-.0612-.2038-.205l-.1026-.4163h-.02a1.5547,1.5547,0,0,1-1.3575.7422,1.9226,1.9226,0,0,1-2.05-1.9987V45.5991c0-.1394.0608-.2038.1937-.2038h.8365c.133,0,.1928.0644.1928.2038v2.8792c0,.7857.2256,1.4891.931,1.4891.7233,0,1.0682-.5377,1.0682-1.59V45.5991c0-.1394.0646-.2038.2052-.2038h.8179c.142,0,.2023.0644.2023.2038v4.9c0,.1438-.06.205-.2023.205Z"/><path class="cls-6" d="M41.8556,50.9169a2.0047,2.0047,0,0,1-2.1426-2.0911V45.5991A.2617.2617,0,0,1,40,45.3044h.8365a.2614.2614,0,0,1,.285.2947v2.8792c0,.6365.1463,1.3974.8388,1.3974.6588,0,.9789-.49.9789-1.4978V45.5991a.265.265,0,0,1,.2945-.2947h.8179a.2648.2648,0,0,1,.2945.2947v4.9a.2644.2644,0,0,1-.2945.2964H43.54c-.2171,0-.2613-.1313-.2931-.2764l-.0565-.227A1.7207,1.7207,0,0,1,41.8556,50.9169ZM40,45.4869c-.0759,0-.1044.0181-.1044.1122v3.2267a1.8332,1.8332,0,0,0,1.96,1.9087,1.47,1.47,0,0,0,1.2781-.694l.0243-.05h.1272l.0376.07.1.4161c.0309.1344.0437.1344.1169.1344h.5115c.0893,0,.1111-.019.1111-.1124v-4.9c0-.0891-.0218-.1122-.1111-.1122h-.8179c-.09,0-.1107.0231-.1107.1122v2.7788c0,1.1154-.3914,1.6812-1.1627,1.6812-.6593,0-1.0222-.561-1.0222-1.5808V45.5991c0-.0941-.0261-.1122-.1016-.1122Z"/><path class="cls-6" d="M46.6809,50.7036c-.9172,0-1.4088-.52-1.4088-1.59v-5.756c0-.1444.0613-.2047.2037-.2047h.8161c.1453,0,.2051.06.2051.2047v5.6833c0,.5722.1535.8046.2855.8046h.0717c.1434,0,.2038.0608.2038.2043v.449c0,.1438-.06.205-.2038.205Z"/><path class="cls-6" d="M46.8542,50.795h-.1733c-.9823,0-1.4991-.5813-1.4991-1.6816v-5.756a.2637.2637,0,0,1,.294-.2964h.8161a.2642.2642,0,0,1,.2963.2964v5.6833c0,.5443.142.7122.1943.7122h.0717a.2644.2644,0,0,1,.2945.2967v.449A.2642.2642,0,0,1,46.8542,50.795Zm-1.3784-7.5506c-.0907,0-.11.02-.11.113v5.756c0,1.0077.4289,1.4976,1.3148,1.4976h.1733c.0912,0,.1116-.019.1116-.1124V50.05c0-.0936-.02-.1126-.1116-.1126h-.0717c-.1834,0-.3781-.2358-.3781-.8963V43.3574c0-.0931-.02-.113-.1125-.113Z"/><path class="cls-6" d="M13.5386,69.3829a.208.208,0,0,1,.2061-.2h1.2159a1.2743,1.2743,0,0,1,.8051.247,1.0938,1.0938,0,0,1,.41.9026,1.1485,1.1485,0,0,1-.4393.9291,1.3723,1.3723,0,0,1-.8284.2216h-.96V72.53c.0158.2557-.4208.2557-.41,0Zm.41,1.74h.894a1.081,1.081,0,0,0,.6-.1387.7661.7661,0,0,0,.3188-.6517.7031.7031,0,0,0-.2978-.631.9.9,0,0,0-.5648-.1593h-.95Z"/><path class="cls-6" d="M20.0358,69.3829a.2011.2011,0,0,1,.2047-.2h1.2278a1.5211,1.5211,0,0,1,.8511.2.9678.9678,0,0,1,.4166.8668.99.99,0,0,1-.4109.8374,1.204,1.204,0,0,1-.5039.2047l.8573,1.0936a.23.23,0,0,1,.0575.138.2108.2108,0,0,1-.2123.2055.2045.2045,0,0,1-.1744-.0972L21.35,71.3132h-.9029V72.53a.2058.2058,0,0,1-.4113,0Zm.4113,1.5855h.9647a1.2459,1.2459,0,0,0,.6008-.1188.7491.7491,0,0,0,.0095-1.1943,1.1971,1.1971,0,0,0-.6018-.1233h-.9732Z"/><path class="cls-6" d="M26.6569,69.3829a.2.2,0,0,1,.2042-.2h2.1606a.1748.1748,0,0,1,.1753.18.18.18,0,0,1-.1753.1848H27.0668v1.1955h1.6885c.23-.0062.23.38,0,.3643H27.0668V72.313h1.9549a.18.18,0,0,1,.1753.1855.1775.1775,0,0,1-.1753.1786H26.8611a.2.2,0,0,1-.2042-.2Z"/><path class="cls-6" d="M33.0662,72.0466a3.5866,3.5866,0,0,1,.3752.19,1.35,1.35,0,0,0,.6156.1377c.5329,0,.8008-.26.8008-.6457,0-.2313-.1482-.4064-.4432-.5341a4.7316,4.7316,0,0,0-.4664-.1547,3.3276,3.3276,0,0,1-.5481-.2056.8179.8179,0,0,1-.5187-.7683c0-.58.4413-.929,1.2369-.929a2.0175,2.0175,0,0,1,.8.1486c.1591.0608.2355.1445.2355.2418a.1843.1843,0,0,1-.1942.1893,2.2821,2.2821,0,0,1-.3491-.1337,1.5348,1.5348,0,0,0-.5139-.0917c-.5177,0-.7842.1945-.7842.5634,0,.2419.1748.3961.502.5193a3.4246,3.4246,0,0,0,.3282.1019,3.0642,3.0642,0,0,1,.704.2574.8358.8358,0,0,1,.4526.7586.9139.9139,0,0,1-.3448.76,1.3718,1.3718,0,0,1-.8977.2772,2.2774,2.2774,0,0,1-.9965-.2461c-.1268-.0774-.1943-.1536-.1943-.2355A.1907.1907,0,0,1,33.0662,72.0466Z"/><path class="cls-6" d="M39.1682,69.3366c-.011-.2569.4256-.2569.41,0V72.53c.0157.2557-.4209.2557-.41,0Z"/><path class="cls-6" d="M43.6339,69.3829a.2006.2006,0,0,1,.2038-.2H44.931a1.8651,1.8651,0,0,1,1.4573.5481,1.7238,1.7238,0,0,1,.4056,1.2021,1.6026,1.6026,0,0,1-.6512,1.39,2.1406,2.1406,0,0,1-1.2881.3536H43.8377a.2.2,0,0,1-.2038-.2Zm.41,2.9463h.7708a1.7379,1.7379,0,0,0,1.02-.2774,1.29,1.29,0,0,0,.5382-1.1186,1.3934,1.3934,0,0,0-.3282-.9656,1.5047,1.5047,0,0,0-1.1789-.4356h-.8217Z"/><path class="cls-6" d="M50.7053,69.3829a.2016.2016,0,0,1,.2056-.2H53.07a.1742.1742,0,0,1,.1753.18.18.18,0,0,1-.1753.1848H51.1161v1.1955h1.6872c.2313-.0062.2313.38,0,.3643H51.1161V72.313H53.07a.1792.1792,0,0,1,.1753.1855.1769.1769,0,0,1-.1753.1786H50.9109a.2013.2013,0,0,1-.2056-.2Z"/><path class="cls-6" d="M57.08,69.3575a.2273.2273,0,0,1,.2308-.2206.2476.2476,0,0,1,.2038.1121L59.7122,72.01V69.3266a.1977.1977,0,0,1,.2009-.19.1942.1942,0,0,1,.1943.19v3.1817a.2235.2235,0,0,1-.236.2206.2738.2738,0,0,1-.2052-.1124l-2.192-2.761v2.6886a.1928.1928,0,0,1-.2.1848.1876.1876,0,0,1-.1938-.1848Z"/><path class="cls-6" d="M63.9571,69.183h2.54a.1782.1782,0,0,1,.1757.18.1808.1808,0,0,1-.1757.1848H65.43V72.53c.0147.2557-.4208.2557-.41,0V69.548h-1.062a.1825.1825,0,0,1,0-.365Z"/><path class="cls-6" d="M70.3412,69.3829a.2023.2023,0,0,1,.2057-.2h2.1592a.1748.1748,0,0,1,.1753.18.18.18,0,0,1-.1753.1848h-1.955v1.1955H72.44c.2309-.0062.2309.38,0,.3643h-1.689V72.313h1.955a.18.18,0,0,1,.1753.1855.1776.1776,0,0,1-.1753.1786H70.5469a.2019.2019,0,0,1-.2057-.2Z"/><g class="cls-7"><rect class="cls-8" x="-296.501" y="39.7782" width="452.9418" height="2.8226"/><rect class="cls-9" x="-296.501" y="42.6007" width="452.9418" height="2.8224"/><rect class="cls-6" x="-296.501" y="45.4234" width="452.9418" height="1.3146"/><rect class="cls-6" x="-296.501" y="38.4338" width="452.9418" height="1.3147"/></g></svg>