<svg id="Layer_1" data-name="Layer 1" xmlns="http://www.w3.org/2000/svg" width="85.5" height="97.5" viewBox="0 0 85.5 97.5"><defs><style>.cls-1{fill:#eb665b;}.cls-2,.cls-4{fill:none;}.cls-2,.cls-4,.cls-5{stroke:#f1f1f1;stroke-miterlimit:10;}.cls-2{stroke-width:1.2214px;}.cls-3,.cls-5{fill:#f1f1f1;}.cls-4,.cls-5{stroke-width:0.0611px;}</style></defs><polygon class="cls-1" points="0.975 24.353 0.975 72.746 42.885 96.942 84.794 72.746 84.794 24.353 42.885 0.157 0.975 24.353"/><path class="cls-2" d="M20.6972,60.3937a33.9486,33.9486,0,0,1-2.5359-10.25M48.8451,77.5252c-.8815.477-2.231,1.3831-3.1776,1.8471-.4266.21-.8624.4179-1.304.6257l-.8407.3947-.8409-.3947A37.3519,37.3519,0,0,1,38.33,77.426M18.7386,38.306c.09-.5569.3423-2.0368.4225-2.4677.0536-.2878.1036-.5451.1483-.7695l.0176-.0879.425-2.2335,1.3656-.2588c1.5864-.2725,3.2578-.6206,5.211-1.0864,3.25-1.0674,17.1936-4.2667,17.1936-4.2667s5.4539,1.1688,17.1939,4.2667c1.9539.4658,3.6251.8141,5.2108,1.0864l1.24.213.5513,2.28s.1116.5689.1652.8549l.0831.4537c.0566.3177.116.6634.1764,1.0344s.1212.7677.1812,1.1869c.1343.938,2.0045,12.879-1.8739,21.8826"/><path class="cls-3" d="M55.9142,21.6623l-1.1479-1.1252.3286,1.5843-.1729,1.4239-2.8267-.361.1961-1.4089.7224-1.4516-1.42.7927-1.395.2455-.5323-2.7529,1.3979-.2637,1.6105.2153L51.47,17.4768,50.8066,16.22l2.451-1.3574.6741,1.2615.3053,1.5945.6677-1.4678.9521-1.052L57.941,17.131l-.9846,1.0463-1.43.7346,1.5945.19,1.3.61-1.212,2.5572Z"/><path class="cls-4" d="M55.9142,21.6623l-1.1479-1.1252.3286,1.5843-.1729,1.4239-2.8267-.361.1961-1.4089.7224-1.4516-1.42.7927-1.395.2455-.5323-2.7529,1.3979-.2637,1.6105.2153L51.47,17.4768,50.8066,16.22l2.451-1.3574.6741,1.2615.3053,1.5945.6677-1.4678.9521-1.052L57.941,17.131l-.9846,1.0463-1.43.7346,1.5945.19,1.3.61-1.212,2.5572Z"/><path class="cls-3" d="M45.19,21.6623l-1.148-1.1252.3286,1.5843-.1728,1.4239-2.8268-.361.1961-1.4089.7225-1.4516-1.42.7927-1.3949.2455-.5324-2.7529,1.3979-.2637,1.6106.2153-1.2048-1.0839L40.0819,16.22l2.451-1.3574.6741,1.2615.3053,1.5945.6678-1.4678.9521-1.052,2.0841,1.9318-.9846,1.0463-1.43.7346,1.5944.19,1.3.61-1.212,2.5572Z"/><path class="cls-4" d="M45.19,21.6623l-1.148-1.1252.3286,1.5843-.1728,1.4239-2.8268-.361.1961-1.4089.7225-1.4516-1.42.7927-1.3949.2455-.5324-2.7529,1.3979-.2637,1.6106.2153-1.2048-1.0839L40.0819,16.22l2.451-1.3574.6741,1.2615.3053,1.5945.6678-1.4678.9521-1.052,2.0841,1.9318-.9846,1.0463-1.43.7346,1.5944.19,1.3.61-1.212,2.5572Z"/><path class="cls-3" d="M34.694,21.6623l-1.148-1.1252.3286,1.5843-.1728,1.4239-2.8267-.361.196-1.4089.7225-1.4516-1.42.7927-1.3949.2455-.5324-2.7529,1.3979-.2637,1.6106.2153L30.25,17.4768,29.5863,16.22l2.451-1.3574.6741,1.2615.3053,1.5945.6678-1.4678.9521-1.052,2.0841,1.9318-.9846,1.0463-1.43.7346,1.5944.19,1.3.61-1.2119,2.5572Z"/><path class="cls-4" d="M34.694,21.6623l-1.148-1.1252.3286,1.5843-.1728,1.4239-2.8267-.361.196-1.4089.7225-1.4516-1.42.7927-1.3949.2455-.5324-2.7529,1.3979-.2637,1.6106.2153L30.25,17.4768,29.5863,16.22l2.451-1.3574.6741,1.2615.3053,1.5945.6678-1.4678.9521-1.052,2.0841,1.9318-.9846,1.0463-1.43.7346,1.5944.19,1.3.61-1.2119,2.5572Z"/><path class="cls-5" d="M75.7283,75.1721H54.149v3.1461H32.94V75.1721H11.1375V59.9568H29.7739V55.3605H56.1921v4.5963H75.7283Zm-61.1174-2.06h9.3879v-3.335h-5.486V61.44H14.6109Zm15.657.25a6.18,6.18,0,0,0,6.3865-6.0863v-.0333a6.1242,6.1242,0,0,0-6.3531-6.053,6.18,6.18,0,0,0-6.3865,6.0863V67.31A6.1241,6.1241,0,0,0,30.2679,73.3625Zm.0334-3.4517A2.4972,2.4972,0,0,1,27.85,67.2762v-.0333a2.4618,2.4618,0,0,1,2.4178-2.6013,2.4972,2.4972,0,0,1,2.4512,2.6346V67.31A2.4617,2.4617,0,0,1,30.3013,69.9108Zm7.42,3.2016h6.47c2.9515,0,4.4856-1.3673,4.4856-3.2349v-.0333c0-1.6009-.9671-2.4013-2.4678-2.8348a2.7269,2.7269,0,0,0,2.0842-2.668v-.0333a2.4936,2.4936,0,0,0-.7169-1.8176,4.4144,4.4144,0,0,0-3.3184-1.05H37.7216Zm3.8018-7.0868V64.3915h1.6841c.8338,0,1.2506.2835,1.2506.8v.0333c0,.5169-.4.8-1.2339.8Zm0,4.1353V68.4268H43.491c.85,0,1.2674.35,1.2674.85v.0333c0,.5-.4336.85-1.284.85Zm14.09,3.2016A6.18,6.18,0,0,0,62,67.2762v-.0333a6.3772,6.3772,0,0,0-12.7395.0333V67.31A6.124,6.124,0,0,0,55.6135,73.3625Zm.0333-3.4517a2.4972,2.4972,0,0,1-2.4512-2.6346v-.0333a2.4619,2.4619,0,0,1,2.4179-2.6013,2.4971,2.4971,0,0,1,2.4512,2.6346V67.31A2.4618,2.4618,0,0,1,55.6468,69.9108Zm12.354,3.4184c3.1349,0,5.1525-1.5008,5.1525-3.9519v-.0334c0-2.3512-2.001-3.2182-4.9858-3.7685-1.234-.2335-1.5507-.4336-1.5507-.75v-.0333c0-.2835.2667-.4836.85-.4836a6.1215,6.1215,0,0,1,3.5017,1.1506L72.87,62.824a8.0794,8.0794,0,0,0-5.2692-1.6007c-3.2183,0-4.9524,1.7175-4.9524,3.9352v.0334c0,2.4678,2.3011,3.2182,4.919,3.7518,1.2506.25,1.6175.4336,1.6175.767v.0334c0,.3168-.3.5-1.0006.5a6.6889,6.6889,0,0,1-4.0852-1.3674l-2.0844,2.4845A9.0176,9.0176,0,0,0,68.0008,73.3292ZM35.546,77.0054a.7337.7337,0,0,0,.5926-.2658v.2279h.4976V75.0683h-.4976V75.3a.7422.7422,0,0,0-.5926-.27.9973.9973,0,0,0,0,1.9751Zm.1292-.4709a.5188.5188,0,0,1,0-1.0332.5212.5212,0,0,1,0,1.0332Zm2.0242.4709c.3532,0,.828-.1556.828-.6229,0-.3874-.3532-.528-.6761-.6039-.1748-.038-.3344-.0722-.3344-.1785,0-.08.11-.133.228-.133a1.1914,1.1914,0,0,1,.528.133l.1709-.38a1.2959,1.2959,0,0,0-.7065-.19A.6653.6653,0,0,0,37,75.6228c0,.3647.3077.49.6838.5888.1633.0456.3267.0722.3267.1861s-.1939.16-.3115.16a.92.92,0,0,1-.5926-.2014l-.1823.3913A1.1543,1.1543,0,0,0,37.6994,77.0054Zm1.8457,0a.874.874,0,0,0,.4823-.1443l-.1443-.376a.4651.4651,0,0,1-.243.08c-.0913,0-.171-.0532-.171-.2165v-.87h.5242v-.41h-.5242V74.59l-.5089.114v.3646h-.2773v.41H38.96v.8773C38.96,76.7852,39.1653,77.0054,39.5451,77.0054Zm1.7053,0a1.28,1.28,0,0,0,.7065-.2088l-.19-.3647a.9424.9424,0,0,1-.5128.1481.5024.5024,0,0,1-.528-.3874H42.105a1.6847,1.6847,0,0,0,.0114-.1823.95.95,0,0,0-.923-.98.9883.9883,0,1,0,.057,1.9751Zm-.5318-1.1509a.4761.4761,0,0,1,.46-.3988.4588.4588,0,0,1,.46.3988Zm1.7318,1.113h.5089v-.7293a.5718.5718,0,0,1,.6571-.6533V75.03a.66.66,0,0,0-.6646.4026v-.3646H42.45Zm1.6937-2.1309a.302.302,0,1,0-.3-.3A.3039.3039,0,0,0,44.1441,74.8366Zm-.2506,2.1309h.509V75.0683h-.509Zm1.5724.0379c.3532,0,.828-.1556.828-.6229,0-.3874-.3532-.528-.676-.6039-.1749-.038-.3344-.0722-.3344-.1785,0-.08.11-.133.228-.133a1.191,1.191,0,0,1,.5279.133l.1709-.38a1.2958,1.2958,0,0,0-.7064-.19.6654.6654,0,0,0-.737.5925c0,.3647.3077.49.6838.5888.1634.0456.3267.0722.3267.1861s-.1938.16-.3115.16a.92.92,0,0,1-.5926-.2014l-.1823.3913A1.1543,1.1543,0,0,0,45.4659,77.0054Zm2.0887,0a1.0966,1.0966,0,0,0,.71-.2469l-.27-.38a.6114.6114,0,0,1-.414.1558.5167.5167,0,0,1-.0153-1.0332.5221.5221,0,0,1,.3609.1291l.3077-.357a1.0489,1.0489,0,0,0-.68-.2431.9879.9879,0,1,0,0,1.9751Zm1.8686,0a.9879.9879,0,1,0-1.0141-.9875A.995.995,0,0,0,49.4232,77.0054Zm0-.4709a.517.517,0,1,1,.4976-.5166A.4923.4923,0,0,1,49.4232,76.5345Zm2.0129.4709c.3532,0,.828-.1556.828-.6229,0-.3874-.3532-.528-.676-.6039-.1749-.038-.3344-.0722-.3344-.1785,0-.08.11-.133.228-.133a1.191,1.191,0,0,1,.5279.133l.1709-.38a1.2958,1.2958,0,0,0-.7064-.19.6654.6654,0,0,0-.737.5925c0,.3647.3077.49.6838.5888.1634.0456.3267.0722.3267.1861s-.1938.16-.3115.16a.92.92,0,0,1-.5926-.2014l-.1823.3913A1.1543,1.1543,0,0,0,51.4361,77.0054ZM32.8452,59.7218H35.257V58.865h-1.41V56.723H32.8452Zm3.83,0h2.5789v-.8225H37.66v-.3256h1.4651V57.85H37.66v-.3041h1.5722V56.723H36.675Zm4.0567,0h1.0025V56.723H40.7317Zm2.5532,0h1.0023V58.865h.2143l.5655.8568h1.1438l-.6984-1.02a.97.97,0,0,0,.5913-.9168v-.0085a.942.942,0,0,0-.2742-.7112,1.46,1.46,0,0,0-1.08-.3427H43.2849ZM44.2872,58.15v-.5869h.437c.2314,0,.3814.0942.3814.287v.0086c0,.1842-.1457.2913-.3856.2913Zm3.2687,1.5722h1.0024V56.723H47.5559Zm2.3347,0h1.0709l.1543-.4027h1.05l.1585.4027h1.088l-1.2636-3.02h-.994Zm1.4779-1.1138.2742-.7283.2742.7283Z"/><path class="cls-5" d="M50.8347,51.5571a22.1623,22.1623,0,0,0,2.7857.0059l.9007-.0723-.5438-.7221a34.277,34.277,0,0,0-6.1767-6.2731,4.8812,4.8812,0,0,0,1.5986-.416l.7023-.3778-.6487-.4639A41.2244,41.2244,0,0,0,39.91,38.09l-.2655-.4845c-.5791-1.0359-1.1443-2.0779-1.7044-3.1214-.6351-1-1.2662-2.0011-1.8828-3.0126-.3248-.4946-.6733-.9746-.9994-1.47-.3241-.4949-.6683-.9812-1.0256-1.4623l-.4245-.5714-.2828.6527c-.5271,1.218-1.065,2.4354-1.5783,3.6637l-.6655,1.8557-.0407.1164c-.6858-1.1313-1.9185-3.1094-3.1422-4.7976l-.6181-.8528-.2648,1.0191a46.9618,46.9618,0,0,0-1.0833,5.5483l-.5689.0029c-.2734.0067-.5578-.0078-.8229.0174l-.79.08-.3953.0407-.198.02-.0984.01-.0775.0094-.051.0112-.8161.1808c-.1356.0337-.2727.0551-.407.0987l-.4.1435a4.8332,4.8332,0,0,0-.7886.3265,4.7605,4.7605,0,0,0-.7522.4415l-.3576.2632-.3264.3185a3.3208,3.3208,0,0,0-.366.4593L14.71,37.3125l-2.1739-.1286c-.7267-.0392-1.4513-.0728-2.1934-.0832l-.28-.0021c-.1135.0016-.24.0088-.3587.0175a2.4454,2.4454,0,0,0-.3038.038.9336.9336,0,0,0-.4861.33,2.6977,2.6977,0,0,0-.5326,1.2313,4.5516,4.5516,0,0,0-.0723,1.2167,5.93,5.93,0,0,0,.1983,1.17,8.2508,8.2508,0,0,0,.3859,1.0985,9.5679,9.5679,0,0,0,.534,1.0162,11.1974,11.1974,0,0,0,.6267.9473c.13.1783.268.3483.4072.5176-.1212.1345-.2366.2688-.36.4034-.1137.1223-.2053.2593-.31.3877l-.3022.3925c-.0977.1334-.21.2569-.2935.3987l-.267.4156-.5343.832-.4938.7692.9443-.0031,1.4213-.005c.4749-.009.9462.0125,1.4183.03l1.4424.051-.7931.6527-1.236,1.0175,1.6332-.1377a7.5876,7.5876,0,0,1,.7691-.0193c.2655.0057.5334.0156.8.04a14.7723,14.7723,0,0,1,1.6006.2144c.2667.0414.5295.1068.7932.1657.2647.0542.5262.1261.7866.2.2615.0713.5222.1413.7779.2327.2564.0882.5166.1661.7708.2616l.758.2966c.2552.0924.4968.22.7455.3272.2456.1168.4994.216.7372.3487l.7225.3784c.2464.12.47.2669.7039.4021l.6946.4143,1.2062.8173a38.1871,38.1871,0,0,1,4.8208,6.7768l1.0528-.1228a34.8716,34.8716,0,0,0-4.2026-6.2315,7.9984,7.9984,0,0,0,1.2368-.02c.215-.0107.4232-.0491.634-.0745.2126-.0236.4173-.0727.6253-.1094s.4117-.0929.6173-.1407c.2057-.0456.4059-.11.608-.1693.4023-.12.801-.2558,1.1892-.4153.1954-.0777.39-.155.58-.2453.1913-.0887.3841-.17.57-.2708.1859-.0988.3766-.1865.5574-.2952s.3664-.2081.545-.3218c.3584-.2247.7032-.47,1.0408-.7292l.6332-.4852-.7157-.35c-.281-.1382-.53-.2135-.7927-.3148a4.0781,4.0781,0,0,0-.4-.12l-.4041-.1107-.0032-.0008a24.6689,24.6689,0,0,0,5.55-3.2416l.6663-.5318-.7914-.3171a11.499,11.499,0,0,0-1.5725-.4564,21.7851,21.7851,0,0,0,4.0463-1.88l.7965-.4943-.8554-.3813a10.35,10.35,0,0,0-4.2591-.5122c1.095.32,2.1934.7352,2.9358,1.0344A26.195,26.195,0,0,1,34.5246,45.3c-.0881-.0109-.1762-.0219-.2652-.0317a11.0424,11.0424,0,0,0-3.5938.8417,25.254,25.254,0,0,1,3.8317.1872,18.96,18.96,0,0,1,2.4626.4737,25.7688,25.7688,0,0,1-6.033,3.103c-.0453-.0032-.0976-.0066-.1235-.0066a3.7147,3.7147,0,0,0-2.76.9792l1.5637-.06.7393.0486.3694.0239L30.9,50.87c.0064-.0042.1128.0175.164.0254l.7713.131.3859.066c.1219.028.2343.0642.3526.0959l.35.0968c.0645.02.13.0353.1946.0534-.0721.0478-.1445.095-.218.1411-.164.1044-.3364.1973-.5035.2969s-.3457.1816-.5178.2739-.3532.1681-.53.2507-.3584.1561-.541.2283c-.3614.1491-.7335.2741-1.1079.3865-.1876.0547-.3732.1146-.5643.1568s-.3779.0978-.5691.1294-.3814.08-.5729.0992c-.1917.023-.3836.06-.5743.0676a6.8912,6.8912,0,0,1-1.1371.0143,4.0761,4.0761,0,0,1-.55-.0664,3.2271,3.2271,0,0,1-.4667-.1129c-.2243-.1576-.4107-.2776-.6215-.4227l-.6909-.4666-.7364-.4418c-.2467-.1439-.4894-.3015-.7424-.4261l-.7546-.3945c-.2477-.138-.5126-.244-.77-.3642-.26-.1139-.5125-.246-.78-.3437l-.7938-.3114c-.2658-.1008-.5394-.1831-.8087-.2753-.268-.095-.543-.17-.8178-.2459-.2747-.0775-.5492-.1537-.8291-.2119-.2782-.0618-.5555-.13-.8381-.1754a15.9589,15.9589,0,0,0-1.7025-.2286c-.0963-.0089-.193-.0157-.29-.0215a3.5189,3.5189,0,0,1,.2808-.2193l.47-.34,1.2075-.8743-1.454-.0527-2.8865-.1044c-.481-.0179-.9623-.04-1.4416-.0312l-.4942.0014.0081-.0126.2514-.3917a4.3916,4.3916,0,0,1,.2754-.3725l.2828-.3673c.0971-.12.1835-.25.288-.3608.1361-.1482.2726-.3084.4084-.4554l.7294.2375c.3512.1272.7116.2222,1.0688.3262.7172.2,1.4244.43,2.1364.643l.2665.0812.0669.02.0818.02.1344.0314.5368.1277,1.0739.2575,1.07.276c.3722.08.7464.1581,1.1206.2476l.003,0,1.02.0887-.4907-.8267-.0117-.0195-.0258-.0461c-.0568-.076-.1148-.1494-.1736-.2212a11.693,11.693,0,0,0-4.995-3.4756,12.1878,12.1878,0,0,1,1.938,1.3662l-.0637-.0188-.3052-.0524a5.5032,5.5032,0,0,0-.6079-.0836l-.6036-.0515-.5976-.0174c-.4-.025-.792-.0011-1.1889-.0132-.6945.0023-1.3857.0185-2.0777.0131-.1731-.2142-.35-.4254-.5093-.6481a9.9819,9.9819,0,0,1-.5669-.8647,8.731,8.731,0,0,1-.4718-.9073,7.1645,7.1645,0,0,1-.3279-.9486c-.0082-.03-.0158-.06-.0234-.09a1.4845,1.4845,0,0,1,.91-.254,2.6707,2.6707,0,0,0,.9778-.2391,1.0952,1.0952,0,0,0-1.1869-.8838c-.2691.0239-.5752.3288-.8262.6488-.0047-.05-.0089-.1-.012-.15a3.4814,3.4814,0,0,1,.0586-.9422,1.7637,1.7637,0,0,1,.3014-.75l.0016-.0024a.5946.5946,0,0,1,.1709-.0118l.4465.0016c.7059.0068,1.4281.0376,2.1466.0742l2.162.1223,3.0511.209a1.95,1.95,0,0,1,1.5289.98,4.5984,4.5984,0,0,0,.9092,2.2927,10.8054,10.8054,0,0,0,2.3934,2.4595A6.4268,6.4268,0,0,1,20.4538,40.6a2.3735,2.3735,0,0,0,1.1574.7068c1.1456.3192,1.808-.1535,2.9007-.9458a3.5106,3.5106,0,0,1,2.4176-.7865c.4145.05-.23,1.0025-.23,1.0025a3.0979,3.0979,0,0,0,1.2042-1.2188,5.0988,5.0988,0,0,0-2.53-.31c-1.7774.0312-3.1714.3093-4.1742.356s-1.2763-.1566-1.5038-.4236-.252-.56.0571-1.04c.0287-.0339.0581-.0667.0879-.0962l.24-.2384.2834-.2065a3.7374,3.7374,0,0,1,.6149-.3616,3.9391,3.9391,0,0,1,.676-.2808l.3473-.1273c.1172-.039.2436-.0578.3649-.0879l.7351-.1667.0373-.0087.03-.0032.0986-.01.1975-.0215.395-.0416.79-.0825c.2628-.0247.5095-.0081.7653-.015l.7608-.0053.1908-.0012.183.0114.3969.0236.7929.0482c.5341.0235,1.0306.1077,1.5485.1577.2555.0243.5137.0735.7705.11.1.0146.1988.03.2975.046.8344.1574,3.3861,1.3453,3.2795,1.523a14.2477,14.2477,0,0,1-2.55.45s6.2708,1.83,6.3595,1.2256-3.2029-7.5711-3.5747-7.6677c-.3159-.0823-1.2845,1.5273-1.8993,2.4958l.0488-.1408.6346-1.8655c.4005-.9835.784-1.974,1.17-2.9658q.306.4005.6009.8151l.5107.7125c.1672.2393.3424.474.5024.7183.6308.9848,1.2463,1.98,1.8593,2.9765.5455,1.0334,1.0866,2.07,1.6143,3.1117,0,0,.2793.5847.3906.7691a5.3781,5.3781,0,0,0,1.917,2.048l-.6636-1.38a42.531,42.531,0,0,1,7.4677,4.0482,8.9968,8.9968,0,0,1-1.2458.1256l0,0a22.2969,22.2969,0,0,1-3.8591-.3441l-1.1925-.2237.6935.995c2.0792,2.3341,3.8133,2.37,3.8133,2.37a15.9893,15.9893,0,0,1-2.177-1.9541,17.5935,17.5935,0,0,0,2.1851.1557,32.0926,32.0926,0,0,1,6.3489,6.0267,25.2253,25.2253,0,0,1-2.9994-.15,20.5973,20.5973,0,0,1-4.8553-1.1046l-1.5513-.5725.98,1.3326c.0186.0253,1.5814,2.1548,2.6817,3.821a28.9541,28.9541,0,0,1-9.3607-2.7186,11.4893,11.4893,0,0,0,5.192,2.9649,18.7646,18.7646,0,0,0,5.1117.8261l.9185.0263-.48-.7828c-.6275-1.0223-1.6407-2.47-2.3721-3.4931a22.8087,22.8087,0,0,0,3.458.6679A46.3587,46.3587,0,0,1,54.98,59.0879l1.0864-.2574A43.9241,43.9241,0,0,0,50.8347,51.5571ZM17.601,45.5394l-.0046-.0025.0039.002Zm1.5821,1.7368,0,0,.0154.0286Zm-5.6867-2.3139c.3828-.0179.7717-.048,1.1515-.039l.5719.0105.5625.0484a4.6137,4.6137,0,0,1,.5486.0891l.271.0519.24.0781.24.0735c.0837.0344.1729.0864.259.1287l.236.1232.0005,0,.0063.0055.0136.0109.0265.0215.0531.0428.1059.0864.4234.3406a4.656,4.656,0,0,1,.3589.3746l-.9986-.1918-1.0787-.2309-.54-.1156-.1345-.0292-.0526-.0114-.0645-.0214-.26-.0847c-.692-.2286-1.389-.44-2.076-.6813-.053-.0187-.1061-.0369-.1592-.0551ZM9.7388,38.15Zm11.2371,1.9553s1.6144-.1886,2.0257-.2328a3.2583,3.2583,0,0,1,1.0858.0395c-.082.0451-1.4471,1.1865-2.2912.9383S20.9759,40.1049,20.9759,40.1049Zm8.4383-4.6758c-.5365-.0542-1.0878-.1436-1.6122-.1682l-.7935-.0507-.08-.0051a41.0546,41.0546,0,0,1,.792-4.2756c1.3159,1.9089,2.5284,3.9323,2.8965,4.5538l-.0213.0662-.0169.0526q-.1824-.03-.3635-.0571C29.9485,35.5066,29.6857,35.456,29.4142,35.4291Z"/></svg>