<svg id="Layer_1" data-name="Layer 1" xmlns="http://www.w3.org/2000/svg" xmlns:xlink="http://www.w3.org/1999/xlink" width="85.5" height="97.5" viewBox="0 0 85.5 97.5"><defs><style>.cls-1{fill:none;}.cls-2{fill:#ece1ce;}.cls-3{clip-path:url(#clip-path);}.cls-4{fill:#ad6518;}.cls-5{fill:#f9d8ad;}.cls-6{fill:#512a19;}.cls-7{fill:#df6e5d;}.cls-8{fill:#cae7fa;}.cls-9{fill:#b63018;}.cls-10,.cls-225{fill:#19476b;}.cls-11{fill:#c9e7fa;}.cls-100,.cls-101,.cls-102,.cls-103,.cls-104,.cls-105,.cls-106,.cls-107,.cls-108,.cls-109,.cls-11,.cls-110,.cls-113,.cls-119,.cls-12,.cls-120,.cls-122,.cls-123,.cls-126,.cls-128,.cls-13,.cls-130,.cls-132,.cls-134,.cls-136,.cls-14,.cls-141,.cls-142,.cls-144,.cls-147,.cls-148,.cls-149,.cls-15,.cls-150,.cls-151,.cls-152,.cls-153,.cls-154,.cls-155,.cls-156,.cls-157,.cls-158,.cls-159,.cls-16,.cls-160,.cls-161,.cls-162,.cls-163,.cls-164,.cls-165,.cls-166,.cls-167,.cls-168,.cls-169,.cls-17,.cls-170,.cls-171,.cls-172,.cls-173,.cls-174,.cls-175,.cls-176,.cls-177,.cls-178,.cls-179,.cls-18,.cls-180,.cls-181,.cls-182,.cls-183,.cls-184,.cls-185,.cls-186,.cls-187,.cls-188,.cls-189,.cls-19,.cls-190,.cls-191,.cls-192,.cls-193,.cls-194,.cls-195,.cls-196,.cls-197,.cls-198,.cls-199,.cls-20,.cls-200,.cls-201,.cls-202,.cls-203,.cls-204,.cls-205,.cls-206,.cls-207,.cls-208,.cls-209,.cls-21,.cls-210,.cls-211,.cls-212,.cls-213,.cls-214,.cls-215,.cls-216,.cls-217,.cls-218,.cls-219,.cls-22,.cls-220,.cls-221,.cls-222,.cls-223,.cls-224,.cls-225,.cls-226,.cls-227,.cls-228,.cls-229,.cls-23,.cls-230,.cls-231,.cls-232,.cls-233,.cls-234,.cls-235,.cls-236,.cls-237,.cls-238,.cls-239,.cls-24,.cls-240,.cls-241,.cls-242,.cls-243,.cls-244,.cls-245,.cls-246,.cls-247,.cls-248,.cls-249,.cls-25,.cls-250,.cls-251,.cls-252,.cls-253,.cls-254,.cls-255,.cls-256,.cls-257,.cls-258,.cls-259,.cls-26,.cls-260,.cls-261,.cls-262,.cls-263,.cls-264,.cls-265,.cls-266,.cls-267,.cls-268,.cls-269,.cls-27,.cls-270,.cls-271,.cls-272,.cls-273,.cls-274,.cls-275,.cls-276,.cls-28,.cls-29,.cls-30,.cls-31,.cls-32,.cls-33,.cls-34,.cls-35,.cls-36,.cls-37,.cls-38,.cls-39,.cls-40,.cls-41,.cls-42,.cls-43,.cls-44,.cls-45,.cls-46,.cls-47,.cls-48,.cls-49,.cls-50,.cls-51,.cls-52,.cls-53,.cls-54,.cls-55,.cls-56,.cls-57,.cls-58,.cls-59,.cls-60,.cls-61,.cls-62,.cls-63,.cls-64,.cls-65,.cls-66,.cls-67,.cls-68,.cls-69,.cls-70,.cls-71,.cls-72,.cls-73,.cls-74,.cls-75,.cls-76,.cls-77,.cls-78,.cls-79,.cls-80,.cls-81,.cls-82,.cls-83,.cls-84,.cls-85,.cls-86,.cls-87,.cls-88,.cls-89,.cls-90,.cls-91,.cls-92,.cls-93,.cls-94,.cls-95,.cls-96,.cls-97,.cls-98,.cls-99{fill-rule:evenodd;}.cls-12{fill:#c8e6fa;}.cls-13{fill:#c7e5fa;}.cls-14{fill:#c5e5f9;}.cls-15{fill:#c5e3f9;}.cls-16{fill:#c4e3f8;}.cls-17{fill:#c3e2f8;}.cls-18{fill:#c2e1f8;}.cls-19{fill:#c1e0f7;}.cls-20{fill:#c0e0f6;}.cls-21{fill:#bfdff5;}.cls-22{fill:#bedef4;}.cls-23{fill:#bdddf4;}.cls-24{fill:#bcdaf2;}.cls-25{fill:#bbd9f1;}.cls-26{fill:#b9d8f0;}.cls-27{fill:#b8d7ef;}.cls-28{fill:#b7d6ed;}.cls-29{fill:#b6d5ec;}.cls-30{fill:#b5d4ec;}.cls-31{fill:#b5d3eb;}.cls-32{fill:#b4d2e9;}.cls-33{fill:#b3d1e8;}.cls-34{fill:#b2d0e7;}.cls-35{fill:#b1cfe7;}.cls-36{fill:#afcee5;}.cls-37{fill:#aecde4;}.cls-38{fill:#adcce3;}.cls-39{fill:#adcbe1;}.cls-40{fill:#accae0;}.cls-41{fill:#abc9df;}.cls-42{fill:#aac7de;}.cls-43{fill:#a9c6dc;}.cls-44{fill:#a8c5db;}.cls-45{fill:#a7c4da;}.cls-46{fill:#a6c3d9;}.cls-47{fill:#a6c2d7;}.cls-48{fill:#a4c1d6;}.cls-49{fill:#a3c0d5;}.cls-50{fill:#a2bfd4;}.cls-51{fill:#502a19;}.cls-52{fill:#4f2918;}.cls-53{fill:#4e2918;}.cls-54{fill:#4d2818;}.cls-55{fill:#4c2818;}.cls-56{fill:#4a2718;}.cls-57{fill:#492718;}.cls-58{fill:#482718;}.cls-59{fill:#472718;}.cls-60{fill:#462618;}.cls-61{fill:#452618;}.cls-62{fill:#442518;}.cls-63{fill:#432518;}.cls-64{fill:#432517;}.cls-65{fill:#422417;}.cls-66{fill:#412417;}.cls-67{fill:#402316;}.cls-68{fill:#3f2316;}.cls-69{fill:#3e2215;}.cls-70{fill:#3d2215;}.cls-71{fill:#3c2115;}.cls-72{fill:#f7d5ab;}.cls-73{fill:#f6d5aa;}.cls-74{fill:#f5d4a9;}.cls-75{fill:#f3d2a7;}.cls-76{fill:#f2d1a6;}.cls-77{fill:#f1d0a5;}.cls-78{fill:#efcea3;}.cls-79{fill:#edcda2;}.cls-80{fill:#eccba0;}.cls-81{fill:#eac99f;}.cls-82{fill:#e9c89e;}.cls-83{fill:#e7c79c;}.cls-84{fill:#e7c69b;}.cls-85{fill:#e5c49a;}.cls-86{fill:#e4c399;}.cls-87{fill:#e2c297;}.cls-88{fill:#e1c096;}.cls-89{fill:#dfbf95;}.cls-90{fill:#debe94;}.cls-91{fill:#ddbc92;}.cls-92{fill:#dcbb91;}.cls-93{fill:#daba8f;}.cls-94{fill:#d9b88f;}.cls-95{fill:#d7b78d;}.cls-96{fill:#d7b68c;}.cls-97{fill:#d5b58b;}.cls-98{fill:#d4b48a;}.cls-99{fill:#d2b388;}.cls-100{fill:#d2b187;}.cls-101{fill:#d0b085;}.cls-102{fill:#cfaf84;}.cls-103{fill:#cdad83;}.cls-104{fill:#ccac82;}.cls-105{fill:#cbab81;}.cls-106{fill:#c9a97f;}.cls-107{fill:#c7a77c;}.cls-108{fill:#c6a67b;}.cls-109{fill:#c4a47a;}.cls-110{fill:#c4a379;}.cls-111,.cls-255{fill:#b53018;}.cls-112,.cls-256{fill:#b42f18;}.cls-113{fill:#b32f18;}.cls-114,.cls-257{fill:#b22f18;}.cls-115,.cls-258{fill:#b12e18;}.cls-116,.cls-259{fill:#b02e18;}.cls-117,.cls-260{fill:#ae2f18;}.cls-118,.cls-261{fill:#ad2e18;}.cls-119{fill:#ac2e18;}.cls-120{fill:#ab2d17;}.cls-121,.cls-262{fill:#aa2d17;}.cls-122{fill:#a92d17;}.cls-123{fill:#a82d17;}.cls-124,.cls-263{fill:#a72d17;}.cls-125,.cls-264{fill:#a62d17;}.cls-126{fill:#a52d17;}.cls-127,.cls-128{fill:#a42c17;}.cls-129,.cls-265{fill:#a32c17;}.cls-130{fill:#a12c17;}.cls-131,.cls-266{fill:#a02c16;}.cls-132{fill:#9f2c16;}.cls-133,.cls-267{fill:#9e2b16;}.cls-134{fill:#9d2b16;}.cls-135,.cls-268{fill:#9c2b16;}.cls-136{fill:#9b2b16;}.cls-137,.cls-269{fill:#9a2b16;}.cls-138,.cls-270{fill:#992b16;}.cls-139,.cls-271{fill:#992a16;}.cls-140,.cls-272{fill:#982a15;}.cls-141{fill:#972a15;}.cls-142{fill:#962a15;}.cls-143,.cls-273{fill:#942a15;}.cls-144{fill:#932a15;}.cls-145,.cls-274{fill:#922914;}.cls-146,.cls-275{fill:#912914;}.cls-147{fill:#902814;}.cls-148{fill:#8f2814;}.cls-149{fill:#ac6418;}.cls-150{fill:#ab6418;}.cls-151{fill:#aa6318;}.cls-152{fill:#a96319;}.cls-153{fill:#a96218;}.cls-154{fill:#a86219;}.cls-155{fill:#a76119;}.cls-156{fill:#a66019;}.cls-157{fill:#a56019;}.cls-158{fill:#a45f19;}.cls-159{fill:#a36019;}.cls-160{fill:#a35e19;}.cls-161{fill:#a25e19;}.cls-162{fill:#a15d19;}.cls-163{fill:#a05e19;}.cls-164{fill:#9f5d19;}.cls-165{fill:#9e5c19;}.cls-166{fill:#9d5c19;}.cls-167{fill:#9c5b19;}.cls-168{fill:#9b5a19;}.cls-169{fill:#9a5a19;}.cls-170{fill:#995918;}.cls-171{fill:#985918;}.cls-172{fill:#975818;}.cls-173{fill:#965818;}.cls-174{fill:#955718;}.cls-175{fill:#945618;}.cls-176{fill:#935618;}.cls-177{fill:#925518;}.cls-178{fill:#915418;}.cls-179{fill:#905318;}.cls-180{fill:#8f5318;}.cls-181{fill:#8f5218;}.cls-182{fill:#8e5218;}.cls-183{fill:#8d5117;}.cls-184{fill:#8c5218;}.cls-185{fill:#de6d5b;}.cls-186{fill:#dc6d5b;}.cls-187{fill:#db6c5a;}.cls-188{fill:#da6b5a;}.cls-189{fill:#d96a59;}.cls-190{fill:#d86a58;}.cls-191{fill:#d76958;}.cls-192{fill:#d66857;}.cls-193{fill:#d56856;}.cls-194{fill:#d36756;}.cls-195{fill:#d26555;}.cls-196{fill:#d16655;}.cls-197{fill:#d06554;}.cls-198{fill:#cf6353;}.cls-199{fill:#ce6353;}.cls-200{fill:#cc6352;}.cls-201{fill:#cb6252;}.cls-202{fill:#ca6151;}.cls-203{fill:#c96150;}.cls-204{fill:#c86050;}.cls-205{fill:#c65f4f;}.cls-206{fill:#c55f4e;}.cls-207{fill:#c45e4e;}.cls-208{fill:#c25d4d;}.cls-209{fill:#c15c4d;}.cls-210{fill:#c05c4c;}.cls-211{fill:#be5b4b;}.cls-212{fill:#bd5a4b;}.cls-213{fill:#bc5a4a;}.cls-214{fill:#ba5a49;}.cls-215{fill:#b95949;}.cls-216{fill:#b95848;}.cls-217{fill:#b75848;}.cls-218{fill:#b65747;}.cls-219{fill:#b45646;}.cls-220{fill:#b35646;}.cls-221{fill:#b25545;}.cls-222{fill:#b05445;}.cls-223{fill:#af5444;}.cls-224{fill:#ae5343;}.cls-226{fill:#19466a;}.cls-227{fill:#194569;}.cls-228{fill:#184669;}.cls-229{fill:#184568;}.cls-230{fill:#194567;}.cls-231{fill:#194467;}.cls-232{fill:#194466;}.cls-233{fill:#194365;}.cls-234{fill:#194364;}.cls-235{fill:#194264;}.cls-236{fill:#194263;}.cls-237{fill:#194262;}.cls-238{fill:#194161;}.cls-239{fill:#1a4160;}.cls-240{fill:#19405f;}.cls-241{fill:#193f5e;}.cls-242{fill:#193f5d;}.cls-243{fill:#193e5c;}.cls-244{fill:#193d5b;}.cls-245{fill:#193d5a;}.cls-246{fill:#193c5a;}.cls-247{fill:#193c59;}.cls-248{fill:#193c58;}.cls-249{fill:#193c57;}.cls-250{fill:#193b57;}.cls-251{fill:#193b56;}.cls-252{fill:#183a56;}.cls-253{fill:#183a55;}.cls-254{fill:#183954;}.cls-276{fill:#f8d7ac;}.cls-277{fill:#010000;}.cls-278{fill:#b81817;}.cls-279{fill:#cc1417;}.cls-280{fill:#006e6f;}.cls-281{fill:#00a167;}</style><clipPath id="clip-path"><path class="cls-1" d="M-17.2368,49.9031A36.02,36.02,0,0,1-53.4,85.7618,35.99,35.99,0,0,1-89.0491,49.4153,36.02,36.02,0,0,1-52.8855,13.5564,35.9909,35.9909,0,0,1-17.2368,49.9031Z"/></clipPath></defs><rect class="cls-2" x="-2.7012" y="-2.2012" width="93" height="103"/><g class="cls-3"><rect class="cls-4" x="-204.8803" y="11.2499" width="357.5838" height="4.4709"/><rect class="cls-5" x="-204.8803" y="15.7208" width="357.5838" height="2.9469"/><rect class="cls-6" x="-204.8803" y="18.6676" width="357.5838" height="2.9466"/><rect class="cls-7" x="-204.8803" y="21.6142" width="357.5838" height="1.7883"/><rect class="cls-8" x="-204.8803" y="23.4025" width="357.5838" height="1.7882"/><rect class="cls-9" x="-204.8803" y="25.1906" width="357.5838" height="5.754"/><rect class="cls-10" x="-204.8803" y="30.9447" width="357.5838" height="2.7236"/><rect class="cls-7" x="-204.8803" y="33.6683" width="357.5838" height="3.352"/><rect class="cls-4" x="-204.8803" y="37.0203" width="357.5838" height="5.8666"/><rect class="cls-10" x="-204.8803" y="42.887" width="357.5838" height="2.5142"/><rect class="cls-6" x="-204.8803" y="45.4012" width="357.5838" height="7.333"/><rect class="cls-9" x="-204.8803" y="52.7341" width="357.5838" height="3.9803"/><rect class="cls-5" x="-204.8803" y="56.7144" width="357.5838" height="2.5147"/><rect class="cls-6" x="-204.8803" y="59.2291" width="357.5838" height="4.1906"/><rect class="cls-8" x="-204.8803" y="63.4197" width="357.5838" height="3.1401"/><rect class="cls-9" x="-204.8803" y="7.1704" width="357.5838" height="4.0795"/><rect class="cls-8" x="-204.8803" y="63.4197" width="357.5838" height="3.1401"/><path class="cls-11" d="M148.9566,66.56V63.42H-204.88v3.14Z"/><path class="cls-12" d="M145.2085,66.56V63.42H-204.88v3.14Z"/><path class="cls-13" d="M141.4619,66.56V63.42H-204.88v3.14Z"/><path class="cls-14" d="M137.7122,66.56V63.42H-204.88v3.14Z"/><path class="cls-15" d="M133.9648,66.56V63.42H-204.88v3.14Z"/><path class="cls-16" d="M130.2184,66.56V63.42H-204.88v3.14Z"/><path class="cls-17" d="M126.4685,66.56V63.42H-204.88v3.14Z"/><path class="cls-18" d="M122.7218,66.56V63.42H-204.88v3.14Z"/><path class="cls-19" d="M118.9762,66.56V63.42H-204.88v3.14Z"/><path class="cls-20" d="M115.227,66.56V63.42H-204.88v3.14Z"/><path class="cls-21" d="M111.4821,66.56V63.42H-204.88v3.14Z"/><path class="cls-22" d="M107.73,66.56V63.42H-204.88v3.14Z"/><path class="cls-23" d="M103.9829,66.56V63.42H-204.88v3.14Z"/><path class="cls-24" d="M100.2356,66.56V63.42H-204.88v3.14Z"/><path class="cls-25" d="M96.488,66.56V63.42H-204.88v3.14Z"/><path class="cls-26" d="M92.7413,66.56V63.42H-204.88v3.14Z"/><path class="cls-27" d="M88.9918,66.56V63.42H-204.88v3.14Z"/><path class="cls-28" d="M85.2476,66.56V63.42H-204.88v3.14Z"/><path class="cls-29" d="M81.4954,66.56V63.42H-204.88v3.14Z"/><path class="cls-30" d="M77.75,66.56V63.42H-204.88v3.14Z"/><path class="cls-31" d="M74.0008,66.56V63.42H-204.88v3.14Z"/><path class="cls-32" d="M70.2534,66.56V63.42H-204.88v3.14Z"/><path class="cls-33" d="M66.5062,66.56V63.42H-204.88v3.14Z"/><path class="cls-34" d="M62.759,66.56V63.42H-204.88v3.14Z"/><path class="cls-35" d="M59.01,66.56V63.42H-204.88v3.14Z"/><path class="cls-36" d="M55.2649,66.56V63.42H-204.88v3.14Z"/><path class="cls-37" d="M51.5157,66.56V63.42H-204.88v3.14Z"/><path class="cls-38" d="M47.7681,66.56V63.42H-204.88v3.14Z"/><path class="cls-39" d="M44.0189,66.56V63.42H-204.88v3.14Z"/><path class="cls-40" d="M40.2716,66.56V63.42H-204.88v3.14Z"/><path class="cls-41" d="M36.524,66.56V63.42H-204.88v3.14Z"/><path class="cls-42" d="M32.7771,66.56V63.42H-204.88v3.14Z"/><path class="cls-43" d="M29.0271,66.56V63.42H-204.88v3.14Z"/><path class="cls-44" d="M25.28,66.56V63.42H-204.88v3.14Z"/><path class="cls-45" d="M21.5356,66.56V63.42H-204.88v3.14Z"/><path class="cls-46" d="M17.7854,66.56V63.42H-204.88v3.14Z"/><path class="cls-47" d="M14.0386,66.56V63.42H-204.88v3.14Z"/><path class="cls-48" d="M10.29,66.56V63.42H-204.88v3.14Z"/><path class="cls-49" d="M6.5424,66.56V63.42H-204.88v3.14Z"/><path class="cls-50" d="M2.7931,66.56V63.42H-204.88v3.14Z"/><path class="cls-51" d="M148.9566,63.42V59.2291H-204.88V63.42Z"/><path class="cls-51" d="M145.2085,63.42V59.2291H-204.88V63.42Z"/><path class="cls-52" d="M141.4619,63.42V59.2291H-204.88V63.42Z"/><path class="cls-52" d="M137.7122,63.42V59.2291H-204.88V63.42Z"/><path class="cls-53" d="M133.9648,63.42V59.2291H-204.88V63.42Z"/><path class="cls-53" d="M130.2184,63.42V59.2291H-204.88V63.42Z"/><path class="cls-54" d="M126.4685,63.42V59.2291H-204.88V63.42Z"/><path class="cls-54" d="M122.7218,63.42V59.2291H-204.88V63.42Z"/><path class="cls-55" d="M118.9762,63.42V59.2291H-204.88V63.42Z"/><path class="cls-55" d="M115.227,63.42V59.2291H-204.88V63.42Z"/><path class="cls-56" d="M111.4821,63.42V59.2291H-204.88V63.42Z"/><path class="cls-56" d="M107.73,63.42V59.2291H-204.88V63.42Z"/><path class="cls-57" d="M103.9829,63.42V59.2291H-204.88V63.42Z"/><path class="cls-57" d="M100.2356,63.42V59.2291H-204.88V63.42Z"/><path class="cls-58" d="M96.488,63.42V59.2291H-204.88V63.42Z"/><path class="cls-58" d="M92.7413,63.42V59.2291H-204.88V63.42Z"/><path class="cls-59" d="M88.9918,63.42V59.2291H-204.88V63.42Z"/><path class="cls-59" d="M85.2476,63.42V59.2291H-204.88V63.42Z"/><path class="cls-60" d="M81.4954,63.42V59.2291H-204.88V63.42Z"/><path class="cls-60" d="M77.75,63.42V59.2291H-204.88V63.42Z"/><path class="cls-61" d="M74.0008,63.42V59.2291H-204.88V63.42Z"/><path class="cls-61" d="M70.2534,63.42V59.2291H-204.88V63.42Z"/><path class="cls-62" d="M66.5062,63.42V59.2291H-204.88V63.42Z"/><path class="cls-62" d="M62.759,63.42V59.2291H-204.88V63.42Z"/><path class="cls-63" d="M59.01,63.42V59.2291H-204.88V63.42Z"/><path class="cls-64" d="M55.2649,63.42V59.2291H-204.88V63.42Z"/><path class="cls-65" d="M51.5157,63.42V59.2291H-204.88V63.42Z"/><path class="cls-65" d="M47.7681,63.42V59.2291H-204.88V63.42Z"/><path class="cls-66" d="M44.0189,63.42V59.2291H-204.88V63.42Z"/><path class="cls-66" d="M40.2716,63.42V59.2291H-204.88V63.42Z"/><path class="cls-67" d="M36.524,63.42V59.2291H-204.88V63.42Z"/><path class="cls-67" d="M32.7771,63.42V59.2291H-204.88V63.42Z"/><path class="cls-68" d="M29.0271,63.42V59.2291H-204.88V63.42Z"/><path class="cls-68" d="M25.28,63.42V59.2291H-204.88V63.42Z"/><path class="cls-69" d="M21.5356,63.42V59.2291H-204.88V63.42Z"/><path class="cls-69" d="M17.7854,63.42V59.2291H-204.88V63.42Z"/><path class="cls-70" d="M14.0386,63.42V59.2291H-204.88V63.42Z"/><path class="cls-70" d="M10.29,63.42V59.2291H-204.88V63.42Z"/><path class="cls-71" d="M6.5424,63.42V59.2291H-204.88V63.42Z"/><path class="cls-71" d="M2.7931,63.42V59.2291H-204.88V63.42Z"/><path class="cls-72" d="M145.2085,59.2269V56.7144H-204.88v2.5125Z"/><path class="cls-73" d="M141.4619,59.2269V56.7144H-204.88v2.5125Z"/><path class="cls-74" d="M137.7122,59.2269V56.7144H-204.88v2.5125Z"/><path class="cls-75" d="M133.9648,59.2269V56.7144H-204.88v2.5125Z"/><path class="cls-76" d="M130.2184,59.2269V56.7144H-204.88v2.5125Z"/><path class="cls-77" d="M126.4685,59.2269V56.7144H-204.88v2.5125Z"/><path class="cls-78" d="M122.7218,59.2269V56.7144H-204.88v2.5125Z"/><path class="cls-79" d="M118.9762,59.2269V56.7144H-204.88v2.5125Z"/><path class="cls-80" d="M115.227,59.2269V56.7144H-204.88v2.5125Z"/><path class="cls-81" d="M111.4821,59.2269V56.7144H-204.88v2.5125Z"/><path class="cls-82" d="M107.73,59.2269V56.7144H-204.88v2.5125Z"/><path class="cls-83" d="M103.9829,59.2269V56.7144H-204.88v2.5125Z"/><path class="cls-84" d="M100.2356,59.2269V56.7144H-204.88v2.5125Z"/><path class="cls-85" d="M96.488,59.2269V56.7144H-204.88v2.5125Z"/><path class="cls-86" d="M92.7413,59.2269V56.7144H-204.88v2.5125Z"/><path class="cls-87" d="M88.9918,59.2269V56.7144H-204.88v2.5125Z"/><path class="cls-88" d="M85.2476,59.2269V56.7144H-204.88v2.5125Z"/><path class="cls-89" d="M81.4954,59.2269V56.7144H-204.88v2.5125Z"/><path class="cls-90" d="M77.75,59.2269V56.7144H-204.88v2.5125Z"/><path class="cls-91" d="M74.0008,59.2269V56.7144H-204.88v2.5125Z"/><path class="cls-92" d="M70.2534,59.2269V56.7144H-204.88v2.5125Z"/><path class="cls-93" d="M66.5062,59.2269V56.7144H-204.88v2.5125Z"/><path class="cls-94" d="M62.759,59.2269V56.7144H-204.88v2.5125Z"/><path class="cls-95" d="M59.01,59.2269V56.7144H-204.88v2.5125Z"/><path class="cls-96" d="M55.2649,59.2269V56.7144H-204.88v2.5125Z"/><path class="cls-97" d="M51.5157,59.2269V56.7144H-204.88v2.5125Z"/><path class="cls-98" d="M47.7681,59.2269V56.7144H-204.88v2.5125Z"/><path class="cls-99" d="M44.0189,59.2269V56.7144H-204.88v2.5125Z"/><path class="cls-100" d="M40.2716,59.2269V56.7144H-204.88v2.5125Z"/><path class="cls-101" d="M36.524,59.2269V56.7144H-204.88v2.5125Z"/><path class="cls-102" d="M32.7771,59.2269V56.7144H-204.88v2.5125Z"/><path class="cls-103" d="M29.0271,59.2269V56.7144H-204.88v2.5125Z"/><path class="cls-104" d="M25.28,59.2269V56.7144H-204.88v2.5125Z"/><path class="cls-105" d="M21.5356,59.2269V56.7144H-204.88v2.5125Z"/><path class="cls-106" d="M17.7854,59.2269V56.7144H-204.88v2.5125Z"/><path class="cls-107" d="M14.0386,59.2269V56.7144H-204.88v2.5125Z"/><path class="cls-108" d="M10.29,59.2269V56.7144H-204.88v2.5125Z"/><path class="cls-109" d="M6.5424,59.2269V56.7144H-204.88v2.5125Z"/><path class="cls-110" d="M2.7931,59.2269V56.7144H-204.88v2.5125Z"/><rect class="cls-9" x="-204.8803" y="52.7341" width="357.5838" height="3.9803"/><ellipse class="cls-111" cx="-27.9619" cy="54.7243" rx="250.2017" ry="2.8145"/><ellipse class="cls-112" cx="-29.8359" cy="54.7243" rx="247.5506" ry="2.8145"/><path class="cls-113" d="M141.4619,56.7144v-3.98H-204.88v3.98Z"/><ellipse class="cls-114" cx="-33.5841" cy="54.7243" rx="242.251" ry="2.8145"/><ellipse class="cls-115" cx="-35.4578" cy="54.7243" rx="239.6013" ry="2.8144"/><ellipse class="cls-116" cx="-37.331" cy="54.7243" rx="236.9526" ry="2.8144"/><ellipse class="cls-117" cx="-39.2059" cy="54.7243" rx="234.301" ry="2.8144"/><ellipse class="cls-118" cx="-41.0793" cy="54.7243" rx="231.6504" ry="2.8145"/><path class="cls-119" d="M118.9762,56.7144v-3.98H-204.88v3.98Z"/><path class="cls-119" d="M115.227,56.7144v-3.98H-204.88v3.98Z"/><path class="cls-120" d="M111.4821,56.7144v-3.98H-204.88v3.98Z"/><ellipse class="cls-121" cx="-48.5751" cy="54.7243" rx="221.0506" ry="2.8144"/><path class="cls-122" d="M103.9829,56.7144v-3.98H-204.88v3.98Z"/><path class="cls-123" d="M100.2356,56.7144v-3.98H-204.88v3.98Z"/><ellipse class="cls-124" cx="-54.1961" cy="54.7243" rx="213.1006" ry="2.8145"/><ellipse class="cls-125" cx="-56.0695" cy="54.7243" rx="210.4508" ry="2.8145"/><path class="cls-126" d="M88.9918,56.7144v-3.98H-204.88v3.98Z"/><ellipse class="cls-127" cx="-59.8164" cy="54.7243" rx="205.1523" ry="2.8145"/><path class="cls-128" d="M81.4954,56.7144v-3.98H-204.88v3.98Z"/><ellipse class="cls-129" cx="-63.565" cy="54.7243" rx="199.8514" ry="2.8144"/><path class="cls-130" d="M74.0008,56.7144v-3.98H-204.88v3.98Z"/><ellipse class="cls-131" cx="-67.3135" cy="54.7243" rx="194.5497" ry="2.8145"/><path class="cls-132" d="M66.5062,56.7144v-3.98H-204.88v3.98Z"/><ellipse class="cls-133" cx="-71.0607" cy="54.7243" rx="189.2493" ry="2.8145"/><path class="cls-134" d="M59.01,56.7144v-3.98H-204.88v3.98Z"/><ellipse class="cls-135" cx="-74.8077" cy="54.7243" rx="183.9523" ry="2.8144"/><path class="cls-136" d="M51.5157,56.7144v-3.98H-204.88v3.98Z"/><ellipse class="cls-137" cx="-78.5561" cy="54.7243" rx="178.65" ry="2.8145"/><ellipse class="cls-138" cx="-80.4307" cy="54.7243" rx="175.999" ry="2.8145"/><ellipse class="cls-139" cx="-82.3044" cy="54.7243" rx="173.3497" ry="2.8145"/><ellipse class="cls-140" cx="-84.1782" cy="54.7243" rx="170.7005" ry="2.8144"/><path class="cls-141" d="M32.7771,56.7144v-3.98H-204.88v3.98Z"/><path class="cls-142" d="M29.0271,56.7144v-3.98H-204.88v3.98Z"/><ellipse class="cls-143" cx="-89.8" cy="54.7243" rx="162.7483" ry="2.8145"/><path class="cls-144" d="M21.5356,56.7144v-3.98H-204.88v3.98Z"/><ellipse class="cls-145" cx="-93.5475" cy="54.7243" rx="157.45" ry="2.8144"/><ellipse class="cls-145" cx="-95.4209" cy="54.7243" rx="154.8" ry="2.8145"/><ellipse class="cls-146" cx="-97.2953" cy="54.7243" rx="152.148" ry="2.8145"/><path class="cls-147" d="M6.5424,56.7144v-3.98H-204.88v3.98Z"/><path class="cls-148" d="M2.7931,56.7144v-3.98H-204.88v3.98Z"/><rect class="cls-6" x="-204.8803" y="45.4012" width="357.5838" height="7.333"/><path class="cls-51" d="M148.9566,52.7341V45.4012H-204.88v7.3329Z"/><path class="cls-51" d="M145.2085,52.7341V45.4012H-204.88v7.3329Z"/><path class="cls-52" d="M141.4619,52.7341V45.4012H-204.88v7.3329Z"/><path class="cls-52" d="M137.7122,52.7341V45.4012H-204.88v7.3329Z"/><path class="cls-53" d="M133.9648,52.7341V45.4012H-204.88v7.3329Z"/><path class="cls-53" d="M130.2184,52.7341V45.4012H-204.88v7.3329Z"/><path class="cls-54" d="M126.4685,52.7341V45.4012H-204.88v7.3329Z"/><path class="cls-54" d="M122.7218,52.7341V45.4012H-204.88v7.3329Z"/><path class="cls-55" d="M118.9762,52.7341V45.4012H-204.88v7.3329Z"/><path class="cls-55" d="M115.227,52.7341V45.4012H-204.88v7.3329Z"/><path class="cls-56" d="M111.4821,52.7341V45.4012H-204.88v7.3329Z"/><path class="cls-56" d="M107.73,52.7341V45.4012H-204.88v7.3329Z"/><path class="cls-57" d="M103.9829,52.7341V45.4012H-204.88v7.3329Z"/><path class="cls-57" d="M100.2356,52.7341V45.4012H-204.88v7.3329Z"/><path class="cls-58" d="M96.488,52.7341V45.4012H-204.88v7.3329Z"/><path class="cls-58" d="M92.7413,52.7341V45.4012H-204.88v7.3329Z"/><path class="cls-59" d="M88.9918,52.7341V45.4012H-204.88v7.3329Z"/><path class="cls-59" d="M85.2476,52.7341V45.4012H-204.88v7.3329Z"/><path class="cls-60" d="M81.4954,52.7341V45.4012H-204.88v7.3329Z"/><path class="cls-60" d="M77.75,52.7341V45.4012H-204.88v7.3329Z"/><path class="cls-61" d="M74.0008,52.7341V45.4012H-204.88v7.3329Z"/><path class="cls-61" d="M70.2534,52.7341V45.4012H-204.88v7.3329Z"/><path class="cls-62" d="M66.5062,52.7341V45.4012H-204.88v7.3329Z"/><path class="cls-62" d="M62.759,52.7341V45.4012H-204.88v7.3329Z"/><path class="cls-63" d="M59.01,52.7341V45.4012H-204.88v7.3329Z"/><path class="cls-64" d="M55.2649,52.7341V45.4012H-204.88v7.3329Z"/><path class="cls-65" d="M51.5157,52.7341V45.4012H-204.88v7.3329Z"/><path class="cls-65" d="M47.7681,52.7341V45.4012H-204.88v7.3329Z"/><path class="cls-66" d="M44.0189,52.7341V45.4012H-204.88v7.3329Z"/><path class="cls-66" d="M40.2716,52.7341V45.4012H-204.88v7.3329Z"/><path class="cls-67" d="M36.524,52.7341V45.4012H-204.88v7.3329Z"/><path class="cls-67" d="M32.7771,52.7341V45.4012H-204.88v7.3329Z"/><path class="cls-68" d="M29.0271,52.7341V45.4012H-204.88v7.3329Z"/><path class="cls-68" d="M25.28,52.7341V45.4012H-204.88v7.3329Z"/><path class="cls-69" d="M21.5356,52.7341V45.4012H-204.88v7.3329Z"/><path class="cls-69" d="M17.7854,52.7341V45.4012H-204.88v7.3329Z"/><path class="cls-70" d="M14.0386,52.7341V45.4012H-204.88v7.3329Z"/><path class="cls-70" d="M10.29,52.7341V45.4012H-204.88v7.3329Z"/><path class="cls-71" d="M6.5424,52.7341V45.4012H-204.88v7.3329Z"/><path class="cls-71" d="M2.7931,52.7341V45.4012H-204.88v7.3329Z"/><rect class="cls-4" x="-204.8803" y="37.0203" width="357.5838" height="5.8666"/><path class="cls-149" d="M148.9566,42.887V37.02H-204.88V42.887Z"/><path class="cls-150" d="M145.2085,42.887V37.02H-204.88V42.887Z"/><path class="cls-151" d="M141.4619,42.887V37.02H-204.88V42.887Z"/><path class="cls-152" d="M137.7122,42.887V37.02H-204.88V42.887Z"/><path class="cls-153" d="M133.9648,42.887V37.02H-204.88V42.887Z"/><path class="cls-154" d="M130.2184,42.887V37.02H-204.88V42.887Z"/><path class="cls-155" d="M126.4685,42.887V37.02H-204.88V42.887Z"/><path class="cls-155" d="M122.7218,42.887V37.02H-204.88V42.887Z"/><path class="cls-156" d="M118.9762,42.887V37.02H-204.88V42.887Z"/><path class="cls-157" d="M115.227,42.887V37.02H-204.88V42.887Z"/><path class="cls-158" d="M111.4821,42.887V37.02H-204.88V42.887Z"/><path class="cls-159" d="M107.73,42.887V37.02H-204.88V42.887Z"/><path class="cls-160" d="M103.9829,42.887V37.02H-204.88V42.887Z"/><path class="cls-161" d="M100.2356,42.887V37.02H-204.88V42.887Z"/><path class="cls-162" d="M96.488,42.887V37.02H-204.88V42.887Z"/><path class="cls-163" d="M92.7413,42.887V37.02H-204.88V42.887Z"/><path class="cls-164" d="M88.9918,42.887V37.02H-204.88V42.887Z"/><path class="cls-165" d="M85.2476,42.887V37.02H-204.88V42.887Z"/><path class="cls-166" d="M81.4954,42.887V37.02H-204.88V42.887Z"/><path class="cls-167" d="M77.75,42.887V37.02H-204.88V42.887Z"/><path class="cls-167" d="M74.0008,42.887V37.02H-204.88V42.887Z"/><path class="cls-168" d="M70.2534,42.887V37.02H-204.88V42.887Z"/><path class="cls-169" d="M66.5062,42.887V37.02H-204.88V42.887Z"/><path class="cls-170" d="M62.759,42.887V37.02H-204.88V42.887Z"/><path class="cls-171" d="M59.01,42.887V37.02H-204.88V42.887Z"/><path class="cls-172" d="M55.2649,42.887V37.02H-204.88V42.887Z"/><path class="cls-173" d="M51.5157,42.887V37.02H-204.88V42.887Z"/><path class="cls-174" d="M47.7681,42.887V37.02H-204.88V42.887Z"/><path class="cls-174" d="M44.0189,42.887V37.02H-204.88V42.887Z"/><path class="cls-175" d="M40.2716,42.887V37.02H-204.88V42.887Z"/><path class="cls-176" d="M36.524,42.887V37.02H-204.88V42.887Z"/><path class="cls-177" d="M32.7771,42.887V37.02H-204.88V42.887Z"/><path class="cls-178" d="M29.0271,42.887V37.02H-204.88V42.887Z"/><path class="cls-178" d="M25.28,42.887V37.02H-204.88V42.887Z"/><path class="cls-179" d="M21.5356,42.887V37.02H-204.88V42.887Z"/><path class="cls-180" d="M17.7854,42.887V37.02H-204.88V42.887Z"/><path class="cls-181" d="M14.0386,42.887V37.02H-204.88V42.887Z"/><path class="cls-182" d="M10.29,42.887V37.02H-204.88V42.887Z"/><path class="cls-183" d="M6.5424,42.887V37.02H-204.88V42.887Z"/><path class="cls-184" d="M2.7931,42.887V37.02H-204.88V42.887Z"/><rect class="cls-7" x="-204.8803" y="33.6683" width="357.5838" height="3.352"/><path class="cls-185" d="M148.9566,37.02v-3.352H-204.88V37.02Z"/><path class="cls-186" d="M145.2085,37.02v-3.352H-204.88V37.02Z"/><path class="cls-187" d="M141.4619,37.02v-3.352H-204.88V37.02Z"/><path class="cls-188" d="M137.7122,37.02v-3.352H-204.88V37.02Z"/><path class="cls-189" d="M133.9648,37.02v-3.352H-204.88V37.02Z"/><path class="cls-190" d="M130.2184,37.02v-3.352H-204.88V37.02Z"/><path class="cls-191" d="M126.4685,37.02v-3.352H-204.88V37.02Z"/><path class="cls-192" d="M122.7218,37.02v-3.352H-204.88V37.02Z"/><path class="cls-193" d="M118.9762,37.02v-3.352H-204.88V37.02Z"/><path class="cls-194" d="M115.227,37.02v-3.352H-204.88V37.02Z"/><path class="cls-195" d="M111.4821,37.02v-3.352H-204.88V37.02Z"/><path class="cls-196" d="M107.73,37.02v-3.352H-204.88V37.02Z"/><path class="cls-197" d="M103.9829,37.02v-3.352H-204.88V37.02Z"/><path class="cls-198" d="M100.2356,37.02v-3.352H-204.88V37.02Z"/><path class="cls-199" d="M96.488,37.02v-3.352H-204.88V37.02Z"/><path class="cls-200" d="M92.7413,37.02v-3.352H-204.88V37.02Z"/><path class="cls-201" d="M88.9918,37.02v-3.352H-204.88V37.02Z"/><path class="cls-202" d="M85.2476,37.02v-3.352H-204.88V37.02Z"/><path class="cls-203" d="M81.4954,37.02v-3.352H-204.88V37.02Z"/><path class="cls-204" d="M77.75,37.02v-3.352H-204.88V37.02Z"/><path class="cls-205" d="M74.0008,37.02v-3.352H-204.88V37.02Z"/><path class="cls-206" d="M70.2534,37.02v-3.352H-204.88V37.02Z"/><path class="cls-207" d="M66.5062,37.02v-3.352H-204.88V37.02Z"/><path class="cls-208" d="M62.759,37.02v-3.352H-204.88V37.02Z"/><path class="cls-209" d="M59.01,37.02v-3.352H-204.88V37.02Z"/><path class="cls-210" d="M55.2649,37.02v-3.352H-204.88V37.02Z"/><path class="cls-211" d="M51.5157,37.02v-3.352H-204.88V37.02Z"/><path class="cls-212" d="M47.7681,37.02v-3.352H-204.88V37.02Z"/><path class="cls-213" d="M44.0189,37.02v-3.352H-204.88V37.02Z"/><path class="cls-214" d="M40.2716,37.02v-3.352H-204.88V37.02Z"/><path class="cls-215" d="M36.524,37.02v-3.352H-204.88V37.02Z"/><path class="cls-216" d="M32.7771,37.02v-3.352H-204.88V37.02Z"/><path class="cls-217" d="M29.0271,37.02v-3.352H-204.88V37.02Z"/><path class="cls-218" d="M25.28,37.02v-3.352H-204.88V37.02Z"/><path class="cls-219" d="M21.5356,37.02v-3.352H-204.88V37.02Z"/><path class="cls-220" d="M17.7854,37.02v-3.352H-204.88V37.02Z"/><path class="cls-221" d="M14.0386,37.02v-3.352H-204.88V37.02Z"/><path class="cls-222" d="M10.29,37.02v-3.352H-204.88V37.02Z"/><path class="cls-223" d="M6.5424,37.02v-3.352H-204.88V37.02Z"/><path class="cls-224" d="M2.7931,37.02v-3.352H-204.88V37.02Z"/><rect class="cls-10" x="-204.8803" y="30.9447" width="357.5838" height="2.7236"/><path class="cls-225" d="M148.9566,33.6683V30.9447H-204.88v2.7236Z"/><path class="cls-226" d="M145.2085,33.6683V30.9447H-204.88v2.7236Z"/><path class="cls-226" d="M141.4619,33.6683V30.9447H-204.88v2.7236Z"/><path class="cls-227" d="M137.7122,33.6683V30.9447H-204.88v2.7236Z"/><path class="cls-228" d="M133.9648,33.6683V30.9447H-204.88v2.7236Z"/><path class="cls-229" d="M130.2184,33.6683V30.9447H-204.88v2.7236Z"/><path class="cls-229" d="M126.4685,33.6683V30.9447H-204.88v2.7236Z"/><path class="cls-230" d="M122.7218,33.6683V30.9447H-204.88v2.7236Z"/><path class="cls-231" d="M118.9762,33.6683V30.9447H-204.88v2.7236Z"/><path class="cls-232" d="M115.227,33.6683V30.9447H-204.88v2.7236Z"/><path class="cls-233" d="M111.4821,33.6683V30.9447H-204.88v2.7236Z"/><path class="cls-233" d="M107.73,33.6683V30.9447H-204.88v2.7236Z"/><path class="cls-234" d="M103.9829,33.6683V30.9447H-204.88v2.7236Z"/><path class="cls-235" d="M100.2356,33.6683V30.9447H-204.88v2.7236Z"/><path class="cls-236" d="M96.488,33.6683V30.9447H-204.88v2.7236Z"/><path class="cls-237" d="M92.7413,33.6683V30.9447H-204.88v2.7236Z"/><path class="cls-237" d="M88.9918,33.6683V30.9447H-204.88v2.7236Z"/><path class="cls-238" d="M85.2476,33.6683V30.9447H-204.88v2.7236Z"/><path class="cls-238" d="M81.4954,33.6683V30.9447H-204.88v2.7236Z"/><path class="cls-239" d="M77.75,33.6683V30.9447H-204.88v2.7236Z"/><path class="cls-240" d="M74.0008,33.6683V30.9447H-204.88v2.7236Z"/><path class="cls-240" d="M70.2534,33.6683V30.9447H-204.88v2.7236Z"/><path class="cls-241" d="M66.5062,33.6683V30.9447H-204.88v2.7236Z"/><path class="cls-242" d="M62.759,33.6683V30.9447H-204.88v2.7236Z"/><path class="cls-242" d="M59.01,33.6683V30.9447H-204.88v2.7236Z"/><path class="cls-243" d="M55.2649,33.6683V30.9447H-204.88v2.7236Z"/><path class="cls-243" d="M51.5157,33.6683V30.9447H-204.88v2.7236Z"/><path class="cls-244" d="M47.7681,33.6683V30.9447H-204.88v2.7236Z"/><path class="cls-245" d="M44.0189,33.6683V30.9447H-204.88v2.7236Z"/><path class="cls-246" d="M40.2716,33.6683V30.9447H-204.88v2.7236Z"/><path class="cls-247" d="M36.524,33.6683V30.9447H-204.88v2.7236Z"/><path class="cls-247" d="M32.7771,33.6683V30.9447H-204.88v2.7236Z"/><path class="cls-248" d="M29.0271,33.6683V30.9447H-204.88v2.7236Z"/><path class="cls-249" d="M25.28,33.6683V30.9447H-204.88v2.7236Z"/><path class="cls-250" d="M21.5356,33.6683V30.9447H-204.88v2.7236Z"/><path class="cls-251" d="M17.7854,33.6683V30.9447H-204.88v2.7236Z"/><path class="cls-252" d="M14.0386,33.6683V30.9447H-204.88v2.7236Z"/><path class="cls-252" d="M10.29,33.6683V30.9447H-204.88v2.7236Z"/><path class="cls-253" d="M6.5424,33.6683V30.9447H-204.88v2.7236Z"/><path class="cls-254" d="M2.7931,33.6683V30.9447H-204.88v2.7236Z"/><rect class="cls-9" x="-204.8803" y="25.1906" width="357.5838" height="5.754"/><path class="cls-255" d="M148.9566,30.9447V25.1906H-204.88v5.7541Z"/><path class="cls-256" d="M145.2085,30.9447V25.1906H-204.88v5.7541Z"/><path class="cls-113" d="M141.4619,30.9447V25.1906H-204.88v5.7541Z"/><path class="cls-257" d="M137.7122,30.9447V25.1906H-204.88v5.7541Z"/><path class="cls-258" d="M133.9648,30.9447V25.1906H-204.88v5.7541Z"/><path class="cls-259" d="M130.2184,30.9447V25.1906H-204.88v5.7541Z"/><path class="cls-260" d="M126.4685,30.9447V25.1906H-204.88v5.7541Z"/><path class="cls-261" d="M122.7218,30.9447V25.1906H-204.88v5.7541Z"/><path class="cls-119" d="M118.9762,30.9447V25.1906H-204.88v5.7541Z"/><path class="cls-119" d="M115.227,30.9447V25.1906H-204.88v5.7541Z"/><path class="cls-120" d="M111.4821,30.9447V25.1906H-204.88v5.7541Z"/><path class="cls-262" d="M107.73,30.9447V25.1906H-204.88v5.7541Z"/><path class="cls-122" d="M103.9829,30.9447V25.1906H-204.88v5.7541Z"/><path class="cls-123" d="M100.2356,30.9447V25.1906H-204.88v5.7541Z"/><path class="cls-263" d="M96.488,30.9447V25.1906H-204.88v5.7541Z"/><path class="cls-264" d="M92.7413,30.9447V25.1906H-204.88v5.7541Z"/><path class="cls-126" d="M88.9918,30.9447V25.1906H-204.88v5.7541Z"/><path class="cls-128" d="M85.2476,30.9447V25.1906H-204.88v5.7541Z"/><path class="cls-128" d="M81.4954,30.9447V25.1906H-204.88v5.7541Z"/><path class="cls-265" d="M77.75,30.9447V25.1906H-204.88v5.7541Z"/><path class="cls-130" d="M74.0008,30.9447V25.1906H-204.88v5.7541Z"/><path class="cls-266" d="M70.2534,30.9447V25.1906H-204.88v5.7541Z"/><path class="cls-132" d="M66.5062,30.9447V25.1906H-204.88v5.7541Z"/><path class="cls-267" d="M62.759,30.9447V25.1906H-204.88v5.7541Z"/><path class="cls-134" d="M59.01,30.9447V25.1906H-204.88v5.7541Z"/><path class="cls-268" d="M55.2649,30.9447V25.1906H-204.88v5.7541Z"/><path class="cls-136" d="M51.5157,30.9447V25.1906H-204.88v5.7541Z"/><path class="cls-269" d="M47.7681,30.9447V25.1906H-204.88v5.7541Z"/><path class="cls-270" d="M44.0189,30.9447V25.1906H-204.88v5.7541Z"/><path class="cls-271" d="M40.2716,30.9447V25.1906H-204.88v5.7541Z"/><path class="cls-272" d="M36.524,30.9447V25.1906H-204.88v5.7541Z"/><path class="cls-141" d="M32.7771,30.9447V25.1906H-204.88v5.7541Z"/><path class="cls-142" d="M29.0271,30.9447V25.1906H-204.88v5.7541Z"/><path class="cls-273" d="M25.28,30.9447V25.1906H-204.88v5.7541Z"/><path class="cls-144" d="M21.5356,30.9447V25.1906H-204.88v5.7541Z"/><path class="cls-274" d="M17.7854,30.9447V25.1906H-204.88v5.7541Z"/><path class="cls-274" d="M14.0386,30.9447V25.1906H-204.88v5.7541Z"/><path class="cls-275" d="M10.29,30.9447V25.1906H-204.88v5.7541Z"/><path class="cls-147" d="M6.5424,30.9447V25.1906H-204.88v5.7541Z"/><path class="cls-148" d="M2.7931,30.9447V25.1906H-204.88v5.7541Z"/><rect class="cls-8" x="-204.8803" y="23.4025" width="357.5838" height="1.7882"/><path class="cls-11" d="M148.9566,25.1906V23.4025H-204.88v1.7881Z"/><path class="cls-12" d="M145.2085,25.1906V23.4025H-204.88v1.7881Z"/><path class="cls-13" d="M141.4619,25.1906V23.4025H-204.88v1.7881Z"/><path class="cls-14" d="M137.7122,25.1906V23.4025H-204.88v1.7881Z"/><path class="cls-15" d="M133.9648,25.1906V23.4025H-204.88v1.7881Z"/><path class="cls-16" d="M130.2184,25.1906V23.4025H-204.88v1.7881Z"/><path class="cls-17" d="M126.4685,25.1906V23.4025H-204.88v1.7881Z"/><path class="cls-18" d="M122.7218,25.1906V23.4025H-204.88v1.7881Z"/><path class="cls-19" d="M118.9762,25.1906V23.4025H-204.88v1.7881Z"/><path class="cls-20" d="M115.227,25.1906V23.4025H-204.88v1.7881Z"/><path class="cls-21" d="M111.4821,25.1906V23.4025H-204.88v1.7881Z"/><path class="cls-22" d="M107.73,25.1906V23.4025H-204.88v1.7881Z"/><path class="cls-23" d="M103.9829,25.1906V23.4025H-204.88v1.7881Z"/><path class="cls-24" d="M100.2356,25.1906V23.4025H-204.88v1.7881Z"/><path class="cls-25" d="M96.488,25.1906V23.4025H-204.88v1.7881Z"/><path class="cls-26" d="M92.7413,25.1906V23.4025H-204.88v1.7881Z"/><path class="cls-27" d="M88.9918,25.1906V23.4025H-204.88v1.7881Z"/><path class="cls-28" d="M85.2476,25.1906V23.4025H-204.88v1.7881Z"/><path class="cls-29" d="M81.4954,25.1906V23.4025H-204.88v1.7881Z"/><path class="cls-30" d="M77.75,25.1906V23.4025H-204.88v1.7881Z"/><path class="cls-31" d="M74.0008,25.1906V23.4025H-204.88v1.7881Z"/><path class="cls-32" d="M70.2534,25.1906V23.4025H-204.88v1.7881Z"/><path class="cls-33" d="M66.5062,25.1906V23.4025H-204.88v1.7881Z"/><path class="cls-34" d="M62.759,25.1906V23.4025H-204.88v1.7881Z"/><path class="cls-35" d="M59.01,25.1906V23.4025H-204.88v1.7881Z"/><path class="cls-36" d="M55.2649,25.1906V23.4025H-204.88v1.7881Z"/><path class="cls-37" d="M51.5157,25.1906V23.4025H-204.88v1.7881Z"/><path class="cls-38" d="M47.7681,25.1906V23.4025H-204.88v1.7881Z"/><path class="cls-39" d="M44.0189,25.1906V23.4025H-204.88v1.7881Z"/><path class="cls-40" d="M40.2716,25.1906V23.4025H-204.88v1.7881Z"/><path class="cls-41" d="M36.524,25.1906V23.4025H-204.88v1.7881Z"/><path class="cls-42" d="M32.7771,25.1906V23.4025H-204.88v1.7881Z"/><path class="cls-43" d="M29.0271,25.1906V23.4025H-204.88v1.7881Z"/><path class="cls-44" d="M25.28,25.1906V23.4025H-204.88v1.7881Z"/><path class="cls-45" d="M21.5356,25.1906V23.4025H-204.88v1.7881Z"/><path class="cls-46" d="M17.7854,25.1906V23.4025H-204.88v1.7881Z"/><path class="cls-47" d="M14.0386,25.1906V23.4025H-204.88v1.7881Z"/><path class="cls-48" d="M10.29,25.1906V23.4025H-204.88v1.7881Z"/><path class="cls-49" d="M6.5424,25.1906V23.4025H-204.88v1.7881Z"/><path class="cls-50" d="M2.7931,25.1906V23.4025H-204.88v1.7881Z"/><rect class="cls-7" x="-204.8803" y="21.6142" width="357.5838" height="1.7883"/><path class="cls-185" d="M148.9566,23.4025V21.6142H-204.88v1.7883Z"/><path class="cls-186" d="M145.2085,23.4025V21.6142H-204.88v1.7883Z"/><path class="cls-187" d="M141.4619,23.4025V21.6142H-204.88v1.7883Z"/><path class="cls-188" d="M137.7122,23.4025V21.6142H-204.88v1.7883Z"/><path class="cls-189" d="M133.9648,23.4025V21.6142H-204.88v1.7883Z"/><path class="cls-190" d="M130.2184,23.4025V21.6142H-204.88v1.7883Z"/><path class="cls-191" d="M126.4685,23.4025V21.6142H-204.88v1.7883Z"/><path class="cls-192" d="M122.7218,23.4025V21.6142H-204.88v1.7883Z"/><path class="cls-193" d="M118.9762,23.4025V21.6142H-204.88v1.7883Z"/><path class="cls-194" d="M115.227,23.4025V21.6142H-204.88v1.7883Z"/><path class="cls-195" d="M111.4821,23.4025V21.6142H-204.88v1.7883Z"/><path class="cls-196" d="M107.73,23.4025V21.6142H-204.88v1.7883Z"/><path class="cls-197" d="M103.9829,23.4025V21.6142H-204.88v1.7883Z"/><path class="cls-198" d="M100.2356,23.4025V21.6142H-204.88v1.7883Z"/><path class="cls-199" d="M96.488,23.4025V21.6142H-204.88v1.7883Z"/><path class="cls-200" d="M92.7413,23.4025V21.6142H-204.88v1.7883Z"/><path class="cls-201" d="M88.9918,23.4025V21.6142H-204.88v1.7883Z"/><path class="cls-202" d="M85.2476,23.4025V21.6142H-204.88v1.7883Z"/><path class="cls-203" d="M81.4954,23.4025V21.6142H-204.88v1.7883Z"/><path class="cls-204" d="M77.75,23.4025V21.6142H-204.88v1.7883Z"/><path class="cls-205" d="M74.0008,23.4025V21.6142H-204.88v1.7883Z"/><path class="cls-206" d="M70.2534,23.4025V21.6142H-204.88v1.7883Z"/><path class="cls-207" d="M66.5062,23.4025V21.6142H-204.88v1.7883Z"/><path class="cls-208" d="M62.759,23.4025V21.6142H-204.88v1.7883Z"/><path class="cls-209" d="M59.01,23.4025V21.6142H-204.88v1.7883Z"/><path class="cls-210" d="M55.2649,23.4025V21.6142H-204.88v1.7883Z"/><path class="cls-211" d="M51.5157,23.4025V21.6142H-204.88v1.7883Z"/><path class="cls-212" d="M47.7681,23.4025V21.6142H-204.88v1.7883Z"/><path class="cls-213" d="M44.0189,23.4025V21.6142H-204.88v1.7883Z"/><path class="cls-214" d="M40.2716,23.4025V21.6142H-204.88v1.7883Z"/><path class="cls-215" d="M36.524,23.4025V21.6142H-204.88v1.7883Z"/><path class="cls-216" d="M32.7771,23.4025V21.6142H-204.88v1.7883Z"/><path class="cls-217" d="M29.0271,23.4025V21.6142H-204.88v1.7883Z"/><path class="cls-218" d="M25.28,23.4025V21.6142H-204.88v1.7883Z"/><path class="cls-219" d="M21.5356,23.4025V21.6142H-204.88v1.7883Z"/><path class="cls-220" d="M17.7854,23.4025V21.6142H-204.88v1.7883Z"/><path class="cls-221" d="M14.0386,23.4025V21.6142H-204.88v1.7883Z"/><path class="cls-222" d="M10.29,23.4025V21.6142H-204.88v1.7883Z"/><path class="cls-223" d="M6.5424,23.4025V21.6142H-204.88v1.7883Z"/><path class="cls-224" d="M2.7931,23.4025V21.6142H-204.88v1.7883Z"/><rect class="cls-6" x="-204.8803" y="18.6676" width="357.5838" height="2.9466"/><path class="cls-51" d="M148.9566,21.6142V18.6676H-204.88v2.9466Z"/><path class="cls-51" d="M145.2085,21.6142V18.6676H-204.88v2.9466Z"/><path class="cls-52" d="M141.4619,21.6142V18.6676H-204.88v2.9466Z"/><path class="cls-52" d="M137.7122,21.6142V18.6676H-204.88v2.9466Z"/><path class="cls-53" d="M133.9648,21.6142V18.6676H-204.88v2.9466Z"/><path class="cls-53" d="M130.2184,21.6142V18.6676H-204.88v2.9466Z"/><path class="cls-54" d="M126.4685,21.6142V18.6676H-204.88v2.9466Z"/><path class="cls-54" d="M122.7218,21.6142V18.6676H-204.88v2.9466Z"/><path class="cls-55" d="M118.9762,21.6142V18.6676H-204.88v2.9466Z"/><path class="cls-55" d="M115.227,21.6142V18.6676H-204.88v2.9466Z"/><path class="cls-56" d="M111.4821,21.6142V18.6676H-204.88v2.9466Z"/><path class="cls-56" d="M107.73,21.6142V18.6676H-204.88v2.9466Z"/><path class="cls-57" d="M103.9829,21.6142V18.6676H-204.88v2.9466Z"/><path class="cls-57" d="M100.2356,21.6142V18.6676H-204.88v2.9466Z"/><path class="cls-58" d="M96.488,21.6142V18.6676H-204.88v2.9466Z"/><path class="cls-58" d="M92.7413,21.6142V18.6676H-204.88v2.9466Z"/><path class="cls-59" d="M88.9918,21.6142V18.6676H-204.88v2.9466Z"/><path class="cls-59" d="M85.2476,21.6142V18.6676H-204.88v2.9466Z"/><path class="cls-60" d="M81.4954,21.6142V18.6676H-204.88v2.9466Z"/><path class="cls-60" d="M77.75,21.6142V18.6676H-204.88v2.9466Z"/><path class="cls-61" d="M74.0008,21.6142V18.6676H-204.88v2.9466Z"/><path class="cls-61" d="M70.2534,21.6142V18.6676H-204.88v2.9466Z"/><path class="cls-62" d="M66.5062,21.6142V18.6676H-204.88v2.9466Z"/><path class="cls-62" d="M62.759,21.6142V18.6676H-204.88v2.9466Z"/><path class="cls-63" d="M59.01,21.6142V18.6676H-204.88v2.9466Z"/><path class="cls-64" d="M55.2649,21.6142V18.6676H-204.88v2.9466Z"/><path class="cls-65" d="M51.5157,21.6142V18.6676H-204.88v2.9466Z"/><path class="cls-65" d="M47.7681,21.6142V18.6676H-204.88v2.9466Z"/><path class="cls-66" d="M44.0189,21.6142V18.6676H-204.88v2.9466Z"/><path class="cls-66" d="M40.2716,21.6142V18.6676H-204.88v2.9466Z"/><path class="cls-67" d="M36.524,21.6142V18.6676H-204.88v2.9466Z"/><path class="cls-67" d="M32.7771,21.6142V18.6676H-204.88v2.9466Z"/><path class="cls-68" d="M29.0271,21.6142V18.6676H-204.88v2.9466Z"/><path class="cls-68" d="M25.28,21.6142V18.6676H-204.88v2.9466Z"/><path class="cls-69" d="M21.5356,21.6142V18.6676H-204.88v2.9466Z"/><path class="cls-69" d="M17.7854,21.6142V18.6676H-204.88v2.9466Z"/><path class="cls-70" d="M14.0386,21.6142V18.6676H-204.88v2.9466Z"/><path class="cls-70" d="M10.29,21.6142V18.6676H-204.88v2.9466Z"/><path class="cls-71" d="M6.5424,21.6142V18.6676H-204.88v2.9466Z"/><path class="cls-71" d="M2.7931,21.6142V18.6676H-204.88v2.9466Z"/><rect class="cls-5" x="-204.8803" y="15.7208" width="357.5838" height="2.9469"/><path class="cls-276" d="M148.9566,18.6676V15.7208H-204.88v2.9468Z"/><path class="cls-72" d="M145.2085,18.6676V15.7208H-204.88v2.9468Z"/><path class="cls-73" d="M141.4619,18.6676V15.7208H-204.88v2.9468Z"/><path class="cls-74" d="M137.7122,18.6676V15.7208H-204.88v2.9468Z"/><path class="cls-75" d="M133.9648,18.6676V15.7208H-204.88v2.9468Z"/><path class="cls-76" d="M130.2184,18.6676V15.7208H-204.88v2.9468Z"/><path class="cls-77" d="M126.4685,18.6676V15.7208H-204.88v2.9468Z"/><path class="cls-78" d="M122.7218,18.6676V15.7208H-204.88v2.9468Z"/><path class="cls-79" d="M118.9762,18.6676V15.7208H-204.88v2.9468Z"/><path class="cls-80" d="M115.227,18.6676V15.7208H-204.88v2.9468Z"/><path class="cls-81" d="M111.4821,18.6676V15.7208H-204.88v2.9468Z"/><path class="cls-82" d="M107.73,18.6676V15.7208H-204.88v2.9468Z"/><path class="cls-83" d="M103.9829,18.6676V15.7208H-204.88v2.9468Z"/><path class="cls-84" d="M100.2356,18.6676V15.7208H-204.88v2.9468Z"/><path class="cls-85" d="M96.488,18.6676V15.7208H-204.88v2.9468Z"/><path class="cls-86" d="M92.7413,18.6676V15.7208H-204.88v2.9468Z"/><path class="cls-87" d="M88.9918,18.6676V15.7208H-204.88v2.9468Z"/><path class="cls-88" d="M85.2476,18.6676V15.7208H-204.88v2.9468Z"/><path class="cls-89" d="M81.4954,18.6676V15.7208H-204.88v2.9468Z"/><path class="cls-90" d="M77.75,18.6676V15.7208H-204.88v2.9468Z"/><path class="cls-91" d="M74.0008,18.6676V15.7208H-204.88v2.9468Z"/><path class="cls-92" d="M70.2534,18.6676V15.7208H-204.88v2.9468Z"/><path class="cls-93" d="M66.5062,18.6676V15.7208H-204.88v2.9468Z"/><path class="cls-94" d="M62.759,18.6676V15.7208H-204.88v2.9468Z"/><path class="cls-95" d="M59.01,18.6676V15.7208H-204.88v2.9468Z"/><path class="cls-96" d="M55.2649,18.6676V15.7208H-204.88v2.9468Z"/><path class="cls-97" d="M51.5157,18.6676V15.7208H-204.88v2.9468Z"/><path class="cls-98" d="M47.7681,18.6676V15.7208H-204.88v2.9468Z"/><path class="cls-99" d="M44.0189,18.6676V15.7208H-204.88v2.9468Z"/><path class="cls-100" d="M40.2716,18.6676V15.7208H-204.88v2.9468Z"/><path class="cls-101" d="M36.524,18.6676V15.7208H-204.88v2.9468Z"/><path class="cls-102" d="M32.7771,18.6676V15.7208H-204.88v2.9468Z"/><path class="cls-103" d="M29.0271,18.6676V15.7208H-204.88v2.9468Z"/><path class="cls-104" d="M25.28,18.6676V15.7208H-204.88v2.9468Z"/><path class="cls-105" d="M21.5356,18.6676V15.7208H-204.88v2.9468Z"/><path class="cls-106" d="M17.7854,18.6676V15.7208H-204.88v2.9468Z"/><path class="cls-107" d="M14.0386,18.6676V15.7208H-204.88v2.9468Z"/><path class="cls-108" d="M10.29,18.6676V15.7208H-204.88v2.9468Z"/><path class="cls-109" d="M6.5424,18.6676V15.7208H-204.88v2.9468Z"/><path class="cls-110" d="M2.7931,18.6676V15.7208H-204.88v2.9468Z"/><rect class="cls-10" x="-204.8803" y="42.887" width="357.5838" height="2.5142"/><path class="cls-225" d="M148.9566,45.4012V42.887H-204.88v2.5142Z"/><path class="cls-226" d="M145.2085,45.4012V42.887H-204.88v2.5142Z"/><path class="cls-226" d="M141.4619,45.4012V42.887H-204.88v2.5142Z"/><path class="cls-227" d="M137.7122,45.4012V42.887H-204.88v2.5142Z"/><path class="cls-228" d="M133.9648,45.4012V42.887H-204.88v2.5142Z"/><path class="cls-229" d="M130.2184,45.4012V42.887H-204.88v2.5142Z"/><path class="cls-229" d="M126.4685,45.4012V42.887H-204.88v2.5142Z"/><path class="cls-230" d="M122.7218,45.4012V42.887H-204.88v2.5142Z"/><path class="cls-231" d="M118.9762,45.4012V42.887H-204.88v2.5142Z"/><path class="cls-232" d="M115.227,45.4012V42.887H-204.88v2.5142Z"/><path class="cls-233" d="M111.4821,45.4012V42.887H-204.88v2.5142Z"/><path class="cls-233" d="M107.73,45.4012V42.887H-204.88v2.5142Z"/><path class="cls-234" d="M103.9829,45.4012V42.887H-204.88v2.5142Z"/><path class="cls-235" d="M100.2356,45.4012V42.887H-204.88v2.5142Z"/><path class="cls-236" d="M96.488,45.4012V42.887H-204.88v2.5142Z"/><path class="cls-237" d="M92.7413,45.4012V42.887H-204.88v2.5142Z"/><path class="cls-237" d="M88.9918,45.4012V42.887H-204.88v2.5142Z"/><path class="cls-238" d="M85.2476,45.4012V42.887H-204.88v2.5142Z"/><path class="cls-238" d="M81.4954,45.4012V42.887H-204.88v2.5142Z"/><path class="cls-239" d="M77.75,45.4012V42.887H-204.88v2.5142Z"/><path class="cls-240" d="M74.0008,45.4012V42.887H-204.88v2.5142Z"/><path class="cls-240" d="M70.2534,45.4012V42.887H-204.88v2.5142Z"/><path class="cls-241" d="M66.5062,45.4012V42.887H-204.88v2.5142Z"/><path class="cls-242" d="M62.759,45.4012V42.887H-204.88v2.5142Z"/><path class="cls-242" d="M59.01,45.4012V42.887H-204.88v2.5142Z"/><path class="cls-243" d="M55.2649,45.4012V42.887H-204.88v2.5142Z"/><path class="cls-243" d="M51.5157,45.4012V42.887H-204.88v2.5142Z"/><path class="cls-244" d="M47.7681,45.4012V42.887H-204.88v2.5142Z"/><path class="cls-245" d="M44.0189,45.4012V42.887H-204.88v2.5142Z"/><path class="cls-246" d="M40.2716,45.4012V42.887H-204.88v2.5142Z"/><path class="cls-247" d="M36.524,45.4012V42.887H-204.88v2.5142Z"/><path class="cls-247" d="M32.7771,45.4012V42.887H-204.88v2.5142Z"/><path class="cls-248" d="M29.0271,45.4012V42.887H-204.88v2.5142Z"/><path class="cls-249" d="M25.28,45.4012V42.887H-204.88v2.5142Z"/><path class="cls-250" d="M21.5356,45.4012V42.887H-204.88v2.5142Z"/><path class="cls-251" d="M17.7854,45.4012V42.887H-204.88v2.5142Z"/><path class="cls-252" d="M14.0386,45.4012V42.887H-204.88v2.5142Z"/><path class="cls-252" d="M10.29,45.4012V42.887H-204.88v2.5142Z"/><path class="cls-253" d="M6.5424,45.4012V42.887H-204.88v2.5142Z"/><path class="cls-254" d="M2.7931,45.4012V42.887H-204.88v2.5142Z"/><rect class="cls-4" x="-204.8803" y="11.2499" width="357.5838" height="4.4709"/><path class="cls-149" d="M148.9566,15.7208V11.25H-204.88v4.4709Z"/><path class="cls-150" d="M145.2085,15.7208V11.25H-204.88v4.4709Z"/><path class="cls-151" d="M141.4619,15.7208V11.25H-204.88v4.4709Z"/><path class="cls-152" d="M137.7122,15.7208V11.25H-204.88v4.4709Z"/><path class="cls-153" d="M133.9648,15.7208V11.25H-204.88v4.4709Z"/><path class="cls-154" d="M130.2184,15.7208V11.25H-204.88v4.4709Z"/><path class="cls-155" d="M126.4685,15.7208V11.25H-204.88v4.4709Z"/><path class="cls-155" d="M122.7218,15.7208V11.25H-204.88v4.4709Z"/><path class="cls-156" d="M118.9762,15.7208V11.25H-204.88v4.4709Z"/><path class="cls-157" d="M115.227,15.7208V11.25H-204.88v4.4709Z"/><path class="cls-158" d="M111.4821,15.7208V11.25H-204.88v4.4709Z"/><path class="cls-159" d="M107.73,15.7208V11.25H-204.88v4.4709Z"/><path class="cls-160" d="M103.9829,15.7208V11.25H-204.88v4.4709Z"/><path class="cls-161" d="M100.2356,15.7208V11.25H-204.88v4.4709Z"/><path class="cls-162" d="M96.488,15.7208V11.25H-204.88v4.4709Z"/><path class="cls-163" d="M92.7413,15.7208V11.25H-204.88v4.4709Z"/><path class="cls-164" d="M88.9918,15.7208V11.25H-204.88v4.4709Z"/><path class="cls-165" d="M85.2476,15.7208V11.25H-204.88v4.4709Z"/><path class="cls-166" d="M81.4954,15.7208V11.25H-204.88v4.4709Z"/><path class="cls-167" d="M77.75,15.7208V11.25H-204.88v4.4709Z"/><path class="cls-167" d="M74.0008,15.7208V11.25H-204.88v4.4709Z"/><path class="cls-168" d="M70.2534,15.7208V11.25H-204.88v4.4709Z"/><path class="cls-169" d="M66.5062,15.7208V11.25H-204.88v4.4709Z"/><path class="cls-170" d="M62.759,15.7208V11.25H-204.88v4.4709Z"/><path class="cls-171" d="M59.01,15.7208V11.25H-204.88v4.4709Z"/><path class="cls-172" d="M55.2649,15.7208V11.25H-204.88v4.4709Z"/><path class="cls-173" d="M51.5157,15.7208V11.25H-204.88v4.4709Z"/><path class="cls-174" d="M47.7681,15.7208V11.25H-204.88v4.4709Z"/><path class="cls-174" d="M44.0189,15.7208V11.25H-204.88v4.4709Z"/><path class="cls-175" d="M40.2716,15.7208V11.25H-204.88v4.4709Z"/><path class="cls-176" d="M36.524,15.7208V11.25H-204.88v4.4709Z"/><path class="cls-177" d="M32.7771,15.7208V11.25H-204.88v4.4709Z"/><path class="cls-178" d="M29.0271,15.7208V11.25H-204.88v4.4709Z"/><path class="cls-178" d="M25.28,15.7208V11.25H-204.88v4.4709Z"/><path class="cls-179" d="M21.5356,15.7208V11.25H-204.88v4.4709Z"/><path class="cls-180" d="M17.7854,15.7208V11.25H-204.88v4.4709Z"/><path class="cls-181" d="M14.0386,15.7208V11.25H-204.88v4.4709Z"/><path class="cls-182" d="M10.29,15.7208V11.25H-204.88v4.4709Z"/><path class="cls-183" d="M6.5424,15.7208V11.25H-204.88v4.4709Z"/><path class="cls-184" d="M2.7931,15.7208V11.25H-204.88v4.4709Z"/><rect class="cls-9" x="-204.8803" y="7.1704" width="357.5838" height="4.0795"/><path class="cls-255" d="M148.9566,11.25V7.17H-204.88v4.08Z"/><path class="cls-256" d="M145.2085,11.25V7.17H-204.88v4.08Z"/><path class="cls-113" d="M141.4619,11.25V7.17H-204.88v4.08Z"/><path class="cls-257" d="M137.7122,11.25V7.17H-204.88v4.08Z"/><path class="cls-258" d="M133.9648,11.25V7.17H-204.88v4.08Z"/><path class="cls-259" d="M130.2184,11.25V7.17H-204.88v4.08Z"/><path class="cls-260" d="M126.4685,11.25V7.17H-204.88v4.08Z"/><path class="cls-261" d="M122.7218,11.25V7.17H-204.88v4.08Z"/><path class="cls-119" d="M118.9762,11.25V7.17H-204.88v4.08Z"/><path class="cls-119" d="M115.227,11.25V7.17H-204.88v4.08Z"/><path class="cls-120" d="M111.4821,11.25V7.17H-204.88v4.08Z"/><path class="cls-262" d="M107.73,11.25V7.17H-204.88v4.08Z"/><path class="cls-122" d="M103.9829,11.25V7.17H-204.88v4.08Z"/><path class="cls-123" d="M100.2356,11.25V7.17H-204.88v4.08Z"/><path class="cls-263" d="M96.488,11.25V7.17H-204.88v4.08Z"/><path class="cls-264" d="M92.7413,11.25V7.17H-204.88v4.08Z"/><path class="cls-126" d="M88.9918,11.25V7.17H-204.88v4.08Z"/><path class="cls-128" d="M85.2476,11.25V7.17H-204.88v4.08Z"/><path class="cls-128" d="M81.4954,11.25V7.17H-204.88v4.08Z"/><path class="cls-265" d="M77.75,11.25V7.17H-204.88v4.08Z"/><path class="cls-130" d="M74.0008,11.25V7.17H-204.88v4.08Z"/><path class="cls-266" d="M70.2534,11.25V7.17H-204.88v4.08Z"/><path class="cls-132" d="M66.5062,11.25V7.17H-204.88v4.08Z"/><path class="cls-267" d="M62.759,11.25V7.17H-204.88v4.08Z"/><path class="cls-134" d="M59.01,11.25V7.17H-204.88v4.08Z"/><path class="cls-268" d="M55.2649,11.25V7.17H-204.88v4.08Z"/><path class="cls-136" d="M51.5157,11.25V7.17H-204.88v4.08Z"/><path class="cls-269" d="M47.7681,11.25V7.17H-204.88v4.08Z"/><path class="cls-270" d="M44.0189,11.25V7.17H-204.88v4.08Z"/><path class="cls-271" d="M40.2716,11.25V7.17H-204.88v4.08Z"/><path class="cls-272" d="M36.524,11.25V7.17H-204.88v4.08Z"/><path class="cls-141" d="M32.7771,11.25V7.17H-204.88v4.08Z"/><path class="cls-142" d="M29.0271,11.25V7.17H-204.88v4.08Z"/><path class="cls-273" d="M25.28,11.25V7.17H-204.88v4.08Z"/><path class="cls-144" d="M21.5356,11.25V7.17H-204.88v4.08Z"/><path class="cls-274" d="M17.7854,11.25V7.17H-204.88v4.08Z"/><path class="cls-274" d="M14.0386,11.25V7.17H-204.88v4.08Z"/><path class="cls-275" d="M10.29,11.25V7.17H-204.88v4.08Z"/><path class="cls-147" d="M6.5424,11.25V7.17H-204.88v4.08Z"/><path class="cls-148" d="M2.7931,11.25V7.17H-204.88v4.08Z"/></g><path class="cls-277" d="M10.5624,47.933V47.92a2.2745,2.2745,0,0,1,2.3389-2.295A2.1579,2.1579,0,0,1,14.894,46.77l-1.2134.71a.8549.8549,0,0,0-.7983-.5342.8758.8758,0,0,0-.8238.962V47.92a.87.87,0,0,0,.8238.9741.9011.9011,0,0,0,.83-.5532l1.2133.6855a2.2234,2.2234,0,0,1-2.0805,1.188A2.2422,2.2422,0,0,1,10.5624,47.933Z"/><path class="cls-277" d="M15.2109,45.72h1.4712v3.143H18.75v1.2573H15.2109Z"/><path class="cls-277" d="M18.9091,48.1464V45.72h1.4961v2.4077c0,.5468.2827.7793.6787.7793s.6792-.2139.6792-.7481V45.72h1.4961v2.395a1.9058,1.9058,0,0,1-2.1875,2.0932A1.8845,1.8845,0,0,1,18.9091,48.1464Z"/><path class="cls-277" d="M23.7275,45.72h2.4643a1.6633,1.6633,0,0,1,1.251.396.9386.9386,0,0,1,.2705.685v.0127a1.0286,1.0286,0,0,1-.7861,1.0059c.5659.1631.9307.4648.9307,1.0683v.0127c0,.7041-.5787,1.22-1.691,1.22H23.7275Zm2.0747,1.7285c.314,0,.4653-.107.4653-.3018v-.0127c0-.1948-.1572-.3017-.4717-.3017h-.6347v.6162Zm.0942,1.5591c.32,0,.4839-.1319.4839-.3208v-.0123c0-.1889-.1572-.3208-.4775-.3208h-.7417v.6539Z"/><path class="cls-277" d="M28.1806,45.72h3.7529v1.207H29.6264v.4463h2.15V48.436h-2.15v.4775h2.3389v1.207H28.1806Z"/><path class="cls-277" d="M33.9614,45.72h1.685c1.7476,0,2.6211.8608,2.6211,2.1621v.0127c0,1.3012-.8926,2.2255-2.6719,2.2255H33.9614Zm1.7163,3.1181c.6728,0,1.1064-.2768,1.1064-.9116V47.914c0-.6352-.4336-.9116-1.1064-.9116h-.2451v1.8359Z"/><path class="cls-277" d="M38.6728,45.72h3.7529v1.207H40.1186v.4463h2.15V48.436h-2.15v.4775h2.3389v1.207H38.6728Z"/><path class="cls-277" d="M44.4531,45.72h1.6845c1.7481,0,2.6216.8608,2.6216,2.1621v.0127c0,1.3012-.8926,2.2255-2.6714,2.2255H44.4531Zm1.7163,3.1181c.6723,0,1.1064-.2768,1.1064-.9116V47.914c0-.6352-.4341-.9116-1.1064-.9116h-.2451v1.8359Z"/><path class="cls-277" d="M49.1645,45.72h3.7529v1.207H50.61v.4463h2.15V48.436H50.61v.4775h2.3389v1.207H49.1645Z"/><path class="cls-277" d="M53.3476,45.72H55.812a1.6632,1.6632,0,0,1,1.2509.396.9383.9383,0,0,1,.27.685v.0127a1.0286,1.0286,0,0,1-.7861,1.0059c.5659.1631.9307.4648.9307,1.0683v.0127c0,.7041-.5786,1.22-1.6909,1.22h-2.44Zm2.0747,1.7285c.314,0,.4653-.107.4653-.3018v-.0127c0-.1948-.1572-.3017-.4716-.3017h-.6348v.6162Zm.0942,1.5591c.32,0,.4839-.1319.4839-.3208v-.0123c0-.1889-.1572-.3208-.4775-.3208h-.7417v.6539Z"/><path class="cls-277" d="M59.3349,45.6884h1.458l1.855,4.4321H61.0507l-.2324-.5908h-1.54l-.2266.5908H57.48Zm1.1187,2.7974-.4024-1.0684-.4023,1.0684Z"/><path class="cls-277" d="M63.3915,46.9648H62.0961V45.72h4.0616v1.2446H64.8622v3.1557H63.3915Z"/><path class="cls-277" d="M66.4931,45.72H70.246v1.207H67.9389v.4463h2.15V48.436h-2.15v.4775h2.3389v1.207H66.4931Z"/><path class="cls-277" d="M70.311,49.46l.7861-.9365a2.5236,2.5236,0,0,0,1.54.5156c.2641,0,.3774-.0693.3774-.189v-.0122c0-.126-.1387-.1953-.61-.2895-.9873-.2012-1.855-.4839-1.855-1.4146V47.122c0-.8364.6543-1.4839,1.8672-1.4839a3.0472,3.0472,0,0,1,1.9869.6035l-.7168.9932a2.3082,2.3082,0,0,0-1.32-.4336c-.22,0-.32.0752-.32.1821v.0127c0,.12.1192.1949.5845.2828,1.1255.2075,1.88.5346,1.88,1.4209v.0126c0,.9244-.7608,1.49-1.9429,1.49A3.4005,3.4005,0,0,1,70.311,49.46Z"/><path class="cls-277" d="M60.5815,60.6352l-.0723.5918h-.39l.2143-1.7554h.5806a.8472.8472,0,0,1,.2681.0376.5067.5067,0,0,1,.1831.105.4045.4045,0,0,1,.1054.1577.5606.5606,0,0,1,.0337.1958.777.777,0,0,1-.0439.2656.5626.5626,0,0,1-.1343.212.63.63,0,0,1-.229.14.9564.9564,0,0,1-.3276.05Zm.1084-.8711-.0708.5762h.1889a.3557.3557,0,0,0,.1417-.0249.23.23,0,0,0,.0927-.07.289.289,0,0,0,.0513-.1079A.5752.5752,0,0,0,61.1093,60a.3247.3247,0,0,0-.0137-.0952.202.202,0,0,0-.0429-.0747.1974.1974,0,0,0-.0728-.0488.2822.2822,0,0,0-.1045-.0176Z"/><path class="cls-277" d="M62.6225,59.8232a.15.15,0,0,1-.0415.0425.0914.0914,0,0,1-.05.0131.1.1,0,0,1-.0557-.018c-.018-.0117-.039-.0249-.062-.0391a.4537.4537,0,0,0-.0786-.0395.2865.2865,0,0,0-.105-.0181.28.28,0,0,0-.0971.0156.2.2,0,0,0-.0694.0435.1856.1856,0,0,0-.0415.0649.2331.2331,0,0,0-.0137.0821.1183.1183,0,0,0,.0274.0805.2355.2355,0,0,0,.0723.0572.7017.7017,0,0,0,.1015.0454c.0376.0136.0767.0283.1162.0444a1.2118,1.2118,0,0,1,.1172.0552.4209.4209,0,0,1,.1021.0786.3511.3511,0,0,1,.0722.1128.42.42,0,0,1,.0274.1592.6713.6713,0,0,1-.0459.249.5935.5935,0,0,1-.1314.2041.6283.6283,0,0,1-.208.1387.7487.7487,0,0,1-.4277.0341.8067.8067,0,0,1-.147-.0478.7.7,0,0,1-.13-.0728.4983.4983,0,0,1-.1025-.0937l.14-.1831a.126.126,0,0,1,.041-.0337.1043.1043,0,0,1,.0507-.0137.11.11,0,0,1,.0655.0239l.0708.0523a.4874.4874,0,0,0,.0893.0522.3012.3012,0,0,0,.126.0235.2276.2276,0,0,0,.1694-.06.24.24,0,0,0,.06-.1768.14.14,0,0,0-.0268-.0888.2184.2184,0,0,0-.0713-.0591.5829.5829,0,0,0-.1006-.043c-.0376-.0127-.0762-.0259-.1157-.0405a.8758.8758,0,0,1-.1158-.0513.3566.3566,0,0,1-.1713-.1938.4723.4723,0,0,1-.0274-.1709.5879.5879,0,0,1,.044-.2246.5812.5812,0,0,1,.1259-.1914.6206.6206,0,0,1,.1988-.1329.7073.7073,0,0,1,.4077-.0336.6908.6908,0,0,1,.1323.0434.6046.6046,0,0,1,.1118.0659.4316.4316,0,0,1,.0855.0826Z"/><path class="cls-277" d="M63.6733,60.6352l-.0723.5918h-.39l.2143-1.7554h.5806a.8472.8472,0,0,1,.2681.0376.5067.5067,0,0,1,.1831.105.4045.4045,0,0,1,.1054.1577.5606.5606,0,0,1,.0337.1958.777.777,0,0,1-.0439.2656.5626.5626,0,0,1-.1343.212.63.63,0,0,1-.229.14.9568.9568,0,0,1-.3276.05Zm.1084-.8711-.0708.5762H63.9a.3548.3548,0,0,0,.1416-.0249.23.23,0,0,0,.0928-.07.2905.2905,0,0,0,.0513-.1079A.5752.5752,0,0,0,64.2011,60a.3247.3247,0,0,0-.0137-.0952.202.202,0,0,0-.0429-.0747.1974.1974,0,0,0-.0728-.0488.2822.2822,0,0,0-.1045-.0176Z"/><path class="cls-277" d="M66.3476,60.2368a1.0989,1.0989,0,0,1-.0327.2719,1.0613,1.0613,0,0,1-.0943.2422.9642.9642,0,0,1-.1469.2036.9127.9127,0,0,1-.1934.1563.9583.9583,0,0,1-.2324.1.9765.9765,0,0,1-.2642.0351.7664.7664,0,0,1-.3115-.0605.6876.6876,0,0,1-.2339-.1665.7249.7249,0,0,1-.1479-.2481.903.903,0,0,1-.0513-.3076,1.107,1.107,0,0,1,.0332-.2729,1.0421,1.0421,0,0,1,.0942-.2432.97.97,0,0,1,.1475-.2036.9163.9163,0,0,1,.1939-.1558.9591.9591,0,0,1,.4975-.1357.7638.7638,0,0,1,.3106.061.6767.6767,0,0,1,.2334.167.7368.7368,0,0,1,.1474.249A.92.92,0,0,1,66.3476,60.2368Zm-.4023.0092a.6868.6868,0,0,0-.0259-.1967.4393.4393,0,0,0-.0757-.1519.3455.3455,0,0,0-.1226-.0977.3745.3745,0,0,0-.1635-.0341.4585.4585,0,0,0-.2159.05.4764.4764,0,0,0-.1621.1406.6689.6689,0,0,0-.1025.2173,1.057,1.057,0,0,0-.0352.2812.7258.7258,0,0,0,.0249.1968.4412.4412,0,0,0,.0743.15.3308.3308,0,0,0,.1211.0972.387.387,0,0,0,.165.0341.4538.4538,0,0,0,.3789-.1889.6643.6643,0,0,0,.103-.2173A1.0062,1.0062,0,0,0,65.9453,60.246Z"/><path class="cls-277" d="M66.8671,60.5717l-.08.6553h-.39l.2144-1.7554h.5322a.9608.9608,0,0,1,.2754.0342.528.528,0,0,1,.1865.0947.36.36,0,0,1,.105.1426.47.47,0,0,1,.0332.1792.6278.6278,0,0,1-.0259.1841.5726.5726,0,0,1-.0752.16.55.55,0,0,1-.1211.1289.6377.6377,0,0,1-.163.0922.407.407,0,0,1,.0678.0494.2017.2017,0,0,1,.05.0722l.2554.6182h-.3545a.1678.1678,0,0,1-.083-.019.105.105,0,0,1-.0469-.0557l-.19-.5195a.0944.0944,0,0,0-.0357-.0474.124.124,0,0,0-.0654-.0137Zm.1-.8076-.0664.5361h.1436a.3536.3536,0,0,0,.1435-.0258.2594.2594,0,0,0,.0957-.0689.2785.2785,0,0,0,.0533-.1016.4523.4523,0,0,0,.0161-.1215.2625.2625,0,0,0-.0147-.09.1665.1665,0,0,0-.0449-.0683.217.217,0,0,0-.0771-.0445.3515.3515,0,0,0-.1094-.0156Z"/><path class="cls-277" d="M69.2036,59.4716l-.0411.31h-.4458l-.1782,1.4458h-.3906l.1763-1.4458h-.4483l.0386-.31Z"/><path class="cls-277" d="M69.8515,60.9184a.3075.3075,0,0,0,.1338-.0283.3132.3132,0,0,0,.106-.0806.4386.4386,0,0,0,.0761-.1269.6577.6577,0,0,0,.041-.1675l.1275-1.0435h.393l-.1279,1.0435a.96.96,0,0,1-.0849.2944.78.78,0,0,1-.1675.2315.7553.7553,0,0,1-.2393.1508.8.8,0,0,1-.2988.0542.7184.7184,0,0,1-.2617-.0444.54.54,0,0,1-.1944-.126.546.546,0,0,1-.12-.1943.73.73,0,0,1-.041-.25.962.962,0,0,1,.0073-.1167l.125-1.0435h.3931l-.1279,1.0435c-.0015.0141-.003.0288-.0035.0425s-.0014.0278-.0014.0415a.3648.3648,0,0,0,.0683.2343A.2371.2371,0,0,0,69.8515,60.9184Z"/><path class="cls-277" d="M71.5434,60.9438a.6137.6137,0,0,0,.13-.0127.5644.5644,0,0,0,.1108-.0356l.0342-.2867h-.1494a.0792.0792,0,0,1-.0523-.0156.0534.0534,0,0,1-.018-.042l.0268-.2265h.5855l-.0918.7338a.9477.9477,0,0,1-.14.085.9351.9351,0,0,1-.1508.0581,1.1075,1.1075,0,0,1-.1665.0337,1.4986,1.4986,0,0,1-.1861.0107.7191.7191,0,0,1-.2969-.0595.68.68,0,0,1-.23-.1641.7375.7375,0,0,1-.148-.2485.8951.8951,0,0,1-.0527-.3106,1.1415,1.1415,0,0,1,.0332-.2778,1.0225,1.0225,0,0,1,.0947-.2442.97.97,0,0,1,.1475-.2021.9234.9234,0,0,1,.1919-.1543.8946.8946,0,0,1,.227-.0981.9824.9824,0,0,1,.4585-.0142.7763.7763,0,0,1,.1631.0552.6423.6423,0,0,1,.1289.0791.8475.8475,0,0,1,.1.0937l-.1279.1577a.1252.1252,0,0,1-.0977.0528.12.12,0,0,1-.0659-.0215c-.0293-.0186-.0561-.0347-.081-.0488a.4517.4517,0,0,0-.0752-.0347.4649.4649,0,0,0-.0806-.0215.575.575,0,0,0-.0957-.0068.457.457,0,0,0-.21.0483.485.485,0,0,0-.1635.1377.6584.6584,0,0,0-.107.2124.93.93,0,0,0-.0376.2735.7047.7047,0,0,0,.0283.208.4425.4425,0,0,0,.08.1552.3432.3432,0,0,0,.124.0972A.3731.3731,0,0,0,71.5434,60.9438Z"/><path class="cls-277" d="M73.8129,61.227h-.3037a.13.13,0,0,1-.081-.0234.0942.0942,0,0,1-.0367-.0621l-.0542-.3159h-.5966l-.13.3159a.1331.1331,0,0,1-.0523.06.15.15,0,0,1-.0854.0259H72.165l.8384-1.7554h.4023Zm-.9624-.6685h.4409l-.0854-.5014c-.0073-.042-.0151-.084-.0239-.127s-.0152-.0825-.021-.1177c-.0064.02-.0147.0411-.0254.066l-.03.0713c-.01.0234-.02.0454-.0293.0654s-.0156.0346-.0195.0444Z"/><path class="cls-277" d="M74.3432,60.9135h.59l-.0385.3135h-.9829l.2167-1.7554h.3926Z"/><polygon class="cls-278" points="60.933 55.045 60.003 55.975 59.073 55.045 60.003 54.115 60.002 54.115 59.072 55.045 62.309 58.281 64.169 58.281 60.933 55.045"/><polygon class="cls-279" points="60.003 55.975 60.933 55.045 64.197 51.781 62.309 51.809 60.003 54.115 59.073 55.045 60.003 55.975"/><polygon class="cls-278" points="63.458 55.045 62.528 55.975 61.598 55.045 62.528 54.115 62.527 54.115 61.597 55.045 64.834 58.281 66.694 58.281 63.458 55.045"/><polygon class="cls-279" points="62.528 55.975 63.458 55.045 66.723 51.781 64.834 51.809 62.528 54.115 61.598 55.045 62.528 55.975"/><polygon class="cls-278" points="65.984 55.045 65.055 55.975 64.125 55.045 65.054 54.115 65.054 54.115 64.123 55.045 67.36 58.281 69.22 58.281 65.984 55.045"/><polygon class="cls-279" points="65.055 55.975 65.984 55.045 69.249 51.781 67.36 51.809 65.054 54.115 64.125 55.045 65.055 55.975"/><polygon class="cls-278" points="68.546 55.045 67.617 55.975 66.687 55.045 67.616 54.115 67.616 54.115 66.686 55.045 69.922 58.281 71.782 58.281 68.546 55.045"/><polygon class="cls-279" points="67.617 55.975 68.546 55.045 71.811 51.781 69.922 51.809 67.616 54.115 66.687 55.045 67.617 55.975"/><polygon class="cls-278" points="71.073 55.045 70.143 55.975 69.213 55.045 70.143 54.115 70.142 54.115 69.212 55.045 72.448 58.281 74.309 58.281 71.073 55.045"/><polygon class="cls-279" points="70.143 55.975 71.073 55.045 74.337 51.781 72.448 51.809 70.143 54.115 69.213 55.045 70.143 55.975"/><polygon class="cls-278" points="73.636 55.045 72.706 55.975 71.776 55.045 72.706 54.115 72.705 54.115 71.775 55.045 75.012 58.281 76.872 58.281 73.636 55.045"/><polygon class="cls-279" points="72.706 55.975 73.636 55.045 76.9 51.781 75.012 51.809 72.706 54.115 71.776 55.045 72.706 55.975"/><polygon class="cls-278" points="50.741 55.045 49.812 55.975 48.882 55.045 49.811 54.115 49.811 54.115 48.881 55.045 52.117 58.281 53.977 58.281 50.741 55.045"/><polygon class="cls-279" points="49.812 55.975 50.741 55.045 54.006 51.781 52.117 51.809 49.811 54.115 48.882 55.045 49.812 55.975"/><polygon class="cls-278" points="53.267 55.045 52.337 55.975 51.407 55.045 52.336 54.115 52.336 54.115 51.406 55.045 54.642 58.281 56.503 58.281 53.267 55.045"/><polygon class="cls-279" points="52.337 55.975 53.267 55.045 56.531 51.781 54.642 51.809 52.336 54.115 51.407 55.045 52.337 55.975"/><polygon class="cls-278" points="55.793 55.045 54.863 55.975 53.933 55.045 54.863 54.115 54.862 54.115 53.932 55.045 57.168 58.281 59.029 58.281 55.793 55.045"/><polygon class="cls-279" points="54.863 55.975 55.793 55.045 59.057 51.781 57.168 51.809 54.863 54.115 53.933 55.045 54.863 55.975"/><polygon class="cls-278" points="58.355 55.045 57.425 55.975 56.495 55.045 57.425 54.115 57.424 54.115 56.494 55.045 59.731 58.281 61.591 58.281 58.355 55.045"/><polygon class="cls-279" points="57.425 55.975 58.355 55.045 61.619 51.781 59.731 51.809 57.425 54.115 56.495 55.045 57.425 55.975"/><polygon class="cls-278" points="40.602 55.045 39.672 55.975 38.742 55.045 39.671 54.115 39.671 54.115 38.741 55.045 41.977 58.281 43.838 58.281 40.602 55.045"/><polygon class="cls-279" points="39.672 55.975 40.602 55.045 43.866 51.781 41.977 51.809 39.671 54.115 38.742 55.045 39.672 55.975"/><polygon class="cls-278" points="43.127 55.045 42.197 55.975 41.267 55.045 42.197 54.115 42.196 54.115 41.266 55.045 44.502 58.281 46.363 58.281 43.127 55.045"/><polygon class="cls-279" points="42.197 55.975 43.127 55.045 46.391 51.781 44.502 51.809 42.197 54.115 41.267 55.045 42.197 55.975"/><polygon class="cls-278" points="45.653 55.045 44.723 55.975 43.793 55.045 44.723 54.115 44.722 54.115 43.792 55.045 47.029 58.281 48.889 58.281 45.653 55.045"/><polygon class="cls-279" points="44.723 55.975 45.653 55.045 48.917 51.781 47.029 51.809 44.723 54.115 43.793 55.045 44.723 55.975"/><polygon class="cls-278" points="48.215 55.045 47.285 55.975 46.355 55.045 47.285 54.115 47.284 54.115 46.354 55.045 49.591 58.281 51.451 58.281 48.215 55.045"/><polygon class="cls-279" points="47.285 55.975 48.215 55.045 51.48 51.781 49.591 51.809 47.285 54.115 46.355 55.045 47.285 55.975"/><polygon class="cls-278" points="50.741 55.045 49.812 55.975 48.882 55.045 49.811 54.115 49.811 54.115 48.881 55.045 52.117 58.281 53.977 58.281 50.741 55.045"/><polygon class="cls-279" points="49.812 55.975 50.741 55.045 54.006 51.781 52.117 51.809 49.811 54.115 48.882 55.045 49.812 55.975"/><polygon class="cls-278" points="30.41 55.045 29.48 55.975 28.55 55.045 29.48 54.115 29.479 54.115 28.549 55.045 31.786 58.281 33.646 58.281 30.41 55.045"/><polygon class="cls-279" points="29.48 55.975 30.41 55.045 33.675 51.781 31.786 51.809 29.48 54.115 28.55 55.045 29.48 55.975"/><polygon class="cls-278" points="32.935 55.045 32.006 55.975 31.075 55.045 32.005 54.115 32.005 54.115 31.074 55.045 34.311 58.281 36.171 58.281 32.935 55.045"/><polygon class="cls-279" points="32.006 55.975 32.935 55.045 36.2 51.781 34.311 51.809 32.005 54.115 31.075 55.045 32.006 55.975"/><polygon class="cls-278" points="35.461 55.045 34.532 55.975 33.602 55.045 34.531 54.115 34.531 54.115 33.601 55.045 36.837 58.281 38.698 58.281 35.461 55.045"/><polygon class="cls-279" points="34.532 55.975 35.461 55.045 38.726 51.781 36.837 51.809 34.531 54.115 33.602 55.045 34.532 55.975"/><polygon class="cls-278" points="38.024 55.045 37.094 55.975 36.164 55.045 37.093 54.115 37.093 54.115 36.163 55.045 39.399 58.281 41.26 58.281 38.024 55.045"/><polygon class="cls-279" points="37.094 55.975 38.024 55.045 41.288 51.781 39.399 51.809 37.093 54.115 36.164 55.045 37.094 55.975"/><polygon class="cls-278" points="20.27 55.045 19.341 55.975 18.41 55.045 19.34 54.115 19.339 54.115 18.409 55.045 21.646 58.281 23.506 58.281 20.27 55.045"/><polygon class="cls-279" points="19.341 55.975 20.27 55.045 23.535 51.781 21.646 51.809 19.34 54.115 18.41 55.045 19.341 55.975"/><polygon class="cls-278" points="22.795 55.045 21.866 55.975 20.936 55.045 21.865 54.115 21.865 54.115 20.935 55.045 24.171 58.281 26.031 58.281 22.795 55.045"/><polygon class="cls-279" points="21.866 55.975 22.795 55.045 26.06 51.781 24.171 51.809 21.865 54.115 20.936 55.045 21.866 55.975"/><polygon class="cls-278" points="25.322 55.045 24.392 55.975 23.462 55.045 24.392 54.115 24.391 54.115 23.461 55.045 26.697 58.281 28.558 58.281 25.322 55.045"/><polygon class="cls-279" points="24.392 55.975 25.322 55.045 28.586 51.781 26.697 51.809 24.392 54.115 23.462 55.045 24.392 55.975"/><polygon class="cls-278" points="27.884 55.045 26.954 55.975 26.024 55.045 26.954 54.115 26.953 54.115 26.023 55.045 29.259 58.281 31.12 58.281 27.884 55.045"/><polygon class="cls-279" points="26.954 55.975 27.884 55.045 31.148 51.781 29.259 51.809 26.954 54.115 26.024 55.045 26.954 55.975"/><polygon class="cls-278" points="30.41 55.045 29.48 55.975 28.55 55.045 29.48 54.115 29.479 54.115 28.549 55.045 31.786 58.281 33.646 58.281 30.41 55.045"/><polygon class="cls-279" points="29.48 55.975 30.41 55.045 33.675 51.781 31.786 51.809 29.48 54.115 28.55 55.045 29.48 55.975"/><polygon class="cls-278" points="10.079 55.045 9.149 55.975 8.219 55.045 9.149 54.115 9.148 54.115 8.218 55.045 11.454 58.281 13.315 58.281 10.079 55.045"/><polygon class="cls-279" points="9.149 55.975 10.079 55.045 13.343 51.781 11.454 51.809 9.149 54.115 8.219 55.045 9.149 55.975"/><polygon class="cls-278" points="12.604 55.045 11.674 55.975 10.744 55.045 11.674 54.115 11.673 54.115 10.743 55.045 13.98 58.281 15.84 58.281 12.604 55.045"/><polygon class="cls-279" points="11.674 55.975 12.604 55.045 15.868 51.781 13.98 51.809 11.674 54.115 10.744 55.045 11.674 55.975"/><polygon class="cls-278" points="15.13 55.045 14.2 55.975 13.27 55.045 14.2 54.115 14.199 54.115 13.269 55.045 16.506 58.281 18.366 58.281 15.13 55.045"/><polygon class="cls-279" points="14.2 55.975 15.13 55.045 18.395 51.781 16.506 51.809 14.2 54.115 13.27 55.045 14.2 55.975"/><polygon class="cls-278" points="17.692 55.045 16.763 55.975 15.832 55.045 16.762 54.115 16.762 54.115 15.831 55.045 19.068 58.281 20.928 58.281 17.692 55.045"/><polygon class="cls-279" points="16.763 55.975 17.692 55.045 20.957 51.781 19.068 51.809 16.762 54.115 15.832 55.045 16.763 55.975"/><polygon class="cls-280" points="11.427 40.425 12.357 39.495 13.287 40.425 12.357 41.355 12.358 41.356 13.288 40.426 10.051 37.189 8.191 37.189 11.427 40.425"/><polygon class="cls-281" points="12.357 39.495 11.427 40.425 8.162 43.689 10.051 43.661 12.357 41.355 13.287 40.425 12.357 39.495"/><polygon class="cls-280" points="13.953 40.425 14.882 39.495 15.812 40.425 14.883 41.355 14.883 41.356 15.814 40.426 12.577 37.189 10.717 37.189 13.953 40.425"/><polygon class="cls-281" points="14.882 39.495 13.953 40.425 10.688 43.689 12.577 43.661 14.883 41.355 15.812 40.425 14.882 39.495"/><polygon class="cls-280" points="16.53 40.425 17.459 39.495 18.389 40.425 17.46 41.355 17.46 41.356 18.39 40.426 15.154 37.189 13.294 37.189 16.53 40.425"/><polygon class="cls-281" points="17.459 39.495 16.53 40.425 13.265 43.689 15.154 43.661 17.46 41.355 18.389 40.425 17.459 39.495"/><polygon class="cls-280" points="19.066 40.425 19.996 39.495 20.926 40.425 19.996 41.355 19.997 41.356 20.927 40.426 17.69 37.189 15.83 37.189 19.066 40.425"/><polygon class="cls-281" points="19.996 39.495 19.066 40.425 15.801 43.689 17.69 43.661 19.996 41.355 20.926 40.425 19.996 39.495"/><polygon class="cls-280" points="21.566 40.425 22.496 39.495 23.426 40.425 22.496 41.355 22.497 41.356 23.427 40.426 20.191 37.189 18.33 37.189 21.566 40.425"/><polygon class="cls-281" points="22.496 39.495 21.566 40.425 18.302 43.689 20.191 43.661 22.496 41.355 23.426 40.425 22.496 39.495"/><polygon class="cls-280" points="21.566 40.425 22.496 39.495 23.426 40.425 22.496 41.355 22.497 41.356 23.427 40.426 20.191 37.189 18.33 37.189 21.566 40.425"/><polygon class="cls-281" points="22.496 39.495 21.566 40.425 18.302 43.689 20.191 43.661 22.496 41.355 23.426 40.425 22.496 39.495"/><polygon class="cls-280" points="24.092 40.425 25.022 39.495 25.952 40.425 25.022 41.355 25.023 41.356 25.953 40.426 22.716 37.189 20.856 37.189 24.092 40.425"/><polygon class="cls-281" points="25.022 39.495 24.092 40.425 20.827 43.689 22.716 43.661 25.022 41.355 25.952 40.425 25.022 39.495"/><polygon class="cls-280" points="26.669 40.425 27.599 39.495 28.529 40.425 27.599 41.355 27.6 41.356 28.53 40.426 25.293 37.189 23.433 37.189 26.669 40.425"/><polygon class="cls-281" points="27.599 39.495 26.669 40.425 23.404 43.689 25.293 43.661 27.599 41.355 28.529 40.425 27.599 39.495"/><polygon class="cls-280" points="29.205 40.425 30.135 39.495 31.065 40.425 30.135 41.355 30.136 41.356 31.066 40.426 27.829 37.189 25.969 37.189 29.205 40.425"/><polygon class="cls-281" points="30.135 39.495 29.205 40.425 25.941 43.689 27.829 43.661 30.135 41.355 31.065 40.425 30.135 39.495"/><polygon class="cls-280" points="31.706 40.425 32.635 39.495 33.565 40.425 32.636 41.355 32.636 41.356 33.566 40.426 30.33 37.189 28.47 37.189 31.706 40.425"/><polygon class="cls-281" points="32.635 39.495 31.706 40.425 28.441 43.689 30.33 43.661 32.636 41.355 33.565 40.425 32.635 39.495"/><polygon class="cls-280" points="31.706 40.425 32.635 39.495 33.565 40.425 32.636 41.355 32.636 41.356 33.566 40.426 30.33 37.189 28.47 37.189 31.706 40.425"/><polygon class="cls-281" points="32.635 39.495 31.706 40.425 28.441 43.689 30.33 43.661 32.636 41.355 33.565 40.425 32.635 39.495"/><polygon class="cls-280" points="34.231 40.425 35.161 39.495 36.091 40.425 35.161 41.355 35.162 41.356 36.092 40.426 32.856 37.189 30.995 37.189 34.231 40.425"/><polygon class="cls-281" points="35.161 39.495 34.231 40.425 30.967 43.689 32.856 43.661 35.161 41.355 36.091 40.425 35.161 39.495"/><polygon class="cls-280" points="36.808 40.425 37.738 39.495 38.668 40.425 37.738 41.355 37.739 41.356 38.669 40.426 35.432 37.189 33.572 37.189 36.808 40.425"/><polygon class="cls-281" points="37.738 39.495 36.808 40.425 33.544 43.689 35.432 43.661 37.738 41.355 38.668 40.425 37.738 39.495"/><polygon class="cls-280" points="39.344 40.425 40.274 39.495 41.204 40.425 40.275 41.355 40.275 41.356 41.205 40.426 37.969 37.189 36.108 37.189 39.344 40.425"/><polygon class="cls-281" points="40.274 39.495 39.344 40.425 36.08 43.689 37.969 43.661 40.275 41.355 41.204 40.425 40.274 39.495"/><polygon class="cls-280" points="41.845 40.425 42.775 39.495 43.705 40.425 42.775 41.355 42.776 41.356 43.706 40.426 40.469 37.189 38.609 37.189 41.845 40.425"/><polygon class="cls-281" points="42.775 39.495 41.845 40.425 38.58 43.689 40.469 43.661 42.775 41.355 43.705 40.425 42.775 39.495"/><polygon class="cls-280" points="41.845 40.425 42.775 39.495 43.705 40.425 42.775 41.355 42.776 41.356 43.706 40.426 40.469 37.189 38.609 37.189 41.845 40.425"/><polygon class="cls-281" points="42.775 39.495 41.845 40.425 38.58 43.689 40.469 43.661 42.775 41.355 43.705 40.425 42.775 39.495"/><polygon class="cls-280" points="44.371 40.425 45.3 39.495 46.23 40.425 45.301 41.355 45.301 41.356 46.231 40.426 42.995 37.189 41.135 37.189 44.371 40.425"/><polygon class="cls-281" points="45.3 39.495 44.371 40.425 41.106 43.689 42.995 43.661 45.301 41.355 46.23 40.425 45.3 39.495"/><polygon class="cls-280" points="46.947 40.425 47.877 39.495 48.807 40.425 47.878 41.355 47.878 41.356 48.808 40.426 45.572 37.189 43.711 37.189 46.947 40.425"/><polygon class="cls-281" points="47.877 39.495 46.947 40.425 43.683 43.689 45.572 43.661 47.878 41.355 48.807 40.425 47.877 39.495"/><polygon class="cls-280" points="49.484 40.425 50.413 39.495 51.344 40.425 50.414 41.355 50.414 41.356 51.345 40.426 48.108 37.189 46.248 37.189 49.484 40.425"/><polygon class="cls-281" points="50.413 39.495 49.484 40.425 46.219 43.689 48.108 43.661 50.414 41.355 51.344 40.425 50.413 39.495"/><polygon class="cls-280" points="51.984 40.425 52.914 39.495 53.844 40.425 52.914 41.355 52.915 41.356 53.845 40.426 50.608 37.189 48.748 37.189 51.984 40.425"/><polygon class="cls-281" points="52.914 39.495 51.984 40.425 48.72 43.689 50.608 43.661 52.914 41.355 53.844 40.425 52.914 39.495"/><polygon class="cls-280" points="52.073 40.425 53.002 39.495 53.933 40.425 53.003 41.355 53.004 41.356 53.934 40.426 50.697 37.189 48.837 37.189 52.073 40.425"/><polygon class="cls-281" points="53.002 39.495 52.073 40.425 48.808 43.689 50.697 43.661 53.003 41.355 53.933 40.425 53.002 39.495"/><polygon class="cls-280" points="54.599 40.425 55.528 39.495 56.458 40.425 55.529 41.355 55.529 41.356 56.459 40.426 53.223 37.189 51.362 37.189 54.599 40.425"/><polygon class="cls-281" points="55.528 39.495 54.599 40.425 51.334 43.689 53.223 43.661 55.529 41.355 56.458 40.425 55.528 39.495"/><polygon class="cls-280" points="57.175 40.425 58.105 39.495 59.035 40.425 58.106 41.355 58.106 41.356 59.036 40.426 55.8 37.189 53.939 37.189 57.175 40.425"/><polygon class="cls-281" points="58.105 39.495 57.175 40.425 53.911 43.689 55.8 43.661 58.106 41.355 59.035 40.425 58.105 39.495"/><polygon class="cls-280" points="59.712 40.425 60.641 39.495 61.571 40.425 60.642 41.355 60.642 41.356 61.572 40.426 58.336 37.189 56.476 37.189 59.712 40.425"/><polygon class="cls-281" points="60.641 39.495 59.712 40.425 56.447 43.689 58.336 43.661 60.642 41.355 61.571 40.425 60.641 39.495"/><polygon class="cls-280" points="62.212 40.425 63.142 39.495 64.072 40.425 63.142 41.355 63.143 41.356 64.073 40.426 60.836 37.189 58.976 37.189 62.212 40.425"/><polygon class="cls-281" points="63.142 39.495 62.212 40.425 58.948 43.689 60.836 43.661 63.142 41.355 64.072 40.425 63.142 39.495"/><polygon class="cls-280" points="62.212 40.425 63.142 39.495 64.072 40.425 63.142 41.355 63.143 41.356 64.073 40.426 60.836 37.189 58.976 37.189 62.212 40.425"/><polygon class="cls-280" points="64.738 40.425 65.668 39.495 66.598 40.425 65.668 41.355 65.669 41.356 66.599 40.426 63.362 37.189 61.502 37.189 64.738 40.425"/><polygon class="cls-281" points="65.668 39.495 64.738 40.425 61.473 43.689 63.362 43.661 65.668 41.355 66.598 40.425 65.668 39.495"/><polygon class="cls-280" points="67.315 40.425 68.244 39.495 69.175 40.425 68.245 41.355 68.245 41.356 69.176 40.426 65.939 37.189 64.079 37.189 67.315 40.425"/><polygon class="cls-281" points="68.244 39.495 67.315 40.425 64.05 43.689 65.939 43.661 68.245 41.355 69.175 40.425 68.244 39.495"/><polygon class="cls-280" points="69.851 40.425 70.781 39.495 71.711 40.425 70.781 41.355 70.782 41.356 71.712 40.426 68.475 37.189 66.615 37.189 69.851 40.425"/><polygon class="cls-281" points="70.781 39.495 69.851 40.425 66.586 43.689 68.475 43.661 70.781 41.355 71.711 40.425 70.781 39.495"/><polygon class="cls-280" points="72.351 40.425 73.281 39.495 74.211 40.425 73.282 41.355 73.282 41.356 74.212 40.426 70.976 37.189 69.115 37.189 72.351 40.425"/><polygon class="cls-281" points="73.281 39.495 72.351 40.425 69.087 43.689 70.976 43.661 73.282 41.355 74.211 40.425 73.281 39.495"/><polygon class="cls-280" points="74.852 40.425 75.782 39.495 76.712 40.425 75.782 41.355 75.783 41.356 76.713 40.426 73.476 37.189 71.616 37.189 74.852 40.425"/><polygon class="cls-281" points="75.782 39.495 74.852 40.425 71.587 43.689 73.476 43.661 75.782 41.355 76.712 40.425 75.782 39.495"/></svg>